<svg xmlns="http://www.w3.org/2000/svg" xmlns:xlink="http://www.w3.org/1999/xlink" version="1.1" x="0px" y="0px" viewBox="0 0 100 125" style="enable-background:new 0 0 100 100;" xml:space="preserve"><path d="M30.4,41c1.4,0.4,2.4-0.5,3.6-1.3c3.8-2.6,7.5-5.4,12-7c2.2-0.8,4.1-0.5,6.2,0.7c2.4,1.3,3.9,3.4,5.5,5.4  c0.3,0.4,0.6,0.5,1,0.5c5.8,0.1,11.3,1.5,16.8,3.4c3.6,1.3,7,3.1,9.8,5.9c0.4,0.4,0.7,0.4,1.2,0.2c0.7-0.3,1.4-0.6,2-1.1  c1.5-1.4,3.3-2.4,5-3.5c0.7-0.5,1.6,0.1,1.9,1.3c0.4,1.2,0.3,2.6-0.2,3.7c-1,2.5-0.6,4.5,0.9,6.7c1.1,1.5,1.2,3.7,1.4,5.6  c0.1,0.9-0.5,1.2-1.4,0.9c-2.3-0.8-4.6-1.6-7-2.3c-0.5-0.2-0.9,0.1-1.2,0.5c-1.2,1.1-2.4,2.2-3.7,3.1c-3.9,2.7-8.4,4.2-13,5.4  c-3.1,0.7-6.1,1.7-9.2,2.3c-3.2,0.7-6.4,1.1-9.7,1.3c-4.6,0.4-9.2,0-13.8-0.3c-4.1-0.3-8.3-0.3-12.2-1.6c-1.8-0.6-3.4,0.4-5,1.1  c-1,0.4-1.6,0.5-1.5-0.9c0-0.8-0.4-1.3-1.4-1.5c-1.5-0.3-3-0.4-4.6-0.3c-1.7,0-3.5,0.4-5.1-0.8c-0.6-0.4-0.9-0.7-0.7-1.5  c0.2-1-0.2-1.8-1.2-2.1c-3.6-1.3-5.3-7.2-2.7-11c2.1-3.1,5-4.5,8.2-5.6c3.3-1.2,6.2-3.2,9.4-4.6C24.3,42.2,27.2,41,30.4,41z   M21.9,62.2c-0.1,0.3-0.2,0.7-0.6,0.9c-1.1,0.3-2.1,0.7-3.2,0.9c-1.3,0.3-2.5,1.1-3.8,1.4c3.2,0.1,3.2,0.1,3,1.5  c2.2-0.7,3.8-2.1,5-4C22.5,62.6,22.7,62.2,21.9,62.2c-0.8-0.5-1.6-1.4-2.7-1.1c-2.1,0.6-4.7,0.1-6.3,2.2c-0.4,0.5-0.9-0.2-1.4,0.3  c-0.6,0.6-0.1,1.4-0.6,2C14.4,63.6,18.2,63,21.9,62.2z M51.8,36.8c0.6-0.1,1.1-0.4,1.7-0.7c-3.1-2.6-5-3.4-8.6-1.3  c-0.9,0.6-1.8,1.2-2.8,1.6c-0.9,0.4-1.7,1-2.6,2c1.1,0.1,1.5-0.6,2.1-0.8c2.6-1,5.1-2.1,7.6-3.1c0.4-0.1,0.8-0.6,1.1,0  c0.3,0.6-0.1,0.9-0.6,1c-1.8,0.7-3.7,1.5-5.5,2.2c-1.6,0.7-3.2,1.4-4.5,2.5c0.7-0.1,1.3,0.5,2.1,0.1c1.4-0.8,2.8-1.6,4.2-2.5  c1.4-0.8,2.9-1.6,4.5-2C50.9,35.8,51.6,35.6,51.8,36.8c-3.1,0.5-5.7,1.9-8.4,3.8c1.5,0.4,2.4,0.1,3.4-0.7  C48.2,38.6,50.2,38,51.8,36.8z M69.7,49.1c0.1,1.1,0,2,0.1,2.8c0.1,0.6,0.1,1.2-0.5,1.3c-0.8,0.1-0.5-0.7-0.5-1.1  c-0.2-2-0.6-3.7-3-4.3c-1-0.2-1.1,0-1,0.8c0.2,1.2,0.4,2.3,0.3,3.5c0,0.3,0.1,0.9-0.5,0.8c-0.4,0-0.7-0.3-0.7-0.8c0-0.7,0-1.3,0-2  c-0.1-2.7-1.2-3.9-3.8-4.3c-0.7-0.1-0.8,0-0.7,0.7c0.3,1.8,0.4,3.6-0.1,5.4c-0.1,0.4-0.3,0.8-0.7,0.7c-0.5-0.1-0.6-0.5-0.4-1  c0.7-1.4,0.4-2.9,0.1-4.3c-0.2-1.4-0.4-3-2.4-3.1c-0.7-0.1-1.5-0.3-2.2-0.5c-0.4-0.1-0.8-0.3-1.1,0c-0.2,0.3-0.1,0.8,0.1,1.2  c1.9,3.8,1.3,7.8,1,11.7c0,0.4-0.2,0.7-0.6,0.7c-0.4,0-0.6-0.3-0.6-0.7c0-0.7-0.1-1.3,0-2c0.5-3,0.3-5.9-0.6-8.9  c-0.6-2-1.4-3.4-3.8-3.2c-0.5,0-1-0.3-1.4,0.1c-0.4,0.4,0.1,0.9,0.3,1.3c0.9,2.1,1.6,4.2,1.1,6.6c-0.1,0.4,0,1.1-0.5,1  c-0.6,0-0.3-0.7-0.3-1c0-1.9-0.3-3.7-0.9-5.4C46,42.6,45,42,42.4,42.2c-0.7,0-0.8,0.2-0.6,0.9c0.4,1.1,0.7,2.1,1,3.2  c0.7,2.4,0.1,4.7-0.3,7.1c-0.1,0.5,0,1.1-0.7,1c-0.8-0.1-0.5-0.8-0.4-1.3c0.7-2.5,0.6-5,0-7.5c-0.9-3.4-1.3-3.8-4.8-3.7  c-1.1,0-1.5,0.2-0.9,1.4c1.4,2.9,2.2,5.9,1.1,9.2c-0.2,0.5-0.1,1.3-0.8,1.1c-0.7-0.1-0.3-0.8-0.2-1.3c0.7-2.6,0.5-5.1-0.6-7.6  c-0.9-2.2-1.2-2.5-3.6-2.5c-1.6,0-1.8,0.2-1,1.7c1,1.8,1.7,3.7,1.5,5.8c-0.2,1.9-0.5,3.7-1.2,5.5c-0.1,0.4-0.2,1.1-0.8,0.9  c-0.7-0.2-0.5-0.8-0.4-1.3c0.4-1.3,0.7-2.6,0.9-3.9c0.6-2.8-0.1-5.2-1.6-7.5c-0.8-1.2-1.8-0.4-2.7-0.3c-1.1,0-0.1,0.7-0.2,1  c-0.4,1.3,0.4,2.5,0.9,3.6c1.4,3.1,1.5,6.2,0.2,9.4c-0.2,0.4-0.1,1.3-0.9,1c-0.6-0.2-0.4-0.8-0.3-1.3c0.5-2.6,1.3-5.2,0.1-7.8  c-0.5-0.9-0.7-2-1.2-2.9c-0.5-0.9-0.7-1.8,0.2-2.9c-5,2.1-9.3,4.6-12.9,8.4c0.5,0,0.8,0,1.1,0.1c0.6,0,1.4-0.4,1.5,0.6  c0.1,0.8-0.8,0.6-1.3,0.7c-0.8,0.3-1.3,0.4-0.4,1.4c1.3,1.3,3,2.1,4.4,3.4c0.8,0.7,1.4,1.5,2.4,2c2.2,1,4.4,2,6.9,2.5  c2.4,0.4,4.7,1.4,7.3,1.8c-0.6-1.5-0.2-2.8,0-4.1c0.3-1.6,0.9-3,2.1-4.1c1.1-1,2.3-0.7,3,0.5c0.1,0.3,0.3,0.6,0.6,0.8  c2.2,2,4.5,4,6.7,6c0.7,0.7,1.5,0.8,2.4,0.6c1.9-0.5,3.7-1.1,5.6-1.6c1.6-0.5,3-1.6,4.6-1.7c1.2-0.1,1.6-0.7,1.5-1.7  c-0.1-1.6,0.3-3,0.8-4.5c0.3-1,1.1-1,1.7-0.5c1.2,1.1,2.7,1.8,4,2.7c0.8,0.6,1.6,0.6,2.5,0.4c3.3-0.8,6.4-1.9,9.9-1.9  c1.5,0,3.1,0,4.5,0.6c0.9,0.3,0.9-0.5,1.1-0.8c0.5-0.7-0.4-0.3-0.5-0.5c-0.4-0.6-0.2-1.5-1.2-1.7c-0.1,0,0.2-0.3,0.4-0.4  c0.3-0.2,0.7-0.4,1-0.5c3.2-0.7,5.6-3.2,8.7-4c0.7-0.2,0.9-1.1,0.6-1.7c-0.5-0.8-1-0.1-1.4,0.2c-0.4,0.2-0.9,0.5-1.2,0.8  c-2.1,2.3-4.8,3.5-7.6,4.5c-1.5,0.5-3.1,0.5-4.6,0.2C76.1,50.8,73,50,69.7,49.1z M42.4,68.6c2.7,0,5.5,0.2,8.1-0.1  c4.5-0.5,8.9-0.6,13.4-1.6c5.5-1.2,11-2.1,15.8-5.2c1.6-1,3.3-1.8,4.6-3.3c0.7-0.9,0.5-1.1-0.5-1.6c-1.7-0.8-3.3-0.6-5-0.5  c-3,0.2-5.9,0.7-8.8,2.1c1.2,0.7,2.3,1.3,3.5,1.9c1.4,0.8,1.4,1.7,0.2,2.8c-2.1,1.8-4.6,2.5-7.2,2.6c-2.7,0.1-4.7-0.8-5.4-3.4  c-0.4-1.4-1.1-1.1-2-0.7c-3.5,1.6-7.1,2.7-10.9,3.5c-0.4,0.1-0.9,0.2-1,0.7c-0.2,0.7-0.8,0.9-1.3,1.3C44.9,67.9,43.5,67.8,42.4,68.6  z M27.2,69.3c1.2,0.7,2.5,0.8,3.7,0.9c5.9,0.9,11.9,0.4,17.8,1.1c4.1,0.5,8.1-0.6,12.1-1.4c4.5-0.8,8.9-2,13.2-3.4  c4.5-1.5,8.9-3.3,12.1-7c0.2-0.2,0.6-0.3,0.4-0.7c-0.1,0-0.2,0-0.2,0c-0.2,0.1-0.4,0.3-0.5,0.4c-3.1,2.9-6.7,4.9-10.7,6.3  c-3.4,1.1-6.9,1.9-10.3,2.7c-4.9,1-9.8,1.7-14.8,1.5c-1,0-2-0.3-2.9,0.1c-0.8,0.3-1.7,0.3-2.5,0.2c-3.7-0.5-7.5,0-11.2-0.8  c-0.9-0.2-1.9-0.1-2.6-0.5C29,67.9,28.5,67.9,27.2,69.3z M55.7,42.4c0.3,0,0.4,0.1,0.6,0c4.5-0.3,9,0.7,13.4,1.5  c4.4,0.8,8.3,2.9,11.9,5.5c0.7,0.5,1.6,0.7,2,0c0.3-0.5-0.5-0.9-1-1.3c-3.8-2.7-8.1-4.1-12.5-5.5c-3.3-1-6.8-1.3-10.2-1.8  C58.2,40.7,56.7,40.4,55.7,42.4z M17.5,59.7c-1.1-1.8-3-2.5-4.5-3.7c-0.6-0.5-1.2-1.6-2.4-1.2c-1.1,0.3-1.8,1.1-2.6,1.8  c-0.8,0.7-0.8,1.5,0,2.2c1.1,0.9,2.3,1.8,3.7,2.4c0.4,0.2,0.8,0.3,1.2,0.1C14.4,60.5,16,60.2,17.5,59.7z M10.7,62.4  c-0.2-0.1-0.3-0.3-0.5-0.4c-1.2-0.7-2.4-1.6-3.4-2.6c-1.5-1.4-0.8-4.1,1.4-5.9c1.1-0.9,2.1-1.9,2.8-3.4c-1.7,0.5-2.8,1.7-4,2.6  c-2.9,2.1-3.8,4.9-2.4,8.2c0.7,1.6,2.2,2.5,3.7,2.9C9.4,64.2,10,63,10.7,62.4z M60.6,44.4c6,2.6,12.3,4.4,18.8,5.4  C73.5,46.4,67.3,44.5,60.6,44.4z M47.2,40.8c1.6,0.6,2.3,0.7,2.5,0.3c0.8-1.9,2.8-1.8,4.3-2.7c0.2-0.1,0.6-0.4,0.9,0.2  c-1.7,0.6-3,1.8-4.5,2.7c0.2,0.4,0.6,0.3,0.8,0.2c1.5-0.7,2.8-1.7,4.4-2.2c0.3-0.1,0.3-0.3,0.2-0.5c-0.5-0.6-0.8-1.5-1.8-1.3  C51.5,38.3,49.2,39,47.2,40.8z M37.9,68.4c-1.3-0.6-2.3-1.5-2.8-2.9c-0.1-0.3-0.3-0.5-0.5-0.3c-0.7,0.4-1.3,0-1.9-0.1  c-1-0.2-1.5,0.4-1.9,1.1c-0.2,0.3-0.2,0.5,0.2,0.6C33.2,67.4,35.4,68.5,37.9,68.4z M85.3,52.6c3-0.4,5.6-1.8,8.3-3  c0.4-0.2,0.3-0.6,0.2-0.9c-0.2-0.4-0.4-0.2-0.7,0c-0.9,0.6-1.9,1-2.9,1.5C88.7,51.1,87,51.9,85.3,52.6z M24.5,69  c1.4-0.3,4.6-3,5.4-4.4c-0.7,0.2-1.4-0.6-1.8,0.1C27.2,66.3,25.9,67.7,24.5,69z M90,56.4c1.5,1.8,3.5,2.4,5,3.8  c0.2,0.2,0.6,0.5,0.8,0.1c0.1-0.2,0-0.7-0.1-0.8C93.9,58.7,92.3,57.2,90,56.4z M26.5,63.9c-2.3-1.1-2.8-0.8-3.5,1.6  C24.1,65,25.2,64.5,26.5,63.9z M88.6,53.1c4,0,4.1-0.1,4.3-1.8C91.5,51.8,90.2,52.4,88.6,53.1z M89.2,55.1c1.4,0.1,2.5,0.1,3.7,0.2  c0.3,0,0.6,0.1,0.8-0.1c0.1-0.1,0.1-0.4,0-0.5c-0.2-0.4-0.5-0.2-0.9-0.2C91.7,54.5,90.5,54.6,89.2,55.1z M36.4,64.1  c0.5,1.9,2.3,3.1,4,2.8C38.8,66.4,37.7,65.3,36.4,64.1z M66.5,61.3c0.9-0.7,0.9-1.7,1.7-2.2c0.2-0.1,0.3-0.2,0.1-0.4  c-0.2-0.2-0.6-0.2-0.6-0.1C67.2,59.4,66,59.9,66.5,61.3z M39.1,38.8c-1.1,0.1-2.1,0.6-2.9,1.2c-0.2,0.1-0.4,0.3-0.2,0.6  c0.2,0.2,0.4,0.1,0.6,0C37.4,39.9,38.3,39.4,39.1,38.8z M25.5,65.6c-0.9,0.4-1.8,0.2-2.2,1c-0.1,0.2,0.4,0.5,0.7,0.5  C24.9,67.2,25.2,66.6,25.5,65.6z M41.9,60.9c-1,0.2-1.5,0.6-2,1.2c-0.2,0.3-0.5,0.7-0.2,0.9c0.5,0.4,0.5-0.4,0.7-0.5  C41.2,62.2,41.4,61.6,41.9,60.9z M43.1,65.1c0.8,0,1.3-0.3,1.7-0.8c0.3-0.3,0.5-0.6,0-0.9c-0.6-0.4-0.6,0.1-0.8,0.4  C43.8,64.1,43.5,64.5,43.1,65.1z M64.9,62c-0.3-0.7,0.7-1.2-0.1-1.7c-0.3-0.2-0.8-0.2-1,0.2C63.6,61.3,64.1,61.7,64.9,62z   M37.8,56.8c-1.4,1.1-1.6,2.2-1.3,3.5C36.8,59.2,37.2,58.1,37.8,56.8z M41.1,65.6c-0.8-1.5-0.8-1.5-2.2-0.7  C39.8,65,40.2,65.8,41.1,65.6z M22.6,67c-1.1-0.2-1.8,0.2-1.8,1.4C21.7,68.2,21.9,67.3,22.6,67z"/><path d="M25.1,53.9c0.3,1.5-0.5,2.8-1.7,3.9c-0.2,0.2-0.4,0.6-0.8,0.3c-0.4-0.3-0.3-0.6-0.1-1c1-1.4,1.6-2.9,1.4-4.6  c0-0.5,0.3-0.9,0.7-1c0.5,0,0.5,0.6,0.5,1C25.1,52.9,25.1,53.2,25.1,53.9z"/><path d="M15.7,51.4c1-0.7,1.8-1.3,2.3-2.1c0.4-0.5,1-1,1.7-0.7c0.5,0.2,0.8,0.9,0.6,1.4c-0.3,0.8-0.9,1.6-1.7,1.5  C17.8,51.4,16.9,51.5,15.7,51.4z"/><path d="M19.9,52.6c1.5-1.4,1.6-2.9,0.2-4.4c-0.3-0.3-0.3-0.8-0.1-1c0.3-0.4,0.8-0.2,1.2,0c1.2,0.9,1.5,4,0.5,5.1  C21.2,52.9,20.6,52.9,19.9,52.6z"/><path d="M46.8,55.1c0.2-0.9,0.3-1.7,0.5-2.5c0.1-0.4,0.4-0.6,0.7-0.5c0.5,0.1,0.3,0.5,0.2,0.8c-0.2,0.8-0.4,1.5-0.6,2.3  c-0.1,0.3-0.1,0.7-0.5,0.7C46.7,55.9,47,55.4,46.8,55.1z"/><text x="0" y="115" fill="#000000" font-size="5px" font-weight="bold" font-family="'Helvetica Neue', Helvetica, Arial-Unicode, Arial, Sans-serif">Created by Olga</text><text x="0" y="120" fill="#000000" font-size="5px" font-weight="bold" font-family="'Helvetica Neue', Helvetica, Arial-Unicode, Arial, Sans-serif">from the Noun Project</text></svg>