<svg xmlns="http://www.w3.org/2000/svg" data-name="Слой 1" viewBox="0 0 100 125" x="0px" y="0px"><title>bbq</title><path d="M28.821,56.75262c0.0912-1.46111-1.33434-1.8275-1.75361-2.88239a0.59058,0.59058,0,0,0-.80642-0.34926,44.87058,44.87058,0,0,1-5.7869,1.34761c-0.93123.14937-1.74622,0.73275-2.70851,0.85539a0.95219,0.95219,0,0,0-.68375.739,7.67421,7.67421,0,0,1-1.49571,2.56311,3.16348,3.16348,0,0,1-2.1678.6451c-1.65564.20629-2.301-1.06263-3.09214-2.09689a2.631,2.631,0,0,1-.09245-3.1067,3.26976,3.26976,0,0,1,3.55456-.91467,4.74553,4.74553,0,0,1,1.08577,1.107c0.19006,0.19147.00489,0.40522-.11857,0.58764a0.32857,0.32857,0,0,1-.495.07244,10.26437,10.26437,0,0,1-1.327-.60674,0.95151,0.95151,0,0,0-1.24652.13787,1.007,1.007,0,0,0-.33016,1.18244,4.58556,4.58556,0,0,0,.55046,1.25872,1.27315,1.27315,0,0,0,1.4858.67955c1.69275-.34331,2.39886-0.88656,2.69929-2.47973a1.42059,1.42059,0,0,1,1.38975-1.21736c1.81033-.34476,3.60406-0.78291,5.39435-1.22446a21.99088,21.99088,0,0,1,3.34853-.72605,1.04714,1.04714,0,0,0,.76347-0.66324,10.09421,10.09421,0,0,1,1.47617-2.05086,1.11675,1.11675,0,0,1,1.25335-.36521,1.87143,1.87143,0,0,0,2.21827-.70846,1.15746,1.15746,0,0,1,1.765-.16891c0.2994,0.27274.39679,0.21357,0.62822-.01192a11.04161,11.04161,0,0,0,1.39126-2.27386,5.535,5.535,0,0,1,.98679-2.22263,3.13354,3.13354,0,0,0,.292-3.00687,13.59808,13.59808,0,0,1-.76291-2.65409,3.86525,3.86525,0,0,1,2.03991-2.92447,1.54814,1.54814,0,0,0,.3787-0.12792c0.228-.1636.50356-0.55825,0.69981-0.13658,0.156,0.33513-.31693.39862-0.584,0.51452a3.33449,3.33449,0,0,0-1.66273,3.42582,10.97685,10.97685,0,0,1,.76606,3.40284,3.23253,3.23253,0,0,1-.77286,2.07433,2.66659,2.66659,0,0,0-.7399,2.17146,0.54469,0.54469,0,0,0,.52694.60447,0.76353,0.76353,0,0,0,.85779-0.28c0.65606-1.09826,1.31669-1.13555,2.17086-.1751,0.10745,0.1208.20164,0.25338,0.3495,0.44077,0.85083-1.36221,2.29481-1.319,3.5936-1.61637a0.11594,0.11594,0,0,1,.08087.00121c1.071,0.80863.98667-.1142,1.182-0.74622a1.0371,1.0371,0,0,1,1.71785-.14,1.22033,1.22033,0,0,0,1.549.5457,8.53066,8.53066,0,0,1,1.97158-.54677c0.49827-.01462.42822-0.7084,0.76077-0.98842a0.64018,0.64018,0,0,0,.0805-1.07875,1.20683,1.20683,0,0,1,.04606-1.18564,9.49417,9.49417,0,0,1,.9696-2.07282,2.37874,2.37874,0,0,0,.06317-2.83936,2.2647,2.2647,0,0,1,.04474-2.65791,21.31261,21.31261,0,0,0,1.68067-2.54547,0.49583,0.49583,0,0,1,.74093-0.28283c0.34683,0.21839.16931,0.4808,0.01486,0.70152-0.59454.84972-1.34385,1.57905-1.88272,2.47717a1.43072,1.43072,0,0,0-.111,1.576c0.52447,1.06126,1.014,2.18833.39621,3.42425a15.35908,15.35908,0,0,0-1.11323,1.7775c-0.09677.28161-.26279,0.53856-0.3787,0.81458-0.334.79532-.23,0.95508,0.62134,0.9582a1.98951,1.98951,0,0,1,1.33484.27873,0.52505,0.52505,0,0,0,.61519-0.03931,22.98051,22.98051,0,0,1,2.38259-1.05326c0.67705-.31144.85163-0.02976,0.95763,0.541a0.6916,0.6916,0,0,0,.29677.73454c0.33631-.54443.68331-1.09345,1.01751-1.65013a1.56465,1.56465,0,0,1,2.06932-.85169,0.43007,0.43007,0,0,0,.57011-0.11495,3.79682,3.79682,0,0,1,4.1763-.85606c0.162,0.09006.20361,0.19161,0.30879-.072a2.50048,2.50048,0,0,1,1.19788-.94718,0.56067,0.56067,0,0,1,.89136.25808c0.17663,0.54124.47694,0.47219,0.88986,0.34645A11.35293,11.35293,0,0,1,70.20654,39.1c1.18351-.22386,1.64108.08127,1.88292,1.2618,0.02173,0.1062-.00084.22135,0.02,0.32787,0.11452,0.58454.1927,0.88634,1.05107,0.695,3.12069-.69571,6.18866-1.59838,9.31267-2.27947,1.58052-.34456,3.06817-1.0535,4.65253-1.43795a2.84358,2.84358,0,0,1,1.33155.206,0.31182,0.31182,0,0,1,.19382.40158,0.58822,0.58822,0,0,1-.46509.504c-1.12333.38322-2.31562,0.57843-3.41675,0.94095-2.78391.91656-5.70113,1.23435-8.48631,2.12851A27.72186,27.72186,0,0,1,73.09131,43.064c-0.56725.10873-.3797,0.6407-0.21684,0.94091a0.87588,0.87588,0,0,1-.43839,1.32769,4.79293,4.79293,0,0,1-4.54422.78725,1.52115,1.52115,0,0,0-1.13155.18576,5.58269,5.58269,0,0,1-3.522.63958,0.24524,0.24524,0,0,0-.31229.18319c-0.64082,1.53241-1.678,1.79065-2.86086.69615a2.68407,2.68407,0,0,0-.956-0.7346c0.4767,1.09023-.22991,2.02609-1.56757,2.22647-1.13451.17-2.26017,0.4-3.3883,0.61123a1.87494,1.87494,0,0,1-1.826-.40359c-0.958-.91881-1.87783-1.82877-1.82023-3.29975a0.75835,0.75835,0,0,0-.38765-0.71053,16.245,16.245,0,0,0,.50036,3.25059,2.9,2.9,0,0,1-.89585-1.92972c-0.02893-.10329-0.00585-0.2201-0.02521-0.32735a0.8661,0.8661,0,0,0-.17012-0.74252,0.30982,0.30982,0,0,0-.20766.09152c-0.28094.23745-.08632,0.47587-0.02242,0.73852,0.102,0.41953.215,0.86364-.39706,1.0718a0.40237,0.40237,0,0,0-.26076.65683,1.769,1.769,0,0,0,.09008.30583c0.31166,0.224-.16676.91431,0.56227,0.8949,0.7316-.0195.30457-0.66268,0.61871-1.11466,0.04992,1.07988.562,1.10328,1.25864,0.80137a0.33734,0.33734,0,0,1,.48785.15912,0.5,0.5,0,0,1-.10873.533A1.65709,1.65709,0,0,1,50.348,50.339a1.58052,1.58052,0,0,0-1.60244,1.00074c-0.46387,1.14026-.96517,1.25571-1.89086.45436-0.36935-.31975-0.50416-0.20321-0.84291.01044a7.07264,7.07264,0,0,1-3.28753.98936,0.62825,0.62825,0,0,1-.6481-0.48456,16.10365,16.10365,0,0,0-.84335-1.6796,14.74465,14.74465,0,0,1-.20237,1.53227c-0.15417.62162-.47877,0.99141-1.168,0.552-0.34118-.21755-0.64243-0.39458-0.90612.16577a0.72008,0.72008,0,0,1-.96457.21849c-0.75094-.33913-1.44943.08038-2.17289,0.05841-0.31607-.00961-0.2662.27722-0.2847,0.49091-0.11621,1.34293-.63431,1.88839-1.91611,1.95958a20.31155,20.31155,0,0,0-4.301,1.038c0.62968,0.24821,1.16447.44149,1.68284,0.6717a0.54382,0.54382,0,0,0,.61036.00412,2.344,2.344,0,0,1,2.87541.19656,1.12577,1.12577,0,0,0,1.43069-.0031,6.63729,6.63729,0,0,1,4.0857-1.111,1.83176,1.83176,0,0,1,1.88119,1.35962,2.83689,2.83689,0,0,1,.2422,1.33267,3.33671,3.33671,0,0,0,.66453-1.29391,2.15974,2.15974,0,0,1,3.04018-1.41408,3.31273,3.31273,0,0,1,.78927.99917c0.23615,0.2265.48249,0.68648,0.709,0.00092a0.42311,0.42311,0,0,1,.51448-0.288,2.86851,2.86851,0,0,0,1.83211-.60747,3.54016,3.54016,0,0,1,1.67657-.57447,1.1501,1.1501,0,0,1,1.50321.87984c0.20687,0.69513.7541,1.27851,1.02191,1.99638,0.17084,0.45792.52356,0.37142,0.79341-.03591,0.43942-.6633,1.02567-1.21091,1.51787-1.82706a2.55959,2.55959,0,0,1,2.95021-.80953A26.78654,26.78654,0,0,1,63.92572,57.9a1.27916,1.27916,0,0,0,1.78818-.33,2.94134,2.94134,0,0,1,3.66556.26822,2.31179,2.31179,0,0,0,2.04143.744,3.98656,3.98656,0,0,1,1.5342.20993,5.20705,5.20705,0,0,0,1.67727.29578,1.94219,1.94219,0,0,1,2.095.73317c0.40864,0.65731,1.176,1.08161,1.29576,1.9289a0.34416,0.34416,0,0,0,.40228.36131c1.216,0.10423,2.43051.03864,3.64566,0.05149a38.42227,38.42227,0,0,1,4.12674-.02738c1.22221,0.14251,2.482-.02491,3.72659.07761,1.46131,0.12034,2.92709.18622,4.38953,0.29468a1.71889,1.71889,0,0,0,.95629-0.13674,1.47347,1.47347,0,0,1,1.39215.12389,0.71715,0.71715,0,0,1,.56305.78466,0.86337,0.86337,0,0,1-.87783.6298c-2.41241.00422-4.82543,0.01126-7.237-.03939a25.03708,25.03708,0,0,0-2.6218.13182c-1.81369.1514-3.583-.3564-5.384-0.4248-0.7323-.02779-1.46513-0.04156-2.19774-0.0608-0.424-.01114-0.43007.1887-0.29526,0.52051a1.15582,1.15582,0,0,1-.395,1.37282A18.12924,18.12924,0,0,1,73.83268,68.484a1.62445,1.62445,0,0,1-.79272.13017c-1.80718.01293-3.61532-.013-5.42107,0.04174a0.73785,0.73785,0,0,1-.75257-0.5905,4.99409,4.99409,0,0,0-.94989-1.73009,1.11828,1.11828,0,0,1-1.05346.88282,15.63215,15.63215,0,0,0-3.37159,1.57455,0.92692,0.92692,0,0,1-.68339.17516,7.09292,7.09292,0,0,0-2.23733.08089,17.56426,17.56426,0,0,1-2.45536-.17388,3.393,3.393,0,0,0-.7207-0.08559c-0.47963.041-.82168-0.05067-0.758-0.65019a0.67677,0.67677,0,0,0-.41676-0.66012,0.59188,0.59188,0,0,0-.67559.34166,1.95863,1.95863,0,0,1-2.34956.72686,4.92178,4.92178,0,0,0-2.71951-.04359,4.83035,4.83035,0,0,1-4.91693-1.06309c-0.78762-.823-1.131-0.52708-1.75.06484a2.41891,2.41891,0,0,1-2.12769.8748,10.35574,10.35574,0,0,1-1.70452-.6866,8.22928,8.22928,0,0,0-.98727-0.36115,0.70424,0.70424,0,0,0-.93475.22473,1.49518,1.49518,0,0,1-1.97042.38465q-0.89594-.4817-1.813-0.92343c-0.17257-.08292-0.39153-0.34583-0.57083-0.06874-0.405.6259-1.21578,0.41873-1.68835,0.86326-0.38646.3635-.7888-0.14386-1.2326,0.11971-1.07457.63819-1.763,0.00513-2.32849-.87938a1.80733,1.80733,0,0,0-.57644-0.58173,6.42022,6.42022,0,0,1-2.48-3.5327c-0.10069-.24853-0.12679-0.4469-0.46216-0.40695a29.07541,29.07541,0,0,1-3.63836.38206c-2.32463-.01938-4.6456.50579-6.97907-0.00951a17.9857,17.9857,0,0,0-2.27285-.18073c-1.19674-.10526-1.68513-0.47161-1.77179-1.62727a2.28053,2.28053,0,0,0-1.80913-2.18986A2.24472,2.24472,0,0,0,4.286,61.0312c-0.05123.54439-.33652,1.20785,0.519,1.5118,1.21688,0.4323,1.62065.38674,2.236-.41535,0.17088-.22272.33213-0.44644,0.669-0.27021a0.60944,0.60944,0,0,1,.29158.76906,2.1977,2.1977,0,0,1-2.6119,1.49845,3.23057,3.23057,0,0,1-2.62706-3.281c-0.01023-.97006-0.12623-1.95435.88123-2.62674a5.33505,5.33505,0,0,1,5.42845-.0464,3.11412,3.11412,0,0,1,.98236,1.91177c0.35186,1.0617.88915,1.43093,2.3644,1.62184a2.45689,2.45689,0,0,0,.41143.001c2.69207-.10881,5.38958-0.15051,8.07314-0.36583a9.02083,9.02083,0,0,0,2.81672-.23946A1.16683,1.16683,0,0,0,24.40559,60.53c0.66246-1.156,1.375-2.28582,2.12055-3.39053a1.07952,1.07952,0,0,1,1.42267-.46117A2.20323,2.20323,0,0,0,28.821,56.75262Zm6.98187,1.89476c-0.66632.03609-1.0909,0.59892-.70753,1.01411a3.08154,3.08154,0,0,0,1.43017,1.18889,6.9636,6.9636,0,0,1,.59932-2.55384c0.07419-.14883.30559-0.625-0.13883-0.47525a1.52711,1.52711,0,0,0-1.19462.83985Zm12.72375,1.594c0.17356,0.20388-.23554.47247,0.03354,0.61989a0.85633,0.85633,0,0,0,.6938-0.16336,0.72179,0.72179,0,0,0,.37781-0.30109c0.4403-.9018.8559-1.81566,1.27949-2.7256a29.27649,29.27649,0,0,1-2.41092,2.5963c0.21023-1.37793,1.36915-2.15511,2.06614-3.24145-1.911.64-2.637,1.68272-3.06381,3.91562-0.81959-.33217-0.65492-0.90081-0.37144-1.52284a5.396,5.396,0,0,1,.55794-0.89856c0.11115-.15522.32357-0.39285,0.01681-0.55177a0.36274,0.36274,0,0,0-.56554.27545,19.82591,19.82591,0,0,1-.75311,2.91342c-0.13212.503,0.183,0.43483,0.42675,0.33633C47.48419,61.223,48.363,61.21491,48.52659,60.24139ZM43.01621,48.09213l-0.02352-.026q-0.01843.69466-.037,1.38933c-0.00615.21932,0.2886,0.5721-.06132,0.62629-0.40053.062-.24455-0.3857-0.29618-0.6132-0.16165-.71272-0.1827-1.52989-1.26946-1.40608a9.77484,9.77484,0,0,1,.28872,1.14858,18.613,18.613,0,0,1,.5373,2.18785,0.60741,0.60741,0,0,0,.54451.61788c0.51747,0.07122.34623-.50147,0.637-0.60475,0.486-.17261.077,0.68518,0.57682,0.513a0.22883,0.22883,0,0,0,.07385-0.03533,6.08233,6.08233,0,0,1,1.30223-.59737,0.41364,0.41364,0,0,0,.25973-0.53673,33.12826,33.12826,0,0,1-1.14275-3.63388,0.82209,0.82209,0,0,0-1.02567-.59028,0.91314,0.91314,0,0,0-.94577.45679A0.88358,0.88358,0,0,0,43.01621,48.09213ZM45.78759,58.8299a2.90809,2.90809,0,0,0-.06613-1.14388c-0.19911-.85553-0.83042-1.03639-1.50488-0.44591a2.33857,2.33857,0,0,0-.404.50895,8.098,8.098,0,0,0-.6601,7.993,4.06555,4.06555,0,0,0,3.7853,2.05681c0.46475-.09006.62431-0.36587,0.41232-0.75685-0.27-.49789-0.61613-0.9548-0.93351-1.42663a4.23083,4.23083,0,0,1-.97008-2.88376A30.83553,30.83553,0,0,1,45.78759,58.8299ZM34.13377,66.654c1.02155,0.01319,1.27873-.35365.90206-1.3155-0.25647-.655-0.55985-1.29238-0.79988-1.953a12.03629,12.03629,0,0,1-.51966-4.43593,1.12782,1.12782,0,0,0-1.48807-1.06691,5.25512,5.25512,0,0,0-1.95082,3.5199A10.42076,10.42076,0,0,0,31.4627,64.924,3.073,3.073,0,0,0,34.13377,66.654Zm30.2393-7.40029a20.75633,20.75633,0,0,0-3.67272,2.74418,0.51658,0.51658,0,0,0-.12094.2047c-0.65856,1.78757-.19231,3.48865.40435,5.17849a0.33378,0.33378,0,0,0,.45329.23424,7.9038,7.9038,0,0,0,.95858-0.40954c0.82833-.42711,1.27057-1.34753,2.15743-1.70439a0.22489,0.22489,0,0,0,.13238-0.33276c-0.31012-.417-0.095-1.10523-0.7209-1.36-0.17665-.07192-0.07695-0.21089-0.05382-0.37442A24.815,24.815,0,0,1,64.37308,59.25374Zm2.7546-1.52909a1.18387,1.18387,0,0,0-1.25191.856,8.31588,8.31588,0,0,0-.81082,3.7779c-0.002.45-.12914,1.33129,0.45739,1.39629,0.43494,0.04817.84592-.64016,1.1288-1.16322,0.62725-1.15978,1.24209-2.35666,2.59109-2.87121,0.2568-.098.19732-0.23188,0.15009-0.4443A2.2017,2.2017,0,0,0,67.12767,57.72465Zm6.2688,2.93835a3.476,3.476,0,0,1-.31273,1.52863,4.37589,4.37589,0,0,0-.42261,1.46935c0.264-.13214.49479-0.05016,0.56685-0.48144a4.1295,4.1295,0,0,1,1.592-2.74571,0.39924,0.39924,0,0,0,.14428-0.3371,0.43018,0.43018,0,0,0-.34916-0.173,10.16667,10.16667,0,0,1-2.70236-.536c-1.33557-.19835-1.3725-0.21009-1.90751,1.03392,0.88825-.02682.91549,0.28374,0.452,0.94826a12.05713,12.05713,0,0,0-1.10553,2.70351,0.35355,0.35355,0,0,0,.01942.38771,1.05022,1.05022,0,0,0,1.54343-.31048c0.41153-.94288.77109-1.91028,1.22511-2.83158,0.12223-.248.19975-0.85728,0.62966-0.63169,0.337,0.17681-.04522.57735-0.18451,0.83971a6.39352,6.39352,0,0,0-1.01212,2.632c-0.00977.181-.30658,0.41555,0.09162,0.49521,0.30256,0.06054.21956-.21763,0.28955-0.377C72.45891,63.12762,72.57661,61.82151,73.39648,60.663ZM48.54692,66.45824a11.23918,11.23918,0,0,1-1.491-3.40758,0.70557,0.70557,0,0,0-.359-0.66344,0.47881,0.47881,0,0,0-.5382.06313,0.98167,0.98167,0,0,0-.02256.7874c0.305,1.56556,1.61963,2.554,2.24469,3.93605a0.26205,0.26205,0,0,0,.17806.14165,18.08906,18.08906,0,0,0,2.61319.146c0.37789-.04793.439-0.23629,0.22274-0.46741a9.10526,9.10526,0,0,1-1.36126-2.75707c-0.17492-.389-0.20631-0.99608-0.91191-0.599-0.17607.09908-.18868-0.08141-0.26041-0.19549a2.43943,2.43943,0,0,1-.18856-0.95516c-0.04168-.22543.03541-0.6176-0.34144-0.36571-0.20772.13883-.72915-0.24907-0.66913,0.48942A11.34287,11.34287,0,0,0,48.54692,66.45824ZM52.5731,62.9579a1.74505,1.74505,0,0,1-.42468,1.22649c0.13212-.64848-0.25738-1.3294.41728-1.79928a0.28125,0.28125,0,0,0-.0005-0.43715c-0.19119-.14125-0.27893.08077-0.35652,0.20788a0.36351,0.36351,0,0,1-.33871.28263,4.55772,4.55772,0,0,1,.35883-1.40345c0.02813-.21612.22778-0.41791,0.43353-0.06848,0.08223,0.13964.16875,0.27674,0.25332,0.415a10.15223,10.15223,0,0,1,.538-0.89571c0.07912-1.02167-.54528-0.01592-0.74582-0.17446a5.60352,5.60352,0,0,0,.08008-0.76148,1.4121,1.4121,0,0,1-.74423.14358,1.21276,1.21276,0,0,0,.35276-1.99483c-0.21121-.30758-0.30793-0.34442-0.47961-0.02543a7.99763,7.99763,0,0,1-.9136,1.891c-0.52676.55519,0.08276,1.50951-.78366,1.93636-0.18417.09076,0.00915,0.53287,0.1632,0.74117,0.22654,0.30634.3456-.04771,0.49728-0.1485A0.3806,0.3806,0,0,1,51.402,62.014a5.2045,5.2045,0,0,0,.37438,3.806c0.316,0.78225.49771,0.85167,0.90057,0.12546,0.15033-.271.30354-0.13,0.47056-0.0463a0.33981,0.33981,0,0,0,.51168-0.22744,0.26033,0.26033,0,0,0-.3105-0.35409c-0.4174.0495-.4246-0.25255-0.31538-0.45975C53.429,64.10733,52.8068,63.66707,52.5731,62.9579Zm-12.9543-1.155c-1.2621.897-1.32521,1.06886-.78953,2.35038,0.40638,0.97219.83213,1.9364,1.2587,2.9,0.07377,0.1666.02708,0.52793,0.376,0.36969,0.2737-.12414.33772-0.28609,0.13246-0.6322-0.24867-.41925-0.35795-0.98212.45647-1.09251,0.0568,0.33217-.30927.74885,0.04723,0.90976,0.42108,0.1901.67468-.36412,1.06385-0.47107,0.2113-.058.24833-0.20591,0.14547-0.43568a8.82421,8.82421,0,0,1-.50193-4.2441,2.51042,2.51042,0,0,0-.20092-1.75223c-0.10932-.15037-0.08294-0.533-0.36722-0.40868-0.25078.10962-.54831,0.4936-0.3565,0.70717,0.41071,0.45729.15246,0.6852-.113,1.03482a1.034,1.034,0,0,0-.23582,1.125c0.11979,0.26319-.03523.75072-0.26377,0.66821-0.3748-.13535-0.364.09571-0.42187,0.25058-0.1184.31677-.19181,0.65039-0.28521,0.98214C39.27951,63.30132,39.768,62.56949,39.6188,61.80293Zm21.611-18.35135c0-.41111.0037-0.71252-0.00169-1.01379a1.26333,1.26333,0,0,0-.04-0.40574,0.78567,0.78567,0,0,0-1.39715-.20631c-1.68835,1.80694-1.38254,2.86524-.532,4.12943a6.06767,6.06767,0,0,0,1.41686,1.22352,0.69169,0.69169,0,0,0,.99976.15912,0.77274,0.77274,0,0,0,.09116-0.9696A7.27344,7.27344,0,0,1,61.22981,43.45158Zm-2.68738,23.248c0.10505,0.15866.20689,0.31961,0.31585,0.47553a0.61531,0.61531,0,0,0,.86056.22282c0.35823-.19585.0868-0.47587,0.0271-0.71891a1.3284,1.3284,0,0,1-.1281-0.45436c0.16008-.899-0.40972-1.58462-0.66348-2.36036a0.545,0.545,0,0,0-.60153-0.33266,14.5799,14.5799,0,0,1-2.3489-.25949c-0.35966-.05129-0.73534.12428-0.64565,0.48934,0.32067,1.305.46614,2.73511,1.91356,3.45737-1.04684.03758-1.6188-.83676-2.43841-1.19358a1.484,1.484,0,0,0,.1286.77282,0.94111,0.94111,0,0,0,1.18081.99688c0.56916-.03959,1.13708-0.11631,1.70194-0.13626C58.545,67.634,58.9843,67.57509,58.54243,66.69957ZM54.56186,45.39725a0.85463,0.85463,0,0,1-.03406-1.1148c0.0532-.18741.09136-0.33515-0.1256-0.3709a0.26942,0.26942,0,0,0-.31553.2842,5.91147,5.91147,0,0,0,1.01476,4.173,0.70168,0.70168,0,0,0,1.08127.27523,3.51882,3.51882,0,0,1,1.3871-.61607c1.17641,0.07286.66555-.54723,0.53331-1.00277-0.12755-.43942-0.3292-0.857-0.48978-1.28733-0.04628-.124-0.04827-0.31816-0.23426-0.25462-0.64677.221-.63051-0.307-0.52187-0.57717a4.97634,4.97634,0,0,1,.07071-1.10177,0.36477,0.36477,0,0,0-.19573-0.486,0.682,0.682,0,0,0-.62162.10608,0.32374,0.32374,0,0,0-.11165.49387c0.4476,0.515.19127,1.17192,0.391,1.73459,0.05992,0.16873.23192,0.51076-.10936,0.58832-0.3031.06888-.3895-0.257-0.4514-0.47776A2.34392,2.34392,0,0,1,55.797,45.1102a3.63349,3.63349,0,0,0-.55087-1.62069,1.76122,1.76122,0,0,0-.02682,1.02155c0.12265,0.5828.17191,1.1815,0.24168,1.77477a0.42265,0.42265,0,0,1-.259.53342,0.24012,0.24012,0,0,1-.289-0.07793,0.36527,0.36527,0,0,1-.046-0.54906c0.28482-.41151-0.02352-0.857-0.11432-1.46111ZM34.8176,53.939c-0.208-.65982-0.0144-1.50349-0.47871-1.95468a3.22182,3.22182,0,0,1-.9293-2.24453,0.80112,0.80112,0,0,0-.467-0.87208,0.944,0.944,0,0,0-1.00458.52845,3.2921,3.2921,0,0,0-.22091,2.88468c0.38194,1.59735.82107,2.03787,2.38328,2.25227C34.68014,54.61266,34.7347,54.31909,34.8176,53.939Zm22.65687,8.42548c0.29152,0.013.57684-.0111,0.61535-0.37846a7.84339,7.84339,0,0,1,1.05772-2.88112,0.44691,0.44691,0,0,0,.03259-0.36547c-0.06275-.2774-0.6408-0.0147-0.43807-0.34663,0.17858-.29232.44889,0.126,0.6931,0.17806a0.92572,0.92572,0,0,0,.66921-0.40023,0.37945,0.37945,0,0,1,.56683.12685c0.16461,0.291-.17512.28128-0.29506,0.3705a1.32143,1.32143,0,0,0-.671.371,13.57557,13.57557,0,0,0-1.24388,2.46c-0.05879.17229-.28263,0.42959-0.0949,0.58577a0.81934,0.81934,0,0,0,.74461-0.11609,0.66607,0.66607,0,0,0,.32069-0.448c0.20341-.50195.43785-0.99143,0.66163-1.48508a3.29926,3.29926,0,0,1,.99159-1.3763c0.39675-.29059.52718,0.288,0.88583,0.315a0.71648,0.71648,0,0,0,.66652-0.32325c0.17062-.20384-0.04972-0.32956-0.23516-0.40622a11.90425,11.90425,0,0,0-3.25769-.96666,0.56167,0.56167,0,0,0-.65144.40226C57.983,58.987,57.42133,60.2732,56.88536,61.56966,56.65844,62.11851,56.85782,62.3806,57.47447,62.36445Zm12.07979,3.18394c0.3707,0.61131.1106,1.32576,0.64709,1.98723a0.99314,0.99314,0,0,1-.8898-0.94223,0.86524,0.86524,0,0,0-1.18652-.94191,4.953,4.953,0,0,1-.73848.01146,0.34328,0.34328,0,0,0-.38736.2165,2.07407,2.07407,0,0,0,1.003,1.92512,11.55247,11.55247,0,0,1-.48413-1.14108c-0.06384-.20609-0.16155-0.54612.14862-0.62349,0.27557-.06878.29413,0.25881,0.364,0.45243,0.07313,0.20277.12673,0.41286,0.18319,0.6213a0.84518,0.84518,0,0,0,.74033.66225,19.8555,19.8555,0,0,0,4.00254.1518,0.65515,0.65515,0,0,0,.78941-0.543,3.62232,3.62232,0,0,0-.28756-1.67A0.42947,0.42947,0,0,0,72.80662,65.46a0.46582,0.46582,0,0,0-.32922.63686c0.0689,0.2277.14885,0.45211,0.22384,0.678l-0.16021.154c-0.4315-1.09-1.06566-1.71584-2.26137-1.11328a2.30553,2.30553,0,0,0,1.16615,1.14458C70.31747,67.20166,70.18155,66.05332,69.55426,65.54839Zm-31.28255.22169a1.46355,1.46355,0,0,1-.52477-1.26029,2.82645,2.82645,0,0,0-.064-1.5732c-0.0414-.21051-0.02966-0.521-0.28738-0.47545a0.60651,0.60651,0,0,0-.52736.542c-0.01253.15566,0.26045,0.35379-.097,0.495a1.06977,1.06977,0,0,1-.20231-1.10779,0.39385,0.39385,0,0,0-.28247-0.513c-0.38226-.04431-0.246.28625-0.26249,0.46337a5.4831,5.4831,0,0,0,.277,2.08941,3.67569,3.67569,0,0,1-.93-2.70506,1.27119,1.27119,0,0,0-.71353-1.33943,1.31449,1.31449,0,0,0-.09452.91374,12.4058,12.4058,0,0,0,.98938,3.46987c0.31187,0.7017.60535,1.53735,1.50016,1.676a2.65791,2.65791,0,0,1,1.49294.69517,0.43178,0.43178,0,0,0,.52222.12721c0.22452-.17356.01025-0.38087-0.03987-0.58173A5.57887,5.57887,0,0,0,38.398,65.2191Zm37.23947-.32353a1.54082,1.54082,0,0,1,.76361-1.24423c0.42727-.18238.35272-0.36935,0.13946-0.58346-0.45959-.46135-0.23586-0.81144.11215-1.18835,0.73114-.7919.71-0.87277-0.13-1.63344-0.282-.25537-0.46395-0.33412-0.68367.0647a13.48422,13.48422,0,0,1-.93363,1.5041,3.60855,3.60855,0,0,0-.609,3.93306c0.34651,0.75257.56325,0.86927,1.18393,0.30881,0.68847-.62168,1.36008-1.26475,2.08152-1.84572a0.4856,0.4856,0,0,0,.23112-0.60757c-0.06337-.15108-0.07471-0.46395-0.29327-0.41754a0.69327,0.69327,0,0,0-.68274.349A3.91768,3.91768,0,0,1,75.51118,65.44656ZM51.17977,45.82746a4.088,4.088,0,0,0,1.82043,3.2208,1.08666,1.08666,0,0,0,1.23805-.0222c0.32421-.22463-0.10121-0.554-0.18745-0.833a18.84448,18.84448,0,0,1-.92317-3.84682c-0.02823-.31211.17255-0.70325-0.21735-0.87088a0.99922,0.99922,0,0,0-1.03538.30662C51.1935,44.348,51.45657,45.22194,51.17977,45.82746ZM28.63326,66.3373a0.53132,0.53132,0,0,1,.0983.03448c0.21976,0.14977.02584,0.70446,0.52081,0.56808a3.62413,3.62413,0,0,0,1.45415-.65735,0.45955,0.45955,0,0,0-.03663-0.29168c-0.19252-.63588-1.18222-0.683-1.12383-1.512a0.19307,0.19307,0,0,0-.13212-0.04112c-0.58748.47666-.3482-0.1622-0.486-0.33547-0.28243-.355-0.15124-0.90007-0.57246-1.20834a0.99891,0.99891,0,0,1-.255.75145c-0.36625.14677-.32936-0.26924-0.48816-0.40954-0.50036-.442-0.47969.03034-0.596,0.375a0.8325,0.8325,0,0,0-.04375-0.27111c-0.13471-.19451.03263-0.65005-0.33215-0.59072-0.31118.05061-.22927,0.50066-0.19656,0.70452a2.56551,2.56551,0,0,1,.13475,1.37829,4.68852,4.68852,0,0,0-.56782-0.63055,0.83783,0.83783,0,0,0,.032.68914c0.39137,0.61476.78613,1.22408,1.14305,1.86237,0.25078,0.44851.65443,0.78283,1.03862,0.037A2.3061,2.3061,0,0,1,28.63326,66.3373Zm9.17229-4.84416a3.13585,3.13585,0,0,0,.0298-0.40391c-0.06072-1.17524.70275-1.96622,1.325-2.8158a0.384,0.384,0,0,1,.6825.0295c0.12287,0.16308.23536,0.32063-.04168,0.45526-1.0567.51365-.7053,1.66074-1.16511,2.44836,1.15479-.69346,1.56608-1.93314,2.28243-2.93513a0.56536,0.56536,0,0,0-.404-0.88533,5.08217,5.08217,0,0,0-2.33056-.046c-0.70965.13294-.22778,0.75014-0.47416,0.94917-0.72177.583-.59522,1.40035-0.7689,2.15268C36.75929,61.22866,37.10107,61.46112,37.80555,61.49313ZM55.7072,58.9398c-0.44061.80247-1.26638,1.24533-1.726,2.01749-0.1103.1853-.21455,0.37426-0.32807,0.5575a0.2776,0.2776,0,0,0,.1895.4745,8.27618,8.27618,0,0,0,2.06524.41549c0.34552-.021.58893-0.03991,0.55346-0.47473-0.10445-1.28068.69621-2.24794,1.16859-3.32867a1.74307,1.74307,0,0,0,.10674-0.22074c0.15017-.54976-0.12134-0.69264-0.60445-0.60431a0.85046,0.85046,0,0,0-.54433.54377A9.5941,9.5941,0,0,0,55.3696,61.8005C55.10084,60.66454,55.68784,59.86961,55.7072,58.9398ZM45.55756,46.012a7.00974,7.00974,0,0,1,.47284,1.69848,6.06057,6.06057,0,0,0,1.345,3.00076,0.46307,0.46307,0,0,0,.53516.28293c0.17854-.0523.11981-0.218,0.14547-0.34221,0.40466-1.95675-.49636-3.52492-1.51218-5.05564a0.62043,0.62043,0,0,0-.76341-0.32773C45.46163,45.39178,45.68716,45.70737,45.55756,46.012ZM68.56265,63.18691a0.25852,0.25852,0,0,1,.002-0.32751,7.73643,7.73643,0,0,1,1.11275-1.59723c0.1709-.19089.40124-0.43343,0.12371-0.69495-0.26216-.24706-0.418.00784-0.60061,0.1742-0.19971.18194-.45339,0.30479-0.65238,0.48733a7.034,7.034,0,0,0-2.09976,3.6532c0.67559-.32767.551-1.14166,1.26134-1.34773a2.34207,2.34207,0,0,0,.062.87072c0.04464,0.17838-.13982.51574,0.21142,0.39744,0.31458-.10594.86619,0.079,0.92432-0.367,0.0725-.55611.20655-1.104,0.30135-1.65475C68.84343,62.73615,68.88758,63.1727,68.56265,63.18691ZM37.31842,49.70024a0.6458,0.6458,0,0,0-.1101.6663c0.03919,0.13932.3798,0.34188-.11732,0.44077-0.34442.0685-.471,0.02582-0.54785-0.274-0.13471-.52555-0.50923-0.95291-0.59735-1.50146-0.02917-.18164-0.16268-0.41262-0.39026-0.20683-0.1367.12365-.50082,0.11621-0.38262,0.41949,0.35071,0.89979.3905,1.88989,0.822,2.76487,0.06838,0.13867.18727,0.42066,0.27065,0.28185,0.38409-.63929.84048-0.13614,1.25195-0.13475,0.78235,0.00261,1.11722-.38929.89171-1.12176-0.14438-.469-0.32451-0.92705-0.48709-1.38571-0.40474.15695-.08286,0.47838-0.18709,0.69627C37.46419,50.17691,37.65246,49.81746,37.31842,49.70024Zm26.2828-5.51231c0.39776-.09607.09961-0.62659,0.47925-0.77324a7.5618,7.5618,0,0,1,.68081,1.57121,1.25308,1.25308,0,0,0,.40226-1.34244c-0.12806-.58177-0.29164-1.15562-0.42744-1.7358-0.09918-.42384-0.07693-0.445.34474-0.69531a0.4181,0.4181,0,0,0,.12038-0.632c-0.23657-.4771-0.60917-0.21379-0.932-0.16517-0.17549.02644-.21733,0.04807-0.1593,0.32922a5.01088,5.01088,0,0,1,.12218,2.41368,4.31884,4.31884,0,0,1-.52481-2.05945c-0.04687-.3139-0.071-0.51785-0.47177-0.44225-0.55358.10437,0.03639,0.278-.03358,0.42506-0.05346.11237,0.01649,0.27885-.02489,0.40236A3.25824,3.25824,0,0,0,63.60122,44.18793ZM38.8459,47.04881c-0.44748.59444,0.12337,1.10911,0.09679,1.61472-0.05491,1.04449.73743,1.85145,0.63576,2.88169a0.50172,0.50172,0,0,0,.511.45247c0.3222,0.01761.32343-.23554,0.36565-0.44167A4.2381,4.2381,0,0,0,38.8459,47.04881Zm28.31282-7.146a0.80021,0.80021,0,0,0-.59578.762,2.35242,2.35242,0,0,1,.13934.87285c-0.32707,1.25323.28521,2.377,0.53488,3.54274a0.71945,0.71945,0,0,0,1.00175.30338c0.45329-.18616.00857-0.4439-0.076-0.64732a8.11,8.11,0,0,1-.91439-3.19271A4.21942,4.21942,0,0,0,67.15872,39.90277Zm2.79209,0.07138c-0.51283.14352-.92585,0.24083-1.32548,0.37735a0.59175,0.59175,0,0,0-.47151.59836A10.81079,10.81079,0,0,0,69.316,45.253a0.37792,0.37792,0,0,0,.57256.08237,0.65475,0.65475,0,0,0,.44949-0.5418c-0.0157-.25044-0.25577-0.21168-0.45675-0.17876a0.58277,0.58277,0,0,1-.6623-0.38306,5.42508,5.42508,0,0,1-.5757-2.9979c0.06482-.29246.06434-0.72585,0.41443-0.70295,0.42641,0.02791.22853,0.48538,0.24065,0.74535,0.059,1.26588.0457,1.2665,0.39157,1.60439A3.49419,3.49419,0,0,1,69.95081,39.97415ZM26.716,61.7625a1.11648,1.11648,0,0,0,.58062-0.79918c0.2546-.97862.49294-1.96807,1.69444-2.22794a0.24458,0.24458,0,0,0,.13161-0.09361,0.8401,0.8401,0,0,0,.402-0.648,0.64809,0.64809,0,0,0-.7349-0.404c-0.32162.03086-.824-0.11893-0.54027,0.53078a0.20075,0.20075,0,0,1-.08443.27736C26.92035,59.138,26.93488,60.40109,26.716,61.7625ZM65.27011,45.736a1.6228,1.6228,0,0,0-1.5545-.345,0.84638,0.84638,0,0,1-1.16249-.46761,6.10348,6.10348,0,0,1-.50842-1.0308,5.18661,5.18661,0,0,0,.3414,1.8198,0.66134,0.66134,0,0,0,.75557.48494C63.80639,45.98517,64.54917,46.227,65.27011,45.736ZM26.29159,59.4739c-0.51657.71467-.91823,1.28277-1.33458,1.83989-0.15331.2051-.2341,0.40449,0.04968,0.51964,0.16507,0.067.45174,0.203,0.49316-.16907,0.02871-.258.19841-0.37753,0.37846-0.24739,0.828,0.59846.52049-.21119,0.53279-0.456A11.72,11.72,0,0,0,26.29159,59.4739ZM65.69745,45.76726c0.70209-.5983.59552-2.12865-0.19234-3.54533A24.46267,24.46267,0,0,1,65.69745,45.76726ZM30.12681,51.46079a1.44645,1.44645,0,0,1-.08205.47362c-0.14806.26317,0.05423,0.32731,0.19288,0.44328a0.34377,0.34377,0,0,0,.44408.049,0.41172,0.41172,0,0,0,.04327-0.46051,1.76518,1.76518,0,0,1-.03492-1.04628,0.39106,0.39106,0,0,0-.23538-0.53122,0.47821,0.47821,0,0,0-.38929.00281,0.46838,0.46838,0,0,0-.05839.59217C30.06028,51.13521,30.08655,51.29622,30.12681,51.46079Zm0.362,3.81021c-0.5123-.59315-0.51834-1.40534-1.35093-1.65027-0.0373.458,0.467,0.70892,0.23784,1.11249-0.19095.33625-.16966,0.48009,0.14014,0.52917A7.1917,7.1917,0,0,0,30.48882,55.271ZM70.72053,39.95133a5.91265,5.91265,0,0,1-.26082,1.42048c-0.03352.18592-.03068,0.381,0.25145,0.40232,0.26265,0.01984.412-.05218,0.39687-0.34587A1.76872,1.76872,0,0,0,70.72053,39.95133ZM57.08976,57.57677c0.30616-.17144.51807-0.40027,0.78631-0.12956,0.27531,0.27781.35831-.00479,0.47382-0.17251a0.29658,0.29658,0,0,0-.154-0.4653C57.4605,56.37323,57.31145,56.93289,57.08976,57.57677Zm-27.662,3.47152c-0.44113.5994-.27557,1.21089,0.48237,1.82937A5.52692,5.52692,0,0,0,29.42774,61.04829ZM62.4671,42.14818c-0.24033.97261,0.278,1.74248,0.42148,2.579,0.0274,0.15966.12387,0.34036,0.31374,0.26339,0.2281-.09247.0835-0.25637,0.00808-0.39657A7.84674,7.84674,0,0,1,62.4671,42.14818ZM25.61194,64.24856c0.17621-.58378-0.684-1.0079-0.00951-1.49778a1.14757,1.14757,0,0,0-.95651.21455Zm6.1544-9.73027c-0.44786-.47177-0.30169-1.06874-0.86364-1.18156a0.28794,0.28794,0,0,0-.28792.32568A1.18068,1.18068,0,0,0,31.76634,54.51828Zm38.62005-11.1951c-0.21972.26257-.85226-0.20138-0.79841,0.484,0.02529,0.32212.22229,0.32485,0.50891,0.29526C70.75729,44.03422,70.33655,43.61241,70.38639,43.32318ZM53.57071,62.90354a5.15711,5.15711,0,0,0,.68459,1.73284,0.78417,0.78417,0,0,0-.15832-0.798,0.60655,0.60655,0,0,1-.1025-0.53776C54.14116,62.87989,54.1481,62.8823,53.57071,62.90354ZM48.42889,47.32488a3.15208,3.15208,0,0,0,.19457-0.801c0.11581-.155.46142-0.3076,0.17575-0.50018-0.25062-.169-0.40773.17122-0.5579,0.34757C47.90416,46.76722,48.1389,47.03783,48.42889,47.32488Zm-20.069,12.33568c-0.72925.5001-.58251,1.17741-0.769,1.72323A4.239,4.239,0,0,0,28.35992,59.66056Z"/><path d="M67.73124,55.87185c-0.331-.16378-0.283-0.35121-0.14949-0.61217,0.35123-.68666,1.0038-1.23866.94308-2.11414-0.04142-.59715-0.00249-1.20419-0.09162-1.79286a3.62063,3.62063,0,0,1,1.30517-3.23459c0.21111-.20894.50257-0.42044,0.76341-0.0649,0.24451,0.3333-.09488.48315-0.2851,0.63616a2.52366,2.52366,0,0,0-.97092,2.72184A4.108,4.108,0,0,1,68.00112,55.585,3.45032,3.45032,0,0,0,67.73124,55.87185Z"/><path d="M55.57481,56.73227a2.25144,2.25144,0,0,1-.03667-2.61271,3.35351,3.35351,0,0,0,.80135-3.16617,0.41938,0.41938,0,0,1,.27356-0.5946c0.38358-.06667.36374,0.23635,0.4401,0.51452a3.062,3.062,0,0,1-.73176,3.138,1.94039,1.94039,0,0,0-.53346,1.57608c0.0344,0.37134.00633,0.74845,0.00633,1.123Z"/><path d="M64.85044,38.4599c-0.32234-.08408-0.42076-0.30963-0.25643-0.55167a1.58561,1.58561,0,0,0-.0186-2.0835c-0.42026-.5541.93857-2.62437,1.51578-2.75554a0.43393,0.43393,0,0,1,.307.04059c0.1558,0.10526.05069,0.22977-.02049,0.34576a9.13258,9.13258,0,0,0-.91348,1.33951,1.07615,1.07615,0,0,0,.07266,1.196,2.47628,2.47628,0,0,1-.475,2.357C64.9948,38.39112,64.92071,38.42312,64.85044,38.4599Z"/><path d="M62.7553,65.14147c-0.33223-.78748-0.10206-1.60772-0.38511-2.39285v2.94516c-0.697-.72121-0.47354-1.566-0.42343-2.36536a8.95174,8.95174,0,0,1,.11915-0.96728c0.05244-.30022-0.2998-0.9853.53989-0.70076a0.06336,0.06336,0,0,0,.05207-0.02948c0.10654-.21733.077-0.69079,0.43817-0.50318a0.84273,0.84273,0,0,1,.046.9019A20.85715,20.85715,0,0,0,62.7553,65.14147Z"/><path d="M61.60585,65.95922a4.7513,4.7513,0,0,1-.50022-3.06843,0.28808,0.28808,0,0,1,.40126-0.28058c0.21435,0.098.03913,0.26144,0.02429,0.40942A20.39226,20.39226,0,0,0,61.60585,65.95922Z"/><path d="M70.94424,60.35633a0.443,0.443,0,0,1,.36742-0.43922,0.5278,0.5278,0,0,1,.58316.44889,0.31766,0.31766,0,0,1-.37689.33672A0.79928,0.79928,0,0,1,70.94424,60.35633Z"/><path d="M49.84863,65.97676a4.74164,4.74164,0,0,1-.56882-1.53985c-0.03633-.16555-0.08523-0.34353.14764-0.36975a0.24718,0.24718,0,0,1,.25428.25495A7.47792,7.47792,0,0,1,49.84863,65.97676Z"/><path d="M41.12919,61.99814c0.0574,0.91372-.14185,1.79731-0.02467,2.69573a0.41192,0.41192,0,0,1-.43908.40413c-0.21877.01695-.1856-0.22519-0.18558-0.3792A8.297,8.297,0,0,1,41.12919,61.99814Z"/><path d="M57.42185,64.18474a9.65748,9.65748,0,0,1,.27777,2.57334,3.67187,3.67187,0,0,1-.73182-1.72356,0.75739,0.75739,0,0,1,.39772-1.03376,0.67918,0.67918,0,0,1,.86784.70269L58.32257,63.673a23.32175,23.32175,0,0,1,.86537,3.15493C57.95261,66.34122,57.84106,65.18307,57.42185,64.18474Z"/><path d="M43.01621,48.09213a0.78062,0.78062,0,0,1-.00279-0.89341,0.83785,0.83785,0,0,1,.59142-0.10133c0.18807,0.44632.827,0.67565,0.66115,1.27943a3.77116,3.77116,0,0,0-.14613,1.40761c-0.44209-.62578.06368-1.72878-1.12846-1.71927Z"/><path d="M74.49431,65.76733a12.06037,12.06037,0,0,1,.86947-3.73481,0.35927,0.35927,0,0,1,.50937-0.22871c0.1705,0.0689.45468,0.25553,0.30686,0.48721A16.707,16.707,0,0,0,74.49431,65.76733Z"/><path d="M27.98245,64.33362c0.69344,0.294.66573,1.02473,1.10632,1.40013,0.0901,0.07679-.04433.24875-0.157,0.331-0.16883.12335-.24616-0.01556-0.29612-0.13354A7.2615,7.2615,0,0,1,27.98245,64.33362Z"/><path d="M35.79134,58.66115c0.29616-.18025.53068-0.17663,0.55893,0.23609,0.02362,0.345.00485,0.693,0.00485,1.15892a2.97883,2.97883,0,0,1-.55093-1.41Z"/><text x="0" y="115" fill="#000000" font-size="5px" font-weight="bold" font-family="'Helvetica Neue', Helvetica, Arial-Unicode, Arial, Sans-serif">Created by Olga</text><text x="0" y="120" fill="#000000" font-size="5px" font-weight="bold" font-family="'Helvetica Neue', Helvetica, Arial-Unicode, Arial, Sans-serif">from the Noun Project</text></svg>