<svg xmlns="http://www.w3.org/2000/svg" xmlns:xlink="http://www.w3.org/1999/xlink" version="1.1" x="0px" y="0px" viewBox="0 0 100 125" style="enable-background:new 0 0 100 100;" xml:space="preserve"><g><path d="M53.6,19.3c0,0.2,0,0.4,0,0.6c-0.1,0.8,0.1,1.2,1.1,1.2c1.4-0.1,2.1,1,2.6,2.1c0.2,0.5,0.5,0.6,0.9,0.7c0.1,0,0.3,0,0.4,0   c0.8,0.8,1.4,0.1,2-0.3c0.7-0.5,1.1-0.3,1,0.6c-0.1,0.9,0.3,1.2,1,1.6c1.6,0.9,2.8,2.2,3.7,3.7c0.2,0.3,0.3,0.8,0.6,0.7   c0.4-0.1,0.4-0.6,0.5-0.9c0.8-2.9,2-5.6,2.9-8.4c0.3-0.9,0.7-1.9,1.6-2.6c0.9-0.7,1.4-0.7,2.5,0.1c0.5,0.4,0.9,0.8,1.4,1.1   c0.8,0.5,1.2,2.1,0.7,3.3c-1.4,3.4-2.9,6.8-4.3,10.2c-0.1,0.2-0.3,0.4-0.1,0.6c0.2,0.2,0.4,0,0.6-0.1c1-0.5,2-0.2,2.9,0.1   c0.6,0.2,1.1,0.7,0.8,1.3c-0.3,0.6-0.8,1.1-1.5,0.8c-1-0.4-0.8,0.3-0.6,0.7c0.7,1.6,1.1,3.3,1.9,4.9c0.6,1.2,0.5,2.5-0.3,3.6   c-0.5,0.6-0.3,1.2,0,1.4c1.2,0.9,1.5,2,1.4,3.5c-0.1,1.6,0.1,3.3,0.8,4.8c0.3,0.6,0,1.4,0.7,1.9c0.2,0.1,0.2,0.6,0,0.9   c-1.6,3-2.9,6-4.5,9c-0.8,1.4-2.1,2.6-3.4,3.7c-2,1.7-4.3,2.7-6.8,3.5c-0.6,0.2-1.3,0.2-1.9,0.4c-1.8,0.5-2.6,2.3-1.4,3.5   c0.8,0.8,1.8,1.6,2.9,2.1c1.3,0.6,2.4,1.5,3.5,2.4c0.9,0.8,0.4,1.9-0.9,2.5c-1.2,0.6-2.6,0.8-3.9,0.9c-1.3,0.1-2.6,0.5-3.9,0.7   c-1.1,0.1-2.1-0.2-3.1-0.1c-1.3,0.1-2.7-0.1-4-0.1c-0.9,0-1.9-0.3-2.8-0.4c-1.1-0.2-2.2-0.4-3.2-1c-0.7-0.5-1.5-0.8-1.8-1.8   c-0.2-0.6,0-0.9,0.4-1.3c0.8-0.6,1.8-1,2.8-1c0.5,0,0.9-0.3,1.3-0.6c0.5-0.3,0.9-0.6,1.4-0.9c1.5-0.8,1.8-2.5,0.7-3.7   c-0.8-0.9-1.9-1.4-2.9-1.9c-2.2-1-4.6-1.4-6.7-2.6c-2.4-1.4-4.3-3.2-6-5.4c-1.4-1.9-2.5-3.9-3.3-6.1c-0.1-0.4-0.5-0.5-0.6-0.9   c-0.2-0.5-0.6-1.1,0.4-1.1c0.2,0,0.3-0.1,0.2-0.3c-0.1-1.2,0.1-2.3-0.6-3.4c-0.6-0.8,0-2.1,0.5-3c0.3-0.6,0.8-1.2,1.2-1.8   c0.3-0.3,0.1-0.5-0.2-0.6c-1.5-0.6-2.9-1.3-4.5-1.8c-2.9-1.1-5.4-2.7-6.8-5.6c-0.5-1.2-0.5-2.5-0.2-3.8c0.7-3.2,2.6-5.8,4.5-8.3   c1.2-1.5,2.6-2.8,4-4.1c1-1,2.3-1.6,3.8-1.8c1.9-0.3,3.3,0.6,4.7,1.8c1.4,1.2,2.7,2.5,3.9,3.9c0.1,0.1,0.1,0.3,0.3,0.3   c0.5,0.1,2-1.3,1.9-1.8c0-0.1-0.1-0.3-0.1-0.4c-0.1-0.4,0.1-0.9,0.4-1c0.4-0.2,0.8,0.1,0.9,0.4c0.4,0.8,0.8,0.8,1.4,0.2   c0.1-0.1,0.4-0.2,0.6-0.2c0.8-0.2,1.4-0.5,1.1-1.7c-0.2-0.8,0.8-1.3,1.5-1.6c0.6-0.3,1.2-0.6,1.9-0.5c0.4,0,0.6-0.1,0.6-0.6   c0-1.4,0.4-2.8,0.6-4.2c0.1-1.3,1-2.2,2.2-2.9c0.8-0.4,1.5-0.1,1.9,0.5c0.4,0.5,0.6,1.2,0.1,1.9c-0.1,0.1-0.2,0.4-0.5,0.3   c-0.2-0.1-0.4-0.4-0.3-0.6c0.1-0.4,0.1-0.8-0.3-1c-0.5-0.1-0.9-0.1-1.3,0.4C53.7,16.6,53.7,18,53.6,19.3z M34.4,59   c-1.5,0-1.5,0-1.1,1.2c0,0,0,0.1,0,0.1c1,2.7,2.9,4.9,4.9,6.9c1.4,1.3,3.1,2.3,5,2.9c2.6,0.9,5.2,1.6,7.5,3.3c1.3,1,2.2,2,2,3.7   c-0.1,1-0.2,2.1-1.3,2.5c-1.6,0.7-2.9,2.1-4.7,2.5c-0.7,0.1-0.6,0.7,0,1c0.5,0.3,1.1,0.7,1.6,0.8c1.7,0.2,3.4,0.5,5.1,0.6   c1.2,0.1,2.4-0.2,3.5,0c0.7,0.1,1.4,0.4,2.1,0.2c1.3-0.4,2.6-0.5,3.9-0.7c0.8-0.2,1.6-0.2,2.4-0.5c0.2-0.1,0.5-0.3,0.5-0.5   c0.1-0.2-0.2-0.3-0.4-0.5c-1.5-1-3.1-2-4.6-3.1c-0.7-0.5-1.7-0.9-1.8-1.8c-0.2-1.3,0-3.2,1.8-4.2c0.8-0.5,1.7-0.6,2.6-1   c1.3-0.5,2.7-0.6,4-1.4c1-0.6,2-1.2,2.9-2c1.2-1.1,2.5-2.1,3.2-3.6c0.6-1.3,1.1-2.7,1.8-3.9c0.4-0.7,0.9-1.5,1-2.4   c0.1-0.6,0-0.9-0.7-0.9c-3.1,0-6.2,0.1-9.4,0.3c-3.7,0.2-7.4,0.5-11.2,0.6c-3.5,0.1-7-0.1-10.5-0.2c-0.7,0-1.5,0.5-2.2,0.1   c-1.5-0.8-3,0.3-4.6-0.1C36.7,58.7,35.4,58.8,34.4,59z M47.7,43c-1.8,0.2-3.5,0.2-5.2,0.7c-1,0.3-2,0.5-3,1c-1.6,0.8-3,1.8-4.4,2.9   c-0.5,0.4-0.6,0.9-1,1.2c-1.5,0.8-2.2,2.2-2.3,3.9c0,0.9,0.8,1.5,1.7,1.2c1.3-0.4,2.3-1.1,2.9-2.3c0.4-0.9,1-1.6,2.1-1.6   c1,0,1.3,0.8,1.6,1.5c0.4,0.9,1.2,1.2,2,1.6c0.3,0.1,0.7,0.2,1-0.2c0.7-0.9,1.5-1.8,1.2-3.1c-0.1-0.5,0.1-0.9,0.6-1.2   c1-0.6,1.6-0.5,2.2,0.5c0.7,1,1,2.3,2.2,3c0.7,0.4,1.5,0.8,2.4,0.8c0.7,0,0.9-0.7,1.3-1.1c0.3-0.3,0.7-0.6,1.2-0.7c1-0.3,2,0,3,0   c1.4,0,1.9-0.8,1.3-2c-1.2-2.2-3-3.8-5.3-4.8C51.6,43.5,49.5,43.2,47.7,43z M58.6,25c-0.4,0.1-0.8-0.6-1.1,0.2   c-0.3,1-0.9,1.9-1.6,2.7c-1,1.4-2.4,1.6-3.9,1.4c-1.6-0.2-2.6-1.3-3.2-2.6c-0.2-0.5-0.3-0.8-0.9-0.5c-0.3,0.1-0.6,0.1-0.9,0.2   c-0.6,0.2-1.1,0.5-0.6,1.2c0.2,0.3,0.3,0.6,0,0.8c-0.3,0.2-0.6,0.5-1,0.2c-0.2-0.1-0.5-0.1-0.7-0.4c-0.4-0.5-0.9-0.1-1.2,0.2   c-0.3,0.2-0.7,0.4-0.5,1c0.4,1.1,0,2.2-0.1,3.3c0,0.3-0.1,0.7-0.6,0.7c-0.4,0-0.5-0.4-0.5-0.6c-0.2-0.5-0.3-1-0.3-1.5   c0-0.2,0.2-0.7-0.1-0.7c-0.4-0.1-0.5,0.4-0.6,0.7c-0.3,0.8-0.5,1.5-0.7,2.3c-0.4,1.2-0.4,2.5-0.4,3.7c0,0.3,0.2,0.7,0.5,0.8   c0.4,0.1,0.5-0.3,0.6-0.5c0.7-1.2,1.2-1.3,2.6-0.9c1.8,0.5,1.8,0.5,2.6-1c0.5-1,1.1-1.2,2.2-1.1c0.8,0.1,1.8,0.4,2.2-0.7   c0-0.1,0.1-0.1,0.2-0.2c0.4-0.5,0.9-0.8,1.5-0.3c0.6,0.5,0,0.9-0.1,1.4c-0.1,0.3-0.6,0.6-0.3,1c0.3,0.3,0.8,0.3,1.2,0.2   c1-0.3,1.4-1.1,1.8-1.9c0.4-0.9,0.9-1.8,1.7-2.5c0.3-0.3,0.7-0.4,1.1-0.3c0.7,0.2,1.4,0.4,1.7,1.3c0.2,0.5,0.5,1.1,0.8,1.5   c0.8,1.2,2.6,1.1,3.2-0.2c0.2-0.4,0.2-1.1,0.8-1.1c0.6,0,0.6,0.7,0.7,1.1c0.3,0.6,0.5,0.5,0.9,0c1-1.5,0.5-3.8-1-4.9   c-0.2,0.4,0.2,0.6,0.2,0.9c0.2,0.6,0,1-0.6,1.3c-0.5,0.2-0.9-0.1-1-0.5c-0.3-1.1-0.6-2.2-0.8-3.3c-0.1-0.3-0.1-0.5-0.4-0.7   c-1.7-0.9-1.5-1.2-3.1,0.2c-0.3,0.3-0.6,0.5-0.8,0.8c-0.2,0.2-0.4,0.4-0.6,0.2c-0.2-0.1-0.2-0.4-0.1-0.6C58,26.5,58.3,25.8,58.6,25   z M55.4,35.6c0.2,0.6-0.4,1.1-0.6,0.8c-0.6-0.6-0.9-0.1-1.4,0.1c-0.6,0.1-1.1,0.5-1.7,0c-0.3-0.3-0.7-0.2-1,0.1   c-0.2,0.2-0.5,0.3-0.8,0.4c-0.3,0.1-0.5,0.1-0.7-0.1c-0.2-0.2-0.1-0.4,0-0.7c0.2-0.3,0.4-0.7,0-1c-0.9-0.6-2.3,0-2.6,1   c-0.3,0.8-0.7,1.3-1.7,1.5c-0.7,0.1-1.2-0.2-1.7-0.3c-0.6-0.2-1.1-0.2-1.5,0.5c-0.3,0.6-0.8,1.1-1.5,1.2c-0.5,0.1-0.5,0.4-0.5,0.7   c0.2,0.9,0.5,1.9,0.8,2.8c0.1,0.3,0.2,0.7,0.7,0.5c2.1-0.6,4.2-0.5,6.3-0.9c0.9-0.2,1.7,0,2.6,0.2c0.4,0.1,0.8,0.3,1.2,0.3   c0.8,0.1,1.6,0.3,2.1-0.7c0.2-0.5,0.6-1,1.2-1.3c1.1-0.5,2.5-0.5,3.3-1.6c0.1-0.1,0.4-0.2,0.6-0.2c1-0.2,1.9-0.5,3-0.4   c0.2,0,0.5,0,0.7-0.2c0.7-0.9,1.8-1.3,2.7-1.8c0.4-0.2,0.6-1.4,0.2-1.4c-0.7-0.2-0.7-0.9-1.2-1.2c-0.1,0.5,0.1,1-0.4,1.2   c-1.6,0.9-3.5,0.5-4.4-1.2c-0.4-0.8-0.9-1.5-1.7-2.1c-0.5-0.4-0.7-0.2-1,0.2c-0.8,1.1-1,2.5-1.8,3.5c0,0,0,0.1,0.1,0.2   C55.1,35.9,55.2,35.6,55.4,35.6z M58.8,53.8c0-0.4,0-0.7,0-1c0-0.7-0.4-1-1-0.8c-0.8,0.2-1.5,0-2.2-0.2c-1.4-0.4-1.5-0.4-2.3,0.8   c-0.3,0.5-0.7,0.9-1.2,1c-1.3,0.3-3.3-0.5-4-1.6c-0.5-0.8-1-1.5-1.5-2.3c-0.3-0.4-0.5-0.8-1.1-0.7c-0.5,0.2-0.6,0.7-0.5,1.1   c0.1,1.1-0.3,2.1-0.9,3.1c-0.3,0.5-0.8,0.8-1.4,0.8c-1.5,0-2.7-0.8-3.2-2.2c-0.4-1-1.2-1.2-1.9-0.5c-0.5,0.4-0.5,1.2-0.9,1.5   c-0.9,1-1.9,2-3.5,1.9c-0.2,0-0.4,0-0.5,0.1c-0.3,0.6-0.2,1.3,0,1.9c0.1,0.6,0.5,0.5,0.9,0.5c2.4-0.2,4.9,0.5,7.3-0.5   c0.1,0,0.3,0,0.3,0.1c0.1,0.6,0.5,0.4,0.9,0.4c0.6,0,1.2,0,1.8,0c2,0.1,3.9,0.1,5.9,0.2c0.3,0,0.9,0.2,0.7-0.6c0-0.2,0-0.3,0.2-0.3   c0.2-0.1,0.4,0.1,0.5,0.2c0.4,0.7,1,0.7,1.7,0.6c0.9-0.1,1.8-0.2,2.7,0c1.3,0.3,2.2-0.1,2.8-1.2C58.8,55.5,58.9,54.6,58.8,53.8z    M73.9,34.2c-0.7,0.2-1.4,0.3-2.1,0.6c-1.6,0.8-3.3,1.5-5,2c-1.7,0.5-3.6,1.1-4.5,3c-0.2,0.4-0.7,1-0.1,1.3c1.1,0.7,2.6,0.2,3.2-1   c0.1-0.3,0.3-0.6,0.4-0.8c0.1-0.2,0.3-0.4,0.6-0.2c0.2,0.1,0.4,0.3,0.3,0.6c-0.2,0.4-0.3,0.8-0.4,1.2c-0.3,0.9,0.4,2.4,1.1,2.7   c1.3,0.5,3-0.1,3.7-1.4c0.2-0.3,0.4-0.5,0.7-0.4c0.3,0.1,0.4,0.3,0.3,0.7c-0.1,1.1,0.7,2.1,1.7,2.3c0.6,0.1,1.6-0.7,1.8-1.6   c0.2-0.9-0.1-1.7-0.5-2.3c-1-1.3-1.4-2.7-1.8-4.2C72.9,35.4,72.9,35.1,73.9,34.2z M68.4,44.4c-1.7,0.4-2.4-0.6-2.7-2   c0-0.1-0.1-0.3-0.2-0.4c-0.1-0.2-0.3-0.2-0.4,0c-0.4,0.8-1.1,1.5-0.8,2.4c0.3,1.1,0.6,2.2,1.5,3c0.3,0.3,0.3,0.6,0.2,0.9   c-0.5,1.4-0.5,2.6,0.8,3.6c0.1,0.1,0.2,0.3,0.2,0.4c-0.3,1.5,0.8,3,0.1,4.5c-0.1,0.3-0.1,0.4,0.2,0.4c1.2-0.3,2.5,0,3.7-0.2   c0.7-0.1,1.4-1.2,1-1.9c-0.3-0.4-0.2-0.8-0.1-1.3c0.3-1.2,0.1-2-1-2.7c-0.4-0.3-0.6-0.6-0.6-1c-0.1-0.7-0.3-1.4-1-1.7   c-1-0.5-1.3-1.2-1.2-2.3C68.1,45.5,68.3,45.1,68.4,44.4z M72.6,56.6c1.4-0.1,2.7,0.1,3.9-0.2c1-0.2,1.1-0.4,0.8-1.3   c-0.2-0.8-0.8-1.5-0.6-2.4c0.2-0.8-0.2-1.3-0.8-1.7c-1-0.9-1.9-1.8-2.6-2.8c-0.5-0.6-1.1-1.4-1-2.2c0.1-0.5,0-0.7-0.3-1.1   c-0.6-0.7-0.9-1.2-2-0.6c-0.7,0.3-1.2,0.7-1.3,1.3c-0.1,0.8-0.4,1.7,0.6,2.2c0.8,0.4,1.4,1.1,1.5,2c0.1,0.5,0.3,0.7,0.7,1   c0.8,0.7,1.5,1.4,1.1,2.7c-0.1,0.3-0.2,0.8,0,1.1C73.2,55.1,73,55.8,72.6,56.6z M64.8,57.3c0.3-0.4,1.2,0.1,1.4-0.5   c0.2-0.7,0.9-1.6,0-2.4c-0.2-0.2-0.2-0.6-0.1-0.8c0.4-0.9,0-1.5-0.5-2.1c-0.6-0.7-0.8-1.4-0.5-2.3c0.2-0.8,0.2-1.4-0.4-2.1   c-0.9-1-1.5-2.4-1.1-3.7c0.3-1,0.1-1.1-0.8-1.4c-1.1-0.3-1.3,0.5-1.8,1c-0.4,0.4-0.4,1,0.1,1.6c0.8,0.9,0.8,1.8,0.2,2.7   c-0.3,0.5-0.1,0.6,0.4,0.7c0.8,0.3,1.2,0.8,1.3,1.7c0.1,0.5,0.1,1.2,0.4,1.5c0.5,0.6,0.4,1.2,0,1.7c-0.5,0.7-0.8,1.5-0.5,2.4   c0.1,0.3,0,0.7,0,1c-0.1,0.3-0.5,0.6-0.2,0.8c0.2,0.2,0.7,0.2,1,0.1C64,57.1,64.3,57.4,64.8,57.3z M61.2,40.2   c-0.7,0.2-0.9,0.6-1.1,1.2c0,0.2-0.1,0.4-0.3,0.5c-0.6,0.3-1.2,0.7-1.9,0.9c-0.9,0.2-1.4,0.8-1.8,1.6c-0.2,0.3-0.1,0.4,0.1,0.7   c1.8,1.4,3.2,3.2,3.8,5.5c0.1,0.5,0.4,1-0.4,1.1c-0.2,0-0.4,0.2-0.2,0.5c1,1.8,0.2,3.6-0.5,5.4c0.5,0,1,0,1.5,0   c1,0,1.7-1.1,1.5-2.1c-0.2-1-0.2-2,0.6-2.7c0.3-0.3,0.4-0.6,0.2-0.9c-0.3-0.3-0.3-0.8-0.4-1.1c-0.2-1.1-0.6-1.8-1.7-2.3   c-0.5-0.2-0.9-0.7-0.3-1.3c0.7-0.7,0.6-1.3,0-2c-0.9-1.1-0.6-2.2,0.6-3c0.2-0.1,0.5-0.3,0.3-0.4C61,41.3,61.3,40.8,61.2,40.2z    M75.1,24.8c-0.1-0.1-0.1-0.1-0.2-0.2c-0.7-0.8-1.4-1.7-2.3-2.3C71,21.1,71,21,70.5,23.1c-0.1,0.3,0,0.6,0.4,0.8   c1,0.7,2.1,1.3,2.8,2.4c0.1,0.2,0.3,0.6,0.5,0.2C74.5,26,74.6,25.3,75.1,24.8z M60.2,39.6c-0.8-0.1-1.5,0.1-2.1,0.6   c-0.7,0.6-1.4,1-2.4,1c-0.7,0-2,1-2,1.6c-0.1,0.7,0.7,0.6,1,1c0.4,0.5,0.7,0.4,1-0.2c0.3-0.7,0.9-1.2,1.6-1.3   C58.9,42.1,59.6,41,60.2,39.6z M72.3,30.8c1.1-2.2,1-2.2-0.5-3.7c-0.3-0.3-0.6-0.5-0.9-0.7c-1.3-1-1.3-1-1.9,0.5   c-0.1,0.2-0.4,0.5,0,0.8C70.2,28.7,71.2,29.7,72.3,30.8z M68.6,29.9c-0.5-0.2-0.5,0-0.5,0.2c-0.1,0.6-0.8,1.1-0.3,1.7   c0.7,0.7,1.5,1.2,2.1,2.1c0.4,0.7,0.8,0.6,1.2-0.1c0.4-0.7,0.4-1.2-0.2-1.7c-0.3-0.2-0.5-0.6-0.8-0.9C69.6,30.6,69,30.2,68.6,29.9z    M76.5,50.3c0.1-1,0.3-2-0.4-2.6c-0.6-0.5-1-1-1.3-1.8c-0.2-0.5-0.9-0.2-1.3-0.1c-0.4,0.1-0.3,0.4-0.1,0.7   C74.1,48,75.2,49.1,76.5,50.3z M41.8,29.2c-0.2-0.3-0.5-0.6-0.8-0.9c-0.2-0.3-0.5,0-0.6,0.1c-0.4,0.2-0.7,0.6-1.1,0.8   c-0.6,0.4-0.6,1.9,0,2.3c0.1,0.1,0.2,0,0.3,0C39.9,31.5,41.7,29.6,41.8,29.2z M35,23.2c-1.2-0.2-2.4-0.1-3.5,0.6   c-1.1,0.6-1.8,1.5-2.6,2.4c-0.5,0.5-1.3,0.7-1.5,1.5C29.8,25.9,32,23.9,35,23.2z M29.5,40.7c-0.6,0.4-1.1,0.8-1.5,1.2   c-0.4,0.4-0.4,1.6,0,1.9c0.2,0.2,0.4,0.2,0.6,0c1.1-0.7,1.2-1.3,0.9-2.6C29.6,41.1,29.6,41,29.5,40.7z M28.8,36.6   c0.1-0.4-0.1-0.7-0.2-1.1c0-0.2-0.1-0.2-0.3-0.2c-1.1,0.2-1.8,2.3-1.2,3.2c0.1,0.2,0.2,0.2,0.3,0.1C28,38,29,37.7,28.8,36.6z    M32.2,39.9c0.1-0.5,0.1-1.1-0.2-1.3c-0.4-0.2-0.8,0.4-1.1,0.7c-0.1,0.1-0.2,0.2-0.3,0.3c-0.3,0.3-0.1,1.8,0.2,2   c0.1,0.1,0.3,0.1,0.3,0C31.4,41.1,32.6,41.1,32.2,39.9z M29.7,36.3c1.7-1.2,1.9-1.8,1-3.3C29.6,33.8,28.7,34.8,29.7,36.3z    M36.9,33.7c1.5-1,1.7-1.5,1-3c-0.1-0.1,0-0.3-0.2-0.3c-0.2,0-1.3,1.2-1.2,1.3C36.8,32.3,36.5,33,36.9,33.7z M75.9,22   c-0.1-0.5,0.2-1.1-0.2-1.3c-0.9-0.5-1.5-1.2-2.2-1.9c-0.4-0.4-0.8,0-1,0.3c-0.3,0.3,0.1,0.4,0.3,0.6C73.8,20.4,74.7,21.2,75.9,22z    M26.7,35.4c0.4-0.2,0.7-0.4,0.9-0.6c0.6-0.5,0.8-1.7,0.4-2.4c-0.1-0.2-0.2-0.1-0.4-0.1c-0.9,0.3-1.4,1.3-1.2,2.2   C26.6,34.7,26.6,35,26.7,35.4z M29.1,33.3c0.4-0.4,0.7-0.7,1-1c1-0.6,0.4-1.5,0.3-2.2c0-0.2-0.2-0.2-0.4-0.1   c-0.9,0.5-1.4,1.5-1.1,2.6C29,32.8,29.1,33,29.1,33.3z M52.5,24.3c-0.4-0.1-0.9,0.1-1.3-0.2c-0.2-0.2-0.6-0.3-0.7,0   c-0.1,0.4-0.4,1.2-0.1,1.3c0.9,0.3,0.4,0.9,0.4,1.4C51.9,26.2,52.6,25.5,52.5,24.3z M29.7,26.9c-1.5,1-1.7,1.5-1.2,2.8   c0.1,0.2,0.1,0.4,0.4,0.2c0.8-0.5,1.3-1.3,1-2.2C29.8,27.5,29.9,27.2,29.7,26.9z M24.8,31.3c-2.2,2.4-2.9,5.3-2.7,8.5   C22.5,36.9,22.8,33.8,24.8,31.3z M33.9,36.9c-1.5,1-1.6,1.4-0.9,3.1C34.7,39.4,34.5,38.2,33.9,36.9z M26.5,39.2   c0-0.6-0.3-1.1-0.2-1.6c0-0.2-0.2-0.4-0.4-0.2c-0.7,0.5-1.2,2.1-0.8,2.9c0.1,0.1,0.2,0.3,0.4,0.2C25.9,40.1,26.4,39.8,26.5,39.2z    M36.1,35.4c-1.5,0.6-1.6,1-1,2.9C36.7,37.2,36.7,37.2,36.1,35.4z M37.2,39.5c0-0.6-0.3-1.3-0.5-1.3c-0.4,0-1.4,1-1.3,1.4   c0.1,0.4-0.1,1,0.4,1.3C36.1,40.9,37.2,39.8,37.2,39.5z M32.5,41.6c-0.5,0.1-0.6,0.5-1,0.7c-0.8,0.5-0.7,1.1-0.5,1.8   c0.1,0.3,0.2,0.4,0.4,0.2c0.5-0.3,1-0.7,1.3-1.1c0.2-0.3-0.1-0.7-0.2-1.1C32.5,42,32.5,41.8,32.5,41.6z M36.8,24.9   c-1.8,0.7-1.9,0.9-1.1,2.9c0.4-0.4,1-0.7,1.3-1.2C37.2,26.1,36.7,25.6,36.8,24.9z M37.3,36.4c0.7-0.4,1.3-1,1.8-1.6   c0.4-0.5-0.4-0.6-0.4-1c0-0.3-0.4-0.1-0.5,0C37.1,34.4,37,34.8,37.3,36.4z M33,44.2c-0.6,0.4-1,1-1.4,1.5c-0.2,0.2-0.6,0.6,0,0.9   c0.5,0.2,0.9,0.5,1.4-0.1C33.5,45.7,33.3,45,33,44.2z M27.4,29.2c-0.5,0.2-0.7,0.8-1,1.1c-0.5,0.5-0.6,0.9-0.3,1.6   c0.1,0.4,0.2,0.3,0.5,0.1C27.9,31,27.9,31,27.4,29.2z M32.1,34.1c1.4-1.1,1.5-1.4,0.6-3C31.6,32,31.5,32.5,32.1,34.1z M67,33.7   c-0.2,0.4-0.5,0.8-0.6,1.2c-0.1,0.4-0.3,0.8-0.4,1.2c0.3,0.2,0.5,0,0.6-0.1C68.9,35.3,68.9,35.3,67,33.7z M35.9,42.3   c0.2,0.3,0,0.9,0.5,1.1c0.3,0.1,1.4-0.8,1.3-1.1c-0.1-0.5-0.2-1.1-0.6-1.4C36.9,40.7,35.9,41.8,35.9,42.3z M30.1,38.9   c0.5-0.2,0.7-0.8,1.1-0.9c0.8-0.3,0.5-1,0.6-1.5c0-0.1,0-0.6-0.6-0.3C30.2,36.9,29.8,37.5,30.1,38.9z M35.5,32.4   c-0.8,0.5-1.3,1.2-1.1,2.2c0.1,0.5,0.2,0.6,0.6,0.4C36,34.6,36.1,33.9,35.5,32.4z M27.7,41.1c1.8-1.4,1.8-1.4,1.3-2.8   C28.3,39.1,26.8,39.4,27.7,41.1z M31.6,30.9c1.2-0.8,1.3-1.1,1-2.3c-0.1-0.5-0.3-0.5-0.7-0.3C31,29,30.9,29.3,31.6,30.9z    M35.5,43.9c-0.2-0.4-0.1-0.7-0.2-1.1c0-0.2-0.1-0.4-0.3-0.3c-0.8,0.1-1.6,1.7-1.1,2.4c0.1,0.1,0.2,0.2,0.3,0.2   C34.7,44.7,35.2,44.4,35.5,43.9z M38.7,28.5c0.3,0,1.5-0.9,1.5-1.2c0-0.2-0.9-1.1-1.1-1c-0.4,0.2-1,0.4-1.1,1   C38.1,27.8,38.5,28.1,38.7,28.5z M24.3,39.3c-1.6,1.2-1.8,1.7-1,2.8c0.3,0.4,0.4,0.3,0.7,0C24.7,41.2,24,40.3,24.3,39.3z    M37.1,27.7c-1.4,0.6-1.6,0.9-1.1,2.5c0.1,0.2,0.1,0.3,0.4,0.2c0.7-0.3,1-1.1,0.8-1.8C37.2,28.4,37.2,28.1,37.1,27.7z M34.5,40   c-0.2,0.1-0.3,0.2-0.5,0.3c-0.9,0.6-1.1,1.1-0.7,2.1c0.1,0.2,0.2,0.3,0.5,0.2C34.9,42,35.1,41.3,34.5,40z M24.7,37.2   c1.2-0.8,1.5-1.7,1-2.7c-0.1-0.1-0.2-0.3-0.3-0.2c-0.4,0.4-1.2,0.5-1,1.2C24.6,36,24.5,36.6,24.7,37.2z M34.1,32.2   c1-0.4,1.3-1.1,0.9-2c-0.1-0.3,0.2-0.8-0.3-0.8c-0.4-0.1-0.6,0.4-0.9,0.7c-0.2,0.1-0.1,0.3-0.1,0.5C33.9,31.1,34,31.6,34.1,32.2z    M39,36.1c-0.4,0.4-0.6,0.5-0.8,0.7c-0.6,0.5-0.9,1.5-0.5,2.1c0.1,0.1,0.2,0.2,0.3,0.1c0.4-0.3,1-0.4,1-1.2   C39,37.3,39,36.8,39,36.1z M30.8,28.1c1.2-0.4,1.5-1.1,1.2-2.1c-0.1-0.2-0.1-0.2-0.3-0.2c-0.7,0-1.3,0.8-1.1,1.5   C30.6,27.5,30.7,27.8,30.8,28.1z M33.4,34.2c-1.3,0.9-1.3,0.9-0.9,2.6C34,35.8,34,36.3,33.4,34.2z M30.1,43.6   c-0.4,0.4-0.8,0.8-1.1,1.1c-0.4,0.3-0.7,0.6,0.2,0.8c0.4,0,0.6,0.6,1,0.2c0.4-0.3,0.3-0.8,0.2-1.2C30.3,44.3,30.2,44,30.1,43.6z    M33.5,29.2c1.1-0.6,1.1-0.6,0.6-2.5c-0.4,0.1-0.8,0.3-0.9,0.6C32.9,27.9,33.6,28.5,33.5,29.2z M25.8,43c1.2-1,1.2-1.2,0.9-2.6   C25.3,41.5,25.2,41.7,25.8,43z M75.4,23.5c-0.1-1.2-3-3.5-3.9-3.1C73,21.2,74.1,22.5,75.4,23.5z M36.8,45.4c0.5-0.3,1.1-0.6,1.6-1   c0.1-0.1,0.1-0.2,0-0.3c-0.2-0.2-0.3-0.6-0.5-0.5c-0.5,0.1-0.9,0.4-1.2,0.9c-0.2,0.2-0.1,0.5,0,0.8C36.5,45.3,36.6,45.3,36.8,45.4z    M73.5,27.8c0-1-2.5-3.2-3.7-3.2C71.1,25.6,72.5,26.4,73.5,27.8z M39,39.3c-1.1,0.4-1,1.2-0.7,2c0.1,0.2-0.2,0.7,0.3,0.6   c0.3-0.1,0.7-0.4,0.6-0.8C38.9,40.5,39.1,40,39,39.3z M38.7,44.1c0.4-0.1,0.8-0.2,1.1-0.4c0.9-0.4,0-0.8,0-1.2   c0-0.5-0.4-0.2-0.7-0.1C38.3,42.9,38.7,43.5,38.7,44.1z M22.8,39.1c1.3-1.2,1.5-1.9,0.7-3.1C22.9,36.9,23.3,38,22.8,39.1z    M71.9,31.9c-0.2-1-2.7-3.4-3.6-3.3C69.6,29.7,70.9,30.6,71.9,31.9z M35.7,45.8c-0.1-0.3-0.2-0.8-0.4-0.6c-0.4,0.3-1,0.6-1.1,1.2   c0,0.3,0.1,0.5,0.4,0.4C35.2,46.6,35.6,46.4,35.7,45.8z M33.8,24.6c-0.7,0.2-1.3,0.4-1,1.2c0.1,0.2,0.1,0.5,0.5,0.4   C34.1,25.9,33.9,25.3,33.8,24.6z M50.2,36.2c0.9-0.6,1.3-1.4,1.6-2.4C51,34.2,50.4,35.1,50.2,36.2z M27.3,44.9   c0-0.6-0.1-0.9-0.1-1.3c0-0.2-0.2-0.4-0.2-0.3c-0.3,0.2-0.8,0.5-0.8,0.7C26.1,44.5,26.8,44.5,27.3,44.9z M25.1,32   c-0.4,0.6-0.8,1.1-0.8,2C24.9,33.4,25.7,33,25.1,32z M36.4,23.9c-0.1-0.1-0.2-0.3-0.3-0.2c-0.4,0.2-0.8,0.5-1.2,0.8   c0,0,0.1,0.3,0.2,0.4C35.1,25,36.4,24.1,36.4,23.9z M60.7,24.4c-0.9,0.2-1.2,0.8-1.5,1.4C59.8,25.4,60.4,25.2,60.7,24.4z    M45.6,27.9c-0.2-0.6-0.3-1.3-1.1-1.8C44.8,26.8,45,27.5,45.6,27.9z"/><path d="M53.5,77c0.5,0.4,0.8,0.8,1.3,1.1c0.3,0.1,0.2,0.4,0.1,0.7c-0.5,1.3-1.3,2.4-2.1,3.5c-0.3,0.4-0.7,0.8-1,1.2   c-0.2,0.2-0.5,0.5-0.8,0.2c-0.3-0.3,0-0.6,0.2-0.8c0.7-0.6,1.2-1.4,1.7-2.1c0.5-0.7,1-1.4,1.2-2.2c-0.2-0.2-0.3,0-0.4,0.1   c-1,2.1-2.8,3.1-4.7,4.2c-0.4,0.3-0.7,0.2-1-0.3c1-0.8,2.3-1.2,3.3-2.2C52.4,79.5,53.4,78.6,53.5,77z"/><path d="M53.1,72.3c-0.1,0.1-0.1,0.2-0.2,0.3c-0.2,0.2-0.3,0-0.5-0.1c-0.9-0.8-1.9-1.5-2.8-2.3c-1.4-1.3-2.6-2.8-3.8-4.3   c-0.3-0.4-0.6-0.7-1-1c-0.4-0.2-0.4-0.5-0.2-0.8c0.2-0.4,0.4,0,0.6,0.1c0.8,0.5,1.3,1.3,1.9,2c1.6,2.1,3.5,3.9,5.4,5.6   C52.7,72.1,52.9,72.2,53.1,72.3z"/><path d="M58,71c-0.4-0.2-0.4-0.4-0.2-0.8c0.5-0.9,1.2-1.7,1.8-2.5c0.9-1.5,2.2-2.9,2.2-4.8c0-0.3,0.1-0.8,0.5-0.7   c0.4,0.1,0.4,0.5,0.4,0.9c-0.4,2.1-1.6,3.9-2.9,5.5c-0.5,0.6-0.9,1.3-1.3,2C58.4,70.8,58.3,71,58,71z"/><path d="M54.3,77.3c0.2-0.3,0.6-0.3,0.8-0.4c-0.4-0.4-0.8-0.5-1.4-0.5c-0.4,0-0.8-0.2-0.8-0.6c0.1-0.4,0.4-0.2,0.8-0.2   c1,0.1,2,0.4,3-0.1c0.7-0.4,1.1,0.6,1.8,0.7c0.1,0,0.1,0.4-0.1,0.4c-1.1,0.1-1.9,1.3-3.1,1C55,77.5,54.7,77.4,54.3,77.3z"/><path d="M68.1,62.6c-0.3,1.2-1,2.3-1.7,3.3c-0.9,1.3-1.8,2.5-2.5,3.9c-0.1,0.3-0.3,0.5-0.6,0.4c-0.4-0.2-0.1-0.5,0-0.7   c0.3-1,0.9-1.9,1.5-2.6c1.1-1.3,1.9-2.8,2.5-4.4c0.1-0.3,0.2-0.5,0.6-0.5C68.2,62,68,62.3,68.1,62.6z"/><path d="M56.5,78.3c0.3,0,0.4,0.1,0.5,0.3c0.5,1.9,2.1,2.5,3.6,3.1c0.5,0.2,1.1,0.4,1.6,0.6c0.3,0.1,0.4,0.3,0.3,0.6   c-0.1,0.3-0.4,0.2-0.5,0.1c-1.4-0.5-2.9-0.9-4.2-1.7c-0.8-0.6-1.2-1.4-1.7-2.2C55.9,78.7,56,78.3,56.5,78.3z"/><path d="M63,82.1c-2.2,0-4.4-1.8-4.9-3.9c0-0.1-0.1-0.3-0.2-0.4c-0.2-0.3-0.3-0.7,0.1-0.8c0.3-0.1,0.6,0.2,0.6,0.5   c0.3,2.6,2.4,3,4.3,3.8c0.2,0.1,0.4,0.1,0.6,0.2c0.2,0.1,0.2,0.3,0.1,0.4C63.4,82.3,63.2,82.1,63,82.1z"/><path d="M55.5,73.8c0.6-0.1,1.4,0.1,2.1-0.1c0.4-0.1,1,0.1,1,0.7c0,0.6-0.5,0.5-0.9,0.5c-0.4,0-0.9,0-1.2,0.2   c-1.2,0.6-2.1-0.5-3.1-0.7c-0.2,0-0.3-0.3-0.2-0.5c0.1-0.3,0.3-0.2,0.4-0.2C54.2,73.8,54.8,73.8,55.5,73.8z"/><path d="M36.9,60.9c0.6,0.9,1.1,1.6,1.5,2.4c1,1.6,2.1,3,3.4,4.3c0.2,0.2,0.5,0.5,0.8,0.1c0.1-0.1,0.2-0.2,0.3-0.1   c0.1,0.1,0.1,0.3,0,0.4c-0.3,0.4-0.6,0.6-1.2,0.3c-1-0.6-1.5-1.5-2.2-2.3c-0.8-0.9-1.5-2-2.3-3C37,62.5,36.6,61.9,36.9,60.9z"/><path d="M43.4,60.1c2,0.4,4,0.3,6,0.5c0.3,0,0.5,0.1,0.5,0.4c0,0.3-0.3,0.2-0.5,0.2c-1.4,0.2-2.9-0.2-4.3,0.2   c-0.3,0.1-0.4-0.4-0.8-0.4c-0.5,0-1.1-0.2-1.6,0c-0.3,0.1-0.8,0.2-0.9-0.3c0-0.5,0.4-0.5,0.8-0.5C42.9,60.1,43.1,60.1,43.4,60.1z"/><path d="M52.2,68.2c-1.5-0.6-2.9-1.2-3.8-2.4c-0.7-0.9-1.3-1.9-1.4-3.1c0-0.3,0.1-0.5,0.3-0.6c0.2,0,0.5,0.2,0.5,0.4   c0.1,2.4,1.8,3.7,3.7,4.7C51.7,67.4,52.1,67.5,52.2,68.2z"/><path d="M69.6,59.2c0.9,0.2,1.8-0.2,2.8-0.1c0.3,0,0.7,0.1,0.7,0.4c0,0.4-0.4,0.3-0.6,0.3c-1.5,0.1-2.9,0.2-4.4,0.2   c-0.3,0-0.7,0-0.7-0.4c0-0.4,0.4-0.4,0.7-0.4C68.6,59.2,69,59.2,69.6,59.2z"/><path d="M54.6,48.9c0-0.5,0.8-1.6,1.4-1.7c0.5-0.1,0.8,0.2,0.7,0.7c-0.1,0.7-0.6,1.3-1.2,1.6C55,49.8,54.5,49.6,54.6,48.9z"/><path d="M33.7,50.7c0.3,0.2,0.8,0.2,0.7,0.7c-0.2,0.6-0.5,1.4-1.2,1.5c-0.8,0.1-0.7-0.7-0.7-1.2C32.5,50.9,33.4,51.2,33.7,50.7z"/><path d="M41.4,50.7c-0.6,0-0.9-0.2-1.1-0.5c-0.2-0.3,0-0.6,0.2-0.8c0.1-0.1,0.1-0.1,0.2-0.2c0.4-0.5,0.9-0.7,1.5-0.5   c0.2,0.1,0.5,0.3,0.3,0.7C42.3,50.2,42,50.6,41.4,50.7z M41.2,50.1c0.3-0.1,0.6-0.4,0.7-0.8c0-0.1-0.2-0.3-0.4-0.3   c-0.4,0.1-0.5,0.6-0.7,0.8C40.8,50,41,50.1,41.2,50.1z"/><path d="M47.9,44.4c-0.3-0.8,0.5-0.9,0.9-1c0.5-0.1,0.8,0.5,0.7,1c-0.1,0.5-0.3,1-1,1C47.9,45.3,47.8,44.9,47.9,44.4z"/><path d="M46.3,46.6c-0.2,0.4-0.2,1-0.8,0.9c-0.5,0-1-0.3-1-0.9c0-0.4,0-1,0.7-1C45.8,45.7,46.1,46.1,46.3,46.6z"/><path d="M52.3,47.2c-0.5-0.2-0.8-0.4-0.7-0.9c0.1-0.6,0.4-1.1,1.1-1.1c0.5,0,0.6,0.3,0.6,0.7C53.1,46.6,52.8,47,52.3,47.2z"/><path d="M42.7,44.4c0.7-0.1,1.1,0.3,1.1,0.8c0,0.4-0.4,0.8-0.9,0.8C42.4,46,42,45.6,42,45C41.9,44.4,42.2,44.3,42.7,44.4z"/><path d="M50.3,50.9C50.2,50,51,50,51.4,49.8c0.2-0.1,0.5,0.1,0.4,0.4c0,0.5-0.7,1.4-1.1,1.4C50.3,51.6,50.3,51.2,50.3,50.9z"/><path d="M50.1,47.4c-0.2,0.4-0.3,1-0.9,1c-0.3,0-0.9-0.2-0.8-0.7c0.1-0.5,0.4-0.8,0.9-0.9C49.8,46.8,50,47,50.1,47.4z"/><path d="M35.3,49.8c-0.5,0-0.6-0.3-0.7-0.7c0-0.5,0.3-0.8,0.8-0.8c0.4,0,0.7,0.2,0.7,0.6C36.1,49.4,35.7,49.7,35.3,49.8z"/><path d="M38.6,45.8c0.2,0,0.6,0.1,0.5,0.4c-0.1,0.5-0.3,0.9-0.9,0.9c-0.4,0-0.8-0.3-0.8-0.6C37.6,46,38.1,45.9,38.6,45.8z"/><path d="M51.4,32.2c-0.1,0-0.1,0-0.2,0c-0.7-0.1-2.1-1.7-2.1-2.4c0-0.4,0-0.5,0.4-0.4c0.9,0.3,1.9,0.5,2.5,1.3   c0.2,0.2,0.7,0.3,0.4,0.8C52.2,31.9,51.9,32.2,51.4,32.2z"/><path d="M47.2,32.5c0,1-1.5,2.4-2.4,2.3c-0.5-0.1-0.8-0.2-0.4-0.8c0.4-0.6,0.8-1.2,1.1-1.9c0.1-0.2,0.2-0.4,0.4-0.5   c0.7-0.5,0.9-0.5,1.1,0.4C47,32.2,47.1,32.4,47.2,32.5z M45.2,33.8c0.6-0.2,0.8-0.5,1-0.8c0.2-0.2,0.3-0.4,0.1-0.6   c-0.2-0.2-0.4,0.1-0.5,0.2C45.7,33,45.5,33.3,45.2,33.8z"/><path d="M60.1,29.8c-0.4,0-0.8-0.3-1.2-0.1c-0.2,0.1-0.5,0.1-0.6-0.1c-0.1-0.3,0-0.5,0.2-0.6c0.6-0.5,1.1-0.9,1.7-1.3   c0.2-0.2,0.4-0.1,0.7,0c0.3,0.2,0.2,0.3,0.1,0.6c-0.1,0.4-0.1,0.8-0.3,1.1C60.7,29.7,60.5,30,60.1,29.8z"/><path d="M62,31.7c0,0.7-0.8,1.6-1.5,1.5c-0.3,0-0.5-0.1-0.5-0.5c0.1-0.7,0.8-2,1.2-2C61.5,30.8,62,31.3,62,31.7z"/><path d="M62.5,37.1c0,0.4,0.1,0.9-0.4,0.9c-0.2,0-0.4-0.2-0.3-0.5c0.1-0.3,0.1-0.8,0.5-0.9C62.7,36.6,62.4,37.1,62.5,37.1z"/><path d="M58.9,36.5c-0.3,0.4-0.6,0.8-1.2,0.6c-0.2-0.1-0.3-0.3-0.2-0.4C57.9,36.2,58.4,36.5,58.9,36.5z"/><path d="M56.5,34.1c0.5,0.1,0.6,0.6,0.9,1c0.1,0.1,0,0.3-0.2,0.2c-0.5-0.1-0.6-0.6-0.9-0.9C56.2,34.3,56.3,34.1,56.5,34.1z"/></g><text x="0" y="115" fill="#000000" font-size="5px" font-weight="bold" font-family="'Helvetica Neue', Helvetica, Arial-Unicode, Arial, Sans-serif">Created by Olga</text><text x="0" y="120" fill="#000000" font-size="5px" font-weight="bold" font-family="'Helvetica Neue', Helvetica, Arial-Unicode, Arial, Sans-serif">from the Noun Project</text></svg>