<svg xmlns="http://www.w3.org/2000/svg" data-name="Слой 1" viewBox="0 0 100 125" x="0px" y="0px"><title>cake_Монтажная область 1_Монтажная область 1_Монтажная область 1_Монтажная область 1_Монтажная область 1_Монтажная область 1</title><path d="M81.762,18.95335c1.33012-.23349,2.41022-.43276,3.49374-.61142a6.57907,6.57907,0,0,1,7.08888,4.0248c.481,1.24289.85083,2.52869,1.32969,3.77246,1.62439,4.21909,1.5608,8.47708.84766,12.9037a34.60253,34.60253,0,0,1-4.09568,11.89936c-1.54212,2.68975-3.95185,4.5868-6.13437,6.697-3.09426,2.9917-6.1068,6.06825-9.2155,9.04464-1.70852,1.63581-3.53935,3.1442-5.32109,4.703-.83312.72889-1.71767,1.4027-2.51591,2.16719A92.28653,92.28653,0,0,1,48.88521,86.841a33.67713,33.67713,0,0,1-14.44532,4.784c-3.56348.22753-7.14151.87262-10.82873-.10077-3.62129-.95592-7.42117-1.25348-10.8728-2.87665a2.95916,2.95916,0,0,1-1.29487-1.00842,34.95048,34.95048,0,0,1-2.68427-5.10326,48.45709,48.45709,0,0,1-3.10565-11.549,42.76677,42.76677,0,0,1-.61829-7.7134c.274-4.15877.503-8.32951,2.73745-12.02266.80043-1.323,1.7916-2.5306,2.704-3.80234-.25487-1.19255-.86684-2.47432-.67189-3.61857.17206-1.00888,1.24523-1.86414,1.979-2.86714,0-1.42741-.04086-3.05008.01253-4.66965a3.40123,3.40123,0,0,1,1.97309-3.01766,28.98951,28.98951,0,0,0,6.6013-5.24227,18.63091,18.63091,0,0,1,3.47222-2.71247,3.13248,3.13248,0,0,0,1.82554-2.54086c.07922-.88276.291-1.75464.35279-2.63775.1142-1.634.39136-2.13771,1.91572-2.543a53.03285,53.03285,0,0,1,12.84665-2.14591c1.80163-.02627,3.295-.36148,4.17425-2.24325a3.52777,3.52777,0,0,1,3.28485-1.862c4.88134-.34816,9.75217-.85914,14.618-1.39017a2.77919,2.77919,0,0,0,1.57416-1.00463,2.417,2.417,0,0,1,2.52556-.94366c4.07748.71436,8.16712,1.36041,12.25555,2.011a2.20682,2.20682,0,0,1,2.00905,2.06c.215,1.836.29983,3.68718.4392,5.532C81.69159,17.97436,81.717,18.33632,81.762,18.95335ZM42.74556,40.84615c-1.42313-.29149-.741-1.25483-.50632-1.95909l-1.44863-.48483c.43751-.55508.75118-.953,1.2837-1.62861-1.48992.28307-1.91288.94552-1.75275,1.96148.24033,1.52455.96579,2.30735,2.11611,2.36421.08663.0043.18323-.19209.27563-.29482l1.61628-.22025C43.21935,39.52818,43.07911,40.46775,42.74556,40.84615Zm19.22135-12.5246c.1349.96543.63316,1.3271,1.52289.82211.94786-.538,1.85709-1.144,2.85535-1.76523-.50545-.6713-.90144-1.19724-1.29749-1.72317-.84695-1.91564-1.69391-3.8313-2.64913-5.99179-.74054,1.02907-1.38313,1.922-2.02577,2.81495,1.06544.00169,1.95505-.47256,2.522.8092a2.18886,2.18886,0,0,1-.55486.38986,14.38136,14.38136,0,0,0-1.482.36562c-.264.11167-.42683.46306-.82669.9304,2.32941-.3697,2.32941-.3697,2.38766,1.13629l-2.18574,1.16727C61.07359,27.78338,61.52025,28.05248,61.96691,28.32155ZM21.322,79.32879l-1.62859.182a1.76468,1.76468,0,0,1-.20535-.4405c-.02817-.21524.0188-.43961-.00251-.65654-.08178-.8329-2.69178-2.61235-3.18623-2.13752l.51673,1.39411c.575-.07148,1.10488-.13741,1.40923-.17524.26964,1.14149.497,2.10376.71685,3.03427l2.02087-.49019c.4.3247.80005.64942,1.46786,1.19154.27956-2.05019.914-3.64159.325-5.46555C22.22509,77.08429,21.77352,78.20655,21.322,79.32879ZM34.73661,47.543l-.04108-.04149,1.33927,1.39017c.77989-.652,1.37714-1.15144,2.0382-1.70413-.88281-1.47851-1.66912-2.79542-2.45636-4.11192-.22731-.32372-.45457-.64746-.75074-1.06931-.18786.888-.18786.888.78457,1.03327.48109,1.43925-.62755,1.6925-1.89529,2.01463C34.12807,45.99983,34.43231,46.77141,34.73661,47.543Zm43.21448-35.756.04152.02574c-1.9307-.40681-3.85236-.86494-5.79483-1.20432a41.90687,41.90687,0,0,0-4.82212-.59486c-2.28855-.12991-3.007.93528-2.39763,3.3933,2.34456-.41255,4.69545-.82625,7.49108-1.31819l1.3256-1.0353V13.1005c3.23233,1.31593,4.6196,3.85745,5.08212,7.26969.46824-.33309.99613-.58238.96824-.70821-.28256-1.27205.46126-2.827-.985-3.78652C79.89465,13.436,79.68826,12.50755,77.95109,11.78695ZM44.43615,85.93358a23.08147,23.08147,0,0,0,3.32794-.96192,72.55473,72.55473,0,0,0,11.42255-7.23561c1.67016-1.21322,3.15845-2.674,4.76328-3.98069,2.532-2.06154,5.21713-3.95277,7.61345-6.15932,4.03406-3.71454,7.91774-7.59436,11.80878-11.46088,1.12532-1.11823,2.05978-2.42852,3.08059-3.6494.49363-.33573,1.233-.59369,1.568-1.11265a23.51351,23.51351,0,0,0,2.68095-4.82321,48.38174,48.38174,0,0,0,2.18574-8.347c.58287-3.72979.87-7.51786-.97674-11.09943A22.92105,22.92105,0,0,1,90.722,23.7533a4.9777,4.9777,0,0,0-6.57471-3.358,7.71418,7.71418,0,0,0-.8615.18168c-2.389,1.04157-5.288,1.00676-7.07133,3.35034-.13518.17762-.515.16312-.77635.25182a12.09965,12.09965,0,0,0-2.2211.791c-2.09192,1.21589-4.14771,2.49657-6.18651,3.80059-2.99853,1.918-5.97522,3.87039-8.95224,5.82174C54.76558,36.76373,51.463,38.95026,48.208,41.096c.27977,1.747.1568,2.113-.88548,1.90593-1.42144-.28241-2.24567.4438-3.1153,1.26589a14.35436,14.35436,0,0,1-1.60657,1.53514C37.7371,49.12561,33.50341,53.19119,29.2,57.16813A10.02738,10.02738,0,0,0,26.80263,60.306a24.17321,24.17321,0,0,0-1.90422,10.19573c.03192,2.80621-.07863,5.62181-.29422,8.42025a38.32683,38.32683,0,0,1-.90253,5.02559A2.51955,2.51955,0,0,1,21.76,85.85689a9.239,9.239,0,0,1-5.89437-.19644,4.98708,4.98708,0,0,0-3.4525.262,19.18,19.18,0,0,0,3.65066,2.03414,39.12046,39.12046,0,0,0,6.10554,1.11714c1.523.17574,3.16553-.24706,4.59858.15446a3.392,3.392,0,0,0,3.88733-.98553c.05557-.06157.27095.02114.45009.04089l-.26212,1.11728c1.99635.12313,3.97424.74559,5.75467-.71473.16808-.13787.53367-.08611.7971-.04862C40.45744,89.07292,42.56113,87.28168,44.43615,85.93358ZM33.7396,35.765c-.50463-3.30526-2.21865-6.011-3.91327-8.7006-.54522-.8654-1.47134-1.72557-2.60892-1.31454-1.65789.599-3.55225,1.12234-4.753,2.28839a66.59469,66.59469,0,0,1-8.07825,6.9507,2.44782,2.44782,0,0,0-.97854,1.818c.19647,2.10345-.07,4.26846,1.01542,6.27919,1.12548,2.085,1.99608,4.30689,2.99832,6.45948.2121.45557.51209.87025.86107,1.45317a14.76524,14.76524,0,0,1,11.534-2.35548A12.37786,12.37786,0,0,1,33.7396,35.765Zm1.61611-1.17419a8.82413,8.82413,0,0,1,5.63312-1.93539,1.66437,1.66437,0,0,0,1.82723-1.55568,7.923,7.923,0,0,1,3.37366-5.03344c.3457-.24537.81132-.65087.81835-.99093.04588-2.20225.04724-4.41079-.08265-6.60863A1.54478,1.54478,0,0,0,45.264,16.98422c-1.727.02691-3.45882.235-5.17823.15165a28.425,28.425,0,0,0-10.85313,1.97478A2.72861,2.72861,0,0,0,27.72014,20.501a15.75781,15.75781,0,0,0-.50262,3.19817c2.59486.09486,3.85263,1.792,4.85459,3.78888.396.78926.79111,1.57958,1.15932,2.38194C33.90654,31.34139,34.56133,32.8221,35.35571,34.59085ZM28.41394,50.43206l-.08134-.42953a22.15325,22.15325,0,0,0-2.76927.01673c-4.46716.56713-7.97583,2.48592-9.13018,6.83964-.26376.99488-.23276,2.06713-.48823,3.0652-.91822,3.5874-.28447,7.11683.6276,10.54047.73935,2.77532,2.24616,4.93676,6.44008,3.374v-4.5567c-2.6828-1.7794-3.27188-2.31239-3.73838-4.67926a14.42093,14.42093,0,0,1-.23226-5.06438c.68018-4.03589,2.68095-7.17747,6.89279-8.40655C26.759,50.89109,27.58747,50.6649,28.41394,50.43206Zm26.7224-26.87332a14.38587,14.38587,0,0,1,7.90543-9.427c-.29939-.90122-.52332-1.57522-.78506-2.36311-2.58892.21028-5.0194.3691-7.441.61559-2.27912.232-4.54659.57554-6.82354.83159a2.37347,2.37347,0,0,0-2.05786,1.74485,3.944,3.944,0,0,1,2.81879,4.34117c-.0674,1.68034-.01368,3.36554-.01368,5.0267C50.87029,24.07211,52.91235,23.82639,55.13634,23.55874Zm9.28563-5.7599A12.19352,12.19352,0,0,0,68.09,26.3222c.48442-.28795.98317-.58437,1.28044-.761-1.10129-2.63188-2.14744-5.132-3.15246-7.53382,1.40193-2.47987,2.36935-3.02537,4.74268-2.18236a7.53956,7.53956,0,0,1,4.91611,4.19773,5.40237,5.40237,0,0,0,.62193.9426,3.98349,3.98349,0,0,0,.323-2.42473c-.68738-2.70315-3.06517-4.36527-6.13786-4.55419a15.99333,15.99333,0,0,0-5.41349,1.05094c-4.90178,1.394-7.30747,4.94378-8.67366,9.55153a6.37093,6.37093,0,0,0,.52343,4.92954,27.16217,27.16217,0,0,0,1.8681,2.76289c.69707-.64656,1.22191-1.13335,1.8013-1.67073-2.10979-2.80414-3.55182-5.77393-1.77215-9.0861C60.07315,19.57946,61.50494,17.6459,64.422,17.79884Zm-30.0121,32.493a11.36377,11.36377,0,0,1-1.57639-3.015,14.01821,14.01821,0,0,1,.11436-4.20215,6.56319,6.56319,0,0,1,1.00272-2.19661.99529.99529,0,0,1,1.542-.29628,4.368,4.368,0,0,1,1.05993,1.0947c1.00927,1.43857,1.97822,2.90547,3.03793,4.4732.51226-.33759.95293-.59058,1.35137-.89823.86134-.665,1.70105-1.358,2.66836-2.1349-3.05247.07159-4.65349-1.11538-5.20334-3.84915a3.605,3.605,0,0,1,.23314-1.897c.67767-1.75508,2.35131-2.15281,4.20339-2.537-1.64226-.77149-2.30228-.89768-3.59116-.47235A12.18054,12.18054,0,0,0,32.58786,39.289a9.17367,9.17367,0,0,0-1.4137,8.027c.37894,1.17816,1.12445,2.25174.76507,3.60783-.05231.1972.40046.52822.70982.90827C33.345,51.22328,33.93841,50.70424,34.40987,50.29185ZM44.58854,31.34346c2.12978-1.33405,2.67991-1.26177,4.14363.6203.49106.63139.74932,1.43841,1.18454,2.12006.534.83644,1.14193,1.62567,1.802,2.55356.74953-.582,1.22758-.95322,1.88553-1.46415a5.113,5.113,0,0,1-3.482-4.45688c-.39365-2.74933.11-3.59247,2.842-4.12211.66-.128,1.48159-.06813,1.71521-1.016A8.47344,8.47344,0,0,0,44.58854,31.34346ZM11.48267,57.02513c-1.81493-4.02057-1.777-3.19525,1.60586-6.44226-.35066-.543-.72262-1.119-1.26708-1.96208C7.14191,53.73565,6.35794,59.58368,6.71263,65.94206c1.99216-1.364,2.19893-2.07906,1.167-3.52981a2.48,2.48,0,0,1,.996-3.99968C9.71378,57.97689,10.54385,57.52543,11.48267,57.02513ZM23.013,67.00194c0-.23616.059-.4383-.0085-.49845-2.36031-2.1021-2.18329-4.71478-1.34772-7.35032.95505-3.0121,2.352-3.7749,5.53308-3.41027a2.13684,2.13684,0,0,0,1.40068-.25831C29.463,54.83334,30.228,54.03831,31.024,53.312a2.004,2.004,0,0,0-2.05285-1.245c-4.24585.31148-7.12272,2.47884-8.09935,6.65243-.56429,2.41171-.81622,4.98527.66923,7.30074C21.89012,66.56438,22.203,67.15591,23.013,67.00194Zm-14.83576.73764c-.631.52773-.99946.69649-.9939.85188a27.48981,27.48981,0,0,0,1.971,9.45218c.381-.977.64863-1.64291.90068-2.31478.2722-.72573.5298-1.457.80723-2.22293-2.65877-.47118-2.7278-.56026-2.68683-3.03806C8.18736,69.74339,8.17722,69.01854,8.17722,67.73958ZM26.28661,57.625a1.99238,1.99238,0,0,0-2.4185.55446,6.73067,6.73067,0,0,0-.51024,6.62121C24.36223,62.3399,25.31891,59.99588,26.28661,57.625ZM67.94524,17.52388c1.18884,2.39463,1.509,4.88121,3.16536,6.79859,1.22917-.45952,2.38085-.76616,3.21059-1.96628-2.63022.31753-3.43157-.29239-4.469-2.52959a1.77367,1.77367,0,0,1-.23706-1.29236C69.84891,17.38669,69.273,17.15246,67.94524,17.52388ZM9.51334,70.223c1.84984.53282,2.93179,2.48434,4.87219,1.32666.40149.686.78533,1.34178,1.16917,1.99761l.25613-.13592c-.51847-1.9393-1.037-3.87861-1.67125-6.25091-.28282.64409-.65964,1.10511-.55072,1.31945a1.80185,1.80185,0,0,1-.7157,2.63469C11.61354,71.08918,11.41015,68.94272,9.51334,70.223ZM54.75408,28.04066c-1.94105-.34393-2.89915.08-2.90368,1.0845a8.38364,8.38364,0,0,0,.58658,2.97247c.19162.49915.86777.81236,1.3772,1.25463.09692-1.20039.17059-2.112.231-2.86028-.43631-.24-.88766-.48815-1.5048-.82756Zm-8.8194,6.77044c-.01836,1.64624.4301,2.90439,1.85557,3.61031a1.53407,1.53407,0,0,0,2.2199-.67457c-.47331-.78868-.80168-1.57952-1.90738-1.0353-.12221.0602-.73674-.461-.77809-.76028-.05285-.38226.2448-.813.43064-1.33241C47.129,34.685,46.56751,34.74428,45.93468,34.8111ZM9.65532,80.23723c.593,1.16046.9981,1.95331,1.604,3.1391.38684-1.2518.62739-2.03018.93032-3.01052Zm12.23273,3.21418-.08974-.55982-1.63458-.51983c-.09333.81614-.16013,1.40048-.27885,2.43857C20.79918,84.19008,21.34359,83.82073,21.88805,83.45141ZM17.133,51.872l-.43282-.2652c-.79989.56053-1.62036,1.10907-1.287,2.66334C16.092,53.32348,16.61251,52.59772,17.133,51.872Zm37.92-18.12928.33127.45664c.62155-.3545,1.24316-.709,1.95-1.11213-.32074-.466-.512-.74382-.76179-1.10669C56.00411,32.63958,55.52857,33.19112,55.053,33.74269ZM10.47765,65.82688c1.4349.367,2.0564-.1133,1.80119-1.68974C11.57093,64.80125,11.02429,65.31405,10.47765,65.82688Zm6.54011,15.715c-.4217,1.409-.4217,1.409.93844,1.89381Zm-3.87082,1.761c.85829-.84109.85829-.84109.45979-1.85622Zm3.03825-3.94165c-.26174-.089-.33442-.13588-.40176-.12913a.18475.18475,0,0,0-.12347.129,1.91325,1.91325,0,0,0,.63714,2.114C16.24409,80.474,16.21271,79.88036,16.18519,79.36129Zm-2.24442-20.3076.46225.03359.08859-1.53006-.44241-.0304Q13.995,58.29027,13.94077,59.05369Zm-2.19053,2.26972c-1.12069.42928-1.60761.77567-.80621,1.66586C11.18714,62.48684,11.39821,62.05075,11.75024,61.32341ZM45.87992,33.54617l1.38826-.63343c-.42411-.377-.71037-.63145-1.181-1.04983C46.01172,32.47572,45.96955,32.81837,45.87992,33.54617ZM13.74539,45.213l-.28571.0468a4.81835,4.81835,0,0,0,.29982.74155,5.31537,5.31537,0,0,0,.52621.64028l.22584-.18947Q14.1285,45.83256,13.74539,45.213Zm.40989,31.80081c.74643-.0511,1.44731-.27836.63261-1.16994C14.55236,76.2795,14.35382,76.64667,14.15528,77.01381Zm-.63088-1.5513.39545.17748.38667-1.18982-.31132-.11224Q13.75974,74.90025,13.5244,75.46251Zm-.04511-10.93932.32069.0985c.04386-.22918.08941-.45813.12407-.6887a.51615.51615,0,0,0-.16073-.04457C13.66192,64.09671,13.5717,64.31048,13.47929,64.52319Zm6.59209,12.83472a7.18966,7.18966,0,0,0,.50458-.80157c.03672-.082-.061-.22418-.09747-.339a2.84841,2.84841,0,0,0-.68585.352C19.73946,76.61616,19.90951,76.917,20.07138,77.35791ZM13.25983,56.983c.19843-.49022.31917-.64468.28157-.72545a2.24145,2.24145,0,0,0-.37136-.457Z"/><path d="M33.90828,57.46583c3.44487,5.07253,4.924,10.30638,3.94428,16.147-.72274,4.30822-4.09242,11.1547-9.55,13.659-.6014-.22992-1.26866-.48161-1.93081-.74594-.04424-.01765-.05012-.13144-.13261-.37153.26266-.1337.54124-.29919.83769-.42124.539-.22186,1.36755-.26155,1.58614-.65144,1.03019-1.8378,3.31651-2.34925,4.27319-4.22519A45.22745,45.22745,0,0,0,35.75372,75.33a20.97376,20.97376,0,0,0,.61273-5.02872c.01661-.19682-.3384-.425-.60549-.73728,1.13633-.92555,1.05972-2.06334.43909-3.33048-.61763-1.261-1.11485-2.58094-1.6731-3.89447l-1.2697.13812c.31345-.49521.5322-.84083.79035-1.24859C33.9279,60.11975,32.32514,59.06382,33.90828,57.46583Z"/><path d="M51.94145,60.10722c.56631-.77294.89272-1.2293,1.23058-1.677.44328-.58745,1.06816-1.00616,1.67527-.46611a1.72793,1.72793,0,0,1,.40635,1.53506,2.27193,2.27193,0,0,1-1.3128,1.237C53.49332,60.86441,52.88484,60.43137,51.94145,60.10722Z"/><path d="M88.358,28.20087c-.74785,1.04413-1.94242.69816-2.04964,2.03678-.05187.647-1.31411.66906-1.98295-.24109l2.63518-2.79248Z"/><path d="M50.58888,67.98473a9.05156,9.05156,0,0,1-.35082,2.13479c-.16575.38153-.88276.90948-1.08032.81307a1.99252,1.99252,0,0,1-1.02446-1.213C47.94656,68.66771,48.61563,68.21048,50.58888,67.98473Z"/><path d="M42.871,65.68413l2.083.53675c-.07933,1.78033-.07933,1.78033-3.12237,1.23982C42.1799,66.86546,42.50082,66.317,42.871,65.68413Z"/><path d="M64.4692,66.64725c-.83377.77561-1.46072,1.35881-2.08772,1.942-.83006-.27528-1.46088-.69031-1.16879-1.5778.1246-.37845.65283-.651,1.04424-.89768.11235-.07086.38357.1322.58865.182C63.25742,66.39589,63.674,66.47685,64.4692,66.64725Z"/><path d="M54.36556,71.04377l1.80773.92911c-.56588.61968-.60211,1.96658-1.80686,1.43177C53.27288,72.91917,53.708,72.0171,54.36556,71.04377Z"/><path d="M49.43954,76.29086c.78549.89534.92083,1.73358.05513,2.34707a1.34175,1.34175,0,0,1-1.28653-.2913C47.28147,76.94383,49.15164,77.09644,49.43954,76.29086Z"/><path d="M91.64688,28.5755c-.72388,1.20492-1.407,1.18233-2.10369.77678-.6191-.36041-.87916-.91108-.43211-1.92482Z"/><path d="M42.6,81.21092,40.7127,82.46939c-1.10886-.8597-.84968-1.56192.1008-2.37921Z"/><path d="M68.75852,63.26545c.704,2.15433.59661,2.38321-1.15326,2.63831C67.21935,64.76414,67.18785,63.80209,68.75852,63.26545Z"/><path d="M89.33729,36.32688c.12259-1.089-.01868-2.0391.58723-2.98982C91.452,36.03217,91.42066,36.20415,89.33729,36.32688Z"/><path d="M76.76235,55.66706c-.3184.84219-.63686,1.68438-1.031,2.72685-.54708-.39016-.91108-.64975-1.34777-.96115.7096-.79626,1.30832-1.46816,1.9071-2.14009Z"/><path d="M59.51752,53.06585a7.51955,7.51955,0,0,1-1.31672,1.34331c-.26212.15721-.757-.07364-1.14694-.12959.0753-.32427.04282-.79555.24638-.94479C57.86115,52.92367,58.45563,52.3213,59.51752,53.06585Z"/><path d="M72.83149,45.72793c.53062,1.09322.73657,1.86417-.29215,2.2345-.32249.11608-1.13114-.19061-1.19091-.43342C71.091,46.48384,72.03536,46.30944,72.83149,45.72793Z"/><path d="M87.732,41.02663c-.34162.76825-.68329,1.53653-1.21947,2.74221-.453-.88755-.71608-1.403-1.0492-2.05566.79035-.4055,1.3961-.71628,2.00191-1.02708Z"/><path d="M74.41294,35.7707l2.61976.13646c-.03269,1.16792-.6865,1.38956-1.46061,1.35592C74.86118,37.23216,74.30474,36.94391,74.41294,35.7707Z"/><path d="M70.35807,54.39586c-1.08271.0407-1.91692.30953-2.17267.03651-.7297-.77893.07214-1.37717.57579-2.20018C69.235,52.87409,69.59431,53.361,70.35807,54.39586Z"/><path d="M76.92962,51.21674c.80462-.84066,1.291-1.40471,1.84908-1.88559.11437-.09853.537.0586.74131.20467a.60425.60425,0,0,1,.12505.57478C79.183,50.98072,78.55161,51.56127,76.92962,51.21674Z"/><path d="M29.05729,75.69649c-.93631,1.084-.95723,2.7933-2.37546,3.54809l-.42622-.276q1.16377-1.79544,2.32756-3.59083Z"/><path d="M80.4591,33.601c.423-.59872.84151-1.19107,1.22268-1.73063,1.07367.331.9453.92165.6433,1.46167C81.96575,33.97444,81.437,34.3084,80.4591,33.601Z"/><path d="M69.12242,57.25827c.60385.68067,1.04555,1.00311,1.21587,1.433.111.28033-.17233.71685-.27907,1.08339-.39659-.19211-1.04419-.30685-1.13267-.59393A5.67677,5.67677,0,0,1,69.12242,57.25827Z"/><path d="M32.14333,74.58894l2.04642-2.94961C34.13063,73.07649,33.62175,74.2063,32.14333,74.58894Z"/><path d="M67.96567,42.02213c-.41392.26692-.79231.58772-.85164.53681a12.07721,12.07721,0,0,1-1.08522-1.161c.28387-.17552.694-.565.82778-.48616A6.18564,6.18564,0,0,1,67.96567,42.02213Z"/><path d="M77.74645,58.65075a9.22791,9.22791,0,0,1-.73429,1.61657.94533.94533,0,0,1-.91882.02926.90022.90022,0,0,1-.11643-.88959,7.98447,7.98447,0,0,1,1.236-1.0926Z"/><path d="M53.81619,52.828a13.93293,13.93293,0,0,1-1.47521,1.0488c-.13076.07227-.582-.15676-.66024-.34244-.087-.20614.0188-.70867.15452-.75613a13.573,13.573,0,0,1,1.77607-.39653Z"/><path d="M83.25387,38.23385c-.5236.366-.83339.75145-1.14526.75313-.31279.00172-.62766-.37931-.94159-.59262.26582-.28986.50212-.76932.80582-.81669C82.28225,37.52937,82.658,37.90616,83.25387,38.23385Z"/><path d="M74.412,41.33471c-.57966.45652-.942.934-1.16629.87618-.39425-.10166-.7041-.53075-1.04926-.82273.22519-.23241.465-.66937.67239-.65441A6.17808,6.17808,0,0,1,74.412,41.33471Z"/><path d="M58.359,49.45475a5.50872,5.50872,0,0,1-.99565,1.06086c-.198.12635-.61817-.09543-.93783-.15977.098-.30787.10439-.75834.31372-.89278a5.56175,5.56175,0,0,1,1.358-.46107Z"/><path d="M62.77344,54.90583c-.47477-.60006-.91027-.912-.886-1.18285a1.29087,1.29087,0,0,1,.74371-.824c.168-.07184.77122.33205.75629.47774A6.47074,6.47074,0,0,1,62.77344,54.90583Z"/><path d="M47.91926,56.3474q-.81717.23289-1.63441.46573a3.35423,3.35423,0,0,1-.15757-.76288,16.62037,16.62037,0,0,1,1.60407-.56261Z"/><path d="M56.03081,76.89673c-.4247-1.76374.24616-1.91414,1.78081-1.40406Z"/><path d="M79.27086,45.82948c-.31988-.4888-.5279-.80671-.73592-1.12463.2831-.16667.58636-.48793.84331-.4544a.92437.92437,0,0,1,.5784.69454C79.96678,45.17728,79.60337,45.42578,79.27086,45.82948Z"/><path d="M32.48113,79.40676c.06254-.90016.10869-1.56435.17489-2.51655C33.59358,78.24327,33.59358,78.24327,32.48113,79.40676Z"/><path d="M26.84011,81.83866c.40607,1.46161.25738,2.17876-1.4016,2.39223C25.96341,83.335,26.31243,82.73931,26.84011,81.83866Z"/><path d="M64.17929,45.70109a13.57712,13.57712,0,0,1-.21662-1.465c-.00257-.043.56669-.25065.7194-.15087.72355.47279.52992,1.01692.13752,1.53025Z"/><path d="M64.06869,60.02585c-.4879.29966-.80217.62169-1.13757.64542-.1731.01225-.60265-.60516-.531-.76289a1.45225,1.45225,0,0,1,.86363-.70127C63.41265,59.1662,63.70239,59.63806,64.06869,60.02585Z"/><path d="M56.86284,66.35917c-.38063-.51978-.73134-.81111-.79667-1.15643-.04086-.216.40335-.75662.53384-.72712.34973.07925.86809.35208.90939.613C57.55871,65.4,57.1819,65.77883,56.86284,66.35917Z"/><path d="M44.69843,74.6963c-.6319,1.21421-1.06827,1.50837-1.6731,1.037-.15745-.12267-.12754-.48578-.18377-.73845Z"/><path d="M36.30215,85.93949c-.201.82685-.712,1.03184-1.33736.79146-.13681-.0526-.22807-.75109-.07737-.92732C35.38976,85.21624,35.88464,85.44333,36.30215,85.93949Z"/><path d="M84.40212,51.47889c.49924.67675.91708,1.20165.16956,1.763a.60834.60834,0,0,1-.58958-.07037C83.44881,52.563,83.53778,52.01951,84.40212,51.47889Z"/><path d="M52.64446,81.14957c-.39191.42658-.78387.85314-1.4319,1.55846C51.10119,81.40161,51.7963,81.1934,52.64446,81.14957Z"/><path d="M59.81016,75.33916q.51969-.61107,1.03934-1.22213l.36994.275q-.4494.6639-.89877,1.32775Z"/><path d="M18.9003,87.72305q-.56244.04377-1.12488.0875L17.75989,87.46H18.885Z"/><path d="M80.43241,53.21555q-.49681.68947-.99369,1.379l-.43255-.29688.96012-1.39948Z"/><path d="M68.9697,41.85724l.74388-1.20029.43385.23475q-.32069.62082-.64133,1.24163Z"/><path d="M27.66277,81.01709l.68666-.93043.24888.149-.6209,1.01831Z"/><path d="M41.21134,60.54881l-1.18089-.36747.17266-.48469,1.14929.45879Z"/><path d="M17.50295,40.22911c-.24872-.178-1.12521-.47777-1.28365-.99676a3.38769,3.38769,0,0,1,.19532-2.46628A5.29782,5.29782,0,0,1,18.512,35.20134c.73063-.39577,1.68471-.58924,2.22274.1852a2.24088,2.24088,0,0,1,.30511,2.66228C20.12124,39.556,19.29629,40.25044,17.50295,40.22911Zm.17772-2.146.29547.34409c.49461-.37869,1.39539-.3314,1.41027-1.72439Z"/><path d="M29.31266,37.76766a7.06273,7.06273,0,0,1-2.95283,3.62886c-1.1646.81933-2.03808.35594-2.08663-1.03092A3.4693,3.4693,0,0,1,25.57493,37.231C27.039,36.14043,27.67982,36.21325,29.31266,37.76766Zm-1.808.4098c-1.40264-.28438-1.61643.522-1.53269,1.60208Z"/><path d="M25.8351,32.15767c-.15131-.23545-.54272-.58878-.60167-.99085-.11409-.77844.85431-1.9623,1.51112-1.81517a1.77174,1.77174,0,0,1,1.16078,1.01747C28.116,31.18772,26.99261,32.2067,25.8351,32.15767Z"/><path d="M21.77369,44.87084c-.52725.8099-.892,1.64588-1.90395,1.17266a1.12366,1.12366,0,0,1-.27335-1.065C20.119,44.23808,20.83007,44.04031,21.77369,44.87084Z"/><path d="M36.11631,24.31092c1.3912-.40226,2.5577-.825,3.76066-1.066,1.53024-.30647,2.18786.27536,2.5097,2,.28294,1.51649-.18617,2.32816-1.554,2.689-1.89735.50046-2.86112-.04443-3.517-1.84168A9.86671,9.86671,0,0,0,36.11631,24.31092Zm3.29226.30505c-.47183.6309-.777,1.25453.10869,1.75821a.946.946,0,0,0,.88412-.2788C40.72866,25.27384,40.43456,24.72519,39.40857,24.616Z"/><path d="M31.493,21.27531a17.908,17.908,0,0,1,2.713-.78275,1.56285,1.56285,0,0,1,1.29.58535,1.73945,1.73945,0,0,1-.17489,1.39117,1.92456,1.92456,0,0,1-2.02823,1.07955C32.142,23.40027,31.75485,22.55863,31.493,21.27531Z"/><path d="M41.84238,18.99956c.36814.98123.64732,1.72535.96485,2.57176a1.115,1.115,0,0,1-1.51683-.53452C40.85474,20.31568,41.04347,19.68671,41.84238,18.99956Z"/><path d="M38.1933,29.99756a4.69251,4.69251,0,0,1,.53738,1.23489c.01269.18328-.33508.56195-.4975.54958a2.44571,2.44571,0,0,1-.84532-.42838C37.54772,31.08455,37.70752,30.81545,38.1933,29.99756Z"/><path d="M35.42071,27.89952c.37676.3354.75352.6708,1.34663,1.19878-1.22143.29533-1.65877.015-1.75025-.76226Z"/><path d="M44.22911,23.64286c.36112.329.74915.51915.78533.76177.0358.24014-.28332.53326-.44677.80312a5.54216,5.54216,0,0,1-.83573-.80751C43.68023,24.32751,43.98834,23.999,44.22911,23.64286Z"/><path d="M43.01689,19.04876c1.08609.18936,1.08609.18936,1.47369,1.36245C43.86739,19.835,43.44214,19.44191,43.01689,19.04876Z"/><path d="M39.29927,20.77836l-.706-.94239.37883-.34785.81274.88436Z"/><path d="M56.62932,18.337c-.06086.13313-.08636.31938-.19042.38994-.89066.60426-1.7703,1.75992-2.92341.97908-1.222-.82753-.17146-1.99088-.11648-2.98546C55.55059,16.37015,55.55059,16.37015,56.62932,18.337Z"/><path d="M49.14973,15.974a14.64716,14.64716,0,0,1,1.803-1.4522,2.02969,2.02969,0,0,1,1.23842-.11668c.15131.02537.39812.58383.31557.70615-.30957.45826-.67674,1.06279-1.1367,1.18623A6.61775,6.61775,0,0,1,49.14973,15.974Z"/><path d="M57.34742,15.66505c.14253-1.89066.14253-1.89066,1.7861-2.09345C59.22156,15.50187,59.04024,15.71441,57.34742,15.66505Z"/><path d="M51.34534,23.07489q-.27019-.65911-.54032-1.31822l.92388-.316.44443,1.37913Z"/><path d="M77.95109,11.78695c.64836.84077.3548,1.39558-.56609,1.92522-.75-1.06078-.06059-1.47641.6082-1.89907Z"/><path d="M67.07752,10.38785l.95146.53879-.392.64537-.97821-.653Z"/><path d="M61.92278,28.35658c-.7096-.92961-.10385-1.59843.45145-2.27727a11.21787,11.21787,0,0,0,1.5449-.02572,6.07517,6.07517,0,0,0,1.16645-.41291C64.327,26.89025,63.88263,28.5059,61.92278,28.35658Z"/><path d="M34.73661,47.543q.20048-.64129.401-1.28261l1.24235.4313c-.21058.30925-.35824.74123-.65054.89117-.26191.1343-.68307-.0419-1.03395-.08121Z"/><text x="0" y="115" fill="#000000" font-size="5px" font-weight="bold" font-family="'Helvetica Neue', Helvetica, Arial-Unicode, Arial, Sans-serif">Created by Olga</text><text x="0" y="120" fill="#000000" font-size="5px" font-weight="bold" font-family="'Helvetica Neue', Helvetica, Arial-Unicode, Arial, Sans-serif">from the Noun Project</text></svg>