<svg xmlns="http://www.w3.org/2000/svg" xmlns:xlink="http://www.w3.org/1999/xlink" version="1.1" x="0px" y="0px" viewBox="0 0 100 125" style="enable-background:new 0 0 100 100;" xml:space="preserve"><path d="M78.1,60.1c3.4,2.2,3.5,6.7,0.5,9.2c-0.1,0.1-0.2,0.2-0.4,0.3c-2.6,1.2-3.2,3.5-3.4,6.2c-0.1,2-0.5,3.9-0.7,5.9  c-0.3,2.1-0.6,4.3-0.3,6.4c0.3,2.4-0.9,3.8-2.7,4.8c-4.5,2.4-9.2,4-14.4,4.3c-4.4,0.3-8.8,0.4-13-0.7c-3.3-0.9-6.9-0.8-9.9-2.5  c-0.6-0.3-1.2-0.6-1.8-1c-2-1.1-2.4-3.1-2.6-5.1c-0.6-4.3-1.2-8.6-2.4-12.8c-0.2-0.7-0.4-1.5-0.4-2.2c0-0.9-0.5-1.3-1.3-1.7  c-1.7-0.7-3.2-1.7-4.2-3.4c-1.1-2.1-1.1-4.1,0.3-6c0.2-0.3,0.4-0.7,0.7-0.9c2.1-1.3,1.7-3.4,1.6-5.3c0-1-0.8-1.2-1.4-1.7  c-1.4-1-2.7-1.9-3.3-3.7c-1.1-3.3-0.1-6,2.1-8.4c1.8-1.9,4-3.3,6.2-4.7c0.5-0.3,0.9-0.6,1.4-0.9c1.4-0.6,1.6-1.5,1.3-2.9  c-1-4.5,1.1-9.7,5.4-12.1c1.6-0.9,3.2-1.8,4.8-2.8c-0.6-1.3-1.6-2.3-1.1-3.9c0.6-2,1.4-3.6,3.7-3.8c0.8-0.1,1-0.5,1.1-1.2  c0.3-1.5,0.7-3,1.3-4.4c0.2-0.4,0.4-0.9,0.6-1.2c0.4-0.4,0.9-0.7,1.4-0.3c0.5,0.3,0.3,0.8,0,1.2c-0.9,1.5-1.7,3.1-1.8,4.9  c0,0.5-0.2,1,0.5,1.3c2.5,0.8,3.5,2.6,2.9,5.2c0,0.1,0.1,0.3,0.2,0.7c1.9-0.7,3.5-1.7,4.9-3.2c0.5-0.6,0.9-1.2,1.7-1.5  c0.5-0.2,0.9-0.3,1.3,0.1c0.3,0.3,0.3,0.7,0.2,1.1c-0.1,0.2-0.2,0.4-0.3,0.6c-1.2,2.6-1.1,3.5,1,5.4c2.2,2,4.6,3.9,7.3,5.2  c2.5,1.3,4.1,3.4,5.7,5.5c2.3,2.8,2.7,6.1,1.8,9.5c-0.2,0.9,0,1.5,0.5,2.1c0.8,1.1,1.9,2,2.9,2.9c2.1,1.8,3.9,3.7,4.7,6.4  c0.8,2.6,0.7,5.1-1.3,7.3C78.9,58.9,78.5,59.5,78.1,60.1z M22.2,47.4L22.2,47.4c0-1,0.8-1.4,1.5-1.9c1.3-0.9,2.3-1.8,3-3.4  c0.7-1.7,2.1-2.8,4-3.1c0.4-0.1,1,0.1,1.1-0.6c-1.2-1.7-1.2-1.7-2.9-0.7c-1.7,1-3.3,2.2-4.9,3.4c-1,0.8-1.9,1.8-2.6,2.9  c-2,3.1-2,5.1,1.1,8.1c1.3,1.2,2,1.3,2.9-0.3c0.8-1.6,2-2.7,3.1-4c0.5-0.5,0.9-0.9,1.6-1.2c3-1.1,5.7-2.9,8.6-4.4  c-0.7-0.5-1.2-1.1-1.7,0.1c-0.2,0.5-0.7,0.7-1.1,0.5c-0.8-0.4,0.4-0.5,0.2-0.9c-0.2-0.5-0.4-0.9-0.9-1.2c-2.9-1.8-6.4-0.9-7.9,2.3  C26.3,45.2,24.4,46.5,22.2,47.4z M63.1,65.2c3.4-1.1,4-4.1,4.8-6.9c-0.6-0.5-1,0.6-1.5,0c0-0.6,0.4-0.9,1-1c0.8-0.2,1.1-1,0.8-1.4  c-0.9-1.1-0.2-2,0-3.1c0.1-0.6,0.1-1.3-0.5-1.8c-1,0.6-1.7,1.2-1.7,2.4c-0.2,3-2.4,4.5-4.7,5.9c0.2-0.5,0.3-0.9,0.7-1.2  c2-1.3,2.5-3.4,3.1-5.5c0.4-1.2,0.8-2.5,0.3-3.6c-0.5-1.3,0.2-1.8,0.8-2.6c0.1,1.2,0.3,2.5,0.4,3.7c0.6-0.1,0.9-0.4,1.1-0.8  c0.4-1,0.2-2-0.3-2.8c-0.2-0.5-0.8,0.2-1.2-0.1c0.1-0.7,1.1-0.9,0.9-1.7c-0.6-0.1-1.2-0.2-1.8-0.3c-1.7-0.2-1.8-0.2-2.3,1.4  c-0.7,2.1-0.9,4.3-1.8,6.4c-1.5,3.5-2.5,7.2-5.1,10.2c-0.9,1-2,1.7-2.9,3.2c3.1,0.9,5.9,1.2,8.8,0.5C62.4,65.9,62.9,65.7,63.1,65.2  L63.1,65.2z M53.5,21.2c0.3-0.8-0.6-1.8,0.7-2.3c0.6-0.2,0.3-1,0.1-1.4c-0.3-0.6-0.8-0.2-1.2,0c-0.4,0.1-0.8,0.4-1.2,0.7  c-3.1,2.5-5.4,5.6-6.2,9.6c-0.6,3.1,0.1,6.1,0.1,9.1c0,1.4,0,2.8-1.2,3.8c-0.8,0.8-0.5,1.3,0.2,1.8c1.2,1,2.5,1.5,3.9,1.7  c3.3,0.5,6.5-0.4,8.4-3c1.9-2.6,2.5-6,1.3-9.2c-1.5-3.9-2.4-7.9-3.7-11.8c0-0.1-0.2-0.1-0.3-0.2C54,20.2,54.2,20.9,53.5,21.2z   M48.9,19.4c-0.3-0.1-0.5-0.3-0.6-0.2c-0.8,0.1-1,0.9-1.6,1.2c-0.9,0.6-0.4-1.4-1.4-0.8c-0.2,0.1-0.4,0.2-0.7,0.2  c-1.1,0.2-2.1,0.4-3.2,0.5c-6.2,0.7-9.6,4.1-10.1,10.4c-0.2,3.2,0.1,6.3,3.6,7.9c0.1,0.1,0.2,0.2,0.4,0.3c2.2,1.5,4.7,1.8,7.2,1.3  c1-0.2,1.8-0.8,1.8-1.8c0.1-2.3,0.1-4.6-0.1-7c-1,0.1-1.5,0.9-2.4,0.6c0.4-0.7,1.2-1,1.7-1.5c0.3-0.2,0.7-0.4,0.7-0.8  c0.1-1.7,1-3.3,1.3-4.9c-0.6-0.3-0.7,0.6-1.4,0.2C46.4,23.6,47.5,21.4,48.9,19.4z M30,60.8c3.3,0.3,8.9-2.9,10.5-5.3  c1.9-2.7,3.7-5.6,5.8-8.2c1.2-1.4,1.1-1.9-0.5-2.8c-1-0.5-2-0.9-2.7-1.7c-0.7-0.9-1.6-0.9-2.4-0.3c-3.3,2.3-7,3.8-10.3,6  c-1.8,1.2-3.3,2.8-4.4,4.6c-0.2,0.3-0.7,0.8-0.1,1.2c1,0.7,0.5,1.7,0,2.2c-1,0.8-0.7,1.4,0.1,1.9c0.6,0.3,0.8,0.9,1.2,1.3  c0.8,0.6,1.6,0.5,1.9-0.5c0.3-0.9,0.5-1.9,0.8-2.9c0.7-2.3,2.2-3.8,4.4-4.7c2.8-1.2,5.4-2.6,6.1-6c0-0.1,0.2-0.1,0.4-0.2  c0.7,0.8-0.1,1.5-0.1,2.3c-0.1,1.3-0.8,1.8-1.8,2.4c-2.2,1.4-4.8,2.4-6.8,4.2c-0.3,0.3-1,0.6-0.9,0.9c0.5,1-0.2,1.2-0.7,1.7  c-0.5,0.6-0.9,1.3-0.2,2c0.9,0.8,0.9,0.7,0.4,1.3C30.6,60.4,30,60.2,30,60.8z M24.7,61c-0.9,0.4-1.2,0.9-1.5,1.3  c-1.6,2.5-1.3,4.2,1,6.2c1.5,1.4,3.5,1.9,5.3,2.7c5.3,2.3,11,2.5,16.6,3c4.1,0.3,8.3,0.2,12.4,0.1c2.7,0,5.4-0.6,8.2-1  c2.6-0.4,4.9-1.6,7.3-2.5c2.6-0.9,4.7-2.5,5.2-5.6c0.2-1.5-0.3-2.8-1.5-3.5c-0.6-0.4-1-0.1-1.1,0.5c-0.1,0.5,0,1.1,0,1.6  c-0.1,1.2-0.4,2.2-1.5,2.9c-4.8,2.9-10.2,4.2-15.6,5c-5.4,0.9-10.9,1-16.4-0.3c-3.9-0.9-7.8-1.2-11.7-2.3C27.1,68,24.3,65.9,24.7,61  z M56.7,21c0.3,1.1,0.5,1.7,0.7,2.3c0.8,2.9,1.4,5.8,2.7,8.5c0.8,1.7,1.2,3.3,0.7,5c-0.5,1.7,0.1,3.3,1,4.5c1.5,1.8,3.2,2.9,5,0.6  c0.6-0.7,1.3-0.3,1.9-0.4c0.2,0,0.3,0,0.3,0.2c-0.1,0.7-1.3,0.4-1.2,1.2c0.3,0.2,0.5,0.2,0.7,0c0.4-0.2,0.8-0.5,1.1-0.8  c1.5-1.4,2.7-5.9,1.8-7.8c-1-2-2.1-3.9-3.6-5.6c-2.1-2.4-5.1-3.6-7.5-5.5C59.2,22.7,58.1,22,56.7,21z M43.4,64.9  C44.9,65.1,46,65,47,64c1.2-1.2,1.3-1.2,1.9,0.3c0.4,1.1,0.9,1.3,1.9,0.7c0.6-0.3,1.2-0.6,1.7-1.1c4.4-3.9,6.4-8.9,7.4-14.5  c0.2-1.2-0.4-2.4,0.5-3.5c1.5-1.8,1.1-3.5-0.5-5.1c-0.1-0.1-0.2-0.2-0.6,0c-1.2,1.8-2.5,3.7-3.7,5.8c-3.6,6.1-6.9,12.3-11.9,17.4  C43.7,64.2,43.6,64.4,43.4,64.9z M75.1,48.8c0.7-1.8,0.6-2.1-1-3.3c-0.4-0.3-0.8-0.8-1.4-0.7c-0.3,0-0.5-0.2-0.6-0.5  c-0.9-1.7-1.2-1.7-2.3-0.1c-0.5,0.7-0.7,1.5-0.6,2.4c0.1,1.4,0.2,2.8,0.3,4.1c0.4,3.6,0.3,7.2-1,10.6c-0.1,0.4-0.3,0.7-0.3,1.1  c-0.1,0.5,0.3,0.8,0.7,0.7c2.2-0.6,4.7-0.6,6.4-2.3c1-0.9,1.9-1.9,2.9-2.8c1.4-1.3,2.1-2.8,0.7-4.5c-0.2-0.3-0.1-0.4,0-0.6  c0.7-1.9-0.7-3-1.5-4.3c-0.5-0.7-0.9-0.6-1.4,0C75.6,48.7,75.4,48.9,75.1,48.8z M38.2,63c0.2,0.5-0.7,1.3,0.4,1.1  c0.5-0.1,0.8,0,1.3,0.3c0.7,0.5,1.5,0.2,1.8-0.4c0.5-0.9,1.2-1.3,2-1.8c0.7-0.5,1.6-1.3,1.5-2.2c-0.1-1.5,1.4-0.7,1.7-1.5  c0.1-0.4,0.4-0.7,0.5-1c0.9-1.7,1.8-3.5,3-4.8c1.9-2.2,2.4-5,4-7.3c-1.1,0.4-2.1,0.6-3.2,0.3c-1-0.3-2-0.1-2.8,1  c-1.9,2.8-4.1,5.5-6,8.4c-2.2,3.3-5.2,5.3-8.8,6.6C33,62,32.4,62,32,62.5c0,0.1,0,0.2,0.1,0.3c0.5,0.7,0.7,1.6,1.5,2  c0.7,0.4,1.5,0.7,2.4,0.5c1.2-0.2,0.8-0.9,0.7-1.6C36.7,63.6,37.6,63.3,38.2,63z M56.8,70.4c-0.1-0.5-0.8-1-0.1-1.4  c0.6-0.4,0.8,0.2,0.9,0.6c0.4,0.9,0.9,0.6,1.4,0.1c0.3-0.3,0.6-1,1-0.7c0.9,0.9,1.6-0.1,2.4-0.1c1.2,0,1.5-0.7,1.7-1.6  c0.1-0.3,0.4-0.4,0.2-0.8c-0.7-0.2-1.3,0.3-2,0.4c-3.1,0.8-6.1,1.4-9.1-0.5c-0.6-0.4-1.2-0.4-1.9-0.1c-3.4,1.2-6.9,2-10-0.4  c-0.5,0.1-0.5,0.3-0.5,0.6c0,0.4,0.2,1-0.4,1.2c-0.6,0.2-0.7-0.4-0.9-0.8c-0.4-0.6-0.9-0.4-1.4-0.3c-1.7,0.4-3.3,0.4-4.9-0.4  c-0.4-0.2-0.8-0.2-1.3-0.1c-1.3,0.2-1.5,0-1-1.2c0.4-0.9-0.1-1.3-0.5-1.8c-0.6-0.7-0.9,0.1-1.3,0.3c-0.6,0.3-1,0.1-1.2-0.5  c-0.1-0.4-0.3-0.7-0.9-0.5c0.1,1.5-0.4,3.3,1.9,3.6c1.4,1.8,3.6,1.7,5.5,2.5c0.7,0.3,1.3,0.4,1.9-0.2c0.5-0.6,1-0.4,1.2,0.3  c0.4,1,1.2,0.9,1.9,0.5c0.6-0.4,1.1-0.6,1.5,0.2c0.2,0.4,0.5,0.5,0.9,0.6c1.4,0.3,2.8,0.6,4.3,0.8c1,0.1,2.2,0.5,2.6-1  c0.1-0.2,0.4-0.2,0.6-0.2c0.3,0.1,0.3,0.4,0.2,0.6c-0.5,1-0.2,1.2,0.8,1.1c0.7-0.1,1.4-0.1,2.1-0.1c1-0.1,2.1,0,2.5-1.4  c0.2-0.6,0.9-0.5,1.2,0.1C56.1,69.9,56.1,70.4,56.8,70.4z M48.9,94c0.2,0.6-0.5,1.7,0.9,1.8c1.7,0.2,2.3-0.1,2.5-1.7  c0.5-3.9,1.3-7.8,1.2-11.8c0-1.5,0.1-2.9,0.2-4.4c0.2-2.4,0-2.7-2.4-2.3c-0.7,0.1-1.1,0.4-1.1,1.2c0,1.3-0.3,2.6-0.3,3.9  c0.1,2.6,0,5.2-0.5,7.8C49.2,90.2,49.1,92.1,48.9,94z M44.8,81.9c0-1.5-0.1-2.9-0.3-4.3c-0.3-2.4-0.4-1.8-2.4-2.3  c-1.1-0.3-1.4,0-1.2,1.2c0.2,1.6,0.9,3.1,0.6,4.7c-0.7,4,0.2,8.1,0,12.1c-0.1,1.1,0.7,1.2,1.5,1.2c0.9,0.1,1.2-0.3,1.3-1.2  C44.4,89.5,44.6,85.7,44.8,81.9z M40.2,81.7c0.1-1.8-0.3-3.5-0.7-5.2c-0.4-1.5-0.8-1.9-2.2-1.7c-0.6,0.1-1,0.3-0.9,1  c0.3,2.7,0.4,5.5,0.9,8.2c0.5,2.7,0.3,5.5,0.3,8.2c0,1.4,0.3,1.9,1.7,1.9c1.3,0,1-0.9,0.9-1.6C39.9,88.8,39.7,85.2,40.2,81.7z   M65.2,93.4c2.9-0.7,2.9-0.7,3-3.4c0.1-2.4,0.2-4.7,0.4-7.1c0.3-3,0.3-6,1-9c-2.7,0.4-2.7,0.4-3.1,2.7c-0.7,3.1-0.7,6.2-0.8,9.3  C65.6,88.4,64.9,90.9,65.2,93.4z M54,93.4c0,0.4,0,0.6,0,0.8c0.1,0.6-0.3,1.5,0.8,1.5c0.9,0,1.6-0.2,1.6-1.4c0-1,0.2-2,0.3-2.9  c0.3-4.6,0.1-9.2,1.1-13.7c0.1-0.4,0-0.8,0-1.1c0-1-0.6-1.1-1.3-1.1c-0.9,0-1,0.7-1.1,1.4c-0.7,4-0.3,8.1-0.8,12.1  C54.2,90.5,54.1,92,54,93.4z M45.8,90.1C45.8,90.1,45.8,90.1,45.8,90.1c0,1.5,0,2.9,0,4.4c0,0.5,0.1,0.9,0.7,0.9  c0.6,0,0.8-0.3,1-0.8c0.1-0.2,0.1-0.4,0.1-0.7c0.6-5.7,1.6-11.3,1.2-17.1c-0.1-0.9-0.2-1.2-1-1.3c-0.8,0-1.5-0.2-1.6,1  c-0.2,1.8,0.2,3.5,0.1,5.2C46,84.6,45.9,87.3,45.8,90.1z M70,91.4c1.4-0.7,2.1-1.5,2.2-2.9c0.4-3.5,0.3-7,0.8-10.5  c0.2-1.3,0.7-2.5,0.5-3.8c-0.1-0.5,0.2-1.2-0.6-1.2c-0.5,0-1.1,0.1-1.3,0.7c-0.5,1.7-1.3,3.3-1.3,5.1c0,1.6-0.2,3.2-0.3,4.8  C69.7,86,69.4,88.6,70,91.4z M58.4,89.4c-0.1,1.6-0.2,3.2-0.3,4.8c0,0.4-0.1,1,0.5,1.1c0.6,0.1,1.2,0,1.5-0.7c0.3-0.6,0.3-1.3,0.3-2  c0.2-5.5,0-11,0.9-16.4c0.1-0.3,0-0.7-0.3-0.8c-0.5-0.1-1.1-0.1-1.4,0.4c-0.3,0.4-0.4,1-0.5,1.5C58.6,81.4,58.1,85.4,58.4,89.4z   M65.1,74.9c-1.2-0.1-1.9,0.4-2.3,1.4c-0.3,0.7-0.4,1.5-0.4,2.2c-0.6,4.8-0.4,9.6-0.3,14.4c0,0.5-0.6,1.4,0.4,1.5  c0.8,0.1,0.9-0.7,1-1.3c0.1-0.5,0.3-0.9,0.3-1.3C64.5,86.3,64.5,80.6,65.1,74.9z M36,89c0.1-3.1-0.4-6.2-0.7-9.4  c-0.1-1.4-0.4-2.9-0.6-4.3c-0.1-0.7-1.3-1.6-2.1-1.3c-0.9,0.3-0.6,1-0.5,1.7c0.6,5.2,2.5,10.3,2,15.6c-0.1,0.6,0.2,1,0.7,1.3  C35.5,93,36,93,36,92.2C36.1,91.1,36,90.1,36,89z M32.6,90.7c0.3-1.3,0.3-2.3,0.1-3.2c-0.5-2.5-0.9-5.1-1.5-7.6  c-0.4-1.8-0.4-3.6-0.8-5.4c-0.2-0.8-0.5-1.6-1.4-1.4c-0.8,0.2-0.4,1-0.3,1.6c0,0.1,0,0.2,0,0.2c0.6,4.2,1.6,8.2,2.1,12.4  C30.9,88.4,31,89.9,32.6,90.7z M72.9,66.2c-0.7-2.1-0.6-2.1,1-1.9c0.3,0.1,0.6,0.2,0.8-0.1c0.1-0.3,0.1-0.8-0.2-1.1  c-0.2-0.3-0.6-0.3-0.8-0.2c-1.3,0.3-2.5,0.7-3.7,1c-0.3,0.1-0.5,0.3-0.5,0.7c0,0.5,0.2,1.3-0.6,1.2c-0.7-0.1-0.5-0.8-0.6-1.3  c0-0.2-0.3-0.4-0.4-0.5c-1.2,0.8-1.2,0.8-2.8,4.8c1.6-0.2,3-0.8,4.5-0.9c0.7,0,0.9-0.5,1-1.3C70.8,64.8,71.3,64.7,72.9,66.2z   M44.5,65.7c1.4,0.4,2.8,0.6,4-0.8C47,64.9,45.8,65.6,44.5,65.7z"/><path d="M51.2,39.3c0.6-0.8,1.1-1.7,1.8-2.5c0.7-0.7,0.7-1.5,0.3-2.3c-0.8-1.7-1.6-3.4-3-4.8c-2.3-2.4-1.2-6.1,2.2-7.2  c-0.7,0.9-1.4,1.6-1.9,2.4c-1.2,1.8-1.1,2.8,0.5,4.2c1.8,1.7,2.6,3.9,3.2,6.2c0.4,1.3-0.3,2.7-1.5,3.5c-0.4,0.3-0.9,0.5-1.4,0.8  C51.4,39.5,51.3,39.4,51.2,39.3z"/><path d="M51.3,40.8c-0.9,1-1.9,0.7-3.2,0.5C49.3,40.3,50.4,40.9,51.3,40.8z"/><path d="M53.4,42.2c0.5-0.7,0.9-1,1.5-0.9c0.1,0,0.2,0.3,0.2,0.4C54.7,42.2,54.2,42.2,53.4,42.2z"/><path d="M37.4,38.5c0.1-0.6,0-0.9,0.2-1c1.3-1.1,1.6-2.3,0.3-3.6c-0.3-0.3,0-0.7,0.1-1.1c0.1-0.5,0.3-1.2-0.2-1.5  c-1.9-1.4-0.7-3.1-0.3-4.6c0.3-1.3,1.4-2.3,2.6-3.1c0.6-0.4,1.3-0.8,1.9-1.3c0.5-0.5,0.9-0.8,1.6-0.4c0.5,0.3,0.4,0.8,0.3,1.2  c0,0.7-0.6,0.7-1.2,0.7c-1.5,0-2.6,0.8-3.4,2C38.5,27,38,28,38.9,29.4c0.5,0.8,0.9,1.8,0.5,2.8c-0.1,0.4,0,0.7,0.1,1.1  C40.4,36.3,40.3,36.5,37.4,38.5z"/><path d="M43.5,47.4c0.2,0.2,0.5,0.3,0.5,0.5c0.1,0.8-0.4,1-1,1.2c-0.3,0.1-0.7-0.1-0.6-0.4C42.5,47.9,43.2,47.8,43.5,47.4z"/><path d="M34.4,58.9c0.3-0.5-0.5-1.4,0.3-1.7c0.4-0.2,0.7,0.3,0.8,0.6C35.9,58.8,34.7,58.4,34.4,58.9z"/><path d="M38.7,54.7c-0.1,0.4-0.4,0.6-0.8,0.7c-0.3,0.1-0.6,0-0.6-0.4c0.1-0.5,0.5-0.5,0.9-0.6C38.4,54.4,38.6,54.4,38.7,54.7z"/><path d="M66.6,29.8c0,0.7-0.5,1.1-0.7,1.6c-0.3,0.7-0.4,1.4,0.2,1.9c1.6,1.5,1.2,3.1,0.5,4.8c-0.4,0.8-0.7,1.7-1.3,2.4  c-0.4-0.6-0.1-1.1,0-1.5c0.3-0.7,1-1.8,0.6-2.1c-1-0.8,0.3-1.5-0.1-2.1c-0.4-0.6-0.9-1.2-1.2-1.9c-0.9-1.7-0.5-3.4-0.5-5.6  c1.3,1.1,0.1,2.4,1.1,3C65.8,30.7,65.9,29.7,66.6,29.8z"/><path d="M60.2,61.4c0.4,1.3-0.6,2.4-0.8,3.5C59.1,63.6,60,62.6,60.2,61.4z"/><path d="M63.1,65.1c-0.2-0.3-0.9,0-0.9-0.4c0.1-0.4,0.7-0.8,1.1-0.6C63.9,64.5,63,64.8,63.1,65.1C63.1,65.2,63.1,65.1,63.1,65.1z"/><path d="M59.4,51.8c-2.6,1.4-2.5,3.7-3.1,5.7c-0.7,2.2-2.5,3.7-4,5.4c-0.2,0.3-0.6,0.4-1,0.3c-0.3-0.6,0.3-0.8,0.5-1.2  c0.4-0.7,1.3-0.9,1.1-2c-0.1-0.9,1.3-0.7,1.6-1.5c0.3-0.7,0.7-1.4,0.8-2.1c0.1-1.2,0.8-2.2,1.2-3.2C57,52.2,57.7,51.5,59.4,51.8z"/><path d="M73.9,52.5c0,1,0,1.5-0.6,1.9c-1.1,0.8-1.1,2.1-1.7,3.2c-0.4,0.8,0,1.8,0.8,2.4c0.4,0.3,0.1,0.5-0.1,0.7  c-0.2,0.1-0.6,0.3-0.7-0.1c-0.2-1.2-1-2.3-0.5-3.5c0.3-0.9,0.4-1.8,0.8-2.6c1-1.9,0.7-3.6-0.6-5.2c-0.3-0.4-0.6-0.8-0.1-1.2  c0.3-0.2,0.7,0.1,1,0.4C73.6,49.6,74.1,51.1,73.9,52.5z"/><path d="M75.5,58.4c-0.5-0.2-0.1-0.8-0.5-1.2c-0.5-0.5,0.1-0.8,0.3-1.1c0.1-0.2,0.4-0.3,0.6,0c0.2,0.4,0.9,0.7,0.5,1.4  C76.2,57.8,76,58.2,75.5,58.4z"/><path d="M76.1,50.4c-0.1,0-0.3-0.1-0.3-0.2c0-0.4,0.3-0.6,0.6-0.8c0.2-0.1,0.5-0.1,0.4,0.2C76.8,50,76.4,50.2,76.1,50.4z"/><path d="M40.4,61c-0.3-1,0.6-1.2,1.1-1.4c1.5-0.6,2.5-1.7,3-3.2c0.3-0.8,0.8-1.5,1.3-2.2c0.3-0.4,0.6-0.9,1.5-0.6  c-0.9,1.5-1.9,3-2.8,4.5C43.7,59.7,41.8,60,40.4,61L40.4,61z"/><path d="M40.4,61c-0.5,0.3-0.7,1-1.5,1.2C39.2,61.3,39.5,60.7,40.4,61C40.4,61,40.4,61,40.4,61z"/><path d="M22.2,47.4c0,0.1,0,0.1,0,0.2c0,0.8-0.1,1.6-0.1,2.5C21.4,49.1,21.4,49.1,22.2,47.4C22.3,47.5,22.2,47.4,22.2,47.4z"/><path d="M52.6,68.2c0,1-0.2,1.8-1,2.2c-0.4,0.2-0.7,0.1-1-0.3c-0.2-0.3,1-2.8,1.4-2.8C53,67.2,52.6,68,52.6,68.2z"/><path d="M45,68.1c0.3,0.1,0.6,0.3,0.6,0.6c0,0.4-0.3,0.5-0.6,0.5c-0.3,0-0.6-0.2-0.6-0.5C44.4,68.3,44.6,68.1,45,68.1z"/><text x="0" y="115" fill="#000000" font-size="5px" font-weight="bold" font-family="'Helvetica Neue', Helvetica, Arial-Unicode, Arial, Sans-serif">Created by Olga</text><text x="0" y="120" fill="#000000" font-size="5px" font-weight="bold" font-family="'Helvetica Neue', Helvetica, Arial-Unicode, Arial, Sans-serif">from the Noun Project</text></svg>