<svg xmlns="http://www.w3.org/2000/svg" data-name="Слой 1" viewBox="0 0 100 125" x="0px" y="0px"><title>chocolate</title><g><path d="M36.219,37.48667c2.547-2.06955,5.30275-3.55851,7.86835-5.33784,1.49791-1.03883,3.1218-1.90949,4.59687-2.99624,2.59307-1.91044,5.1902-3.81629,7.74435-5.77779a1.5233,1.5233,0,0,1,1.36806-.23676,55.51976,55.51976,0,0,1,5.99727,1.69642c4.53265,1.27724,9.08354,2.49084,13.606,3.80259,3.33732,0.968,6.72614,1.75258,10.01827,2.88672,1.39745,0.48143,2.87706.71737,4.31483,1.07724a1.6288,1.6288,0,0,1,1.37448,1.3394,39.22123,39.22123,0,0,1,.5634,3.97282c0.12923,1.38844-1.02616,1.80805-1.97848,2.26509a7.06339,7.06339,0,0,0-1.40859.80078q-3.93724,3.16017-8.05472,6.08077c-2.79322,1.98309-5.43482,4.15456-8.0749,6.33a1.03468,1.03468,0,0,0-.44931,1.48308,1.519,1.519,0,0,1-1.4311,2.33111,3.05859,3.05859,0,0,0-2.57353,1.19614A31.67811,31.67811,0,0,1,66.14646,61.31c-2.32488,1.9281-4.66645,3.84035-7.07158,5.66634-3.436,2.60859-6.67225,5.4602-10.05485,8.13294a7.02733,7.02733,0,0,1-2.57178,1.67854,2.2028,2.2028,0,0,1-1.31688.04836,81.01471,81.01471,0,0,0-10.34931-2.64114c-3.8756-.85842-7.73832-1.78493-11.63437-2.5384-4.14417-.80146-8.24131-1.80918-12.37638-2.63808A9.3313,9.3313,0,0,0,7.423,68.55812,0.79766,0.79766,0,0,1,6.577,67.5742a26.04738,26.04738,0,0,0-.24281-5.20592,1.328,1.328,0,0,1,.77849-1.32978,44.85822,44.85822,0,0,0,6.11417-5.41326c1.09718-1.09294,2.45819-1.8443,3.63866-2.83116a1.32858,1.32858,0,0,1,1.13134-.26219,2.46617,2.46617,0,0,0,.72484.12262c2.01459-.17152,2.64772-1.094,2.00314-3.19311-0.2427-.79038-0.10186-0.971.62031-1.26248,1.3156-.531,2.0888-1.78063,3.108-2.7075,0.2462-.22389.08152-0.461-0.13683-0.611a8.6618,8.6618,0,0,0-.77185-0.44652,8.94008,8.94008,0,0,1-3.21455-3.45143,4.28042,4.28042,0,0,1-.26492-2.33623,0.93452,0.93452,0,0,1,.62505-0.78219,2.65082,2.65082,0,0,1,.984-0.31644,3.28948,3.28948,0,0,0,3.49938-2.39914,1.808,1.808,0,0,1,2.86543-.73491,6.00662,6.00662,0,0,1,1.129.96254,1.94483,1.94483,0,0,0,3.036.27318c1.06422-.83327,1.62754-0.784,2.62707.06852A5.83374,5.83374,0,0,1,36.219,37.48667ZM46.2498,51.83858l0.82634-.12549c0.23169-.66295-0.79974-1.03332-0.36232-1.73885a0.74613,0.74613,0,0,1,.28335.15206c0.1937,0.35731.15431,0.95177,0.80794,0.83254A1.85374,1.85374,0,0,0,48.941,49.70318c-0.19808-.60712-0.78609-0.46682-1.24465-0.56293-1.20585-.25273-2.41306-0.49905-3.61719-0.75971a0.58766,0.58766,0,0,0-.8296.21152,1.76841,1.76841,0,0,1,.73858,1.3408,7.2832,7.2832,0,0,0,1.379,2.43849,0.57986,0.57986,0,0,0,.78446.20483c0.34992-.19839.23878-0.49177,0.13923-0.77731ZM24.77629,66.40591c0.23964,0.24941.46785,0.51113,0.72081,0.74621,1.39411,1.2956,1.66627,1.29308,2.84891-.10838,0.17491-.20725.59933-0.19816,0.5284-0.72382-1.57247-.49107-3.27707-0.92812-4.01-3.06388a18.28578,18.28578,0,0,1-1.32526,1.54865c-1.06242.97807-1.12824,1.25152-.40025,2.45857,0.88062,1.46012,1.41036,1.64,3.38482,1.091-0.60387-.66661-1.90146-0.72944-1.7043-1.98757Zm4.70593-1.29876a1.63342,1.63342,0,0,0,1.88188-.17114c1.27193-.817,2.29136-1.93229,3.5248-2.79554,0.78652-.55046.62753-1.12737-0.33518-1.22216A4.51786,4.51786,0,0,1,32.35053,59.836c-0.51575-.35989-0.82067-1.22836-1.45374-1.10123a4.56753,4.56753,0,0,0-1.52662,1.135,0.61507,0.61507,0,0,0-.08994.16983,9.58865,9.58865,0,0,0,2.4087,3.35021c-2.05014.18642-2.55889-1.46486-3.4954-2.56645-0.74471.57824-1.44049,1.12078-2.13886,1.65995a1.15928,1.15928,0,0,0-.389,1.33209,2.39175,2.39175,0,0,0,2.6876,1.56387c-0.90665-.66595-0.91918-1.55251-0.86582-2.62914a3.05338,3.05338,0,0,1,.92647,1.57106,0.47476,0.47476,0,0,0-.14466-0.006,0.17513,0.17513,0,0,0-.10844.07646c0.12864,0.86581.8946,1.17809,1.474,1.64015a0.29063,0.29063,0,0,0,.28466-0.38A0.82681,0.82681,0,0,0,29.48222,65.10715Zm10.19624-8.65731c-1.0632-.77521-1.07646-2.1244-1.637-3.25776a1.14261,1.14261,0,0,0-.21855.33236c-0.00253,1.03861-.01338,2.07786.01806,3.11574,0.04517,1.49071.17314,1.58875,1.6808,1.40826a2.73151,2.73151,0,0,0,.71437-0.166,0.30683,0.30683,0,0,0,.10679-0.489c1.89382,0.78407,2.47157.61793,2.79484-1.07871a3.34932,3.34932,0,0,1,1.8712-2.80855,0.49014,0.49014,0,0,0,.19129-0.8498,11.33878,11.33878,0,0,1-2.00194-3.27927,0.60539,0.60539,0,0,0-1.067-.2191c-0.93143.73251-1.85046,1.48252-2.80822,2.17909a1.61733,1.61733,0,0,0-.58435,1.40031C38.61369,54.11382,39.40459,55.20659,39.67846,56.44984Zm8.40395-3.91736a8.01066,8.01066,0,0,0-1.59314,1.29c-0.32211.24979-.33,0.55816,0.00385,0.67482,1.58027,0.55227,3.19749,1.25691,4.86611,1.06754,1.32428-.1503,2.62944-0.068,3.94-0.12486a1.13175,1.13175,0,0,1,1.317.89456l0.03028-.034a4.31776,4.31776,0,0,1-1.621-.11618c-0.31749-.10925-0.592-0.13514-0.65373.3535a14.81642,14.81642,0,0,0,3.13272.82361,2.95931,2.95931,0,0,0,2.65931-.97914c1.00256-.95043,2.05541-1.84783,3.05716-2.79906a1.23779,1.23779,0,0,0,.73333-0.98518,26.04417,26.04417,0,0,0-4.45211-.96953c0.54038,0.96854,1.73069.37138,2.38675,1.022a0.424,0.424,0,0,1-.53582.28288c-1.20606-.26914-2.41765-0.51957-3.60891-0.844-0.23255-.06334-0.84894-0.14657-0.56422-0.62225,0.34865-.58254-0.08619-0.59812-0.38073-0.65039-1.64617-.29211-3.29824-0.551-4.94059-0.82-0.15721.58389,0.62565,0.42064,0.58644,0.866a1.07661,1.07661,0,0,1-1.10617-.278,0.7413,0.7413,0,0,0-1.06982.03258,25.20164,25.20164,0,0,0-2.186,1.94757Zm17.0689,0.91524a3.10005,3.10005,0,0,0-.81717,1.20718c-0.251,1.67355-.85434,3.32744-0.18028,5.05571-0.637.02409-.53451-0.43067-0.68561-0.70112-0.08269-.148-0.64654.34984-0.45931-0.30021a1.23811,1.23811,0,0,1,.08792-0.283c0.57844-.99138.37393-2.104,0.6188-3.334a7.71023,7.71023,0,0,0-2.15769,1.5499,2.63238,2.63238,0,0,0-.96273,1.27259,12.21023,12.21023,0,0,0-.37479,4.27351c0.02692,0.2107.15775,0.49962-.27991,0.56357-0.476-.524-0.03587-1.29389-0.41755-1.98729a9.13856,9.13856,0,0,0-.538,1.19178c-0.23559.84331-1.27358,1.60857-.26007,2.60563a0.45424,0.45424,0,0,1-.27932.59747c-0.46566-.00491-0.55363.65033-1.27307,0.57078,0.37736-.75341,1.17179-1.37429.45217-2.17217-0.33476.0755-.66984,0.17115-1.01158,0.22257a0.56319,0.56319,0,0,0-.55881.57713,3.95086,3.95086,0,0,0,.17846,2.17923c0.12846,0.21168.36819,0.41909,0.00685,0.56816-0.28652.1182-.43389-0.11414-0.50846-0.382a7.31806,7.31806,0,0,1-.19984-2.36614,0.55695,0.55695,0,0,0-.55617-0.7065c-0.43813-.01571-0.41.32756-0.44579,0.61675-0.073.58875-.12961,1.18037-0.22841,1.76482-0.10434.617,0.36163,1.207,0.051,2.08646-0.75792-1.5413-.09723-3.01363-0.51389-4.50151a2.99091,2.99091,0,0,0-1.06969,2.24671c-0.071.78943-.01542,1.59025-0.01542,2.38607-0.59724-.97952-0.2454-2.031-0.37814-3.04987-1.22149.4408-1.21235,0.44324-1.39822,1.139a30.92648,30.92648,0,0,0-.48316,4.72321,1.07667,1.07667,0,0,0,.44781,1.08643c1.98541-1.867,4.264-3.33936,6.32512-5.10571,3.423-2.93348,6.96217-5.73167,10.34818-8.71271a1.57941,1.57941,0,0,0,.64232-1.53354,8.49315,8.49315,0,0,1-.00684-1.0355c-0.218.68638-.31842,1.52114-0.8236,1.58654a1.40978,1.40978,0,0,0-1.373,1.10446,0.46588,0.46588,0,0,1-.32732.25012,0.34327,0.34327,0,0,1-.37388-0.36344c-0.0412-.444-0.04628-0.89113-0.07549-1.33637a18.62585,18.62585,0,0,0-.12613-3.55836,1.06161,1.06161,0,0,1,.657,1.44639,8.7885,8.7885,0,0,0-.04111,2.90078,2.14514,2.14514,0,0,0,.77449-1.66809,5.552,5.552,0,0,1,.16962-1.77186,1.0561,1.0561,0,0,0-.06134-1.13009,0.92387,0.92387,0,0,0-1.21472.16569A0.72624,0.72624,0,0,1,65.15131,53.44772ZM17.64037,62.15c-1.39251-.52932-2.91616.248-4.32331-0.4654a1.71231,1.71231,0,0,0-1.4961.18989,0.83427,0.83427,0,0,0,.14877.22715c3.10291,1.11012,6.375,1.41761,9.59009,1.98661a1.10649,1.10649,0,0,0,1.48092-1.01537c0.02454-.28719.16085-0.50826,0.45441-0.43811,0.78765,0.1882,1.179-.3856,1.65058-0.80388a3.76338,3.76338,0,0,0,1.35685-1.3304c0.184-.843,1.037-0.56019,1.308-1.09748a2.20224,2.20224,0,0,1,.32409-0.30134c0.2003-.23908.16233-0.51691-0.11964-0.58871-0.66525-.1694-1.551-0.55709-1.9931-0.04662-0.85082.98229-1.66408,0.426-2.40947,0.13248a13.9516,13.9516,0,0,1-1.79943-.83925,5.59887,5.59887,0,0,1,2.831.31595c0.14966,0.07493.40011,0.30977,0.3757-.05478-0.06267-.93645.96176-0.2058,1.14516-0.80955-0.49566-.31656-1.31267-0.05386-1.53309-0.82192,0.29547-.21027.7092,0.18845,1.08413-0.38335-2.34787-.84556-4.58442-1.73732-7.13614-1.23727-0.69055.13531-1.60335-.29073-2.11711,0.02469-0.60506.37144-.99408,1.16955-1.63931,1.628-0.605.42993-1.23875,0.82321-1.81688,1.28624-0.54506.43655-.45377,0.793,0.20726,1.01033a5.41861,5.41861,0,0,1,.57223.1604c0.16933,0.07765.47135,0.01585,0.47773,0.34642-1.20123.306-2.75288-.98657-3.583,0.83944a1.154,1.154,0,0,0,1.07753.27847c0.47109-.93141,1.21089-0.44883,1.82718-0.43064,0.47446,0.014.99036,0.1133,0.4037,0.82906-0.25938.31644,0.14671,0.66483,0.54125,0.63262,0.91305-.07453,1.7525.34068,2.65016,0.33652a0.38469,0.38469,0,0,1,.43872.4567Zm16.03758,3.07439a1.70769,1.70769,0,0,0-1.64,1.12711,4.29366,4.29366,0,0,0,2.79251.64355,1.52843,1.52843,0,0,1,.9762.12989,34.81863,34.81863,0,0,0,6.47126,1.66434,6.37247,6.37247,0,0,0,3.50577.1846A25.52572,25.52572,0,0,0,42.01321,66.525c1.41982,0.28005,2.90542.37949,4.08247,1.37558a0.62286,0.62286,0,0,0,.92025-0.03467,75.58548,75.58548,0,0,0,5.69354-5.0219c0.35049-.36147.21421-0.69532-0.28032-0.81372a10.12856,10.12856,0,0,1-1.46419-.0774c-2.93493-1.074-6.0311-1.55093-9.03226-2.37824-1.497-.41268-2.41379.27492-3.28141,1.26488a1.09593,1.09593,0,0,1-.4037.55116c-1.74792.75533-2.94436,2.27392-4.4858,3.32238a1.07685,1.07685,0,0,0-.11515.54968Zm56.7866-31.35756c-2.81364-1.07395-5.50421-1.74581-8.14076-2.55143-4.78045-1.46072-9.65726-2.60291-14.46728-3.97135-2.91279-.82868-5.84621-1.5678-8.77852-2.31637a2.99554,2.99554,0,0,0-1.57325.06626A15.54124,15.54124,0,0,0,54.282,26.805a54.36728,54.36728,0,0,0-5.45748,3.861c-0.56289.3888-1.51862,0.418-1.44982,1.47264a0.3377,0.3377,0,0,1-.47559.219,1.341,1.341,0,0,0-1.222.37393,71.05493,71.05493,0,0,0-7.14759,4.53252,0.829,0.829,0,0,0-.6029.82787,14.82014,14.82014,0,0,1,5.15518,1.65442,1.45607,1.45607,0,0,0,1.88755-.3285,10.19625,10.19625,0,0,0,1.00556-1.28567,2.4363,2.4363,0,0,1,3.33967-.69112,6.40066,6.40066,0,0,0,2.87265.61187,0.65978,0.65978,0,0,0,.505-0.2485,2.88806,2.88806,0,0,1,4.681.67155,3.90869,3.90869,0,0,1,.35337.65441,1.27471,1.27471,0,0,0,1.34216.94767,4.28675,4.28675,0,0,1,1.18275.09134c1.53112,0.44457,2.64287,1.17336,2.74477,2.69918,0.10214,1.5292.131,1.52727,1.63,1.7632,1.0075,0.15857,1.20081.47159,1.13391,1.61573a11.53332,11.53332,0,0,0,.09233,1.62971,0.53364,0.53364,0,0,0,.38742.57246c1.12115,0.05468,2.28978.8902,3.35659-.2045A6.027,6.027,0,0,1,70.574,47.57c2.33887-1.58626,4.63854-3.23438,7.02487-4.74567C81.951,40.0681,86.07594,36.99283,90.46454,33.86687ZM67.16236,52.01218c0.30869,0,.40844-0.00523.50748,0.001a0.668,0.668,0,0,0,.78587-0.24457,0.6801,0.6801,0,0,0-.25225-0.78674,3.14289,3.14289,0,0,0-1.98271-1.19169c-1.46475-.21029-1.59327-0.42275-1.73623-1.91a2.72458,2.72458,0,0,1-.062-0.74037,1.07286,1.07286,0,0,0-1.108-1.49387A1.46111,1.46111,0,0,1,62.015,44.3917c-0.09973-.38459-0.17188-0.77659-0.27885-1.159a1.94775,1.94775,0,0,0-1.8737-1.59908c-1.644-.13934-3.05805-0.62328-3.70276-2.43709a1.45482,1.45482,0,0,0-2.214-.71717,6.92317,6.92317,0,0,1-5.31536.25381A1.67546,1.67546,0,0,0,46.778,39.126c-0.35393.34908-.6764,0.73-1.02994,1.07952-1.86134,1.84-2.06609,1.84885-4.18407.25973a4.02894,4.02894,0,0,0-3.02429-.95157c-0.6287.0742-1.26684,0.18665-1.91116,0.21407a1.56063,1.56063,0,0,1-1.69072-1.13568c-0.89885-2.23507-.91735-2.22763-3.19831-1.38661a2.53608,2.53608,0,0,1-3.413-.8795c-1.00832-1.17775-1.593-1.16405-2.30709.15428a3.86756,3.86756,0,0,1-3.1154,2.2025,2.6138,2.6138,0,0,0-.99423.28328,0.879,0.879,0,0,0-.48321,1.1304c0.59829,1.46964,1.50619,2.91314,3.04225,3.26318,1.86916,0.42595,3.7223.938,5.60136,1.31138a32.061,32.061,0,0,0,3.7743.80873c2.13169,0.15812,4.172.7942,6.29371,0.99868,2.02234,0.1949,3.93784.99983,5.9367,1.32954,5.38275,0.88789,10.67958,2.19609,16.04059,3.18583C63.86967,51.31762,65.58388,51.851,67.16236,52.01218ZM91.51581,35.19949a25.6163,25.6163,0,0,0-4.064,2.44639c-1.63811,1.10619-3.21582,2.30336-4.871,3.38249-4.01416,2.61717-8.00559,5.26716-11.92454,8.02486-0.79227.55751-1.62743,1.14126-.936,2.31945a0.63139,0.63139,0,0,1,.01823.14676c0.11559,0.44663-.24372,1.05151.38055,1.32255a6.24224,6.24224,0,0,0,1.41242.44572,2.01825,2.01825,0,0,0,1.5719-.7255c2.4727-1.98066,4.88335-4.04386,7.52843-5.79761,2.52456-1.67385,4.68728-3.80716,7.15195-5.56007,0.94966-.67542,1.67108-1.65389,2.838-2.05966a5.846,5.846,0,0,0,.953-0.69643,0.61836,0.61836,0,0,0,.336-0.607A5.31432,5.31432,0,0,0,91.51581,35.19949ZM30.80616,50.42387a0.94037,0.94037,0,0,0,.12206.278,27.70209,27.70209,0,0,1,3.1111.7895,3.99547,3.99547,0,0,0,4.94-1.416,21.37127,21.37127,0,0,1,1.75691-1.59894c0.39336-.37835.2678-0.71831-0.21479-0.89811a5.44512,5.44512,0,0,0-.72693-0.10194c-2.36574-.51646-4.79427-0.67261-7.1467-1.27656-1.53271-.3935-3.07838-0.75414-4.63644-1.025a3.03378,3.03378,0,0,0-2.83524,2.05274,1.96894,1.96894,0,0,1,.21718.6467,3.75391,3.75391,0,0,0-1.015-.13627,0.873,0.873,0,0,0-.80069.76008,0.71187,0.71187,0,0,0,.72066.61638,5.67592,5.67592,0,0,0,1.00686.25961c2.05,0.20538,4.10452.35162,6.16572,0.37553a0.26972,0.26972,0,0,0,.26948-0.33422c-0.55513-.46606-1.38679-0.32745-1.99822-0.74751a0.66194,0.66194,0,0,1,.75641-0.70457,6.834,6.834,0,0,0,2.60251-.26755c0.95718-.24026,1.34861.12464,1.59831,1.05256a1.76847,1.76847,0,0,1-1.65306-.40182,0.62486,0.62486,0,0,0-1.01572.164c-0.18063.41375,0.22352,0.54228,0.57,0.67721,1.08422,0.42222,2.11817,1.08687,3.34611.39623a0.63071,0.63071,0,0,1,.81307.16561,0.78231,0.78231,0,0,1,.02011.69067,0.68783,0.68783,0,0,1-1.02244.18983c-0.29921-.18065-0.76279-0.5303-0.90742-0.24506-0.54745,1.07963-1.326.2957-1.988,0.35805C32.1783,50.80744,31.60172,50.13066,30.80616,50.42387ZM44.91739,75.02024a13.81584,13.81584,0,0,0-.5445-4.04241,0.8801,0.8801,0,0,0-.6515-0.5606,11.03094,11.03094,0,0,0-1.41739-.45407c-2.1691-.47727-4.34385-0.9289-6.51583-1.39321-0.87063-.18611-1.73676-0.39431-2.61008-0.56644a0.8506,0.8506,0,0,0-1.14505.40183,5.34389,5.34389,0,0,0,.14866,3.50021c0.275,0.8812,1.13887.829,1.86094,0.9596,1.44568,0.26148,1.48921.22819,1.29464-1.165a8.01081,8.01081,0,0,1-.04647-2.63427,1.39585,1.39585,0,0,1,.4082,1.143c0.00749,0.69555.02548,1.3917,0.00545,2.08664a0.96287,0.96287,0,0,0,.894,1.10543c1.63536,0.4224,3.30794.63832,4.95069,1.00983a1.257,1.257,0,0,0,1.26159-.10881,8.98511,8.98511,0,0,1-.03693-3.43979c0.471,1.30113-.06816,2.68491,1.00618,3.77121,0.2174-.9292-0.31148-1.84133.69257-2.79419C44.21944,73.02708,43.815,73.96236,44.91739,75.02024ZM14.30648,66.56337c0-.64374-0.01433-1.28793.00569-1.931a0.56083,0.56083,0,0,0-.46269-0.6401c-1.66859-.49693-3.37677-0.8117-5.08272-1.13984-0.6517-.12537-0.775.22665-0.732,0.75948,0.07567,0.93844.15608,1.87664,0.21632,2.8161a0.64231,0.64231,0,0,0,.52047.5046,11.169,11.169,0,0,0,3.65543,1.1252c2.27434,0.56209,4.49938,1.4693,6.91791,1.229a0.60576,0.60576,0,0,1,.42829.30606c0.633,0.38726.85082,0.31358,0.82045-.33823a6.98891,6.98891,0,0,1,.29345-2.49735,0.90148,0.90148,0,0,0-.23969-0.9487,0.70137,0.70137,0,0,0-.64117-0.299c-0.32187.04972-.30931,0.31211-0.33428,0.5635a4.14428,4.14428,0,0,1-.58562,2.19915,4.83988,4.83988,0,0,0-.00809-0.877c-0.14616-.67619.67682-1.43694,0.0333-1.96149a5.39274,5.39274,0,0,0-1.93469-.68316C14.78376,64.077,14.7818,64.084,14.30648,66.56337Zm17.0641-12.75506c0.35361,0.56018.10268,1.32252,0.5603,1.34933,1.2421,0.0728,1.05814,1.0057,1.2644,1.74007,0.13336,0.475.31374,0.93676,0.47368,1.40425a1.98933,1.98933,0,0,0,1.08634,1.16045c0.924,0.44335,1.41067.21121,1.5309-.8176A17.47041,17.47041,0,0,0,36.45443,54.67a1.56611,1.56611,0,0,0-1.27679-1.55935c-1.00039-.26391-2.02824-0.426-3.02393-0.70463a8.02531,8.02531,0,0,0-2.683-.69,5.361,5.361,0,0,1-.00044,2.78174,0.79776,0.79776,0,0,0,.87069,1.048c0.62112,0.01509,1.09324-.12616.993-0.91061A6.1038,6.1038,0,0,1,31.37058,53.80831Zm14.05084,3.04582a0.56273,0.56273,0,0,1-.165-0.61011c0.00594-.28217.1108-0.68111-0.28523-0.72963-0.369-.04521-0.42924.29745-0.44118,0.61628a3.59328,3.59328,0,0,1-.50968,1.98593,0.47894,0.47894,0,0,0,.3166.80009c1.00119,0.23506,2.01765.40506,3.028,0.601a5.68726,5.68726,0,0,0,.67219-2.47845,0.5005,0.5005,0,0,1,.14649-0.13784,1.84139,1.84139,0,0,1,.00911,1.41222c-0.19175,1.22346-.18293,1.16156.94391,1.64206a15.782,15.782,0,0,0,3.49788.67422c0.24859-.886.095-1.75286,0.40775-2.55036a0.62056,0.62056,0,0,0-.48752-0.7951c-0.45248-.17357-0.55533.13167-0.73607,0.47283a7.33205,7.33205,0,0,0-.464,2.21508,1.95426,1.95426,0,0,1,.03361-2.02475c0.27553-.64122.123-0.89287-0.51477-1.04721-1.38724-.3357-2.815-0.54205-4.16681-0.95455C45.80011,55.66923,45.55183,55.91267,45.42142,56.85413ZM27.5616,52.97975a3.69165,3.69165,0,0,1,.09483,1.61018,0.77978,0.77978,0,0,0,.85454.65728,0.5549,0.5549,0,0,0,.656-0.6186,6.43041,6.43041,0,0,0-.03119-2.51118,0.839,0.839,0,0,0-.49714-0.67074A45.83867,45.83867,0,0,0,23.019,50.008a0.51056,0.51056,0,0,0-.7009.52679,5.89575,5.89575,0,0,1-.46181,2.4663,0.5255,0.5255,0,0,0,.38857.80036c0.908,0.24024,1.83055.4267,2.75029,0.62043a0.47256,0.47256,0,0,0,.66235-0.53059,2.37043,2.37043,0,0,1,.44451-1.85344,2.13521,2.13521,0,0,1-.1387,1.20059,1.66648,1.66648,0,0,0,.37245,1.39308,0.68767,0.68767,0,0,0,.67679.22595,0.51447,0.51447,0,0,0,.37411-0.56216A2.2561,2.2561,0,0,1,27.5616,52.97975Zm2.78934,14.94a0.91265,0.91265,0,0,0-.35021-0.031,1.89682,1.89682,0,0,0-.49907.30916,7.029,7.029,0,0,1-5.74482,1.867,0.86688,0.86688,0,0,1-.805-0.45517c-0.49317-.82877-1.0177-1.63888-1.63-2.6167A4.29017,4.29017,0,0,0,21.07,69.31737a0.7506,0.7506,0,0,0,.66527.80156c2.11447,0.67623,4.3172.88363,6.42919,1.39158,0.31888-.555-0.20245-1.11863.21485-1.6467,0.5188,2.11445.68922,2.22938,3.44425,2.32887a11.70408,11.70408,0,0,1-.20455-3.67132c0.01163-.28965.0224-0.6795-0.34531-0.72484-0.47742-.05885-0.48852.38664-0.54091,0.712-0.039.24235,0.01907,0.50141-.027,0.74135-0.11338.59084,0.28911,1.18392-.05188,1.77911A9.86986,9.86986,0,0,1,30.35094,67.91974Zm19.051,3.887c-0.95611-1.08027-.02756-2.5911-0.71053-3.81244-1.24225.53045-.55582,1.59269-0.78718,2.36433-0.298-.14566-0.11909-0.42949-0.18048-0.64007-0.121-.41492-0.30668-0.60748-0.74544-0.34168a1.42191,1.42191,0,0,0-.93834,1.53064c0.21195,0.74379.07439,1.48656,0.23238,2.20576a1.81754,1.81754,0,0,0,.76523,1.63787,14.09421,14.09421,0,0,1-.04882-4.60479c0.28815,1.41118-.22921,2.93747.59813,4.37966,0.726-.50019,1.37426-0.94058,2.01543-1.391a1.10716,1.10716,0,0,0,.54588-0.99286,21.87977,21.87977,0,0,1,.28321-3.85856,2.46583,2.46583,0,0,0-.12246-1.588C48.95931,67.72918,48.819,68.66252,49.40189,71.8067Zm7.366-10.65072c-0.02388-.28928-0.0457-0.434-0.04614-0.5787-0.00208-.71271.68174-1.57814,0.02754-2.0847a4.1164,4.1164,0,0,0-2.23664-.682,0.62733,0.62733,0,0,1-.14765-0.00955,0.73733,0.73733,0,0,0-1.10608.70329c-0.12983.73894-.457,1.74209,0.08562,2.09a14.78749,14.78749,0,0,0,2.51328,1.77457,1.20613,1.20613,0,0,0,1.74878-.79149,9.98328,9.98328,0,0,0,.45308-2.4516,0.4322,0.4322,0,0,0-.48234-0.47395C57.09836,59.34577,57.31082,60.27849,56.76794,61.156Zm12.65222-7.1314a9.35729,9.35729,0,0,1,.22861,1.02339c0.097,1.28293.09093,1.27974,1.33106,1.13034,0.19339-.0233.39373,0.0169,0.58929,0.00411a0.62832,0.62832,0,0,0,.57782-0.38955,0.55815,0.55815,0,0,0-.32909-0.73246C71.12105,54.72563,70.39942,54.44248,69.42016,54.02458ZM27.5594,57.014a2.45518,2.45518,0,0,0,2.04478.75959,0.51112,0.51112,0,0,0,.49814-0.45422,0.436,0.436,0,0,0-.3-0.44921A1.7183,1.7183,0,0,0,27.5594,57.014Zm39.71972-.5831c0.002-.995.82555-1.89939,0.22742-3.165A4.94656,4.94656,0,0,0,67.27912,56.43091ZM32.41827,58.83015a0.78352,0.78352,0,0,0-.51047-0.68892,0.26555,0.26555,0,0,0-.22165.11792,0.67389,0.67389,0,0,0,.56519.68962A0.57722,0.57722,0,0,0,32.41827,58.83015Z"/><path d="M63.86053,29.64675a3.30954,3.30954,0,0,1-2.30631-.64618A4.85309,4.85309,0,0,1,63.86053,29.64675Z"/><path d="M72.16738,42.77934a0.282,0.282,0,0,1-.32118-0.18865c-0.03181-.2033.13322-0.18694,0.24833-0.13013a1.91,1.91,0,0,1,.312.23959Q72.28687,42.74,72.16738,42.77934Z"/><path d="M62.49236,35.44538a0.305,0.305,0,0,1,.34216.18967,0.186,0.186,0,0,1-.267.21329,1.17216,1.17216,0,0,1-.30687-0.28543Q62.37654,35.50395,62.49236,35.44538Z"/><path d="M49.898,64.40705c-1.30476.06324-1.30476,0.06324-2.013-1A2.71,2.71,0,0,1,49.898,64.40705Z"/><path d="M45.89377,64.70527a4.79606,4.79606,0,0,1,2.67639.50647C47.39133,65.631,46.66325,65.0525,45.89377,64.70527Z"/><path d="M38.76191,66.53412a1.49482,1.49482,0,0,1-1.3051-.2626A1.06354,1.06354,0,0,1,38.76191,66.53412Z"/><path d="M46.6401,65.93189l1.05454,0.26574C47.65182,66.5571,47.48162,66.52686,46.6401,65.93189Z"/><path d="M33.64663,65.26274a2.31622,2.31622,0,0,1,1.52161.46582,1.50246,1.50246,0,0,1-1.49031-.50367Z"/><path d="M72.44869,50.6573c-0.45361.16054-.83208,0.21437-1.0227-0.22267a0.76371,0.76371,0,0,1,.40563-0.35372C72.44832,49.89478,72.10627,50.57154,72.44869,50.6573Z"/><path d="M76.85916,47.43529a1.4564,1.4564,0,0,1,.83334-0.658c0.195,0.31156-.13056.37867-0.25231,0.49667A0.50168,0.50168,0,0,1,76.85916,47.43529Z"/><path d="M81.324,44.33739a0.47816,0.47816,0,0,1-.40714.32032c-0.14895.01474-.2954-0.06816-0.17478-0.21874a0.99261,0.99261,0,0,1,.45928-0.26844C81.29875,44.13843,81.355,44.2405,81.324,44.33739Z"/><path d="M17.61915,62.16695a1.52127,1.52127,0,0,1,1.42262.02156,2.232,2.232,0,0,0,1.91389-.07136C20.20733,61.63981,19.34693,61.856,18.95,61.102c0.70149,0.206,1.33467-.5541,2.07489-0.07165a0.47476,0.47476,0,0,0,.38891-0.13816c0.094-1.24068,1.18793-.43082,1.75656-0.90188-0.69516-.68521-1.67974-0.69367-2.469-1.10119a2.24544,2.24544,0,0,1,2.22147.17037c0.74768,0.42393,1.44754.92135,2.46829,0.43953a1.72675,1.72675,0,0,1-2.09753,1.03716c-0.21647.69877,0.66178,0.42232,0.59322,0.92234a0.32247,0.32247,0,0,1-.37378.11943,1.13086,1.13086,0,0,0-1.60149,1.04452,0.745,0.745,0,0,1-1.05119.6796c-0.98779-.18991-2.05655-0.18107-2.77563-1.08525a0.80177,0.80177,0,0,0-.43562-0.073Z"/><path d="M16.68672,57.04861c-0.441.147-.81864,0.43747-0.16277,0.67395a22.62559,22.62559,0,0,0,2.874.67754,0.6459,0.6459,0,0,1,.66671.38922,0.93954,0.93954,0,0,1-1.01067.10526,10.36306,10.36306,0,0,0-3.81937-.24956c-0.42123.07786-.78055-0.12462-0.52837-0.54717,0.19217-.322-0.7884-0.75745.19906-0.95938A3.1104,3.1104,0,0,1,16.68672,57.04861Z"/><path d="M20.139,56.23363a2.90932,2.90932,0,0,1-1.79927-.31286C19.071,55.72038,19.07533,55.70577,20.139,56.23363Z"/><path d="M21.82648,55.6822l-1.84832-.44444A1.57678,1.57678,0,0,1,21.82648,55.6822Z"/><path d="M61.98363,57.003c0.42864,0.19438.15316,0.50911,0.109,0.75857a8.55913,8.55913,0,0,0-.079,2.78474,0.5954,0.5954,0,0,0,.27212.60944c0.7335,0.38865.23668,0.70737-.07993,1.09182C61.29738,60.21443,60.986,58.6164,61.98363,57.003Z"/><path d="M53.65739,52.59378a18.17442,18.17442,0,0,1,4.41653.66564A4.46531,4.46531,0,0,1,53.65739,52.59378Z"/><path d="M58.09681,55.19782c-1.47042-.32553-3.02748.15142-4.46848-0.48782,0.054-.4434.41835-0.34321,0.679-0.34449a6.34921,6.34921,0,0,1,3.764.86934Z"/><path d="M56.61631,56.33458a2.89875,2.89875,0,0,1,2.06709.443,2.28445,2.28445,0,0,1-2.036-.47752Z"/><path d="M58.98371,53.4591a1.15,1.15,0,0,1,1.202.07227A1.02756,1.02756,0,0,1,58.98371,53.4591Z"/><path d="M58.07129,55.23486a0.73891,0.73891,0,0,1,1.18248.1837,1.09867,1.09867,0,0,1-1.15448-.22419Z"/><path d="M48.08323,52.565c0.02536,0.5419.64788,0.30674,0.85155,0.63342-0.73382.34031-.80557-0.14244-0.85377-0.65961A0.11563,0.11563,0,0,1,48.08323,52.565Z"/><path d="M37.92533,48.71362a2.55675,2.55675,0,0,1-1.45123-.407C37.16947,48.02017,37.16947,48.02017,37.92533,48.71362Z"/><path d="M41.03637,70.39732a10.5843,10.5843,0,0,0,.49627,3.357C40.75556,72.6553,40.68754,72.205,41.03637,70.39732Z"/><path d="M33.89254,71.54016A5.11927,5.11927,0,0,1,33.7227,69.04l0.30694,0.01366Z"/><path d="M38.45789,72.43051a3.12109,3.12109,0,0,1-.24868-2.313C38.78107,71.01557,38.26732,71.76826,38.45789,72.43051Z"/><path d="M11.45035,66.98972a3.19133,3.19133,0,0,1-.40981-2.91026,3.15038,3.15038,0,0,1,.234,1.50606A6.11768,6.11768,0,0,0,11.45035,66.98972Z"/><path d="M16.27533,68.05141a3.64844,3.64844,0,0,1,.09731-2.8611C16.37841,66.16089,16.28568,67.12624,16.27533,68.05141Z"/><path d="M12.95458,64.48314l0.13054,1.872a1.70723,1.70723,0,0,1-.5163-1.8514Z"/><path d="M9.64036,64.73673c0.16634,0.67141.17489,1.33651,0.29216,1.99224A1.95094,1.95094,0,0,1,9.64036,64.73673Z"/><path d="M18.185,67.75271a1.77993,1.77993,0,0,1-.18-1.76947C18.18675,66.55624,18.0304,67.18274,18.185,67.75271Z"/><path d="M42.65713,52.8544A2.94441,2.94441,0,0,1,41.18488,51.07,0.29332,0.29332,0,0,1,41.331,50.697a0.25689,0.25689,0,0,1,.41507.2099A7.39583,7.39583,0,0,0,42.65713,52.8544Z"/><path d="M40.85915,53.89673a1.09471,1.09471,0,0,1-.5881-0.79311,0.45385,0.45385,0,0,1,.13978-0.62439,2.134,2.134,0,0,1,.4167,1.44546Z"/><path d="M40.82752,53.92469a0.757,0.757,0,0,1,.51849.92565,0.87435,0.87435,0,0,1-.487-0.95351Z"/><path d="M31.36447,60.7154a6.50063,6.50063,0,0,1,1.55214,1.75289,4.6877,4.6877,0,0,1-1.71132-1.60017Q31.28473,60.79161,31.36447,60.7154Z"/><path d="M31.2053,60.86812a1.12438,1.12438,0,0,1-.24423-0.12609c-0.22148-.19373-0.43682-0.46636-0.11191-0.67129,0.22489-.14183.38168,0.14879,0.45775,0.3734a2.256,2.256,0,0,1,.05757.27127Q31.28474,60.79161,31.2053,60.86812Z"/><path d="M35.38259,55.71861v2.8132C35.05039,57.42668,34.66018,56.59332,35.38259,55.71861Z"/><path d="M33.59923,53.97678v1.66851l-0.11878-.00142V53.97513Z"/><path d="M46.70824,56.68249a2.759,2.759,0,0,1-.34582,1.6192A1.68191,1.68191,0,0,1,46.70824,56.68249Z"/><path d="M24.96389,51.5373l-0.353.424a0.50236,0.50236,0,0,1-.087-0.21923A0.48364,0.48364,0,0,1,24.84,51.31014,1.23844,1.23844,0,0,1,24.96389,51.5373Z"/><path d="M23.02411,51.17523a0.84068,0.84068,0,0,1,.02887.93568A0.83068,0.83068,0,0,1,23.02411,51.17523Z"/><path d="M24.81939,66.36674c-0.66091-.1318-0.82544-0.62363-1.03349-1.42716a3.82558,3.82558,0,0,1,.98752,1.46911Z"/><path d="M54.94206,61.02575a2.50021,2.50021,0,0,1,.32945-2.24879,1.16964,1.16964,0,0,1-.02162,1.13293c-0.02105.36612-.00463,0.73439-0.00463,1.10171Z"/><path d="M46.29081,51.79886c-1.15422-.11568-1.25342-0.99564-1.35784-1.86979,0.63657,0.4994.6896,1.40122,1.31547,1.91025Z"/></g><text x="0" y="115" fill="#000000" font-size="5px" font-weight="bold" font-family="'Helvetica Neue', Helvetica, Arial-Unicode, Arial, Sans-serif">Created by Olga</text><text x="0" y="120" fill="#000000" font-size="5px" font-weight="bold" font-family="'Helvetica Neue', Helvetica, Arial-Unicode, Arial, Sans-serif">from the Noun Project</text></svg>