<svg xmlns="http://www.w3.org/2000/svg" data-name="Слой 1" viewBox="0 0 100 125" x="0px" y="0px"><title>cheese_Монтажная область 1</title><path d="M38.55009,43.10115a1.62087,1.62087,0,0,0,.00836-.93849,52.63006,52.63006,0,0,1,.20922-6.41409c.0309-.75158.63239-1.12025,1.15926-1.48261,1.67633-1.15295,3.38544-2.2581,5.0678-3.40243a22.64306,22.64306,0,0,0,3.61612-2.849,6.47078,6.47078,0,0,1,1.42042-.88121c.28207-.16564.48414-.00168.61658.21819,1.23642,2.05269,2.9344,3.75651,4.32845,5.6952A21.55955,21.55955,0,0,0,57.28278,36.158a.45311.45311,0,0,1,.10417.65313,1.65965,1.65965,0,0,0-.14849,1.22749,42.49023,42.49023,0,0,1-.02878,7.47294c-.03855.45476-.05362.91322-.04865,1.36964.01456,1.33662-.0901,2.66759-.15377,4.00081-.02071.43377-.21224.58979-.60751.70861a19.39493,19.39493,0,0,1-4.94527.8124,6.058,6.058,0,0,0,1.76923,2.01844c.18187.1668.40614.0138.59242-.07094a28.821,28.821,0,0,0,3.54628-1.83737c.32123-.2038.47333-.35936.25663-.739-.22283-.3903.17414-.73037.16047-1.11466-.0686-1.92964.24666-3.84565.21307-5.7733-.03128-1.79557.21045-3.57661.25473-5.3673.02341-.947.00667-1.895.00982-2.8425.00605-1.828.28431-3.64313.229-5.4764-.03157-1.04591.1726-1.26933,1.14988-1.61612.757-.26864,1.50951-.5588,2.28313-.7691.5652-.15364.91222-.62713,1.45535-.82186A23.67711,23.67711,0,0,0,66.437,26.625c1.48622-.78509,1.9969-.66262,3.136.63351a.93586.93586,0,0,0,.43359.2712A18.06626,18.06626,0,0,1,72.61893,28.885c.55542.29645.68056,1.056,1.31986,1.29772.13811.05221.09185.245.07183.38523a23.8323,23.8323,0,0,0,.044,4.91687c.07225,1.13-.15323,2.24866-.13295,3.36953.07034,3.886-.29536,7.76294-.203,11.64828.01987.83615.29538,1.11218,1.08067.81534.46155-.17447.98676-.03127,1.39777-.38026.23015-.19542.43606-.01274.65047.13647.86241.60018,1.77179,1.13655,2.60689,1.77138A25.05038,25.05038,0,0,0,82.405,54.6743a19.31629,19.31629,0,0,1,2.93363,2.17633,1.28594,1.28594,0,0,1,.38877,1.01643,28.9015,28.9015,0,0,0,.19784,4.72056,14.88754,14.88754,0,0,1,.024,2.63206c-.00325.47836-.23324.6569-.73109.65855-3.164.0105-6.31614.25017-9.46527.53756a5.4687,5.4687,0,0,1-.83842-.00463c-.78136-.0494-.80992-.05245-.85639-.85771a2.429,2.429,0,0,0-1.13639-1.8006,1.43035,1.43035,0,0,0-1.76154.1439,4.40662,4.40662,0,0,0-1.17645,1.84759c-.4343,1.194-.511,1.22657-1.74774,1.23979a4.20748,4.20748,0,0,0-.73807.007,1.8893,1.8893,0,0,1-2.243-.89271c-.23579-.39841-.522-.3408-.757.15831-.19221.40813-.385.72648-.86322.81813a1.34729,1.34729,0,0,1-1.59867-.66945,4.02624,4.02624,0,0,0-.30143-.43118c-.49678-.55831-.86113-.593-1.43162-.09211a7.84254,7.84254,0,0,0-1.10782,1.12146,1.931,1.931,0,0,1-1.43953.729,48.78479,48.78479,0,0,1-5.998.29759,43.26258,43.26258,0,0,0-5.04832.32591c-.83616.108-1.66312-.19193-2.51034-.01993-.29732.06036-.60459-.60559-.57441-1.04363A18.73562,18.73562,0,0,0,43.4398,62.812a5.58874,5.58874,0,0,0-1.55714,1.30813c-1.11522,1.27478-2.47278,2.27755-3.67569,3.45036q-1.65807,1.61651-3.35561,3.1924c-.59084.54908-1.22779,1.04825-1.82777,1.5879a4.4682,4.4682,0,0,0-.79125.844c-.478.73826-.504.81457-1.24182.48-1.66987-.75715-3.46865-1.12118-5.17077-1.74409a30.33751,30.33751,0,0,1-6.241-2.72432,28.25384,28.25384,0,0,1-3.3546-2.49441c-1.53563-1.35623-1.79279-3.17282-2.08822-4.97222a18.46476,18.46476,0,0,1,.74736-7.29451,58.705,58.705,0,0,1,1.80161-6.25955A12.7077,12.7077,0,0,1,19.31549,44.079a11.33014,11.33014,0,0,1,3.09529-2.32941,6.20837,6.20837,0,0,1,1.05968-.44986,16.24154,16.24154,0,0,1,9.44673-.06745,20.00452,20.00452,0,0,1,4.84288,1.72132A.93282.93282,0,0,0,38.55009,43.10115ZM27.13374,68.91009c.04123.51962.32475.83012.95768,1.10008a2.50663,2.50663,0,0,0-.89285-1.15283A8.87589,8.87589,0,0,0,24.8751,65.891a7.9126,7.9126,0,0,0-1.67339-2.267c-.20518-.1536-.55893-.10066-.57011-.503a3.687,3.687,0,0,0-1.00053-2.1369,7.837,7.837,0,0,1-1.19614-2.0614c-.15757-.41661-.22146-1.05669-.94457-1.05521-.182.00037-.1373-.22663-.06651-.32729.16269-.23125.02581-.38734-.087-.56517-.33776-.53235-.67447-1.0655-1.00177-1.60431-.09031-.14866-.136-.36733-.32369-.38549-.86948-.08409-.74238-.7333-.66217-1.25727a2.21552,2.21552,0,0,0-.18187-1.43237,7.3382,7.3382,0,0,1-.45091-1.62839,5.73886,5.73886,0,0,0-.524,2.0483c-.03758.378-.43872.83628-.24287,1.00535.767.66221-.524.32872-.36106.84134.13218.41583-.24524.98848-.38138,1.49566a12.87039,12.87039,0,0,0-.14827,6.76713,2.05812,2.05812,0,0,0,.30655.77236,1.90374,1.90374,0,0,1,.45795.85487c-.00743.24988-.05253.519.154.69361.74277.62777,1.24839,1.52162,2.17634,1.94078a.111.111,0,0,0,.16529-.05017c.02861-.257-.363-.35515-.23635-.6446.82041-.10236.8447-.10134.80692.79675-.00855.20312-.05182.40229.16421.35729.49149-.1024.59564.17256.70486.541a.7189.7189,0,0,0,.71369.52364c.33332-.06526.4704-.09049.61284.25605.17551.427.66026.47811,1.01085.69627.38316.23844.4397-.09388.64825-.24934.19975-.14895.15758.11924.14657.21927-.03659.33245.10255.36922.35523.22879.15-.08335.29213-.1808.43339-.26917.064.73337.064.73337.95272.8907a2.16319,2.16319,0,0,0-.21661-1.12064c-.17763-.46119.04864-.64895.33937-.89578.13552.20545.27194.407.40224.61238.05051.07965.05643.12973-.0344.22583-.34222.36213-.34036.40387-.22938.59344.08556.14609.35427.14152.33388.35615a.75537.75537,0,0,0,.5091.91649c.36422.11374.74433.1773,1.11849.258.11332.02447.10323-.219.31373-.09731a6.01429,6.01429,0,0,0,2.56524.87688L28.51262,70.684c-.29241.29493.3118.55764-.00025.89725a3.36977,3.36977,0,0,1-1.44913-1.10108c-.3491-.50909-.58328-.269-.96084-.15289.00875-.56444.16819-1.16981-.2423-1.62827-.89085-.995-1.274-2.3197-2.1828-3.30163-.14273-.1542-.1636-.38265.16551-.58806.20256.30145.40943.60831.61518.91593a.311.311,0,0,0,.43571.14792c.23647,1.00121,1.10222,1.6618,1.42483,2.6025C26.48255,68.95389,26.79706,68.89135,27.13374,68.91009ZM44.14163,34.195c-.65694.7206-1.675,1.135-1.88223,2.23862.45386.4742.77615-.139,1.2-.22321.04192.18752.07855.31912.09889.45319.01454.09591-.04424.21844.09775.25959a.288.288,0,0,0,.3607-.13035c.08172-.15179.23486-.40835.18455-.46429-.28482-.31673-.02454-.36493.14974-.57329a5.1136,5.1136,0,0,0,.63212-1.19925c.16227-.359,1.05018-.43278.44452-1.10454-.01249-.01387.05284-.14566.09638-.15506.55715-.12022.63578-.7258,1.01891-1.00124.91415-.65723,1.05261-1.80529,1.74789-2.5983-.53441.38693-1.53775.33889-1.31016,1.40242-.658.46335-.98177,1.49637-2.07521,1.21766-.15422.356-.72743-.29031-.6991.23377.0203.37548.47863.05323.71869.15769.08147.03544.11661.07921.06692.2488-.02888.19332-.27319.28243-.4809.40881-.2952-.438-.6354-.06627-.77579.07237-.43772.43227-.47834-.0973-.83849-.32584.05044.73218-.60521.88009-.90576,1.34431-.33073.51086-.02657,1.10808-.4,1.59784a.44378.44378,0,0,0,.56138-.32122A2.55166,2.55166,0,0,1,44.14163,34.195Zm8.36571,7.67074a2.0831,2.0831,0,0,0-.08783-1.43723c-.08673.48121-.35674.97819.11513,1.41386-.44681.17892-.46362.55538-.45464.95645.00829.37083-.01037.74226-.01717,1.11343a2.01224,2.01224,0,0,1-.13-1.06444c.128-1.32035.27659-2.63877.39677-3.95979.05465-.60082.03272-.60281-.7879-.56287a1.3672,1.3672,0,0,1,.18049,1.211A50.6835,50.6835,0,0,0,51.43341,47.47a3.6481,3.6481,0,0,1-.16408,1.43165c-.13452.36639.22677.86882-.09288,1.36193a.633.633,0,0,0,.39547.89035c.67177.08967,1.42732.46458,2.03752-.19965.17379-.18919.22054-.11021.19509.0853-.033.25336.08845.28492.30212.28056,1.58905-.03246,2.03714-.59573,1.69834-2.15155-.00721-.0331-.03438-.0631-.037-.09575-.037-.46429-.01987-1.06576.3461-1.24054.47506-.22685.404-.54863.38288-.84946a15.39782,15.39782,0,0,1,.07322-2.09892c.016-.2437.0843-.56537-.03779-.71974-.25254-.31933-.1293.32459-.36987.19938,0-1.263-.02072-2.52751.00912-3.79082a4.78165,4.78165,0,0,1,.01582-1.77392l-.028.03053c.24-.14539.26076-.41867.31286-.64007.16092-.6836-.06273-.88456-.754-.73548-.30891.06661-.61948.12578-.92746.19637a.61768.61768,0,0,0-.54845.66278c.0018.16761-.096.37273.10673.46305.24621.10966.27048-.111.32685-.27363.07134-.20587.203-.16018.28016-.02313.11971.21268.258.47859-.07.62262-.54979.24149-.556.72191-.66169,1.21279A26.18027,26.18027,0,0,0,53.959,43.329a18.09861,18.09861,0,0,0-.04061,5.01995c.02419.13418.0699.31624.00645.40571a2.043,2.043,0,0,0-.33676,1.47273.28858.28858,0,0,1-.30889.34395c-.19837-.0201-.34738-.17948-.26591-.36457a.5367.5367,0,0,0-.296-.81961.38978.38978,0,0,1-.07554-.37489c.08272-.11451.26883-.15223.40741-.22913.11213-.06221.20026.68533.3602-.01826a11.06275,11.06275,0,0,0,.1981-2.6035,25.10287,25.10287,0,0,1,.331-5.97829,4.25971,4.25971,0,0,0,.01487-1.98392c-.22974.12338-.12087.34515-.2675.48946a1.91787,1.91787,0,0,1-.10815-.24451c-.07615-.26752-.22193-.45195-.52523-.39145-.42533.08481-.17813.37186-.14946.58A8.00144,8.00144,0,0,1,52.50734,41.86577Zm-5.24308-2.77093c-.09666-.19955-.65375.32458-.47778-.30429a.29736.29736,0,0,0-.33113-.39988,2.57411,2.57411,0,0,1-.8731-.08314c.06743.52783.56782.765.46077,1.23225-.39809.0351-.39809.0351-.12075.55569l.0884-.58547c.41911.05816.26962.51854.503.71036.29.23833.30435.27164.27713.59084-.02507.29386-.05631.58721-.08463.87872-.2766-.04193-.22236-.35339-.40417-.46151-.206.096.02976.42364-.222.48187-.165-.32445.06455-.77619-.43676-1.0723-.21761,1.53562.07891,2.99912-.21,4.43211-.04528-1.10886-.01127-2.21833-.05563-3.32467a13.42825,13.42825,0,0,0-.13482-2.839,1.1,1.1,0,0,0-.63666-.79994,2.96967,2.96967,0,0,0-2.15392-.33819,2.5906,2.5906,0,0,0,.299,1.705,1.28436,1.28436,0,0,1,.03054.41763,2.65858,2.65858,0,0,0,.11652,1.03689c.72952-.63831-.29076-1.60648.54686-2.43854v3.59451c.402.00289.30846-.45311.601-.48983.36955,1.10388-1.15055,1.39629-.88358,2.42538-.40016-.48122.264-1.0394-.21086-1.51192-.39565.4528.07844.98443-.2917,1.56905-.01273-.79731-.465-1.3368-.11709-2.10117a1.52508,1.52508,0,0,0-.30668-1.72772l-.201.59991a20.5289,20.5289,0,0,0-.2343-3.22559c-.03725-.20754-.01576-.436-.26294-.52629-.4827-.17628-.78049-.70542-1.36311-.7194-.0878.26537-.08938.75143.02935.71512.564-.17246.38523.19213.38794.43383a14.0255,14.0255,0,0,0,.1024,3.6241c.0769.28332.181.70024-.45544.90142.54945-.87355-.00966-1.58688-.15362-2.317-.064-.32473.34722-.49118.06474-.79658-.38821-.41972-.2665-.97423-.30749-1.49876-.03637-.46518.21894-1.03924-.31075-1.47153-.23731.93092.14824,1.82181-.13153,2.7043-.42089,1.32759.36874,2.67673.00152,4.0251-.04532.16638.06271.46089.35812.17606.08072-.07783.16376-.26689.29721-.05275a.22646.22646,0,0,1-.0412.28506c-.49757.57818-.45846.52981.08319.95463.39846.31252.916.27966,1.29905.63123a11.191,11.191,0,0,0,1.37541.93408,14.66522,14.66522,0,0,1,1.29008.89485c.43264.364.98054.54,1.3855.95274.36019.36716.78916.916,1.20062.92752.68217.01916.72224.61875,1.12764.83691.0923.04967.17053.12837.26576.16917.2074.08889.42019.1335.489-.16784.04651-.20356.42859-.38927.081-.60973-.129-.08179-.42644-.092-.244-.26853.242-.23416.04123-.64785.44292-.82841a14.04645,14.04645,0,0,1,.2392,2.36642c.05258.35182.12579.6789.42585.75877.31061.08267.41042.48076.73465.45752.37925-.42329-.15254-.90626.1336-1.30791.53319.16386.143.73474.51159,1.07586,0-.60254.017-1.093-.00469-1.58165a2.46239,2.46239,0,0,1,.34347-1.3937.94609.94609,0,0,0,.02071-.51794,23.24383,23.24383,0,0,1-.00786-5.15549c.03983-.32972.16667-.73651-.25257-1.0725a4.39875,4.39875,0,0,0-.28034,1.718c.05065,1.29593.08006,2.59287.14722,3.88789a3.24084,3.24084,0,0,1-.35506,1.58377c-.4387-.07206-.22182-.64754-.63551-.66488-.10626-.00447-.1041-.06432-.0194-.138a.62209.62209,0,0,0,.18634-.57955c-.09406-.67978-.34284.30959-.37045-.01638-.03192-.37662-.31244-.71525-.14533-1.12369a5.698,5.698,0,0,0,.11292-.61732c.06806-.24349.41044.32348.39662-.09951-.03919-1.19793.63373-2.29463.469-3.50861a3.20429,3.20429,0,0,1,.02278-.84224c.01893-.14248.11433-.41655.31158-.1937.2507.28326.35928.13037.41285-.08843a5.92171,5.92171,0,0,0,.2234-1.34032c.00177-.233.13676-.71943-.345-.68382-.4012.02965-.98419-.25631-1.11971.50566a2.48327,2.48327,0,0,1-.48191,1.34439,2.66726,2.66726,0,0,0-.03518-1.6954,4.83569,4.83569,0,0,1-.31452,1.11074,8.04449,8.04449,0,0,0-.64423,3.66708c.01033.42192.04639.84341.04915,1.26524.002.30775-.13126.47014-.463.32056l.02239.01929a8.08984,8.08984,0,0,1,.15332-1.62871c.10611-.36982-.00887-.794.06465-1.20826a.72028.72028,0,0,0-.642-.82016c-.42383.00118-.23973.46829-.23817.7578a9.00664,9.00664,0,0,1-.07194,2.08925c-.13733-.18171-.25712-.26734-.25131-.34337.09473-1.24014.20536-2.47907.31254-3.71838.5602.11639.52894.74388.8749,1.12116a.61015.61015,0,0,0,.14732-.627c-.091-.43285-.28294-.84673.38437-1.07336.31207-.106.11386-.56708.10008-.85951-.01388-.29444-.30832-.2007-.49684-.239-.1372-.02787-.27481-.055-.41333-.07486C47.28891,38.26171,47.2888,38.26254,47.26426,39.09484Zm5.235,15.97913a23.53411,23.53411,0,0,0-2.9762-3.3368,69.38624,69.38624,0,0,0-6.223-4.82471,40.41179,40.41179,0,0,0-7.48266-4.02007,21.48964,21.48964,0,0,0-6.64913-1.48191,8.15588,8.15588,0,0,0-5.739,1.10583,2.781,2.781,0,0,1-.49259.17178,8.04655,8.04655,0,0,0-4.79305,4.72067,6.53221,6.53221,0,0,0-.33916,4.04154A17.33347,17.33347,0,0,0,19.404,55.41467c1.24561,2.027,2.20738,4.22039,3.61156,6.15248a11.30207,11.30207,0,0,0,.81238,1.341c1.48248,1.55268,2.56086,3.42137,3.94749,5.05527,1.04118,1.22686,1.97875,2.54573,3.071,3.73217.57434.62388.90149.62873,1.51422.11027.911-.7708,1.79534-1.57313,2.70981-2.33966,1.50946-1.26524,2.76063-2.80151,4.29318-4.044,1.28175-1.03914,2.395-2.26193,3.59321-3.392a1.05577,1.05577,0,0,0,.38071-1.2036,1.19461,1.19461,0,0,1,.58086-1.4409,8.6049,8.6049,0,0,1,1.07714-.65655c1.33582-.69729,2.82879-1.02892,4.12934-1.82719C50.19431,56.24553,51.332,55.70048,52.49926,55.074ZM49.31109,67.43526a1.86561,1.86561,0,0,1,1.25807-2.534,1.30873,1.30873,0,0,1,1.486.71506,1.8523,1.8523,0,0,1,.258,1.11423c-.16562.57792.1679.54413.5388.58821a22.05855,22.05855,0,0,0,5.027-.3864,1.3949,1.3949,0,0,0,.79624-.48612c.42651-.41679.84653-.84018,1.27009-1.26a1.51385,1.51385,0,0,1,1.65915-.32562,2.16508,2.16508,0,0,1,1.15921.9975c.32409.49753.71129.49185.93022-.01087.50273-1.15445,1.69142-1.33709,2.44228-.05476a.88941.88941,0,0,0,.77153.46248,9.97608,9.97608,0,0,0,1.05439-.0101,1.38665,1.38665,0,0,0,1.473-1.095,3.32688,3.32688,0,0,1,.677-1.4,2.52053,2.52053,0,0,1,2.30424-1.01632,2.55609,2.55609,0,0,1,2.38476,1.967.90134.90134,0,0,0,1.03445.79431,5.69462,5.69462,0,0,0,1.26118-.05972,30.43709,30.43709,0,0,1,7.11988-.61969c.79664.00065.81191-.03978.85653-.79418.102-1.72194-.327-3.4168-.24147-5.13935.0268-.53965-.41088-.57309-.8215-.56521-1.545.02965-3.09233.01718-4.63467.09844-2.79995.14754-5.56458.70252-8.3861.67185-1.43452-.01559-2.86836.22375-4.31187.24226-2.24294.02877-4.48529.11-6.72763.1778-1.264.0382-2.53069.052-3.7902.15206-1.71339.13621-3.4285.2449-5.13845.449-2.05729.24548-4.13107.35062-6.19617.53391-.6456.05732-.67351.12047-.35226.67255.10733.18445.12865.31639-.01649.45612a.83.83,0,0,0-.19457.68456c.03018,1.475.07448,2.949.205,4.41964.03779.42584.22536.58751.66274.63049A30.85373,30.85373,0,0,0,49.31109,67.43526Zm-4.23342-7.64464c.45733,0,.68957.00044.92182-.00007,2.74515-.00592,5.46352-.39957,8.19546-.59336,2.69391-.1911,5.37351-.421,8.08476-.36457a62.41663,62.41663,0,0,0,7.144-.37219c2.72551-.257,5.47337-.23715,8.19285-.60115.52113-.06975,1.04339-.14964,1.56753-.17476,1.542-.07395,3.08521-.11905,4.62752-.18616.1853-.00808.43644.09729.54634-.25347a19.89215,19.89215,0,0,0-2.656-1.96732,27.01574,27.01574,0,0,1-4.03775-2.62489,2.51587,2.51587,0,0,0-2.50455-.49424,4.34456,4.34456,0,0,1-2.18263.13538,2.22715,2.22715,0,0,1-1.86143-1.88946,4.20069,4.20069,0,0,0-.79205-2.09672c-.68509-.92761-.83268-1.02105-1.87727-.48584-1.90463.97589-3.77871,2.02417-5.73581,2.88194-2.89919,1.27068-5.61082,2.89888-8.46117,4.25923-2.43559,1.16241-4.67805,2.70889-7.22308,3.65932A5.62055,5.62055,0,0,0,45.07767,59.79062Zm27.81742-8.5164a14.18258,14.18258,0,0,1,.01529-1.66085,14.38523,14.38523,0,0,1-.02955-2.9479,46.89425,46.89425,0,0,0,.175-4.94182,16.45893,16.45893,0,0,1,.05251-2.42181c.39668-2.70438-.051-5.3958-.04363-8.09261.00084-.30627-.13078-.46139-.4536-.40024a6.86478,6.86478,0,0,0-.72274.14075c-2.01169.61178-4.02966,1.20681-5.97422,2.01649-1.11778.46542-1.21373.61673-1.15067,1.81565a1.54147,1.54147,0,0,0,.17049.89059,1.6784,1.6784,0,0,0,.35149-.057,4.38717,4.38717,0,0,0,.81185-.48137c.43978-.30947.95335-.26706,1.08148.119.19472.58669.49878,1.29986.058,1.816-.80776.94574-1.40357,2.138-2.66642,2.62227a.64014.64014,0,0,0-.461.62757c-.01342.27837-.06554.55556-.06845.83361a62.77006,62.77006,0,0,1-.32865,6.28406,11.13836,11.13836,0,0,0,.10706,1.87226c.809-.28929,1.26063-.6286,1.1726-1.4778a4.79589,4.79589,0,0,1,.56176-1.9961c.26047-.75962.85771-.85717,1.50434-.8965a1.29,1.29,0,0,1,1.31129.86313c.14615.3058.09486.69325.399.96655.50014-.20706.97708-.62109,1.52724-.07047a26.45982,26.45982,0,0,1,1.61443,2.20521c.14008.172.07641.39263.03.60678A1.51645,1.51645,0,0,0,72.89509,51.27422ZM59.40573,31.18806c-.26112,1.30578-1.00775,19.41182-.84987,20.76852,1.32377-.78169,2.73657-1.29447,4.079-1.96089.20938-.104.42212-.2093.35308-.55247a8.29425,8.29425,0,0,1,.10006-3.12544,38.05957,38.05957,0,0,0,.24256-5.98574c.00849-.425-.286-.50114-.57357-.63714a2.41674,2.41674,0,0,1-1.44162-1.69861,5.892,5.892,0,0,1,.10938-2.80988.73829.73829,0,0,1,.64674-.60363c.35963-.05068.54489.08631.70279.448a1.23723,1.23723,0,0,0,1.38608.76664,4.88706,4.88706,0,0,1-.20571-1.93061c.04252-.26281-.09676-.43248-.36573-.55817a25.56166,25.56166,0,0,0-2.44405-1.19109C60.50728,31.89962,60.05858,31.36443,59.40573,31.18806ZM49.07417,36.05452a1.25545,1.25545,0,0,1,.17633,1.17383c-.08863.3912.098.51356.43827.527.96908.03818,1.237-.24646,1.19291-1.2513-.00449-.10233.05933-.12563.16373-.00983.02831.27949-.1965.62825-.00882.95988.335-.21194.644.04843.964.05054a9.1172,9.1172,0,0,0,3.258-.65766c.53565-.19968.45709-.3945.1953-.835a33.1855,33.1855,0,0,0-2.38513-2.77319,12.722,12.722,0,0,0-1.83526-2.09723,25.84174,25.84174,0,0,0,1.79069,3.00408c-.36413.061-.34838-.33082-.59608-.29158-.28632.04536-.05048.41042-.2783.58477a6.59853,6.59853,0,0,0-1.12749-1.72386c-.49722-.48968-.45363-1.21486-.91932-1.883a1.97547,1.97547,0,0,0,.0368,1.24772,5.904,5.904,0,0,1,.3512.75768c.11727.33482.21332.56075-.26283.686-.265.06967-.36706.682-.80082.23577-.19207.68825-1.008,1.0107-1.02264,1.80289a13.41135,13.41135,0,0,1,.28773-2.06785,5.17585,5.17585,0,0,0-1.25121,1.20268c-.065-.136-.11886-.19611-.11807-.25554a1.04773,1.04773,0,0,1,.40434-.90615c.57489-.42294-.43907-.31971-.21546-.633.17456-.24453.20218-.67479.54457-.70291.84-.069.77323-.66753.89173-1.28334-.47477.125-.47814.58591-.77026.75219-.20175-.15368.02689-.42139-.22934-.62177A24.46684,24.46684,0,0,0,46.48833,33.17a.21491.21491,0,0,0,.05546.28365c.14918.1319.23646.05058.30836-.09975.0688-.14389.19355-.22619.31574-.082a.24336.24336,0,0,1-.08543.36243c-.32926.1841-.52734.5792-.95732.59695a.47159.47159,0,0,0-.4156.26992c-.4109.72673-.83116,1.44817-1.24359,2.17406-.07662.13485-.08888.2852.11263.30387.72884.06756,1.39362.40543,2.12008.487.24061.027.27607-.08593.34206-.26909.11886-.32994.21466-.17645.227.04441.03448.61679.50876.436.85227.48166.383.05093.57929-.13026.64926-.51215C48.83491,36.85255,48.95313,36.5038,49.07417,36.05452Zm11.15294-5.64509A12.16742,12.16742,0,0,0,63.38527,32.272a2.53908,2.53908,0,0,0,2.31317.05751,52.48625,52.48625,0,0,1,6.04526-2.09517c.21012-.06406.50875-.00755.57648-.38389a13.47131,13.47131,0,0,0-1.97191-1.15775,4.59352,4.59352,0,0,1-1.453-.82775,1.93234,1.93234,0,0,0-2.30632-.32513c-1.2607.51586-2.49282,1.09771-3.74682,1.62806A10.26153,10.26153,0,0,0,60.22711,30.40943Zm3.10913,6.47773q.02874.62788.05726,1.2558c.00454.10228.02251.22049-.11939.24241-.15168.02344-.32211-.0328-.31573-.18762.02735-.66583-.79965-1.16648-.35909-1.91659.0508-.08647-.07913-.26274-.21517-.31958a.2192.2192,0,0,0-.30671.18944,2.80838,2.80838,0,0,0,.24375,2.22549,1.77,1.77,0,0,0,1.87253.67517c.73273-.17007,1.10424-.81041,1.51144-1.37329a.14711.14711,0,0,0-.14071-.21838c-.191.0259-.45653.20206-.255-.21411a2.12957,2.12957,0,0,0,.19973-.36249.34573.34573,0,0,0-.10863-.26622c-.09645-.094-.19215-.00872-.26481.06821-.09287.09832-.16162.26384-.27075.29484-.53039.15066-.5404.13852-.522.47418a4.00275,4.00275,0,0,1,.05966.50654c-.00549.07021-.13741.14467-.22611.188a.1983.1983,0,0,1-.17242-.05191c-.18768-.19307.11284-.56122-.2447-.6993C63.53883,37.31256,63.53837,37.31375,63.33624,36.88716Zm4.40742,10.16923c-.3683.22157-.679.58836-.9406-.08086-.10588-.27085-.48216-.29035-.74867-.23321-.31119.06672-.25191.37426-.24093.60713a1.5007,1.5007,0,0,0,.12559.87241C66.52211,47.83331,67.3342,47.82751,67.74366,47.05639ZM51.48074,66.61954c.06567-.77614-.72091-.05543-.95921-.52256-.10588-.20752-.26382.2896-.34609.46508-.11585.24706.31524.54895.79264.56457C51.29824,67.13745,51.51145,67.0043,51.48074,66.61954ZM50.81909,29.252a4.22418,4.22418,0,0,0,.85681,1.51613.16326.16326,0,0,0,.26036.0373.31312.31312,0,0,0,.07148-.27338A3.13977,3.13977,0,0,0,50.81909,29.252Zm-1.65319-.42026c.43334.10163.58177.26436.61856.54394.01223.09287.08423.21737.2164.13469a.38079.38079,0,0,0,.18184-.22461C50.22463,28.81587,49.9406,28.65643,49.1659,28.83173ZM45.739,31.36335c-.3128.15515-.7.2314-.74141.67989C45.323,31.90678,45.67121,31.80584,45.739,31.36335Zm4.56781,14.38481a2.12909,2.12909,0,0,0,.00284-1.13288A1.61724,1.61724,0,0,0,50.30683,45.74816ZM40.64009,34.87937c-.03765-.04247-.09274-.122-.10507-.11588-.13887.06928-.33247.08132-.3598.28124-.00467.03418.07509.11649.11018.11335A.372.372,0,0,0,40.64009,34.87937ZM67.13346,46.26673c.13493-.017.27584-.03585.32045-.19042.036-.12488-.04608-.18442-.15906-.1819a.3416.3416,0,0,0-.31448.21344C66.91943,46.249,67.03664,46.25708,67.13346,46.26673Zm-1.21523-9.58389c.1698.01832.18527-.09784.20637-.18782a.19723.19723,0,0,0-.04129-.17114c-.10841-.06791-.17712.01215-.19061.11A.97.97,0,0,0,65.91823,36.68284Z"/><path d="M34.0734,57.463c.29379.02289.65337.011.70221.33761.05264.352.36155.73288.03145,1.087a2.413,2.413,0,0,1-1.30991.8095c-.49933.0936-.7627-.14189-.6445-.62339.107-.436.28782-.854.43752-1.27949C33.43346,57.387,33.81582,57.55787,34.0734,57.463Z"/><path d="M24.12922,50.18969a1.2601,1.2601,0,0,1,1.07-1.07727,1.5535,1.5535,0,0,1,1.03271,1.063c.01668.41924-.793.92829-1.46327.92C24.36333,51.09034,24.1357,50.768,24.12922,50.18969Zm1.09761-.33218a.27641.27641,0,0,0-.33206.18586c-.05665.13031.02574.19834.138.21136a.31868.31868,0,0,0,.33739-.19346C25.44834,49.90312,25.3008,49.90348,25.22683,49.85751Z"/><path d="M33.77169,49.34379a1.27045,1.27045,0,0,1,1.6898-.97213.45675.45675,0,0,1,.19106.70922,2.52856,2.52856,0,0,1-.75016.87016c-.25416.15493-.52223.42079-.86056.2133A.6628.6628,0,0,1,33.77169,49.34379Zm.49279.07513c.36576.01977.54993-.13565.72646-.58116C34.61235,48.997,34.33415,49.01915,34.26448,49.41892Z"/><path d="M36.096,54.283a.923.923,0,0,1-.82-.82611,1.02835,1.02835,0,0,1,.95077-.80652c.38766.07335.92805-.02817,1.10224.45243.1981.54647-.3854.66345-.66384.93564A.79466.79466,0,0,1,36.096,54.283Z"/><path d="M36.80046,63.47246a.80137.80137,0,0,1,.66507.70907,1.17817,1.17817,0,0,1-.76821,1.14377.80454.80454,0,0,1-.95126-.24617c-.24761-.30212-.12948-.5808.0923-.85136C36.10213,63.906,36.28993,63.49732,36.80046,63.47246Z"/><path d="M30.49535,55.4477a.97954.97954,0,0,1,.8926-1.08912c.35143-.01135.9325.61482.93,1.00219a1.3114,1.3114,0,0,1-1.1826,1.02357C30.74419,56.371,30.51275,56.03229,30.49535,55.4477Zm.38671.03912a.192.192,0,0,0,.15271.23509.452.452,0,0,0,.53561-.35341.16809.16809,0,0,0-.1399-.22435C31.14634,55.09314,31.00671,55.29217,30.88206,55.48682Z"/><path d="M24.84656,60.2239c.079-.35549.01715-.80853.61278-.77088.58478.037,1.30384.40643,1.27954.68785-.0278.32188-.78009.82252-1.23389.82113C25.05474,60.96062,24.827,60.70522,24.84656,60.2239Z"/><path d="M23.37823,45.66312c.00944.66908-.196.89641-.85583.90971-.33356.00673-.62035-.053-.62665-.50171-.00879-.62306.394-1.28391.81487-1.27847C23.14928,44.79833,23.37009,45.08625,23.37823,45.66312Z"/><path d="M43.91482,50.819c.06526-.67524.223-.85886.68418-.7965.49445.06685.98194.46911.97586.80528a1.38253,1.38253,0,0,1-1.03377.91291C44.17443,51.737,43.86948,51.28819,43.91482,50.819Z"/><path d="M30.40556,65.52873a1.0521,1.0521,0,0,1-.71189-.74,1.22729,1.22729,0,0,1,.72282-1.15205c.19936-.057.37816.02459.36094.22976-.023.27466-.34669.61375.315.54956.18681-.01814.14608.41214.06451.63388A.64383.64383,0,0,1,30.40556,65.52873Z"/><path d="M29.23328,46.963c-.37723-.06357-.75353-.16225-.787-.654-.028-.41015.43332-.7815.94062-.7803a.75117.75117,0,0,1,.74383.71209A.8769.8769,0,0,1,29.23328,46.963Z"/><path d="M28.296,58.07111c-.01294-.36535.09777-.63164.5036-.66247a.86479.86479,0,0,1,.91027.563c.042.32789-.51227.89059-.90624.88118C28.27073,58.84016,28.4366,58.34952,28.296,58.07111Z"/><path d="M38.45129,46.42521c.25485.01914.62-.106.60441.334-.013.36693-.6631.99388-.97931.96763a.45422.45422,0,0,1-.46561-.551C37.66964,46.62422,37.92433,46.393,38.45129,46.42521Z"/><path d="M23.985,56.282c-.24741-.07623-.58707-.05891-.58738-.45459-.00029-.37783.52484-.77563.99871-.76059.26863.00851.48982.099.45476.43332A.96188.96188,0,0,1,23.985,56.282Z"/><path d="M39.81891,56.29215c-.012.31474-.49347.80643-.748.80046-.37086-.00871-.61715-.20465-.54651-.575.05632-.29537-.00763-.7986.51084-.73227A.92024.92024,0,0,1,39.81891,56.29215Z"/><path d="M22.46468,54.73926a.97936.97936,0,0,1-.65439.614.7054.7054,0,0,1-.95514-.73521c.02785-.29633.35213-.50986.47881-.31C21.62035,54.75979,22.069,54.57068,22.46468,54.73926Z"/><path d="M41.55809,52.66976c-.30707.30077-.51652.65644-.85392.41787a.77473.77473,0,0,1-.3264-.91593c.23193-.42507.67687-.38939,1.0994-.20718-.03223.36048-.70593.16275-.48546.63106C41.02655,52.66961,41.28444,52.63866,41.55809,52.66976Z"/><path d="M29.1557,49.85537c.39659.08284.51724.41751.56958.75585a.41389.41389,0,0,1-.40259.50329.69452.69452,0,0,1-.66927-.65733A.59743.59743,0,0,1,29.1557,49.85537Z"/><path d="M27.804,64.33265a.337.337,0,0,1-.35212.3133.83174.83174,0,0,1-.84256-.73437c-.02289-.27306.15337-.36488.37689-.37806C27.27687,63.51639,27.793,64.04031,27.804,64.33265Z"/><path d="M31.53763,68.88446c.2666-.02112.59923-.03543.64346.30907.04608.35885-.24676.566-.57439.59261-.36461.02963-.56052-.21587-.57681-.56879C31.01361,68.8642,31.2687,68.86252,31.53763,68.88446Z"/><path d="M27.38654,53.45752c-.03192.41772-.4341.46359-.73011.56584-.2029.07012-.37389-.13643-.432-.3477-.04013-.1458.63251-.63579.84668-.6048C27.25332,53.09723,27.36136,53.23178,27.38654,53.45752Z"/><path d="M47.416,55.3429a.48488.48488,0,0,1-.48244-.52742.56274.56274,0,0,1,.66526-.50943c.29075.02764.27549.268.247.47726C47.80589,55.0761,47.68894,55.31321,47.416,55.3429Z"/><path d="M20.718,48.34941a.55367.55367,0,0,1-.52256.43674c-.35413.03913-.5-.20268-.52913-.48907a.39437.39437,0,0,1,.36-.43011C20.38774,47.82517,20.52069,48.14427,20.718,48.34941Z"/><path d="M40.47963,49.79621A.428.428,0,0,1,40.039,49.316c-.00488-.26086.03718-.5091.35644-.54224.33862-.03514.39636.25867.44412.48163A.44272.44272,0,0,1,40.47963,49.79621Z"/><path d="M30.13576,60.90914a.38.38,0,0,1-.33831.46926.4322.4322,0,0,1-.51053-.40372.4048.4048,0,0,1,.396-.50314C30.00216,60.43565,30.078,60.69,30.13576,60.90914Z"/><path d="M33.26068,66.90717c.01795-.14691.0116-.33374.23591-.374.24089-.04325.6632.41567.62525.69509a.38209.38209,0,0,1-.3485.327C33.47131,67.59663,33.26117,67.32891,33.26068,66.90717Z"/><path d="M32.4594,51.11754c-.01361.29459-.20384.4055-.47539.40021-.18771-.00366-.3603-.11332-.34882-.3a.49033.49033,0,0,1,.554-.48057C32.40838,50.74255,32.43605,50.93228,32.4594,51.11754Z"/><path d="M33.51721,46.67827a.47936.47936,0,0,1-.49491-.49038c-.00316-.15982.21336-.24636.38642-.26679.25948-.03063.36307.14617.39639.35977C33.84619,46.54416,33.63618,46.60513,33.51721,46.67827Z"/><path d="M21.601,51.14874a.23917.23917,0,0,1-.259.24771c-.2518-.0119-.46678-.12194-.48874-.41225a.2744.2744,0,0,1,.31138-.30784C21.46315,50.68,21.54443,50.90859,21.601,51.14874Z"/><path d="M31.1002,42.41312c.31558.03369.45447.17766.41643.41006a.444.444,0,0,1-.40989.39309c-.25317.00445-.29856-.22838-.32-.43319C30.75706,42.49943,30.98433,42.47775,31.1002,42.41312Z"/><path d="M26.71916,44.69726c.00535.26124-.139.31648-.26786.32336a.41818.41818,0,0,1-.445-.35375c-.03962-.20812.12836-.2935.32454-.28729A.40921.40921,0,0,1,26.71916,44.69726Z"/><path d="M36.85343,60.031c-.01107.16481-.00181.20566-.01741.23148a.77235.77235,0,0,1-.63466.44239c-.03961.00155-.12431-.09225-.1176-.12908C36.15587,60.17929,36.42458,60.05351,36.85343,60.031Z"/><path d="M32.55544,62.91172c-.22189-.01888-.32308-.14053-.299-.33878.02687-.22051.20329-.25163.383-.2397.196.013.328.11781.294.32545C32.89937,62.86743,32.71659,62.89575,32.55544,62.91172Z"/><path d="M43.31189,54.93679c.13669.02275.28595.04149.28319.22642a.3271.3271,0,0,1-.28774.36233.29678.29678,0,0,1-.33973-.30712C42.95957,55.021,43.10356,54.91777,43.31189,54.93679Z"/><path d="M41.13683,60.37189c-.00926.19717-.11151.35581-.30049.36169a.26924.26924,0,0,1-.28768-.34089c.04161-.22183.16015-.39915.41985-.3492C41.12877,60.07431,41.14916,60.22677,41.13683,60.37189Z"/><path d="M62.28,61.905a.93915.93915,0,0,1-.11279.60331,2.83051,2.83051,0,0,1-3.90652.40525.83079.83079,0,0,1-.18549-.96429,2.7048,2.7048,0,0,1,3.8411-1.08257C62.32944,61.1148,62.19256,61.54717,62.28,61.905Zm-.69684.11134a2.36043,2.36043,0,0,0-.77287-.53255c-.49056.73394-.78677.86282-1.32577.712-.14979-.04194-.15619-.49958-.37045-.16973-.12766.19654-.23209.52794.15467.69954a1.29493,1.29493,0,0,0,.91522.12763A2.49077,2.49077,0,0,0,61.58313,62.0163Z"/><path d="M57.32336,58.10388c-.8422-.01349-1.22306-.26229-1.43176-.84558a1.32673,1.32673,0,0,1,.43645-1.58762,9.66256,9.66256,0,0,1,1.58727-1.01076c.389-.19266.74673-.73,1.30108-.25995a2.12409,2.12409,0,0,1,1.02616,1.93179,1.56045,1.56045,0,0,1-1.0169,1.35148A7.41287,7.41287,0,0,1,57.32336,58.10388Zm.22605-.85188a2.84815,2.84815,0,0,0,1.252-.24532,1.23038,1.23038,0,0,0,.81556-.888c.02157-.09862.06849-.21294-.05769-.27643-.1717-.0864-.281.00561-.27659.16572a.43529.43529,0,0,1-.69963.39827c-.47465-.6467-.67359-.0529-.88754.17382-.27272.289-.4636.44676-.68666-.01523-.03924-.08129-.06088-.22695-.194-.14564a.40643.40643,0,0,0-.16808.25055C56.56708,57.14462,56.741,57.26382,57.54941,57.252Z"/><path d="M68.33255,56.43614a1.42641,1.42641,0,0,1-1.39491-.82422,1.48589,1.48589,0,0,1,.20838-1.66755,2.16633,2.16633,0,0,1,2.23066-.84286,14.728,14.728,0,0,1,1.50212.47572.66843.66843,0,0,1,.49239.71548,2.31274,2.31274,0,0,1-1.20095,1.84979A6.71872,6.71872,0,0,1,68.33255,56.43614Zm-.50345-2.05987c.0746.28151.33689.53973.184.90871-.088.21233.14721.37432.39588.35107.38411-.03589.76678-.08839,1.14932-.13942.49224-.06571.68708-.46843.87063-.83992.07048-.14265-.04686-.35633-.29372-.24485-.13471.06083-.24143.36935-.39319.15375-.16834-.23917-.32887-.31162-.45036-.06873-.23405.468-.44755.30131-.80053.14021C68.29222,54.54633,68.20514,54.17059,67.8291,54.37627Z"/><path d="M62.99143,53.24656a.8701.8701,0,0,1-.91737-.84038,1.268,1.268,0,0,1,.97224-1.20262c.72648-.28679,1.09888-.22814,1.51016.23784a.68673.68673,0,0,1-.022,1.09341A2.77321,2.77321,0,0,1,62.99143,53.24656Zm.98721-1.41621a.81672.81672,0,0,0-1.063.50387C63.59064,52.30018,63.59064,52.30018,63.97864,51.83035Z"/><path d="M21.27411,65.7128c-.01872-.2023-.1581-.44564-.00606-.59973a2.59174,2.59174,0,0,0,.51247-1.56428l.00092.00233a1.59925,1.59925,0,0,1,.74657,1.44411c-.016.34219-.16667.814.48552.80489.18362-.00257.108.2147.08858.33226-.06112.37021-.13946.73759-.213,1.11583-.249-.14264-.23822-.40481-.30286-.61914-.20251-.67132-.23355-.68035-.81556-.12752-.3052-.18978-.20281-.64733-.52813-.82021Zm.7137-.37916c-.01654-.14029-.06632-.30972-.20121-.3128-.12183-.0028-.22077.14681-.23216.2924a.27243.27243,0,0,0,.20615.30487C21.89418,65.62786,21.96144,65.47065,21.98781,65.33364Z"/><path d="M16.3623,58.89817c-.41313-.44561.00861-.948-.01987-1.3997-.04306-.68326.06813-1.38978.05662-2.08964-.00287-.17381-.03529-.42375.06091-.50923.40826-.36275.35821-.67416.00591-1.02972-.12329-.12442-.19042-.33163.03613-.42277.20336-.08179.31516.06587.35339.2634a4.006,4.006,0,0,1,.05457,2.021,15.66207,15.66207,0,0,0-.3449,2.78871C16.55081,58.6563,16.57948,58.79762,16.3623,58.89817Z"/><path d="M19.48905,61.36171a17.76251,17.76251,0,0,1-.70742-3.41912C19.87172,58.86094,19.62283,60.03749,19.48905,61.36171Z"/><path d="M20.85107,66.53858c-.32677.10985-.34913.57192-.73587.66778-.03353-.43254.26594-.70956.346-1.05029.09254-.39391-.19466-.23177-.38154-.19106-.0043-.003.02428.01219.02428.01219-.00771-.55468.01744-.41792.47228-.50158.36672-.06745.41973.34521.69822.23758l-.0319-.03186a.67444.67444,0,0,1-.41145.87633Z"/><path d="M19.61708,65.84291c-.57458.1977-1.03219-.179-1.52841-.33359-.27308-.08507-.28137-.37314-.19919-.62731a.2473.2473,0,0,1,.13431-.13687.23243.23243,0,0,1,.1689.03063c.0638.78076.61766.73653,1.17264.71758.27094-.00925.1688.24265.22357.38326Z"/><path d="M17.14937,56.89087c.5362.38166.48723.845.09832,1.55833C17.31443,57.77709,17.08294,57.3637,17.14937,56.89087Z"/><path d="M21.78052,63.54879a7.96933,7.96933,0,0,1-.15254-1.79135,1.87036,1.87036,0,0,1,.15336,1.79346Z"/><path d="M18.21174,57.58176c-.0369-.10378-.06141-.13732-.05736-.167.02988-.2185-.14691-.497.15353-.63541.09884-.04553.16474.06991.21545.15981C18.70508,57.26131,18.5725,57.44538,18.21174,57.58176Z"/><path d="M20.64756,61.64527l-.09442-.97574C20.82628,61.09452,20.82628,61.09452,20.64756,61.64527Z"/><path d="M18.929,65.17027c-.085-.55114.06014-.87835-.11694-1.184C19.19914,64.28083,19.19914,64.28083,18.929,65.17027Z"/><path d="M20.83108,66.55767c.56321.26547.0659.67491.14049,1.00588-.24995-.31714-.01654-.69022-.12053-1.02493Z"/><path d="M21.85124,67.39993c-.02008.16327-.01767.36368-.2485.38659-.11439.01133-.1642-.111-.16611-.21327a.33637.33637,0,0,1,.21371-.32851C21.78175,67.18842,21.83881,67.2655,21.85124,67.39993Z"/><path d="M20.12927,64.30118c-.23866-.11273-.35046-.277-.22575-.53176.01621-.03313.15437-.0512.16172-.0372A.56471.56471,0,0,1,20.12927,64.30118Z"/><path d="M24.036,67.52258a1.34039,1.34039,0,0,1-.294-.256c-.1019-.16-.08271-.36548.10984-.42152.19221-.056.14467.17159.18749.27631C24.087,67.23813,24.18224,67.36556,24.036,67.52258Z"/><path d="M19.5889,65.87661a.80317.80317,0,0,0,.51157.09864c.00346.00195-.02512-.01323-.02082-.01024-.27138.08027-.2222.37432-.3523.5974-.32274-.22824-.06205-.49735-.11122-.718Z"/><path d="M17.8874,59.31422c.0282-.05835.06835-.16983.08283-.16659.16139.03608.15844.19569.2114.31316.03624.08042.00348.157-.07893.15085C17.92835,59.59858,17.91152,59.4488,17.8874,59.31422Z"/><path d="M17.233,61.28611c-.02464.091-.03749.21884-.17087.16558a.38154.38154,0,0,1-.18916-.20232.15616.15616,0,0,1,.13832-.20991C17.18916,61.01615,17.2337,61.13611,17.233,61.28611Z"/><path d="M44.89168,42.42757a3.78592,3.78592,0,0,1-.35231-1.88844c-.02837-.38249.257-.7778-.1819-1.10585-.07974-.05962-.04531-.19942.05537-.26049a.33758.33758,0,0,1,.46825.03923.99751.99751,0,0,1,.20755.88642A18.682,18.682,0,0,0,44.89168,42.42757Z"/><path d="M41.31974,40.495a6.93278,6.93278,0,0,1,.02627-3.09638C41.80368,38.55131,41.082,39.52554,41.31974,40.495Z"/><path d="M43.92491,38.34352a7.32326,7.32326,0,0,1,.01567,1.9599A2.48005,2.48005,0,0,1,43.92491,38.34352Z"/><path d="M47.24089,39.07445c.24752.01335.26766-.629.62222-.23761.1679.18533.43109.45575-.11858.60925-.16707.04667-.01013.53043-.27647.71509C47.10782,39.85839,47.4161,39.41589,47.24089,39.07445Z"/><path d="M46.02234,42.6146a2.54827,2.54827,0,0,1,0,1.91822Z"/><path d="M46.74951,44.60948c-.54531-.43926-.03727-.71224-.05778-1.03032A1.7494,1.7494,0,0,1,46.74951,44.60948Z"/><path d="M50.385,49.10413c-.0418.12178-.03214.30578-.2265.25277-.20343-.05546-.18862-.25476-.17164-.41073.01153-.10581-.00774-.30755.20514-.24932C50.39958,48.75362,50.36536,48.94858,50.385,49.10413Z"/><path d="M48.85431,45.60562a.58882.58882,0,0,1-.42877.24594.443.443,0,0,1-.064-.27081c.02943-.18327.19375-.161.32631-.15427C48.78868,45.43163,48.89129,45.45957,48.85431,45.60562Z"/><path d="M48.07855,44.97209c-.01668.26843.09578.57489-.32784.89947.06242-.43151.07094-.70082.35052-.87985Z"/><path d="M44.22512,46.04854c-.23983-.21166-.07044-.43827-.04068-.67923C44.26045,45.60288,44.41807,45.80663,44.22512,46.04854Z"/><path d="M49.83682,41.63682l-.21239-.877C50.13524,40.99515,50.0186,41.31842,49.83682,41.63682Z"/><path d="M47.90775,48.44078c-.01985.08921-.026.21928-.13846.21055-.15633-.01212-.21321-.14386-.1869-.28932.0187-.10338.09079-.18968.20874-.15559C47.89658,48.23688,47.91693,48.33806,47.90775,48.44078Z"/><path d="M56.18748,38.79881c-.27613.07839-.46932.16433-.46557.54673.00889.90645-.05112,1.814-.0971,2.72043a6.706,6.706,0,0,0,.08286,2.22058c.07925.28109.17465.69494-.22655.90832-.31992-.13563-.15824-.37-.1634-.547-.05495-1.89089.03615-3.7785.1438-5.66553a.64719.64719,0,0,1,.00472-.10508c.08042-.35378-.08348-.96247.38867-.96253.54-.00006.17274.60693.30326.91629Z"/><path d="M55.02642,47.8244c.34851-.26131.21285-.71229.37059-1.04613a.36327.36327,0,0,1,.31173.55558,4.71161,4.71161,0,0,0-.22607,2.35222c.00723.48064-.12061.659-.59132.58986-.02354-.00345-.05163.14936-.10132.16882-.0732.02865-.1175-.03893-.11347-.12547a1.80812,1.80812,0,0,1,.02706-.51317,1.48434,1.48434,0,0,0,.10972-.71763c-.04289-.29552-.34332.306-.3733-.07913-.02415-.31042-.30485-.77691.40356-.74068a.292.292,0,0,0,.20654-.47521Z"/><path d="M52.52227,42.80348a5.44487,5.44487,0,0,1,.607,2.75036c-.403-.30937-.44848-.30681-.50217-1.26078C52.60163,43.84089,52.24621,43.41479,52.52227,42.80348Z"/><path d="M51.989,50.06557a8.88087,8.88087,0,0,1-.08511-2.30149c.006-.09107.02533-.22411.17562-.21581.11112.00613.25034.08033.2107.17285-.30257.70609.00494,1.42959-.08818,2.13745A.21772.21772,0,0,1,51.989,50.06557Z"/><path d="M55.99508,45.7517a3.05775,3.05775,0,0,1,0,1.41757Z"/><path d="M55.05014,47.79346c-.18758-.15932-.63179-.03153-.51357-.54622.38463-.02191.5139.19892.49076.5755Z"/><path d="M54.55823,42.26532c-.131-.14469-.07515-.301-.03618-.45592.16288.04511.09052.18585.10555.28429C54.63543,42.145,54.58438,42.20519,54.55823,42.26532Z"/><path d="M51.40817,36.40178a3.79079,3.79079,0,0,1-.08584-2.33952c.429.367.34371.99085.77227,1.319.10054.077.18736.54628-.34333.29119C51.57708,35.58873,51.82067,36.27017,51.40817,36.40178Z"/><path d="M49.88886,34.94048a7.52379,7.52379,0,0,0,.253,1.38041c.05593.15049-.083.409-.22958.41043a.3067.3067,0,0,1-.26366-.44267C49.85191,35.86119,49.73506,35.4062,49.88886,34.94048Z"/><path d="M46.30315,35.35492c-.03857-.117-.07427-.20068-.09343-.288a.32988.32988,0,0,1,.2856-.4363.33647.33647,0,0,1,.17235.04841,2.256,2.256,0,0,1-.12817.46668C46.50374,35.22431,46.40051,35.27228,46.30315,35.35492Z"/><path d="M53.48038,36.07261a1.43424,1.43424,0,0,1,.6897.85631A1.81,1.81,0,0,1,53.48038,36.07261Z"/><text x="0" y="115" fill="#000000" font-size="5px" font-weight="bold" font-family="'Helvetica Neue', Helvetica, Arial-Unicode, Arial, Sans-serif">Created by Olga</text><text x="0" y="120" fill="#000000" font-size="5px" font-weight="bold" font-family="'Helvetica Neue', Helvetica, Arial-Unicode, Arial, Sans-serif">from the Noun Project</text></svg>