<svg xmlns="http://www.w3.org/2000/svg" data-name="Слой 1" viewBox="0 0 100 125" x="0px" y="0px"><title>pizzaslice</title><path d="M27.71614,66.66171a9.61111,9.61111,0,0,0-2.54428,3.6302c-.50618,1.31087-1.15692,2.56579-1.66794,3.875-.427,1.09379-.73742,2.23274-1.11176,3.34757-.28413.84614-.54584,1.70344-.89374,2.52348-.372.877-.84286,1.71162-1.25317,2.573a4.34078,4.34078,0,0,1-1.96493,2.2434c-.79355.37915-1.38912-.0062-1.2729-.8759a22.67221,22.67221,0,0,1,.58-2.461,9.67592,9.67592,0,0,0,.592-2.44936c-.07331-2.55.8652-4.83976,1.59467-7.19187a3.97427,3.97427,0,0,0,.21969-1.14948,10.35844,10.35844,0,0,1,2.89394-6.83688C26.28019,59.90269,29.5869,55.84257,32.98,51.856c1.64232-1.92959,3.41677-3.7461,5.10123-5.64061,2.32015-2.60944,4.67273-5.19373,6.90045-7.88078,2.94566-3.55307,5.7905-7.19,8.65785-10.80739a6.02192,6.02192,0,0,0,.57177-1.19276,30.45763,30.45763,0,0,1,1.68378-3.47632,4.55686,4.55686,0,0,1,5.999-1.20824c1.06247.72449,2.33479,1.23344,2.84849,2.67676.23977.67367,1.042,1.15188,1.60177,1.70607,2.3032,2.28036,3.84234,5.12932,5.75015,7.70391,2.10927,2.84645,3.84891,5.9425,6.2227,8.62069A21.43032,21.43032,0,0,1,82.87185,52.4138c.25054,1.17948.29683,2.35648-1.16564,2.98023-.65168.27795-1.13451.95685-1.78792,1.22418a3.84041,3.84041,0,0,1-2.11305.29772,7.781,7.781,0,0,0-3.65613.16215A82.10306,82.10306,0,0,1,60.21293,59.5853c-1.93271.14781-3.80805.96441-5.72658,1.40161-2.02726.462-4.07183.85049-6.11444,1.24179-2.41267.46224-3.2351,1.33429-3.58147,3.75642a8.83444,8.83444,0,0,0-.1782,2.76712c.1882,1.19985-.69214,2.21766-1.561,3.02547-.51411.478-1.15.14142-1.31871-.69221-.22234-1.0987-.364-2.21526-.50455-3.32864-.18024-1.42783-.61565-2.76691-2.22235-2.9882a8.09182,8.09182,0,0,0-5.7591,1.33529.67188.67188,0,0,0-.297.3913c-.20674,1.85206-1.59906,3.35161-1.5049,5.31415A3.8472,3.8472,0,0,1,30.24173,74.532c-.26789.29012-.84251.60329-1.12622.4981a1.74291,1.74291,0,0,1-.9062-1.05289,7.0441,7.0441,0,0,1-.083-1.84941c-.00628-1.79042-.00221-3.58088-.00221-5.37129ZM52.46832,58.917l.00149.10777.19081,1.1781c1.77183-.42663,3.42185-.82392,5.32048-1.28106-.38071-.34775-.53475-.60449-.72514-.63508a4.032,4.032,0,0,0-1.0571.14092l.4508-1.15124C54.17883,56.00277,52.84946,56.545,52.46832,58.917ZM42.76266,69.45581l.49722-.01624a2.70579,2.70579,0,0,0,.04354-1.062,2.085,2.085,0,0,1,.20342-2.06818,2.44581,2.44581,0,0,0,.19766-.9748,4.80789,4.80789,0,0,1,4.47812-4.49053c.93463-.11659,1.86685-.25252,2.75832-.37394.33414-3.60048,1.36836-5.02693,3.88657-5.50569,1.6623-.316,3.26828.91619,4.473,3.48791a74.48952,74.48952,0,0,0,16.6053-3.14309c-3.5886-11.78861-11.12636-20.3202-21.105-27.37567,0,.52393-.11335.903.023,1.1359.309.52789.79944.94916,1.11164,1.47571.79917,1.348.29053,2.4-1.27,2.406a13.54379,13.54379,0,0,1-2.94715-.69565c-1.11766,1.27252-2.40388,2.74993-3.70551,4.21362a2.46548,2.46548,0,0,0-.46288,2.53181,9.88091,9.88091,0,0,0,2.70744,4.58544c.243.22009.48594.72513.39013.96082a1.28015,1.28015,0,0,1-.91744.58732,2.52209,2.52209,0,0,1-2.5328-1.35387c-.685-1.13092-1.25783-2.32975-2.08309-3.88316a7.83358,7.83358,0,0,1-.6657,1.0999c-2.44067,2.79231-4.90726,5.562-7.34811,8.35408Q32.3348,54.803,27.59823,60.27967c-1.21446,1.40312-2.35184,2.87533-3.60581,4.24122a10.42216,10.42216,0,0,0-2.53895,5.23c-.3113,1.59285-.8025,3.14971-1.17961,4.73073-.21821.91482-.36395,1.84678-.55134,2.76915-.1118.55036-.23669,1.09813-.36322,1.64531q-.48963,2.11752-.986,4.23346a1.173,1.173,0,0,0,.68677-.62407c.93452-2.25485,2.33746-4.32221,2.58475-6.85589a7.91782,7.91782,0,0,1,.82613-2.2032,40.37872,40.37872,0,0,1,1.87528-4.1374,26.222,26.222,0,0,1,2.64327-3.66355,1.511,1.511,0,0,1,1.361-.31722,1.53082,1.53082,0,0,1,.76285,1.13614c.12952,1.95481.13244,3.91776.20749,5.87679a5.99308,5.99308,0,0,0,.39068,1.184c.29053-.85053.472-1.31227.606-1.78736.39452-1.3987.76923-2.803,1.15415-4.20441a3.3126,3.3126,0,0,0,.2285-.80715c.0001-1.29834.84276-1.862,1.88352-2.31818a13.0458,13.0458,0,0,1,4.22343-.95233,3.92483,3.92483,0,0,1,4.636,3.90516C42.49229,68.06322,42.65313,68.7577,42.76266,69.45581ZM81.83077,53.40459a20.24756,20.24756,0,0,0-4.1654-9.76879,119.35507,119.35507,0,0,1-8.31481-11.66763A52.85686,52.85686,0,0,0,61.969,23.44893a3.43958,3.43958,0,0,0-3.72471-.89133c-1.59014.52676-2.12421,1.86725-2.4788,3.16421-.31623,1.15678.48616,2.0637,1.53742,2.72921,1.18334.7491,2.26241,1.66191,3.39568,2.49138a40.84143,40.84143,0,0,1,6.28779,6.33525c1.59177,1.81117,3.07383,3.72814,4.49383,5.67878,2.274,3.1239,3.4374,6.81046,5.03,10.27916.25587.55735.5811,1.083.87709,1.62172a1.26585,1.26585,0,0,0,1.72741.58218A5.415,5.415,0,0,0,81.83077,53.40459ZM52.81682,31.04449c.66927.88744,1.40316.78895,2.44391.54772l-1.34454-1.99937c-.30935.346-.46666.49682-.59352.67C53.15964,30.48532,53.02106,30.72574,52.81682,31.04449Zm-5.47846,10.3583c.34709,1.474.34709,1.474,1.29489,2.08781Z"/><path d="M52.46832,58.917c.14626-.06954.29283-.19549.43869-.19468a1.00692,1.00692,0,0,1,.5607.17743c.062.04536.01669.39725-.03965.41454a1.06745,1.06745,0,0,1-.58011.00487c-.14246-.04067-.25327-.19211-.37814-.29437Z"/><path d="M71.48956,52.407a9.87508,9.87508,0,0,1-.31657,1.08226c-.94871,2.20419-4.93623,3.276-6.807,1.77507a3.04336,3.04336,0,0,1-.89761-3.22719c.63564-2.74987,2.01119-3.71526,4.83152-3.58838.94485.04252,1.80194.12474,1.8985,1.37856.02175.2824.422.51627.56264.813C71.04473,51.23868,71.26976,51.86484,71.48956,52.407Zm-3.23007.52466c1.38206-1.65242,1.38206-1.65242.98646-2.16172l-1.37307.69669c-.09961-.35441-.17352-.5533-.21027-.75883-.20664-1.15514-.554-1.33984-1.50991-.77553a3.139,3.139,0,0,0-1.454,3.18379,1.94975,1.94975,0,0,0,2.17356,1.83243,8.86522,8.86522,0,0,0,2.1939-.78967,1.41577,1.41577,0,0,0,.86972-1.51808A4.332,4.332,0,0,1,66.26,54.291c-.03979-.39938-.25814-.91758-.08618-1.173C66.73639,52.28229,67.54649,52.69074,68.25949,52.93169Z"/><path d="M37.02166,59.274a2.35763,2.35763,0,0,1-1.27814,2.40991,4.92752,4.92752,0,0,1-5.063.64638c-1.15952-.54375-1.279-.72678-.90485-1.92436.484-1.54926.98278-3.05592,2.62832-3.89539A3.03886,3.03886,0,0,1,37.02166,59.274Zm-1.34824-1.1111a7.38022,7.38022,0,0,1-1.40471.14175c-.39706-.037-.79376-.37717-1.162-.33484-.32745.03764-.61565.41671-.92118.64508l.14731.28494,1.09227-.08769,1.18442,2.18564C35.84817,60.4444,35.84817,60.4444,35.67342,58.16286Zm-4.06265,1.51141-.20995,1.77418,1.02876.11263c-.022-.34346-.13022-.64064-.03061-.82632.12673-.23628.42169-.38225.77122-.67276Z"/><path d="M41.88869,53.78224c.81053-.68159,1.48416-1.26883,2.18139-1.82661.424-.33922.97753-.56346,1.33144-.03561a1.64673,1.64673,0,0,1,.22058,1.35325,8.88608,8.88608,0,0,1-1.31764,1.70326c-.17693.214-.37907.40725-.55619.59555.04741.143.0495.28547.12054.34345,1.426,1.16331,1.34038,1.532-.57557,2.43247-1.65579.77822-2.59607.67755-3.68631-.39461a3.321,3.321,0,0,1-.75461-4.00868c.67119-1.39393,1.14252-1.5125,2.46694-.612C41.50216,53.45706,41.66782,53.60675,41.88869,53.78224Zm-1.638.64194a2.02549,2.02549,0,0,0,.39467,2.87475c.6846.601,1.23067.52934,2.28707-.30863C42.08025,56.08964,41.61247,54.79385,40.25071,54.42418Zm4.21629-.77657-.33036-.31964-.67289.69634.26182.248Z"/><path d="M56.5004,47.06344c.23587,2.22749.13484,4.22742-1.72239,5.75375a4.73451,4.73451,0,0,1-5.63589.20321,1.00346,1.00346,0,0,1-.07063-1.69851c.52586-.41675,1.15764-.69667,1.718-1.07365,1.48864-1.00152,2.962-2.02573,4.44732-3.03216a1.7144,1.7144,0,0,1,.5926-.26643A2.3695,2.3695,0,0,1,56.5004,47.06344Zm-6.34161,4.85519c.78242.41855,1.39738.84286,1.83948.18344.38151-.56906.59743-.65574,1.16484-.29169.71994.46194.884-.33438,1.28934-.61481L53.7377,50.338l1.47008-.37711-.1276-1.03141Z"/><path d="M52.655,41.2396c-1.98155.00121-2.32893-.57322-1.9569-2.28681.49825-2.29484,2.2621-3.23,4.08575-4.1268a3.30423,3.30423,0,0,1,2.863,1.00094,1.84062,1.84062,0,0,1,.07681,1.42326,8.35927,8.35927,0,0,1-4.26994,3.88273A3.19213,3.19213,0,0,1,52.655,41.2396Zm2.8992-3.07633.95082-1.08788c-1.22582-1.144-1.84113-1.09477-3.32147.159-.72931.61771-1.43043,2.1968-1.09414,2.672l.70129-.06162.11384-1.2561c.43332.17887.86664.35775,1.49274.61618l1.19528-1.07906Z"/><path d="M59.08437,44.73245c-1.94812-.33514-2.21392-.95714-1.20578-2.64357a2.51378,2.51378,0,0,1,4.22387-.21742,11.42989,11.42989,0,0,1,.85044,1.49032,3.6013,3.6013,0,0,1-.61192.80532,1.73215,1.73215,0,0,0-.71373,1.74433,2.50255,2.50255,0,0,1-.63969,2.17744,1.40251,1.40251,0,0,1-1.11028.40655,1.46114,1.46114,0,0,1-.717-.96772,7.03546,7.03546,0,0,1,.00485-1.50187C59.159,45.58781,59.112,45.15036,59.08437,44.73245Zm2.3144-1.375c-.96621-1.44657-1.31444-1.4528-2.47714-.13273Z"/><path d="M66.01,44.17006c-1.367-.594-2.27474-1.30465-2.37576-2.33521a6.90169,6.90169,0,0,0-2.40653-4.30016c-.43363-.43034-1.20405-.82117-.68041-1.45346a1.859,1.859,0,0,1,1.67638-.15525,6.00263,6.00263,0,0,1,3.89738,5.25544C66.12128,42.06529,66.05766,42.94914,66.01,44.17006Z"/><path d="M47.31367,47.87081c.03344,1.51618-1.67793,2.66544-4.03029,2.70653a2.30119,2.30119,0,0,1-2.458-2.21994c-.03206-2.2221,1.72043-4.62093,3.37781-4.62357C45.936,43.73106,47.26122,45.49365,47.31367,47.87081Zm-.91857.37638a18.02428,18.02428,0,0,0-.50571-2.13362c-.48988-1.28918-1.41694-1.55391-2.47094-.69875a4.23433,4.23433,0,0,0-1.0419,1.27932,2.043,2.043,0,0,0-.155,2.22342c.51141.72726,1.32411.41314,2.02623.35627a2.2759,2.2759,0,0,0,.68016-.28392L44.63327,47.478Z"/><path d="M65.38431,32.1275c-2.19826-1.615-3.34446-3.96573-2.70266-5.37484A24.70344,24.70344,0,0,0,63.73974,29.706,21.13179,21.13179,0,0,0,65.38431,32.1275Z"/><path d="M76.62592,49.57987a15.83184,15.83184,0,0,1-.96112-4.79181l.44939-.08305q.4829,2.40309.96581,4.8062Z"/><path d="M72.10454,37.562l.82617,3.41237-.34294.08017c-.44757-1.1074-1.342-2.10675-.92729-3.42263Z"/><path d="M79.17684,49.03515q.45678,1.52166.91359,3.04333c-.9282-.60562-1.25713-1.56022-1.2717-2.99807Z"/><path d="M70.66628,36.01442c-1.251-.21-1.73656-1.13486-2.297-2.25621.34271,0,.61176-.07269.67619.01138C69.60655,34.50193,70.131,35.26235,70.66628,36.01442Z"/><path d="M59.84262,28.42113c-.65333-.98164-1.48778-1.88075-1.30019-3.25458q.74353,1.544,1.487,3.08791Q59.93623,28.338,59.84262,28.42113Z"/><path d="M60.02947,28.25446l1.1795,1.69068-.31528.20662q-.52551-.86533-1.05107-1.73063Q59.93622,28.338,60.02947,28.25446Z"/><path d="M55.15969,59.0955c-.86257-.60455-.90151-1.09945-.54051-1.76036C55.603,57.61117,55.24845,58.25425,55.15969,59.0955Z"/><path d="M66.6061,52.38085c-.28031-.39636-.60509-.65593-.57594-.86645a.93186.93186,0,0,1,.59433-.63168c.18222-.041.66809.36311.64031.45733A4.57017,4.57017,0,0,1,66.6061,52.38085Z"/><path d="M55.59259,38.12582l-1.36137-.272c.92781-.702.92781-.702,1.32233.30982Z"/><path d="M43.43617,48.15454a2.87608,2.87608,0,0,1-.48029-.68065c-.02318-.07179.32717-.38178.41123-.34761a2.33667,2.33667,0,0,1,.57693.476Z"/><path d="M45.08843,46.20227c-.78525.54634-1.16457.45479-1.01959-.57668Z"/><text x="0" y="115" fill="#000000" font-size="5px" font-weight="bold" font-family="'Helvetica Neue', Helvetica, Arial-Unicode, Arial, Sans-serif">Created by Olga</text><text x="0" y="120" fill="#000000" font-size="5px" font-weight="bold" font-family="'Helvetica Neue', Helvetica, Arial-Unicode, Arial, Sans-serif">from the Noun Project</text></svg>