<svg xmlns="http://www.w3.org/2000/svg" data-name="Слой 1" viewBox="0 0 100 125" x="0px" y="0px"><title>капуста</title><g><path d="M82.19424,60.41873a2.3788,2.3788,0,0,1,1.08666-.2552,3.86059,3.86059,0,0,1,1.52478.90276,1.11562,1.11562,0,0,1-.12088,1.55469,7.74015,7.74015,0,0,1-3.14789,2.2954,9.60224,9.60224,0,0,1-.95634.379,5.00727,5.00727,0,0,0-3.45822,3.75709A18.22833,18.22833,0,0,1,73.91578,75.632c-0.99132,1.22509-2.25884,2.22233-3.32989,3.38846-1.11675,1.21583-2.2,2.47077-3.20182,3.782a18.06526,18.06526,0,0,1-6.23794,4.70143c-2.11662,1.13315-4.45354.8999-6.66438,1.406-1.67121.38258-3.36983,0.64622-5.05765,0.95523-0.67594.12375-1.362,0.19789-2.03242,0.345A10.06667,10.06667,0,0,1,38.865,88.02643c-1.52575-1.15714-3.35887-1.43826-5.06175-2.07028a13.65909,13.65909,0,0,1-5.86531-4.284c-2.36527-2.83755-3.30265-6.22575-4.24433-9.63189A11.46444,11.46444,0,0,1,23.6588,69.196c-1.66709.08452-3.14037,0.12665-4.608,0.24107a15.339,15.339,0,0,1-6.72851-1.09314c-0.58942-.22466-1.18361-0.43684-1.77333-0.66076a3.90626,3.90626,0,0,1-2.50449-3.547C7.989,62.88889,7.71437,61.64852,7.698,60.40293a8.52232,8.52232,0,0,1,1.81481-5.93169,15.35279,15.35279,0,0,0,1.98675-2.98c0.71786-1.42029.1627-2.90462-.20736-4.29781A48.51785,48.51785,0,0,1,9.44493,35.01493,14.539,14.539,0,0,1,11.66756,26.52a4.26189,4.26189,0,0,1,2.3574-1.48673,1.832,1.832,0,0,0,1.44142-1.23471c0.77228-1.95882,1.52407-3.92678,2.34652-5.86455a8.39544,8.39544,0,0,1,5.31447-4.58947c2.76568-.94511,5.51539-1.87165,8.18615-3.08456a7.22431,7.22431,0,0,1,5.4682-.29817,29.33176,29.33176,0,0,0,5.74411.85206c0.96571,0.11636,1.94358.12865,2.91487,0.20231a8.37227,8.37227,0,0,1,5.51267,2.46806c0.44,0.44469.858,0.9112,1.33794,1.42313,0.35434-.20768.62741-0.40119,0.9265-0.5376a8.377,8.377,0,0,1,6.19439-.43029,7.42494,7.42494,0,0,0,1.854.28771,20.14217,20.14217,0,0,1,7.28318,1.72353c2.19594,0.97495,4.4298,1.86605,6.66305,2.75368a1.79657,1.79657,0,0,0,1.099.0202,10.94518,10.94518,0,0,1,4.93207-.16508c0.84636,0.1333,1.66915.413,2.51446,0.557a6.03617,6.03617,0,0,1,5.2297,5.19055,30.51091,30.51091,0,0,1,.601,4.93754,16.08836,16.08836,0,0,0,1.85524,7.58983,7.407,7.407,0,0,1,.85314,3.97341,19.51267,19.51267,0,0,1-1.27821,6.49139,16.48258,16.48258,0,0,1-1.646,3.19065c-1.083,1.60513-2.28338,3.13338-3.47586,4.66157-1.02,1.30711-2.1053,2.56312-3.14654,3.854-0.27776.34432-.5,0.73341-0.7477,1.102ZM51.23678,71.22933q0.01051-.87655.021-1.75312l0.69246-2.02141A2.92621,2.92621,0,0,0,53.13,68.11c1.42261-.7525,2.71784-0.13147,4.06184.18242a7.11377,7.11377,0,0,0,1.51441.01686c-1.77676-2.63345-1.63916-2.33976-3.825-1.96038-0.16813.02917-.34115,0.029-0.51147,0.04664-2.47957.25686-2.931,0.71314-3.08208,3.113l-0.91773-.37682c0.365,0.84539.62907,1.45685,0.8934,2.068a1.66347,1.66347,0,0,0,.45384.53251,0.59447,0.59447,0,0,0,.42486-0.96876Zm12.41139-7.6335,1.069,0.34889c0.27664-.47432.88191-0.88365,0.09279-1.693-0.40432.48781-.77066,0.92983-1.137,1.37182-0.58755.62044-1.68378,0.88993-1.54458,2.14465A2.39928,2.39928,0,0,0,63.64818,63.59583ZM32.97538,24.99442c0.28264-.912.28264-0.912-0.61621-1.63584l0.64315,1.65206c-0.41851.15355-.83653,0.30842-1.25565,0.46026-0.61922.22436-.48219,0.63462-0.21445,1.22533,1.27293-.499,2.5341-0.99347,4.071-1.596l-0.811-.77117C34.3492,25.35955,33.78049,25.65834,32.97538,24.99442Zm-7.87893,6.96636-1.86706-1.37471-0.22891.22184c0.30968,0.79055.61939,1.58108,1.04846,2.67634,0.48194-.73223.7533-1.14455,1.02466-1.55685l1.418-1.60538c-0.37518-.66129-0.65024-1.22-1.004-1.72341a1.338,1.338,0,0,0-.65533-0.19233q-0.40843-1.0384-.81688-2.07678l-0.13385.05451q0.07434,0.86891.14864,1.73784a2.7063,2.7063,0,0,0-.07692,1.03023C24.2845,30.1063,24.709,31.02815,25.09645,31.96078ZM74.02831,65.32593l-0.03605.02549c0.58763-.21359,1.35438.233,1.88339-0.43455a16.59072,16.59072,0,0,0-1.57746-1.04655,6.97685,6.97685,0,0,0-2.14076-.87791,38.014,38.014,0,0,0-4.62483-.24842,1.85186,1.85186,0,0,0-1.317.51694c-0.911,1.14489-1.7015,2.38568-2.54235,3.5968l-1.60564-.41443-0.08534,1.58442a5.00492,5.00492,0,0,0,3.61341-.82372,7.69091,7.69091,0,0,1,2.89254-.9386C70.34808,66.10316,72.18294,65.6544,74.02831,65.32593ZM19.8657,61.90281v-1.177c-0.98.88176-1.75843,1.61883-2.57825,2.30653a9.16954,9.16954,0,0,1-1.66829,1.1636,1.63128,1.63128,0,0,1-.869-0.10788c0.37038-2.60845,2.20025-3.68629,4.484-4.58895L16.771,57.73934l0.02721,0.02927c-0.3418-.38631-0.69848-0.76062-1.022-1.16171a1.167,1.167,0,0,0-1.771-.31513,2.12839,2.12839,0,0,1,.15668,1.05614c-0.81679.7972-1.72829,1.49738-2.70057,2.30864-0.28809-2.46448,1.59878-3.33576,2.90174-4.61123L13.00636,53.001a18.504,18.504,0,0,0-2.99861,4.831,9.51636,9.51636,0,0,0-.30893,3.35985c0.00126,0.9044.2512,1.80574,0.30314,2.71345a1.8395,1.8395,0,0,0,1.61157,2.06455,5.38791,5.38791,0,0,1,.98495.28887,12.35007,12.35007,0,0,0,7.01054,1.156c1.76954-.16182,3.50433-0.75946,5.31438-0.43a0.42,0.42,0,0,0,.17047-0.06888L26.10819,65.151l-2.85912.30009c0.51791-.89186.83146-1.4318,1.19115-2.05123l-2.60014.95047c-0.36213-.964-1.86761.01214-1.98288-1.26464-0.65392.32484-1.13805,0.93492-1.92367,0.55227a2.97713,2.97713,0,0,1,1.95074-1.7575,2.38719,2.38719,0,0,0,.34784.41981c0.77359-.4026,1.52964-0.83889,2.289-1.26887l-0.14041-.33174a1.9279,1.9279,0,0,0-.66964.09054C21.08158,61.13495,20.47871,61.52812,19.8657,61.90281ZM80.91649,26.72595a0.563,0.563,0,0,0,.84034.52628c0.71912-.21359,1.441-0.41775,2.1617-0.62593l0.11756,0.34458c-0.85743.33043-1.71486,0.66085-2.62659,1.01218l0.38256,1.35728c2.57267-1.3038,2.57267-1.3038,3.57561-.93374l-1.617.87052c0.57694,0.45273,1.38727-.16032,1.76777.60668-1.16617.68587-2.28263,1.34255-3.1699,1.86439v3.75925c1.48753-.58487,2.803-1.10206,4.11841-1.61925l0.19189,0.35874c-1.30439,1.23242-3.56092,1.16821-4.45678,3.03988,1.19824-.15626,2.32943-0.48579,3.476-0.74842a2.76347,2.76347,0,0,1,.997.39151,9.57348,9.57348,0,0,1-1.22236.51224,17.713,17.713,0,0,0-1.85414.363,5.02885,5.02885,0,0,0-1.42267.85985,1.34235,1.34235,0,0,0-.451.81625,17.30071,17.30071,0,0,0-.02071,1.88554H82.894c-0.95134-1.28282-.87351-1.60522.52357-2.00083a16.70865,16.70865,0,0,1,2.36285-.44235,1.5586,1.5586,0,0,1,.64992.26757l-0.01924.29255-3.07263.63176c1.00652,0.40163,1.645.65643,2.52334,1.00692-0.92962.84655-2.08067,0.385-2.7825,1.0364,0.5447,0.44082,1.55231-.06842,1.95242,1.1024-0.8105.17032-1.54532,0.32475-2.436,0.51191l0.32086-1.04366-1.77009-.12259-0.45126.94448L81.6,43.734c-0.05089,1.24536-2.12529,1.0887-1.81954,2.722,0.75536-.16946,1.41867-0.31678,2.08126-0.46727,0.69357-.15752,1.38643-0.3181,2.20446-0.506a1.19535,1.19535,0,0,1-1.26777.95113c-2.94109.42017-2.94109,0.42017-4.77684,2.96285,1.35962,0.3144,2.685-.6325,4.02687-0.23447l0.0511,0.4038c-1.19121.20237-2.38242,0.40472-3.5975,0.61116v0.92215l-1.679-.3148L75.99883,52.3034c1.79747-.375,3.25061-0.67827,4.70375-0.98149L80.837,51.65362a2.06809,2.06809,0,0,1-.67274.55922c-0.89321.20107-1.807,0.3085-2.71041,0.46662a2.30931,2.30931,0,0,0-1.13912.28422C75.275,54.004,74.34285,55.151,73.31828,56.20755A27.75524,27.75524,0,0,1,70.58217,58.765c-0.93155.73086-1.99165,1.29791-2.99526,1.937a3.621,3.621,0,0,0,1.95842-.12865c0.687-.23619,1.30888-0.667,1.99931-0.88681,0.81343-.25892,1.69-0.32218,2.49887-0.59154a4.21955,4.21955,0,0,0,1.07616-.92621l0.621,0.73663a3.30324,3.30324,0,0,1-.88687.63178c-1.39243.39721-2.80413,0.7268-4.20876,1.0811,2.11879,0.00791,4.24119,1.01965,6.26281-.1414a1.64345,1.64345,0,0,1,1.015-.02382,2.21225,2.21225,0,0,0,2.4432-1.198c0.58418-.91958,1.11717-1.88,1.77985-2.73988,1.668-2.16448,3.37888-4.29665,5.10557-6.41489,1.78478-2.18958,2.30721-4.8251,2.69482-7.50085a7.73881,7.73881,0,0,0-.25856-4.57009,23.20555,23.20555,0,0,1-2.21953-10.33,12.52741,12.52741,0,0,0-.467-3.56191,4.23773,4.23773,0,0,0-3.481-3.18981c-1.34648-.2465-2.70387-0.457-4.06567-0.58508a9.36061,9.36061,0,0,0-1.93487.24c0.56061,0.97918,1.01165,1.767,1.4627,2.55478l0.55737,0.47645a0.93123,0.93123,0,0,0,1.00833,1.00559l-0.02185-.02778c-0.00156.72537-.56275,1.552,0.38113,2.10629ZM56.4638,26.69488c0.12831,0.50766.7119,1.015,0.02222,1.52714a21.48207,21.48207,0,0,1-4.4958,2.79826c-3.00231,1.24757-6.10859,2.27275-8.81964,4.15819a14.80992,14.80992,0,0,0-3.93351,4.76c0.861,0.22683,1.95215-.34409,2.67011.66146-1.6914.35344-3.31324,0.57494-4.85387,1.05635-0.994.31061-2.88974,2.67329-3.20841,3.53636a3.29644,3.29644,0,0,0,3.89083.763c0.64748-.23032,1.31814-0.39536,1.97789-0.59133a1.63017,1.63017,0,0,1,1.76381.258c-0.30983,1.628-2.16467,1.25146-2.95829,2.40433l5.47654,0.75174c-0.43158.619-.70837,1.0159-0.98568,1.41252-3.77889-.03174-7.25273-0.89664-10.03385-3.80762a14.91629,14.91629,0,0,0-3.63643,8.05441,22.05584,22.05584,0,0,1,3.91129-.19755,6.81956,6.81956,0,0,0,5.019-1.37456,16.709,16.709,0,0,1,4.7196-2.7008,19.83123,19.83123,0,0,1,3.02448-.31743A14.43712,14.43712,0,0,0,52.293,48.36368c1.72648-.72478,3.48326-1.2167,5.44507-0.31638,1.735,0.79623,3.61128.3552,5.34164-.3748a3.85222,3.85222,0,0,0,.924-0.95258l-2.74447-.88948-0.10081.2529,1.9104,0.85882a0.95507,0.95507,0,0,1-.32637.23571c-1.89853-.17325-2.92485-1.74176-4.29688-2.74846a2.47443,2.47443,0,0,1-.22666-1.16535,5.16819,5.16819,0,0,1,3.38774,1.38759c-0.59064-.0786-1.1813-0.15719-2.11331-0.28121,0.82839,0.64706,1.33472,1.13052,2.14419.85211l-0.0632-.60263c0.80945,0.416,1.64594.78771,2.421,1.26013a4.88239,4.88239,0,0,0,2.64216.86894,7.35476,7.35476,0,0,0-.16123-5.16031c-0.49394-1.21011-.95891-2.43245-1.47208-3.63424-0.71487-1.67393-1.4627-3.33378-2.16749-4.934-0.68543-.05518-1.17067-0.09422-2.06544-0.16624l1.57619-.6495c-0.82595-1.07881-1.515-2.12914-2.35837-3.03584a21.04052,21.04052,0,0,0-2.57-2.20564,2.59626,2.59626,0,0,0-.97625-0.2431c-0.60274-.15679-1.19782-0.35863-1.8095-0.46294-3.48964-.59512-6.82148-1.72332-10.57139-0.99111a59.75645,59.75645,0,0,0-10.1455,2.43329,22.9597,22.9597,0,0,0-2.33252,1.25519l2.255,1.02821,0.1107-1.18761,0.63429,1.22053c1.37487,0,2.63528.00069,3.89569-.0004a5.49837,5.49837,0,0,1,1.19687.01663,0.80357,0.80357,0,0,1,.52374.54036,0.95031,0.95031,0,0,1-.43928.61227,1.47815,1.47815,0,0,1-.65977.16348c-0.79549.101-1.59076,0.21771-2.38994,0.27186a10.20689,10.20689,0,0,1-2.22812.01174c-0.78083-.1211-1.6609-0.81709-2.26459-0.6035-1.12919.39953-1.11578-.91823-1.86384-0.89944a1.49351,1.49351,0,0,1-.45959-0.13978,13.36642,13.36642,0,0,0-1.59716,1.32624,40.693,40.693,0,0,0-3.0512,3.70672c-0.867,1.24646-.71927,1.61626.52984,2.76734a3.76218,3.76218,0,0,1,1.09251-.36682,8.44723,8.44723,0,0,0,4.617-1.1113,0.9709,0.9709,0,0,1,1.47229.38877c0.2576,0.62181-.33365.91352-0.77083,1.16467a7.92228,7.92228,0,0,1-1.55081.726c-0.9067.28352-1.84038,0.48085-2.9742,0.768A3.83173,3.83173,0,0,1,28.987,42.48749c-1.1029.43162-1.51424-.23769-1.89289-0.98543a6.45129,6.45129,0,0,0-3.48853-3.04723c-0.1386.27052-.20852,0.427-0.29546,0.57342a2.35325,2.35325,0,0,0,.28367,3.10922c0.70218,0.74711,1.35448,1.54094,2.03484,2.30876a4.10637,4.10637,0,0,1,1.07675,2.82389,0.99445,0.99445,0,0,1-.50553.77691,1.0943,1.0943,0,0,1-.87071-0.34645,1.77747,1.77747,0,0,1-.39885-0.92309c-0.26444-1.66515-1.57508-2.40728-2.79142-3.35825a2.88475,2.88475,0,0,0-.39694.848c-0.04931.76666-.5468,1.44068-0.20519,2.32808,0.1704,0.44265-.513,1.14693-0.56191,1.75291a16.837,16.837,0,0,0,.88125,6.93124,7.46844,7.46844,0,0,0,1.56866,2.78239c1.0501-.6236,2.03151-1.20931,3.016-1.78989a1.92078,1.92078,0,0,0,.9618-1.44254c0.5307-2.44528.77687-5.0072,2.28877-7.149,0.99069-1.4035,1.91427-2.85706,2.95564-4.22122a18.43816,18.43816,0,0,1,2.22294-2.36815,23.41553,23.41553,0,0,0,5.07651-5.80783,5.43407,5.43407,0,0,1,1.85978-1.73765c1.59381-1.02424,2.72323-2.25438,2.55211-4.29989a2.41715,2.41715,0,0,1,.1704-0.61322l0.33742,1.111c0.68278-.23127,1.384-0.72083,1.88737-0.56621,0.47379,0.14555.73895,0.97038,1.16177,1.59345l3.3371-1.51933c-0.10636-.58883-0.192-1.02815-0.25551-1.47065a0.89213,0.89213,0,0,1,.26869-0.214l0.60325,1.5493a13.05417,13.05417,0,0,0,1.854-1.35772A2.88883,2.88883,0,0,1,56.4638,26.69488ZM32.62613,72.56026a3.55083,3.55083,0,0,0-1.84892-2.0159,6.58982,6.58982,0,0,1-1.90583-1.15377c-1.0826-1.16286-2.16473-1.018-3.36373-.35661a2.33956,2.33956,0,0,0-.11015.547,17.92677,17.92677,0,0,0,3.62524,10.36454,12.62922,12.62922,0,0,0,6.81732,4.638A15.44227,15.44227,0,0,1,39.832,86.51758a9.24855,9.24855,0,0,0,6.98128,1.65549q4.968-.98748,9.99869-1.6492a11.85284,11.85284,0,0,0,6.25374-2.61464,49.45907,49.45907,0,0,0,3.85956-3.91177,37.9475,37.9475,0,0,1,3.161-3.37983c2.99825-2.45825,4.2083-5.87318,5.49844-9.33079a2.63209,2.63209,0,0,0-3.07557.81427c-0.64548.65451,0.08138,1.47871,0.46778,2.171a1.76728,1.76728,0,0,1,.112.46938c-1.07965.22548-2.09886,1.46028-3.18829,0.09315L68.8962,68.09794c-0.75574,1.01268-.63917,2.028.2154,3.29371l0.81239-.58957c0.02525,0.6715-.0644,1.431-0.86295,1.38876a1.83814,1.83814,0,0,1-1.10716-1.11513,15.17309,15.17309,0,0,1-.50911-2.61036,3.37173,3.37173,0,0,0-1.19062,1.0449c0.0435,1.09257.14233,2.25261,1.50531,2.89372-0.98164.49716-1.00974,1.964-2.47685,1.62788a0.68589,0.68589,0,0,0-.458,1.1471,3.77065,3.77065,0,0,1,.29177.67l-1.16.325c0.15188,0.52443.285,0.98421,0.46228,1.59629A1.342,1.342,0,0,1,63.12391,76.634a3.15772,3.15772,0,0,0-.56094-1.15154c-0.43585-.64538-0.98229-1.22173-1.37149-1.89148a23.653,23.653,0,0,1-1.18635-2.47934c-0.39325-.90537-1.03954-0.91274-2.02229-0.59159,0.52548,1.52438.24566,3.36065,2.53475,3.99907-1.06018,1.01563-.093,1.25195.63254,1.53114l-0.4321.66c0.29451,0.6788,1.081.902,0.95515,1.76512-1.38607-.11754-1.39579-1.8038-2.6054-2.131-0.28392,1.41063,1.18079,2.185,1.19742,3.57852-1.44039-.71474-1.34387-2.64012-2.93171-3.15475a3.03737,3.03737,0,0,0,1.18271,3.21614c-0.83609.484-1.00275,0.50471-1.24805-.00274-0.31913-.66021-0.54-1.368-0.7907-2.02269a2.87988,2.87988,0,0,1-1.43224-.2278,10.169,10.169,0,0,1-1.3705-2.30331,12.64659,12.64659,0,0,1-.55711-1.89695c-0.87873.1445-1.19851,0.4662-.99107,1.21386,0.44425,1.601.849,3.21294,1.29033,4.81479a3.95143,3.95143,0,0,0,.42341.75021l0.47634-1.15659c-0.05611,1.0319.43236,1.72707-.36251,2.38773-0.58984-.48859-1.14944-0.95211-1.70905-1.41568-0.75279.9264-1.17736,0.98745-1.57975,0.11154-0.49949-1.0872-.815-2.25868-1.21512-3.39191-0.13021-.3688-0.27658-0.73187-0.41554-1.09758l-0.3474.12781q0.71975,2.76688,1.43953,5.53374l-0.28348.09134q-0.72985-1.878-1.45969-3.75595l-0.20648.02294v3.894c-0.84762.57921-1.82459-.42594-2.321,0.63835-0.464-.42558-0.82452-0.75622-1.18443-1.08683,0.223-1.861.42857-3.72453,0.68576-5.58084a3.12155,3.12155,0,0,1,.47108-0.90954l0.36484,0.11024c-0.11247.94852-.25181,1.89484-0.32991,2.84618a7.34907,7.34907,0,0,0,.0088,3.3503,27.15552,27.15552,0,0,0,.39807-7.33714H43.5376a6.01327,6.01327,0,0,0,.21532,1.0662c1.01352,2.46016.75033,1.85869,0.36442,4.55734a15.63585,15.63585,0,0,0-.017,2.27606l0.59979-.409a1.95371,1.95371,0,0,1-.54714,2.11012c-1.55671-1.805-.89771-3.77975-0.84051-5.70934-0.32267.85878-.335,1.77882-0.64578,2.58357-0.31172.80713,0.90613,1.71751-.32311,2.53995l-0.54217-1.41381c-0.37583.45064-.70725,0.84809-1.3061,1.5662,0-.76216-0.03472-1.0876.00572-1.40341,0.24613-1.92258.50936-3.843,0.76666-5.76427l0.80856-.29377c0.19919,1.72116-1.00944,3.13107-.49455,4.73283a41.77644,41.77644,0,0,0,1.31595-5.06659,1.16673,1.16673,0,0,0-.38193-1.021,2.834,2.834,0,0,0-1.26577.08155v1.55161c-0.70115,1.9367-1.40228,3.87343-2.20455,6.08953-0.0653-2.76362,1.02131-4.97824,1.75849-7.4024l-1.40512-.2327c-0.71211,2.14545-2.22456,3.95365-1.74832,6.36356l0.84438-.29371,0.18335,0.24261-1.104,1.28716c-1.25763-1.35608-.53251-2.69246-0.37217-3.89636A25.01231,25.01231,0,0,1,38.20407,74.246c-1.154,1.406-2.25007,2.83227-2.38,4.71968a0.94605,0.94605,0,0,1-1.1854.97364,7.5622,7.5622,0,0,1,1.23379-3.23975,3.18225,3.18225,0,0,0,.36714-3.27165c-0.55814,1.39823-1.0384,2.59075-1.50984,3.78674-0.23706.60127-.3406,1.34709-1.43359,1.16815L34.21883,75.877c-1.34554,1.21619-1.52407,2.91771-3.20142,3.36457,1.07321-1.9601,2.14642-3.92019,3.28611-6.00168l0.71836,0.76689a1.016,1.016,0,0,0,.1514-0.98888c-0.82391-.29682-1.598-1.00967-2.57756-0.48211Zm10.56634-8.123,0.28075-.25419,0.63342,0.42543A39.24071,39.24071,0,0,0,42.07442,61.215c-0.6479-1.05648-1.64449-1.99809-1.35029-3.46119a1.65424,1.65424,0,0,1,.841.72969c0.29051,0.61993.41935,1.32176,0.74785,1.91633,0.4956,0.897.92236,2.15715,1.70806,2.494a6.04693,6.04693,0,0,1,2.51154,2.42138c1.20933,1.69356,1.48812,1.81163,3.287.46738-0.19682-.60823-0.19619-1.325-1.15684-1.41414a1.25566,1.25566,0,0,1-.77117-0.60788q-1.55883-2.66836-3.03045-5.38682a2.57162,2.57162,0,0,1-.06732-1.007L45.21,57.22728A14.34,14.34,0,0,0,48.02921,62.516c-0.3987-1.07136-1.02036-2.042-1.39041-3.10062-0.34554-.98844-1.36016-1.79709-0.86728-3.06756a3.67294,3.67294,0,0,1,.7255,1.222c0.20959,0.52291.39357,1.05608,0.58923,1.5864l1.14365-.32991c0.36733,1.02108.68189,1.99245,1.0693,2.93387,0.21365,0.51921.51134,1.3762,0.83756,1.40842,1.07792,0.10649,1.08483,1.04,1.62744,1.66311a1.33652,1.33652,0,0,0,.25187-1.0045c-0.39466-1.1354-.886-2.237-1.28722-3.37044a1.70018,1.70018,0,0,1-.08547-1.10812c0.82252-.443.3003-0.95195,0.13309-1.40486-0.23-.62315-0.54244-1.21586-0.81959-1.8216a7.47624,7.47624,0,0,0-.014,1.84991c0.045,0.64616.0778,1.29318,0.11592,1.93982-0.95912-1.69735-1.08361-4.47412-.28432-5.78468,0.68265,1.491,1.3081,2.8571,1.97583,4.3155L52.0598,57.41l0.2883,0.01092,1.51729,5.70591c-1.113-.63879-0.75654-2.23372-2.12655-2.6317,0.53451,2.69406,1.509,3.78712,3.2376,3.512-0.60788-1.87748-1.21173-3.74248-1.84233-5.69017l1.423-.08008c0.49282,1.116,1.03432,2.19249,1.43029,3.32012a1.97378,1.97378,0,0,1-.16331,1.36387c-0.35468.72684-.2304,1.21615,0.50227,1.21482a5.95461,5.95461,0,0,0,1.33626-.267c1.99868-.4811,1.84724-0.47514,1.73446-2.52635a54.66274,54.66274,0,0,1,.24154-5.98327,2.27473,2.27473,0,0,1,.61547-0.55455c-0.14852,1.62313-.35977,2.96243-0.36867,4.30309-0.00886,1.33024.186,2.66184,0.29011,3.97427,4.79923-1.9138,7.21743-8.345,6.31052-14.5274-0.38574.13048-.76614,0.23373-1.12637,0.385-2.70846,1.13742-5.44695,1.718-8.359.73217a4.00869,4.00869,0,0,0-2.03494-.07985A18.52275,18.52275,0,0,0,51.3652,50.688a12.74589,12.74589,0,0,1-4.4792.97505c-2.54536.16571-5.01573,0.53222-7.13142,2.43369a6.90715,6.90715,0,0,1-6.37429,1.79723,6.241,6.241,0,0,0-2.54129.16939c-2.31773.46317-4.03143,2.062-5.9368,3.295a0.99905,0.99905,0,0,0-.15553.38583,1.87416,1.87416,0,0,0,.533.58542c3.15216,1.26434,5.88355,3.24932,8.74087,5.02229a7.42566,7.42566,0,0,0,1.74041.55814,8.82969,8.82969,0,0,0-1.54709-1.826c-0.7759-.81961-1.50521-1.68332-2.2544-2.52822l-0.02807.02727a2.01831,2.01831,0,0,0,.88717.47329c1.13365-.1639,1.53949.65519,2.11186,1.33891a27.28152,27.28152,0,0,1,2.22349,2.85508,2.38986,2.38986,0,0,0,.7687.43219c-0.26625-1.06542-1.27844-1.59318-1.00349-2.81438,0.50964,0.769.91091,1.38525,1.32308,1.99416A4.89837,4.89837,0,0,0,42.996,67.93787a1.18605,1.18605,0,0,0,.30834-0.50515l0.03715-.04091,1.00292-.57963,0.18006,1.18532,2.43539-.87256c-0.7518-.56282-1.28535-1.2928-1.81756-1.29185C44.03448,65.83508,43.686,65.10933,43.19248,64.43729Zm15.944-38.78436,1.68515,1.56071c0.71775-.34584,1.25492-0.60468,1.79307-0.86244l0.03289,0.03609-0.82243,1.93127,0.71062,1.06782q0.0984,0.0978.19585,0.1965A56.72958,56.72958,0,0,1,68.65519,41.709c1.54816-1.3336,3.03576-2.57116,4.46442-3.87332a0.88734,0.88734,0,0,1,1.39506-.15675c-0.55027.43261-.98958,0.76868-1.41867,1.11732a13.51919,13.51919,0,0,1-2.41708,1.91829c-1.02453.48968-.47382,1.94346-1.631,2.24641a1.389,1.389,0,0,0-.16234.79156c-0.09226,2.39859-.18429,4.79738-0.24183,7.197a9.87034,9.87034,0,0,1,.14037,1.64556c-0.39056,1.85256-.88548,3.68309-1.34263,5.52862a0.07685,0.07685,0,0,0,.07943.02079,3.07913,3.07913,0,0,0,.47312-0.19564,15.02235,15.02235,0,0,0,6.22521-6.68806,11.16221,11.16221,0,0,1,1.33-2.1915c1.9878-2.33825,2.80621-5.2503,3.81483-8.01857,0.6314-1.73292.56136-3.72545,0.77759-5.60479a16.79974,16.79974,0,0,0-2.85422-11.07735c-0.93477-1.48684-1.72736-3.226-3.36615-4.02384-2.50992-1.22206-5.13893-2.20232-7.73014-3.25376-2.4581-.99745-5.2249-0.55918-7.67871-1.60921a1.77282,1.77282,0,0,0-.51315-0.02326,7.73122,7.73122,0,0,0-5.86975,2.314A38.48427,38.48427,0,0,0,49.31906,20.561a4.508,4.508,0,0,0-1.465,2.58141c1.31254-.0238,1.16648-1.36766,1.90562-1.84612a14.538,14.538,0,0,0,1.84694-2.00859c0.68438-.66836,1.45489-1.24852,2.0981-1.79153,0.98589,0.6741,1.82729,1.24942,2.67767,1.83089A3.69546,3.69546,0,0,1,53.731,21.21132a2.561,2.561,0,0,0-2.344,2.59424c2.53174,0.9406,5.38337.51281,7.7776,1.87681ZM22.33765,16.02365l-1.576,1.27038,2.0417,5.56181c-1.6967-1.13249-1.77794-3.20654-2.74893-4.83777-1.12292,1.907-1.12345,1.90724-.35691,3.57835q0.55377,1.20742,1.11113,2.41317l-0.32787.18587c-0.62686-.96956-1.25374-1.93912-2.09082-3.23383-0.22483,1.05054-.70729,1.9166-0.479,2.50857a36.66842,36.66842,0,0,0,2.28883,4.42223,0.84556,0.84556,0,0,0,1.29139.34178c0.0685-.681.1332-1.32392,0.22916-2.27774,0.5508,0.763.90615,1.25529,1.437,1.9907-0.12671-3.8814-.0729-4.18147.93827-5.52288l0.92758,2.19931,0.26925-.10876c0.03578-.62842.07158-1.25681,0.12793-2.24641,0.62029,0.99038,1.0263,1.63859,1.43231,2.28681a5.85381,5.85381,0,0,1,.12448-4.22l1.95221,3.53794a1.785,1.785,0,0,0,.30842-1.3085c-0.07256-.49753-0.24-0.98072-0.34123-1.47528a1.2277,1.2277,0,0,1,.33889-0.30526l0.50349,0.79,0.61831-1.36336,1.34,2.03507,0.52-.83607,1.12521,0.603c0.223-.64336.40765-1.17593,0.69149-1.99466l0.83887,1.44784c0.23318-.39494.44153-0.74778,0.78409-1.3279,0.79093,1.62925,1.0505,3.319,2.73285,4.03674A6.63728,6.63728,0,0,0,37.334,21.80495a2.11231,2.11231,0,0,1,.15113-2.97178c0.30009,0.79421.5706,1.51011,0.93953,2.48647,0.15243-1.16522-.13774-2.217.9675-3.0294,0.34521,0.96241.64327,1.79342,0.94151,2.62522l0.66647-.85747,0.77169,2.1416c0.33346-1.5074.10975-2.953,1.48136-4.304,0.34148,1.47968.60266,2.61142,0.89428,3.875a24.14615,24.14615,0,0,0,.93724-3.30589,27.72047,27.72047,0,0,0,.03485-3.625,4.55022,4.55022,0,0,1,.96693,3.86951l0.963-.5101,0.39683,1.2522c0.63151-.721,1.088-1.3017,1.60755-1.81921,0.55539-.55324,1.17017-1.04688,1.819-1.61951a7.8106,7.8106,0,0,0-5.67062-2.99329c-1.3646-.17445-2.73077-0.33925-4.09895-0.48211-0.79425-.08292-1.595-0.10182-2.3909-0.17152-0.81824-.07166-1.63413-0.17011-2.47439-0.25932,0.0166,1.51508.7835,2.805,0.428,4.22088a23.98056,23.98056,0,0,1-1.03082-3.21748c-0.39227-1.56435-.74608-1.8887-2.2728-1.34888A43.21177,43.21177,0,0,0,29.093,13.79579c0.19164,0.71342.32317,1.31346,0.51654,1.89289,0.20618,0.61791.47087,1.2163,0.71,1.82318-1.49161-.73966-1.29774-2.45663-2.35639-3.509-0.78388.24878-1.53231,0.48632-2.2962,0.72874,0.20664,1.713,1.45744,3.01389,1.50418,4.641l-0.35668.12634c-0.65723-1.50308-1.31445-3.00619-2.029-4.64034l-1.65179.71382c0.19762,1.388,1.33615,2.332.99917,3.78312ZM15.91508,36.367q1.2912,2.27931,2.58242,4.5586l0.364-.18476c-0.95618-2.46736-1.91235-4.9347-2.902-7.48839,0.5101-.30065.94509-0.51092,1.18494,0.39605a8.89851,8.89851,0,0,0,.63366,1.40188,6.16728,6.16728,0,0,0-2.17491-4.66294,3.60416,3.60416,0,0,1-1.40886-2.72294,19.72949,19.72949,0,0,1,2.16824,2.65372c0.74044,1.00149,1.74079,1.79048,2.11281,3.08614a26.142,26.142,0,0,0,1.30742,3.08852c-0.21936-1.84305-1.10556-3.49313-.86888-5.44377l1.67437,3.2255c-0.25741-3.64731-.82923-7.15312-3.37353-10.02238-0.1248.19139-.255,0.37328-0.36705,0.56576a3.26341,3.26341,0,0,1-2.56556,2.03387,1.74735,1.74735,0,0,0-1.03954.80867A11.054,11.054,0,0,0,11.425,32.40936c-0.29577,2.61445-.27826,5.18944,2.27372,6.90562a2.37289,2.37289,0,0,1,.47186.66337l-0.26052.22744c-0.79175-.6716-1.58352-1.34318-2.59816-2.20383,0.507,2.41231.90028,4.54221,1.41305,6.64294,0.4196,1.71905,1.13462,3.3757,1.44792,5.10894,0.60423,3.34281,2.71793,5.57055,5.16767,7.618a3.00871,3.00871,0,0,0,2.11422.708,1.51359,1.51359,0,0,0-.7702-0.8648c-1.38159-.04929-1.91458-1.10562-2.5527-2.01531-0.69052-.98431-1.2623-2.052-1.95438-3.0351a3.66845,3.66845,0,0,1-.548-3.22066c1.47126,1.20167,1.9013,3.11284,3.65356,4.31489a3.10936,3.10936,0,0,0-.12265-1.15312c-0.26648-.34786-0.74343-0.54148-0.987-0.8987-0.9031-1.32477-1.75828-2.68291-2.606-4.04438a0.95554,0.95554,0,0,1,.17434-1.4921,11.38464,11.38464,0,0,0,2.53521,3.70454c-0.47556-1.23539-1.10341-2.37985-1.664-3.55633-0.542-1.13752-1.55875-2.0977-1.31952-3.574,1.23229,1.8433,2.001,4.00441,3.76567,5.5552,0.60931-2.40456,1.18277-4.66766,1.79187-7.07146l-1.43273-.76008c-0.21294,1.003.90333,1.77524,0.14875,2.68089C18.18365,41.79085,15.78067,37.98136,15.91508,36.367ZM48.83176,72.0675c-0.98292-2.264-2.88936-2.5362-5.06946-2.122a1.23161,1.23161,0,0,1-.17045.02269,13.33469,13.33469,0,0,1-7.14594-1.4133,2.25176,2.25176,0,0,0-.48844-0.16375l0.83921,2.83138c1.1797,1.36671,2.83837,1.02552,4.46945.83933a20.75141,20.75141,0,0,1,2.71439-.30322C45.62191,71.79084,47.26063,71.96011,48.83176,72.0675Zm6.86231-1.82375c0.66506,1.75112,1.24345,3.27412,1.82783,4.81289l1.13811-.324c-0.53872-1.56573-1.03367-3.00431-1.54446-4.48894H55.69407ZM26.11126,62.97623l-1.31237,1.42566h2.885l-0.60327,1.33977H30.016A5.88575,5.88575,0,0,0,26.11126,62.97623ZM30.607,27.00095l-3.35569-.2219,1,1.50921-0.28064.22083-2.39236-1.65322a3.84628,3.84628,0,0,0,.76534,1.37039c0.30055,0.42366.56124,0.87555,0.87532,1.3718Zm-9.50111,11.744c1.61448-2.1049,1.7998-3.71485.53582-4.91193V36.0383l-1.00342.262C20.807,37.18252,20.95379,37.94971,21.10589,38.74491Zm33.96,32.55617a7.41165,7.41165,0,0,0,1.23061,5.03724C56.70187,74.47352,55.89914,72.88295,55.06591,71.30107Zm9.00219,2.74211a1.25911,1.25911,0,0,0,.3544-1.69628,19.34993,19.34993,0,0,0-1.13683-2.03557,3.13376,3.13376,0,0,0-1.06875.19269Zm6.911-3.23085c1.25045-.55295.79695-1.35652,0.5278-2.08585-0.2975-.8061-0.88751-0.69084-1.516-0.4756A2.61749,2.61749,0,0,0,70.97908,70.81233ZM42.38564,23.52406l1.23515,0.074c-0.20267-1.4616-.38231-2.75705-0.56193-4.05248L42.72314,19.57C42.61383,20.85052,42.50452,22.13106,42.38564,23.52406ZM65.86432,73.37322a2.59418,2.59418,0,0,0-.987-3.29137A3.82685,3.82685,0,0,0,65.86432,73.37322ZM50.05315,77.01094c0.43265,1.168.77413,2.08985,1.17671,3.17663C52.12728,78.6429,51.9672,78.2164,50.05315,77.01094ZM39.13873,20.81724c0.07581,1.11282.15163,2.22563,0.23971,3.51845C40.29817,23.49377,40.27782,23.24735,39.13873,20.81724Zm8.18142,60.105,0.41624-.03616q-0.188-2.09154-.376-4.18309A7.02623,7.02623,0,0,0,47.32015,80.92227ZM51.097,22.28587c0.7417-.7763,1.3331-1.39531,2.06325-2.15955C51.63214,20.12765,51.10662,20.6798,51.097,22.28587ZM16.82631,61.31769L17.0295,61.691c0.9865-.46834,2.10027-0.72043,2.71464-1.83636Q18.28523,60.58617,16.82631,61.31769ZM54.14789,72.89932l-0.42194.04992a3.72355,3.72355,0,0,0,1.29088,2.97782Zm-4.2103-1.89,0.25585-.015c-0.06128-.81669-0.12255-1.63337-0.18232-2.42992-0.67145-.07315-0.99109.07063-0.79758,0.6321C49.42532,69.811,49.69382,70.40593,49.93759,71.00936ZM21.60106,30.2859l-0.4288.11708,1.43894,3.23457,0.39586-.17133Q22.304,31.87607,21.60106,30.2859Zm8.59222,37.41155,0.16653,0.45224q1.11751-.55194,2.235-1.10389L32.454,66.75017Q31.32364,67.22382,30.19329,67.69745ZM49.0939,74.77651l0.076-.38656-1.9113-.15986-0.05987.3941ZM18.78382,55.08034l0.36792-.2741Q18.506,53.981,17.86031,53.15574l-0.26244.20547ZM80.016,63.16158l0.05287-.49394H78.06526l-0.0037.20519ZM33.67571,68.374c-1.17983-.18739-1.17983-0.18739-1.14394.87134C32.93369,68.93921,33.26873,68.684,33.67571,68.374Zm14.31958,1.94773,0.489-.06655c-0.09961-.34839-0.19355-0.69883-0.31821-1.038a4.19619,4.19619,0,0,0-.45161.11642ZM36.42371,23.66012l-0.29752.06695,0.18911,1.11168,0.40049-.09489ZM61.25254,65.34653c-0.592.59554-.77157,0.93745-0.14128,1.43761ZM30.90412,24.04725l0.32665-.18956L30.7999,23.001l-0.19086.071Zm22.061-4.92887a1.77072,1.77072,0,0,0,.53428-0.00593,2.75445,2.75445,0,0,0,.13745-0.51054ZM24.064,62.54341l0.14719,0.30209,0.74726-.44273-0.13778-.24989Zm52.04388,1.00833a0.56207,0.56207,0,0,0-.254-0.13945,0.54293,0.54293,0,0,0-.192.21146A0.231,0.231,0,0,0,76.10787,63.55174Z"/><path d="M59.16456,25.68237l-0.47533-1.34324c1.33964-1.32535,2.47692-3.10032,4.70087-4.26251-0.25385,1.382-1.27565,1.59389-1.85858,2.18535a8.20941,8.20941,0,0,0-1.62313,1.99546,2.34294,2.34294,0,0,0,.73516-0.22731,12.48541,12.48541,0,0,0,1.58419-1.32458A3.8427,3.8427,0,0,1,66.31932,21.49l-4.59295,4.15234-0.23179-.169L62.143,23.95225c-1.12744.58641-1.63462,1.99094-3.00583,1.70106Zm4.05023-2.42272-0.2787-.24585-0.37652.56562a0.82993,0.82993,0,0,0,.25875.13553A4.50038,4.50038,0,0,0,63.21479,23.25964Z"/><path d="M60.18017,18.86455a2.96412,2.96412,0,0,1-.33971.59072c-1.1741,1.206-2.29851,2.473-3.57538,3.56014a6.12369,6.12369,0,0,1-2.124.6761C54.72687,21.719,58.041,19.09024,60.18017,18.86455Z"/><path d="M67.84324,39.37974a48.11736,48.11736,0,0,1,5.91843-4.34716l0.23491,0.2472A3.29083,3.29083,0,0,1,73.46,35.916a12.71139,12.71139,0,0,0-3.32812,2.88126A1.68871,1.68871,0,0,1,67.84324,39.37974Z"/><path d="M62.5358,29.38638a10.84547,10.84547,0,0,1,1.02531-1.53562c0.969-1.03468,1.98-2.03465,3.03144-2.985a1.90711,1.90711,0,0,1,1.49772-.35188,2.50367,2.50367,0,0,1-.43577.74162c-0.88643.71807-1.85519,1.34-2.70179,2.09966-0.50307.45138-1.32485,0.70254-1.27285,1.6665a2.48662,2.48662,0,0,1-.94833.56113Q62.63425,29.48425,62.5358,29.38638Z"/><path d="M69.27639,46.8889a40.84567,40.84567,0,0,1,5.85007-4.58276l0.26538,0.27348a2.71946,2.71946,0,0,1-.41283.59462q-2.16039,1.80573-4.35031,3.576a1.5793,1.5793,0,0,1-.6047.302A2.51248,2.51248,0,0,1,69.27639,46.8889Z"/><path d="M61.54837,19.64914c-1.43288,1.55488-2.862,3.11327-4.30995,4.654a0.84149,0.84149,0,0,1-.44852-0.013,0.81206,0.81206,0,0,1-.0983-0.347c1.18683-1.36521,2.36354-2.74087,3.60217-4.05816a3.15085,3.15085,0,0,1,1.13237-.47159Z"/><path d="M67.82417,30.84045l-0.95142.09917a17.7956,17.7956,0,0,1,5.71679-4.68228c-0.11783.527-.17089,0.76422-0.221,0.99839-0.24836.10087-.4997,0.20483-0.75109,0.3088a11.86973,11.86973,0,0,0-3.82822,3.30722Z"/><path d="M71.61752,27.56452c0.25137-.104.50271-0.20793,0.75107-0.3088,0.59668-.0189,1.058.34988,0.514,0.75965-1.38767,1.04524-2.91925,1.89945-4.39323,2.83012L68.51145,30.875c0.38412-.44345.75267-0.90167,1.15592-1.327C70.30521,28.87527,70.96629,28.22457,71.61752,27.56452Z"/><path d="M73.74518,41.6313c-0.58843.53649-1.15859,1.09495-1.77086,1.60271A2.99181,2.99181,0,0,0,70.66671,44.719a1.03191,1.03191,0,0,1-1.4047.58056c0.33367-1.23269,1.49868-2.26631,4.2936-3.869Q73.65047,41.53081,73.74518,41.6313Z"/><path d="M69.0479,33.0391a26.65586,26.65586,0,0,1,5.50583-4.37445A16.77117,16.77117,0,0,1,69.0479,33.0391Z"/><path d="M73.99369,46.70351c-0.15792.8298-1.45036,0.88607-1.30284,2.02046,0.04466,0.34333-1.16827.45917-2.22578,0.12a7.3809,7.3809,0,0,1,3.55455-2.11026Z"/><path d="M66.35226,28.80835a17.02061,17.02061,0,0,1,3.42318-3.12406A6.03061,6.03061,0,0,1,66.35226,28.80835Z"/><path d="M63.96508,25.28573a8.24279,8.24279,0,0,1,3.53281-2.60721c-0.50042.92564-1.13681,1.42608-3.44294,2.70743Z"/><path d="M68.48933,30.8455c-1.19927,1.85879-1.19927,1.85879-2.5499,1.96806,0.70643-.73956,1.2956-1.35631,1.88476-1.97311l-0.03489.03129L68.51145,30.875Z"/><path d="M74.41527,32.149c-0.93115.69416-1.86233,1.3883-2.98236,2.22326A3.6722,3.6722,0,0,1,74.41527,32.149Z"/><path d="M73.08823,49.60563a5.38016,5.38016,0,0,1-3.19564,1.957q1.49724-1.09143,2.99451-2.18289Q72.9878,49.49257,73.08823,49.60563Z"/><path d="M70.58878,35.01888q-0.79738.68616-1.59471,1.37237c0.02012-.99509.81-1.19193,1.35311-1.63963Z"/><path d="M72.8871,49.37973c0.91484-1.09615.91484-1.09615,1.94026-1.28373a2.765,2.765,0,0,1-1.73915,1.50961Q72.98782,49.49257,72.8871,49.37973Z"/><path d="M65.314,30.20372L64.39649,31.221a0.9656,0.9656,0,0,1,.52767-1.348Z"/><path d="M64.05494,25.38594q-0.70372.50061-1.40741,1.00126l-0.03329-.03653q0.67512-.53281,1.351-1.06473Z"/><path d="M43.30435,67.43272c-1.49443-1.10863-3.26225-1.82889-4.50081-3.30829-0.9281-1.10861-.97609-1.06843-0.49615-2.96843a2.03877,2.03877,0,0,1,.74568.61606c0.54131,2.19476,2.39233,3.39851,3.709,5.0028,0.17863,0.21763.38538,0.41213,0.57927,0.61714Z"/><path d="M62.69255,53.64816q0.16134,1.9665.32271,3.933l0.24326,0.08894,0.592-1.52636c0.70864,0.65188.70864,0.65188-.859,3.1539-0.88458-1.93708-.61234-3.79006-0.70649-5.60062Z"/><path d="M64.56748,51.27407l0.44,2.62665-1.13994.61966C63.32645,54.183,63.58679,52.43169,64.56748,51.27407Z"/><path d="M60.72228,59.40929c-0.02906-1.68209-.30678-3.36316.25555-5.00118C61.28657,56.09567,60.84836,57.75529,60.72228,59.40929Z"/><path d="M43.19248,64.43729A18.25235,18.25235,0,0,1,40.294,60.17646l0.37774-.24979c0.45012,0.71529.88894,1.43805,1.35356,2.14379,0.46933,0.713.96426,1.40914,1.448,2.11266Z"/><path d="M31.95946,61.55579a2.11544,2.11544,0,0,1-1.1693-2.09029,3.24428,3.24428,0,0,1,1.14133,2.11719Z"/><path d="M36.31183,59.84362l0.49692,1.47469C36.05857,60.7394,36.05857,60.7394,36.31183,59.84362Z"/><path d="M58.79317,55.57566v1.77147A1.10477,1.10477,0,0,1,58.79317,55.57566Z"/><path d="M58.7671,57.83632v0.99835L58.583,58.835V57.83661Z"/><path d="M29.09432,74.45434c0.80644-.99109,1.5196-1.86755,2.47816-3.04563A3.63255,3.63255,0,0,1,29.09432,74.45434Z"/><path d="M32.71307,74.36492c-0.48785,2.08135-.70529,2.49762-1.63144,2.92661a5.93075,5.93075,0,0,1,1.50988-3.01782Z"/><path d="M32.59572,72.5358c0.04706,0.609.92175,1.1652,0.117,1.82882l-0.1212-.09092-1.37795-.48463c0.4646-.40338.93926-0.81547,1.41322-1.22819Z"/><path d="M51.15864,41.46184c-1.04713-.26578-2.10235-0.50423-3.13749-0.81065a2.807,2.807,0,0,1-1.16953-.62877,0.96,0.96,0,0,1-.07831-0.91568,0.94245,0.94245,0,0,1,.84634-0.3101,36.1319,36.1319,0,0,1,4.53223,1.59257,4.04758,4.04758,0,0,0,3.27555.16436,9.48083,9.48083,0,0,0,1.71789-.78028A13.23476,13.23476,0,0,1,50.8985,36.127a0.93079,0.93079,0,0,0-.14862-0.08633,1.43279,1.43279,0,0,1-.62631-1.64423,0.83438,0.83438,0,0,1,.58443-0.50759,4.36246,4.36246,0,0,1,1.44765.72788c0.60417,0.50275,1.07557,1.16246,1.66553,1.68542,2.00066,1.77354,4.53985,1.70764,6.97608,1.98208,0.96744,0.109,1.943.17676,2.89711,0.35714a4.11952,4.11952,0,0,1,1.118.64965,1.906,1.906,0,0,1-1.96135.82965,4.35713,4.35713,0,0,0-1.93169.36533c-2.17224.86244-4.47591,1.38809-6.673,2.19575-1.54957.56966-3.00852,1.386-4.50731,2.09355a2.37875,2.37875,0,0,1-1.0642.47154,1.92758,1.92758,0,0,1-1.179-.76755c-0.28466-.46489.107-0.80324,0.58268-1.035,1.07475-.52353,2.1231-1.10122,3.18217-1.6569Z"/><path d="M63.46449,36.329a9.33938,9.33938,0,0,1-.93258-0.15283,1.60048,1.60048,0,0,0-1.56639.33005c-0.74981.59723-1.49374,0.60455-2.89919,0.30358,1.75424-1.52779,3.59586-1.11837,5.40662-.91034Z"/><path d="M64.47848,42.92538H60.56027C61.4865,42.25721,62.18548,42.2566,64.47848,42.92538Z"/><path d="M55.76579,31.43978l2.71039-.36695,0.05579,0.331-2.69842.48034Z"/><path d="M58.93047,33.56582l-1.476.39067-0.09165-.33938,1.4656-.4255Z"/><path d="M55.28819,33.04878l1.33278-.36815,0.08029,0.30465-1.33615.35108Z"/><path d="M56.36847,28.94569l0.89178-.22809,0.06394,0.25469-0.907.186Z"/><path d="M46.654,27.40336a3.80776,3.80776,0,0,1-.18219-0.52367,0.52438,0.52438,0,0,1,.23887-0.53072l0.24545,0.95916Z"/><path d="M37.71988,27.33121v0.932l-0.16371.04539-0.27292-.9421Z"/><path d="M77.77323,57.07117c-0.66745.06857-1.34089,0.10226-2.00074,0.21525-0.69582.11916-1.49067-.00991-1.97414,0.76024a2.1896,2.1896,0,0,1-.90693-0.077c0.38124-1.15,2.34418-.50993,1.83036-2.089,1.1705,0.3044,2.15471.56038,3.13888,0.81633Z"/><path d="M38.789,13.58765L39.96416,18.052C38.97835,17.42854,38.5465,16.02954,38.789,13.58765Z"/><path d="M34.32231,15.96784c-1.17983-1.73111-1.35545-2.33183-1.19207-3.73061C34.15914,13.402,34.04813,14.75615,34.32231,15.96784Z"/><path d="M42.65858,16.88792c-0.82753-1.17366-.82753-1.17366-0.77771-2.13354A1.81883,1.81883,0,0,1,42.65858,16.88792Z"/><path d="M32.04745,16.05307c-1.09676-.947-1.09676-0.947-0.83611-2.01209Z"/><path d="M14.58169,36.05636c-1.89829-1.49239-2.32882-2.138-2.58865-3.98667a2.43322,2.43322,0,0,1,.99366.33508c0.61947,0.73349,1.1567,1.53659,1.72246,2.31516C15.05866,35.2009,15.05647,35.20248,14.58169,36.05636Z"/><path d="M15.92672,40.23374c0.87585,1.52741,1.61789,2.82147,2.41136,4.20525A4.97472,4.97472,0,0,1,15.92672,40.23374Z"/><path d="M16.771,57.73934l0.1071,1.60435c-0.34557.22935-.81536,0.53727-1.28116,0.85112-0.88816.59845-1.91347,1.0308-2.40667,2.10273a2.58959,2.58959,0,0,1-1.0069.2721c0.35523-.55366.516-0.81568,0.68829-1.06995,0.22476-.33174.82237-0.563,0.26147-1.10055a0.50308,0.50308,0,0,1,.12442-0.44364c1.15194-.77359,1.942-2.13992,3.54055-2.18689Z"/><path d="M74.02831,65.32593c-0.47072-.04144-0.94144-0.08286-1.66848-0.14683,0.82128-.96811,1.49591-0.67518,2.61241-0.43943-0.50757.31694-.74358,0.4643-0.97977,0.61171Z"/></g><text x="0" y="115" fill="#000000" font-size="5px" font-weight="bold" font-family="'Helvetica Neue', Helvetica, Arial-Unicode, Arial, Sans-serif">Created by Olga</text><text x="0" y="120" fill="#000000" font-size="5px" font-weight="bold" font-family="'Helvetica Neue', Helvetica, Arial-Unicode, Arial, Sans-serif">from the Noun Project</text></svg>