<svg xmlns="http://www.w3.org/2000/svg" data-name="Слой 1" viewBox="0 0 100 125" x="0px" y="0px"><title>sandwich</title><path d="M14.7876,69.49675a9.83211,9.83211,0,0,1-4.402-4.48842,5.26793,5.26793,0,0,1-.65327-3.19263,31.86686,31.86686,0,0,1,.9604-6.40092,24.97305,24.97305,0,0,1,1.92858-4.71525c.27938-.50778.41112-.91438-.08142-1.40523A10.42393,10.42393,0,0,1,9.967,43.61708a32.52868,32.52868,0,0,1-.50782-6.47532A6.65584,6.65584,0,0,1,10.552,33.50032a51.7984,51.7984,0,0,1,6.82956-8.50321c3.84773-3.79628,7.63692-7.65581,11.82109-11.08877,2.306-1.892,4.52644-3.90487,7.61616-4.58072a14.795,14.795,0,0,1,6.27076.01775,59.22279,59.22279,0,0,1,8.154,2.738c2.86263,1.0409,5.67226,2.21635,8.55254,3.21959A65.60053,65.60053,0,0,1,70.7608,20.02594,44.92387,44.92387,0,0,0,77.594,22.78a43.88476,43.88476,0,0,1,10.08722,5.24022,6.5478,6.5478,0,0,1,2.98861,5.64321c-.04617,3.517-.20337,7.08-1.72389,10.26511a6.26718,6.26718,0,0,0,.0009,5.17159c.18848.55451.31336,1.14053.5423,1.66376,1.43923,3.28908.94811,6.68938.56836,10.05676a7.10558,7.10558,0,0,1-1.30906,4.12415c-.23653.27183-.17938.49223-.00155.77544a7.01594,7.01594,0,0,1,.83914,3.38468c.19023,3.035,1.03553,6.00258.789,9.08853a5.70849,5.70849,0,0,1-1.95746,4.15962,18.18492,18.18492,0,0,1-8.14713,4.28439c-2.3359.49133-4.57837,1.41172-6.90805,2.002a62.12465,62.12465,0,0,1-8.16676,1.21638c-3.14277.36509-6.2994.65534-9.45821.82737a138.74624,138.74624,0,0,1-14.44178.20521c-1.98676-.09879-3.96291.25579-5.96918.02378-4.37261-.50558-8.78169-.34665-13.17277-.5391a24.87166,24.87166,0,0,1-7.74127-1.50254,5.31863,5.31863,0,0,1-3.23155-3.73008c-.7721-3.05018-1.32833-6.16378-1.79613-9.27777a4.13208,4.13208,0,0,1,1.08516-3.59021C11.59757,71.10855,12.42272,69.57064,14.7876,69.49675Zm23.39424-2.23907c-.0843.36645-.4751.772-.04626,1.09746a1.71266,1.71266,0,0,0,2.38892-.93553c.0893-.31944.29909-.62376.14042-1.02444-1.01333-.40318-1.69851.27815-2.43653.785-.07433-.21173-.08867-.54328-.23286-.61545a1.67361,1.67361,0,0,0-2.23544.59492c-.27871.43558-.42918.9587-.89969,1.256a4.88775,4.88775,0,0,1,.3275-1.18075c.43572-.76458.11359-1.07127-.60693-1.203a35.8707,35.8707,0,0,0-8.5635-.75469,2.817,2.817,0,0,0-2.83326,1.69268,1.50514,1.50514,0,0,1-.9723.8779c-.16344-.58536.48551-.74643.38811-1.20649a2.29847,2.29847,0,0,0-2.48811,1.29119c.42259-1.441-.39749-1.1747-1.11475-1.04247-.50735-.941-1.60134-.4586-2.32294-.9733-1.29949-.92683-2.63644-1.87629-4.41624-1.28628-.11793.0391-.374-.21856-.56755.02617.41316,1.71516.601,1.84934,2.11243,1.67222.51388-.06021,1.07314-.26647,1.59648.24487-.645.25839-1.49535-.08841-1.86975.72214.41457.59033,1.0559.4362,1.611.46686a3.98815,3.98815,0,0,1,2.80823.98254c.32389-.67646.29308-1.56,1.0901-1.89992-.88862,2.24038-.97737,2.27,1.71851,2.343.11664.00316.23384-.01495.35053-.01235,3.03462.06773,6.03881-.56891,9.07988-.3835,1.17046.07136,2.27308-.03637,2.47771-1.60448.03815,1.27988.03812,1.2901,1.165,1.2933a6.59939,6.59939,0,0,0,1.05231-.12813C36.21053,68.67467,37.42375,68.65145,38.18184,67.25768Zm-.713,22.15547c1.46572.60782,3.00165.18646,4.50117.30094a.50661.50661,0,0,0,.59831-.4912,14.37017,14.37017,0,0,0,.1269-1.57522c-.01216-.6646-.661-.5603-1.04978-.72772-.37914-.16329-.65472.06329-.8132.44186-.10693.2554.14039.6815-.487.83953.41065-1.68241-.64724-2.16533-1.86349-2.68415-1.02292-.43635-.86612.33653-1.07351.80821-.39963-1.69878-.80764-2.02587-2.84188-2.29256-.4565.91514-.10623,1.95582-.46552,2.90008.04891-.70472-.07042-1.39427-.06335-2.0827.00923-.89721.02051-1.23417-1.22423-1.08325-1.024.12417-1.26365.25618-1.37051,1.18187a2.1859,2.1859,0,0,1-.427,1.44683,2.95319,2.95319,0,0,1-.11341-1.59659c.03362-.30861.29793-.7481-.28-.80062a.64044.64044,0,0,0-.70624.6282,22.499,22.499,0,0,0-.11821,3.68644c.062.49623.213.91225.80734.98213a34.2461,34.2461,0,0,0,6.63584.30115c.09106-.007.17181-.14812.25736-.22679Zm37.67349-8.868a7.08289,7.08289,0,0,0-2.38327,2.01235c-.6648.67529-.73707,2.1895-.19072,2.34938,1.38271.40469.73692.99846.32334,1.66346a1.04656,1.04656,0,0,0-.23541.85805c.85695.27138,1.48782-.46332,2.20717-.66607,4.311-1.21491,8.80434-1.9734,12.40719-5.04917,2.08285-1.77823,2.62391-2.929,1.83883-5.71843-.59187,1.12349-.59187,1.12349-1.80165.78821-.50984.3812-.06521,1.10695-.52154,1.51318-.32884-.24976.00809-.90333-.74885-.95262a3.87311,3.87311,0,0,0-.16457,3.11054c.11494.23308.54172.36212.27867.7067-.29035.38034-.62781-.20749-.94839-.00495a20.3614,20.3614,0,0,0-.03588-3.39791c-.21994.03171-.3759.00633-.4337.07005a4.35945,4.35945,0,0,0-.44347,3.27534c.24768.36362.62749.0906.949.01848a2.69114,2.69114,0,0,1-1.44081,1.67608c-.60423.26276-.96663.03257-1.0031-.52575a8.11138,8.11138,0,0,1,.18446-3.14833c.30125.95943-.23976,2.04759.58793,3.20662a11.06438,11.06438,0,0,0,.16839-3.63719c-.03226-.62286-.67551-.523-1.06962-.63122-.41487-.114-.63319.194-.66109.60644-.01945.28729-.02952.57526-.04722.93229-.49315-.43958.00615-1.12543-.57382-1.47066-.61209.09875-.24834.91376-.73482,1.17554a1.87019,1.87019,0,0,1-.0983-.41236c.01671-.37659-.01584-.78916-.48451-.752-.39241.03111-.49576.36229-.43856.7917a4.332,4.332,0,0,1-.03881,2.67889,1.66845,1.66845,0,0,0,.42632,1.78314.55728.55728,0,0,1,.003.93995,3.07748,3.07748,0,0,1-.90953-1.83044q-.15006-1.57614-.29539-3.15285c-.04066-.44109.12227-1.02272-.60029-1.0368-.64889-.01263-1.17522.17823-1.12175.99359.04206.64142.11579,1.28388.10565,1.92475-.00882.55724.1293,1.21888-.61138,1.47423a1.09422,1.09422,0,0,1-.2103-.83289,10.39822,10.39822,0,0,1,.38709-2.601c.058-.21861.08309-.4694-.18558-.5983a.57541.57541,0,0,0-.6418.15213c-.54507.44552-.58467,1.12646-.7869,1.73122ZM63.00081,44.06922c-.55011-.53781-.36009-1.32361-.64951-1.952-.09546-.20726-.11016-.55358-.3411-.55468a17.82342,17.82342,0,0,0-2.08531.13843c-.55529.0629-.75113.48068-.8238.97739l.04024-.03279c-.42268-.02154-.34372-1.18938-.92368-.522-.24328.28-1.28648.2823-.72455,1.04038a5.88105,5.88105,0,0,1,.97838,4.40145c-.09983.88123.03132.91068.99265.82757.66641-.05762,1.16077-.6478,1.74586-.62012,2.57558.12182,5.05616-.763,7.63732-.62992a2.33426,2.33426,0,0,0,2.23388-.71874c.21715-.30952.31659-.25907.40669.05118A.57351.57351,0,0,0,72.18,46.873a7.379,7.379,0,0,0,2.8992-.45278c.76106-.46089.15774-1.63478.28775-2.48484a2.24084,2.24084,0,0,0-.10591-.86385c-.05578-.21539-.20822-.54877-.44732-.42047-1.15125.61777-.9671-.46963-1.097-.91774-.1572-.5423-.333-.83-.92938-.76461-1.10846.12161-2.22065-.0928-3.339.09918-1.86517.32015-1.87569.28054-1.98415,2.13789-.01084.1855-.01508.23457-.18179.09941.08218-.50664-.22528-.96924-.33179-1.48246-.06282-.30263-.187-.59761-.563-.48046-.26751.08336-.26363.37859-.19241.59981.21783.67656.26361,1.23031-.54958,1.5949-.19958.08949-.20557.61076-.31829.99377-.4781-3.19238-.4781-3.19238-1.87595-3.05706a6.95914,6.95914,0,0,1,.55125,2.68988c-.01413.39111-.18579.69808-.63135.66667-.53856-.03795-.366-.48387-.40778-.799.3119.12289.62524.10127.62251-.28756a1.26736,1.26736,0,0,0-.58531-1.1136Zm22.0477,14.87763.002.00237c-.00372-.10616.02424-.29073-.01582-.3069-.87745-.35436-1.5404-.18933-1.83342.80335-.43021-1.17848-1.19288-.62656-1.86421-.32125-.14184.0645-.14629.513-.41377.42106-.322-.11056.07989-.39118-.02171-.58844-.354-.68733-1.14526-.1554-1.53809-.50485-.64585-.57448-1.01388-.248-1.109.32578-.32951,1.98746-2.17049,2.632-3.39471,3.73816a6.238,6.238,0,0,1-4.39743,1.40228,17.69688,17.69688,0,0,0-3.4896.24891c-1.087.188-2.31454-.93982-3.27173.34973-.01366.01838-.10568-.02119-.16107-.034-2.30046-.53243-2.29694-.52536-3.838.24413A30.94819,30.94819,0,0,1,56.45518,66.047c-1.30042.47476-2.74416.49335-3.97071,1.20765a17.1768,17.1768,0,0,0,4.06635.05633c2.08681-.242,4.179-.45449,6.27451-.59826,1.20219-.08248,2.37323-.08838,2.75631-1.66261.3293.51694-.26373,1.0854.36894,1.22174.49893.10747,1.09012.10469,1.31882-.5519a3.9341,3.9341,0,0,0,.11361-.67708c.25394.21268.01779.53643.16558.761a.42224.42224,0,0,0,.61547.12171c.39044-.35477.75143-.18589,1.18908-.19959,1.28632-.04026,2.579-.00379,3.8643-.08086,1.28919-.0773,2.54986-.3886,3.84572-.50363,1.27862-.11346,2.55433-.2521,3.843-.31679a10.23,10.23,0,0,0,5.2683-1.46042,8.08222,8.08222,0,0,1,1.22735-.656,3.11863,3.11863,0,0,0,1.7255-3.59633c-.09161-.40925-.915.12757-.64058-.59056a2.74049,2.74049,0,0,1,.69348-1.18118c.37734-.33989.28265-.82279-.178-1.33081C87.957,57.44871,86.16848,57.71738,85.04851,58.94685ZM54.73125,43.06953c-.36719-.12031-.46568-.45281-.66114-.7392-.41517-.60832-.73225-.51143-.99912.23407-.05893.16462.08429.41039-.18464.5217-.28038-.87792-.30051-.89627-.86755-.27419-.15237.16715-.247.20413-.36445.0726-.39377-.441-1.08011.07744-1.51147-.5972-.32811-.51315-2.48925-.35632-2.995.0096-.53212.38506-.60922,1.79861-.11737,2.85345a4.20259,4.20259,0,0,1,.74533-2.11586,12.9168,12.9168,0,0,0-.08774,4.68788c-1.364.1289-.978-1.253-1.659-1.714-.46045-.31169.06334-.59731.0988-.89909.06806-.579.19148-1.15147.2658-1.73.04305-.33514.16547-.7604-.23872-.92877a.76875.76875,0,0,0-1.05353.36121c-.07841.1523-.05205.36787-.14853.49971-.26523.36248-.676-.05112-.65567-.07867.47909-.64983.02115-.69871-.42428-.62913-.68634.10719-1.407-.17791-2.0921.1805.03943.35865.06809.70418.11748,1.04673.05868.407.14718.80982.19916,1.21746.02814.22063.0569.52714-.2661.51387-.25042-.01029-.62.0145-.64987-.40942-.04128-.58533-.07427-1.17131-.12346-1.756-.01825-.21695.1362-.51423-.14947-.62917-.46846-.18856-.94258.44365-1.51216-.08339-.22732-.21031-.3363.47045-.475.76652-.07831.16716.111.41054-.15732.50981-.07464-.23836.06125-.6064-.48032-.64595a9.40806,9.40806,0,0,0-.11641,2.2314c-.09094.83308,1.25755.73513.944,1.634-.68.10931-1.328.02924-1.15739-.88058.24843-1.32525-.38206-2.53566-.29064-3.83126a15.36238,15.36238,0,0,0-1.80352-.08346c-.72962.04989-1.44633.448-2.18438.03824a6.355,6.355,0,0,0-.45284,2.5315c-.00365.06762-.06337.13222-.1076.21895-.08325-.77835-.17149-1.52722-.23991-2.27791a.61037.61037,0,0,0-.50779-.61963c-.34654-.06811-.87716-.14732-.94743.2006-.19669.97369-1.4427,1.61815-.86378,2.83145a.79864.79864,0,0,1-.19876.812c-.4508-.23961-.38767-.68134-.40874-1.07491-.04083-.76281-.04909-1.52735-.08665-2.2904-.01367-.2777.04275-.632-.33042-.72262-.42728-.10379-.63638.16186-.75164.54048a2.75085,2.75085,0,0,1-.19315.40031c-.35863-.24271.024-1.07166-.84988-.89517,0,.48237.02567.94375-.00679,1.401a4.29959,4.29959,0,0,1-.20281,1.687c-.14038-.9686-.27063-1.81745-.38417-2.66855-.07429-.55689-.44411-.63774-.89235-.56508a5.54881,5.54881,0,0,1-2.02917-.0139,4.15084,4.15084,0,0,0-1.97305-.29189c-.38207.53523.211,1.12011-.26745,1.55943-.63674-1.71132-.63638-1.71855-2.7394-1.824-.40739-.02047-.81927.06566-1.22835.05881-1.95445-.03277-3.92769.08532-5.78345-.746-.41477-.18582-.79789-.5335-1.4603-.33463.04192,2.56952,1.11768,4.88942,1.96271,7.26558a.58345.58345,0,0,0,.23943.25434A7.173,7.173,0,0,0,17.457,49.33213a13.95409,13.95409,0,0,0-.18075-1.99511c-.24223-1.02419.37168-1.02843,1.21781-1.09318-.188,1.19121.34471,2.30619-.31012,3.47446,1.76226.12751,3.3048.96439,4.95888.71549a35.99171,35.99171,0,0,1,5.24662-.0244,4.22313,4.22313,0,0,0,1.39824-.08958c2.48277-.92125,5.10569-.57445,7.65263-.83049,3.48382-.35023,7.00738-.3045,10.5138-.4311.57737-.02085,1.19708.06519,1.40034-.73.0707-.27653.3752-.33259.44841-.01021.22789,1.00345,1.04866.71128,1.55862.59823a20.04659,20.04659,0,0,1,3.67745-.181,9.44936,9.44936,0,0,0,1.57713-.14444c.95018-.19924,1.27332-.68976,1.18021-1.72514-.13466-1.49733-.84788-2.87268-.93176-4.39163a.45073.45073,0,0,0-.80166-.2447c-.20409.19032-.29079.17139-.548.03609-1.08912-.57282-1.01448.07317-.79267.82084ZM87.08748,31.105c-.047-1.8251-.15714-2.15467-1.29694-2.8224-1.71592-1.00527-3.47985-1.93014-5.222-2.88823-4.04744-2.22593-8.5438-3.43692-12.65364-5.59747-4.77315-2.50925-10.015-3.95117-15.12015-5.6755-1.03193-.34854-1.98342-.5492-2.83513.53827-.43662.5575-1.23584.29021-1.76244-.121-.59968-.46832-.16638-.93145.1571-1.35515.0985-.129.25635-.23554.15561-.45933a10.01714,10.01714,0,0,0-4.45146-1.94016c-4.03108-1.08881-7.86813-.8282-11.35092,1.81093a72.391,72.391,0,0,0-8.2758,7.09692c-.85971.88322-1.74555,1.74415-2.66026,2.57006a54.53628,54.53628,0,0,0-7.462,7.94863,29.41685,29.41685,0,0,0-3.18723,4.635,3.15277,3.15277,0,0,0,1.76948,4.7062,13.19449,13.19449,0,0,0,4.31583.66633c5.38637.35042,10.77911.60909,16.16214,1.0024,2.80858.20523,5.6238-.03444,8.43.30745a14.79339,14.79339,0,0,0,6.10149-.47946,6.12315,6.12315,0,0,1,2.231-.31892,47.84057,47.84057,0,0,0,10.66868-.191c3.26844-.39831,6.55309-.33446,9.82412-.60573,2.15816-.179,4.35427.07677,6.50789-.129,3.4174-.32655,6.53909-1.79229,9.73754-2.92444a4.49866,4.49866,0,0,0,1.73331-1.178c.79147-.86346,1.59119-1.83876,1.15717-3.13965a6.48521,6.48521,0,0,0-1.36049-2.496ZM57.55756,58.97025a6.95058,6.95058,0,0,0-1.18783.00844,41.76691,41.76691,0,0,1-7.518.71982,31.05914,31.05914,0,0,1-6.98688-.60879,46.20457,46.20457,0,0,1-9.36765-2.97509c-2.69385-1.133-5.51085-2.04955-7.57058-4.29646a1.17889,1.17889,0,0,0-1.12817-.33965,12.80538,12.80538,0,0,1-3.33891-.08371A2.44962,2.44962,0,0,0,18.015,52.67534,21.151,21.151,0,0,0,14.838,60.44775a3.83294,3.83294,0,0,0,2.32351,4.43334c2.03419.65693,4.02584,1.20929,6.12918.16753a7.82659,7.82659,0,0,1,3.89918-.91684,51.3664,51.3664,0,0,1,8.34961,1.17516,9.72131,9.72131,0,0,0,6.81442-.89706,10.2095,10.2095,0,0,1,4.15519-1.3461c2.80307-.16171,5.31553-1.37979,7.95055-2.144A7.60464,7.60464,0,0,0,57.55756,58.97025ZM87.2055,64.73383c-1.01989.06352-1.78188.77946-2.70479.88592a2.91163,2.91163,0,0,0-2.04153,1.21248c-3.89624,4.877-8.99032,8.22261-14.41626,11.093A21.92875,21.92875,0,0,1,56.44612,80.154a4.47153,4.47153,0,0,0-1.87583.36465A27.22494,27.22494,0,0,1,48.642,82.09938a29.23844,29.23844,0,0,1-7.01134.1598c-5.3818-.5345-9.98492-2.81529-14.23961-5.93764a23.40032,23.40032,0,0,0-2.71141-1.92764,15.51063,15.51063,0,0,1-3.54574-2.85713c-.32944-.325-.55183-.75641-.86946-1.09587a1.00007,1.00007,0,0,0-1.2912-.17005c-.46895.2926-.166.72947.02017,1.08872a28.20648,28.20648,0,0,0,3.46417,5.68435c1.53293,1.77513,1.45322,2.21268-.19705,3.95679a2.84278,2.84278,0,0,0-.25543.48426,2.69448,2.69448,0,0,0,.66742.45371c2.26542.732,4.45837,1.89925,6.97993,1.08325a13.916,13.916,0,0,1,2.24635-.41511,7.07459,7.07459,0,0,1,4.44644.6039c1.14086.59584,2.293,1.17049,3.44668,1.74126a14.47452,14.47452,0,0,0,1.6026.72023c.87559.30723,1.90371,1.133,2.64891.60356,1.04845-.745,1.80153.19275,2.73741.0205a20.16887,20.16887,0,0,0,6.64633-2.17877,7.97867,7.97867,0,0,1,6.04778-1.20044,6.625,6.625,0,0,0,2.62558.12223,13.99281,13.99281,0,0,1,3.30728.09853c3.56413.19271,6.79315-.56138,8.89337-3.83839.50707-.79123,1.0055-1.58815,1.52169-2.37334a9.35767,9.35767,0,0,1,3.86171-3.51027A9.48315,9.48315,0,0,0,83.19389,70.841c.59568-.72357,1.2788-1.37529,1.92507-2.057a3.49533,3.49533,0,0,1,1.5847-1.06266c1.34888-.38585,1.33487-.41071,1.026-1.74628A2.988,2.988,0,0,0,87.2055,64.73383ZM33.024,50.87l-.03263.4501c7.36653,3.13,15.03154,5.14987,23.09084,3.97482C62.88754,54.30273,69.51439,52.40357,75.097,47.93a20.26508,20.26508,0,0,0-6.54464.40953c-.484.11188-.98376.65534-.03347,1.03837.32831.13233.28333.31428.03015.47735-.614.39548-1.38019.18782-1.31583-.43276.139-1.34041-.69506-1.11181-1.414-1.01-2.72093.385-5.42684.84814-8.172,1.08975-1.69593.14928-3.39964.13759-5.08383.32649-5.078.56954-10.198.0937-15.27323.67692C35.87278,50.66853,34.44625,50.7508,33.024,50.87Zm47.52868-3.08867a6.31731,6.31731,0,0,0-5.12639,1.24A45.77055,45.77055,0,0,1,71.439,51.5902a20.44491,20.44491,0,0,1-2.52486,1.246,59.234,59.234,0,0,1-8.894,2.77139,31.8763,31.8763,0,0,1-8.88177,1.01949,49.76435,49.76435,0,0,1-8.69518-1.13689,65.93621,65.93621,0,0,1-11.37183-3.699c-1.48876-.60489-2.94034-.24549-4.71981-.41039a7.3587,7.3587,0,0,0,3.47267,2.56454c3.43023,1.35707,6.71782,3.0867,10.40351,3.78235,4.91835.92834,9.81634,1.79268,14.80262.4787a13.08369,13.08369,0,0,1,2.25329-.37209A30.8152,30.8152,0,0,0,66.452,55.53122c1.141-.46679,2.2662-.9632,3.44622-1.32588a18.1638,18.1638,0,0,0,4.04451-1.7103A38.27173,38.27173,0,0,0,80.55265,47.78136Zm-33.305,16.43122c1.53434.97617,3.06414,2.10428,4.949,1.76117A21.15745,21.15745,0,0,0,59.394,63.773a6.82,6.82,0,0,1,4.3666-.93655,37.61836,37.61836,0,0,0,5.44156.2562,9.49657,9.49657,0,0,0,6.25121-2.42112,3.2407,3.2407,0,0,0,1.25337-1.8245,3.96963,3.96963,0,0,0-.63748.05222c-2.85147.793-5.56928.67656-8.02907-1.17717a3.80325,3.80325,0,0,0-3.1809-.44258c-1.435.27276-2.83523.72449-4.25847,1.06567a3.15664,3.15664,0,0,0-1.79583.95919,8.39183,8.39183,0,0,1-3.63458,2.39644C52.57828,62.57358,50.09722,63.814,47.24763,64.21258ZM25.57226,70.03911a12.41158,12.41158,0,0,0,4.01163,3.87135,36.36913,36.36913,0,0,0,11.7084,4.6114,15.64957,15.64957,0,0,0,4.71062.43785,31.28735,31.28735,0,0,1,4.74339-.23631,3.59087,3.59087,0,0,0,1.68826-.42876c2.1677-1.006,4.30781-1.971,5.81767-4.02275a41.39947,41.39947,0,0,1,3.49469-3.46245,4.978,4.978,0,0,0,1.60516-2.751.78745.78745,0,0,0-.71-.26975c-1.81428-.05353-1.8946.00819-2.644,1.61885a11.58614,11.58614,0,0,1-1.12724,2.18355,13.88775,13.88775,0,0,1-7.06334,5.00213,8.44089,8.44089,0,0,1-5.84486.14816c-1.65894-.65974-2.5075-1.6429-2.36146-3.05578a3.58566,3.58566,0,0,1,3.08114-3.13629,14.84574,14.84574,0,0,0,1.58007-.0878c.94-.20872,1.97292-.34831,2.363-1.60523-1.202.08147-2.30764.09849-3.39565.2459-1.16376.15769-2.33638.01381-3.50354.27378-1.424.3172-1.44123.24-1.50008,1.65944A5.43617,5.43617,0,0,1,34.92829,75.578c-2.23822-.95723-4.34972-2.12673-5.60055-4.33249C28.4142,69.63449,27.11813,69.63819,25.57226,70.03911ZM67.98678,56.07788a6.85715,6.85715,0,0,0,10.08653.50065c1.47488-1.26312,3.00669-2.2557,5.07515-1.908a2.14018,2.14018,0,0,0,.87522-.0595c1.61984-.42944,3.16662-1.05884,3.9613-2.6427.53894-1.07413-.32026-3.46915-1.44954-4.25889-.41671-.29141-.773-.85223-1.31847-.80036-.92309.0878-2.09913.03412-2.68494.56943-.91531.83645-2.01671,1.36332-2.92642,2.18906a21.32212,21.32212,0,0,1-7.84126,4.87806C70.54658,54.9305,69.388,55.5025,67.98678,56.07788ZM78.12713,66.54241a1.0284,1.0284,0,0,0-1.08749-.16781c-3.41246.59181-6.89893.25919-10.32117.89984a2.43908,2.43908,0,0,0-2.26835,2.04481,14.48068,14.48068,0,0,1-1.96593,4.66768c-.17293.31555-.62979.58176-.29537,1.12689A21.19386,21.19386,0,0,0,78.12713,66.54241ZM18.86771,80.77693a3.406,3.406,0,0,0,2.458-.81031c.966-.688,1.0984-1.04508.40143-2.01316a65.72382,65.72382,0,0,1-4.12766-6.88677c-.61408-1.1186-.61831-1.10141-1.91483-.677-.55426.18141-1.13751.27328-1.69439.4479a4.87452,4.87452,0,0,0-2.18364,7.89257c.352.39706.70261.89179,1.22672.95111A50.33282,50.33282,0,0,1,18.86771,80.77693Zm37.3364-12.23569c-.21415.34532.01063.61194.01352.89063.004.38441.25353.8632-.26564,1.081-.53237.2233-.89249-.05437-1.126-.53824a5.2106,5.2106,0,0,1-.45817-.9397c-.10743-.43475-.35469-.516-.74908-.55379-1.23919-.11874-1.59919-.017-2.03843,1.08893a3.05344,3.05344,0,0,1-2.68216,1.95509c-.63693.09045-1.29129.06792-1.92385.17714a2.804,2.804,0,0,0-2.19258,1.81963,1.10621,1.10621,0,0,0,.54444,1.6149,6.27579,6.27579,0,0,0,3.512.91681,13.0079,13.0079,0,0,0,10.13824-6.41883c.2377-.40684.60818-.87057.275-1.46075A6.21525,6.21525,0,0,0,56.20411,68.54124ZM18.43587,84.08381a.43469.43469,0,0,1-.21626-.58327c.3785-1.195-.77822-1.01466-1.20983-1.13822-.84076-.24079-.57668.60381-.67279,1.05529-.0352.16526-.04127.33678-.06063.50545-.11839-.82311-1.41029-.88713-1.14583-1.88344.0418-.15742-.59519-.27633-.86927.037a1.68953,1.68953,0,0,0-.254,1.34309c.1069,1.2168.69487,2.34938.63049,3.60341-.0182.3545.32758.41494.59533.53407a19.07546,19.07546,0,0,0,6.97675,1.42309c.46.02163.81236-.11516.8286-.65556.04206-1.40013.08924-2.80021.11328-4.20068.00907-.52885-.25483-1.02242-.8001-.93418-.7976.129-1.296-.69976-1.9973-.53816-.71729.1654-1.05272.91053-1.595,1.35562C18.68286,84.07011,18.54649,84.05994,18.43587,84.08381ZM30.0248,70.01642a3.59885,3.59885,0,0,0,1.31335,1.94985,21.90542,21.90542,0,0,0,3.85635,2.43357,4.917,4.917,0,0,0,6.27009-3.2104c.26667-1.26886-.1236-1.74435-1.41673-1.73-2.5816.02865-5.16318.06314-7.74487.07957A4.05164,4.05164,0,0,0,30.0248,70.01642ZM81.34765,66.207A4.7803,4.7803,0,0,0,78.604,67.88245a32.65787,32.65787,0,0,1-5.13129,4.53409A24.16542,24.16542,0,0,1,63.12829,76.1119a6.57453,6.57453,0,0,0-5.06655,2.979c2.85508-.21275,5.52037-.27543,8.023-1.3704A47.248,47.248,0,0,0,78.6166,69.39925,12.287,12.287,0,0,0,81.34765,66.207ZM50.78678,80.00651c-1.63761.09819-3.264-.04941-4.88591.02336a26.01952,26.01952,0,0,1-12.02325-2.58756A37.92728,37.92728,0,0,1,23.97,70.836c-.54751-.49809-1.18642-1.1561-1.76389-.463-.52873.6346.35312,1.14811.80344,1.51161,1.00173.80859,2.15641,1.43127,3.13753,2.26123,2.90718,2.45921,6.3696,3.93637,9.75109,5.52542,3.03406,1.42576,6.3607,1.51973,9.652,1.50314A10.00013,10.00013,0,0,0,50.78678,80.00651Zm5.36129,3.99285a3.28519,3.28519,0,0,0-1.117,3.63242c.22976.75309.33,1.34282-.74382,1.14929-.53484-.09646-.6628.27393-.63994.5572.02881.35716.42676.29809.71622.272,1.63032-.14687,3.28091-.18543,4.88324-.48331.99192-.18436,1.975-.16906,2.95768-.28285.427-.04941.8771-.14234.667-.74086a13.13631,13.13631,0,0,1-.24494-3.31838c-.03006-.33027.07824-.78567-.44243-.767-.41083.01469-.55925.37094-.57254.75551-.01622.46965.01379.94387-.04082,1.40857-.08952.76176.36155,1.40991.42127,2.13767-1.11608-1.233-.55563-2.83295-.87032-4.28387-.42744,0-.77193.00654-1.11611-.001-3.23676-.07156-3.23675-.07225-3.601,3.33565ZM82.20593,39.84273c-.49466.1481-.9475.25523-1.377.42232-.28389.11045-.51523.36113-.31872.68047a6.79486,6.79486,0,0,1,.80265,3.86947c-.02125,1.03338.54575,1.483,1.55094,1.29929A12.463,12.463,0,0,0,86.37594,45.04a2.73908,2.73908,0,0,0,1.24364-1.19981,14.99582,14.99582,0,0,0,1.37233-6.738c-.47775-.02021-.64172.20225-.68313.51872A2.88156,2.88156,0,0,0,88.229,38.8375c.31748.9017-.85176.78906-.871,1.4235a4.06056,4.06056,0,0,1-.75058,2.44859,14.2343,14.2343,0,0,0,.2856-4.33217,6.19575,6.19575,0,0,0-.83666,2.263c-.22779.69474.10048,1.52188-.44983,2.30326-.378-1.53155.42181-2.89286.01993-4.28472-.61756,1.64146-.42042,3.43843-1.11259,5.05083-.26734-1.55163.363-3.13969-.16-4.75624-.80518.42058-.53387,1.0128-.59172,1.49159-.12059.998-.1077.99958-1.34136,1.10292C82.286,41.03987,82.62765,40.49585,82.20593,39.84273ZM77.75087,76.31284a2.64983,2.64983,0,0,0,1.9439.53518c2.6092.05515,4.9078-1.02409,7.23961-1.98037.65359-.26807.83488-.95878,1.24343-1.44434.36774-.43712.15382-.86933-.16548-1.268a.42332.42332,0,0,1,.06837-.63052c.95318-.56461.23745-1.38064.31974-2.06493.07439-.61868-.36975-.81753-.93062-.65063a5.25475,5.25475,0,0,0-2.61649,1.70719c-.52065.63223-1.00914,1.291-1.513,1.93916.50055.34519.96238.68059,1.44154.98907.437.28125.373.694.00118.786-.9326.2305-1.94.88089-2.82151-.13132a.4071.4071,0,0,0-.5924-.11154C80.179,74.69385,78.74384,75.01917,77.75087,76.31284ZM28.2486,85.53955c-.43588-1.35114-.52238-1.38117-1.41957-.682-.11942.0931-.30141.773-.465.131-.29414-1.15455-1.42116-.65176-2.03743-1.172-.46391-.39155-.91806-.04442-.93.54591-.02708,1.344.0193,2.68948.02134,4.03433.00081.53148.31144.735.77.74875,1.407.04205,2.815.05338,4.22212.09315.739.02085,1.056-.31373,1.05021-1.05124-.00877-1.11121.026-2.22289.04722-3.33423.00468-.24514-.02083-.47866-.3022-.5382a.53247.53247,0,0,0-.59014.274A8.41078,8.41078,0,0,0,28.2486,85.53955Zm17.91477,3.50773c-.08773-.07363-.13369-.1059-.17211-.14549-.3249-.3345-.09118-.901-.2946-1.13865-.59529-.69563-.644.13683-.881.4229a1.729,1.729,0,0,1-.111-.242c-.18528-.64306-.71635-.576-1.14893-.46233-.64957.17079-.34059.77016-.38822,1.19156-.09751.86288.13779,1.181,1.16687,1.11306,2.39516-.1582,4.80536-.08229,7.209-.12425.43456-.00754.92235.152,1.28482-.19555.06524-.74462-.63687-1.37687-.22871-2.14035.48041.28771.17762.998.77167,1.13077.85241-1.35493.85354-1.35959.80458-3.36486-.91573.39865-1.78248.83965-2.69268,1.15545a2.80389,2.80389,0,0,0-1.98391,2.45985c-.13468-.53975-.17482-.69765-.2134-.85589-.06305-.25868.0329-.65091-.41677-.61239-.2791.02387-.29576.29921-.362.52415-.0676.22964.14478.56181-.47064.801.752-1.90321-.74517-1.04426-1.22615-1.0692C45.67657,87.43613,46.46757,88.53735,46.16337,89.04728ZM50.72,67.38413c-1.69939-1.10837-3.79678-1.49726-5.22019-3.00482-.05094-.05394-.22771-.02651-.3287.01017-.84457.30686-1.874.25484-2.28931,1.35379-.30134.79731-.29322-.02736-.36158-.11833-.22908-.30488-.43941-.13679-.56287.0436a11.03841,11.03841,0,0,0-.90551,1.49681c-.4838,1.02547-.344,1.17823.7569,1.2066,2.5879.06669,5.11518-.52323,7.68275-.66909C49.87135,67.68128,50.3077,67.84883,50.72,67.38413ZM75.97965,46.3766c1.78131.48686,2.018.19745,2.1521-1.39791A9.08488,9.08488,0,0,0,77.92589,42.01c-.06657-.26921-.09067-.61231.34108-.64533a.45976.45976,0,0,1,.50354.39391c.13266,1.31067.665,2.63783-.09313,3.92629-.20484.34813-.26767.68326.19927.82492a.54525.54525,0,0,0,.77459-.46843,13.65307,13.65307,0,0,0,.11088-5.35291c-.3052,0-.53844-.00094-.77168.00016-1.32473.00622-1.322.00685-1.55745,1.40658-.06466.38442-.07422.81512-.63683.93153,0-.47939-.00043-.939.00014-1.39855.0005-.40147-.15754-.70338-.5895-.70943-.46156-.00651-.5725.312-.52182.71275.08083.63921.12807,1.28559.25712,1.91508A7.01131,7.01131,0,0,1,75.97965,46.3766ZM11.88775,56.552c.8031-.88448,1.64941-1.12709,2.40074-.67878.226.13489.25953.772.65846.20271.188-.26835.5709-.65377.31432-.9193a2.14807,2.14807,0,0,0-1.65769-.84644c-.6559.03572-1.395.03637-1.66884.7176a13.94772,13.94772,0,0,0-1.15956,4.90474c-.00613.28848.00318.71951.334.6967.91161-.06284,1.91393.2571,2.77795-.43213-.50534-.5759-1.40745.02934-1.71851-.77111,1.79581-.15238,1.79581-.15238,2.29267-1.40764.37226-.94052.27042-1.12209-.68018-1.26188A6.2841,6.2841,0,0,1,11.88775,56.552Zm70.34269,1.30942a9.91341,9.91341,0,0,0,5.34554-2.1396,6.01471,6.01471,0,0,0,1.24013-1.46458.56535.56535,0,0,0,.03156-.47508c-.14373-.255-.39921-.18584-.6089-.0654-.20183.11592-.3817.26949-.57522.40059a7.34883,7.34883,0,0,1-4.88446,1.59144,3.73916,3.73916,0,0,0-2.04139.40206c-.406.2094-1.05558.33155-1.03882.82231.02331.68309.774.53066,1.23324.66993A11.99915,11.99915,0,0,0,82.23044,57.86139ZM71.444,83.46689c-1.33543.01112-2.253.39008-2.16182,1.88663-.511-.30542-.07547-1.01031-.7247-1.19216a4.02711,4.02711,0,0,0-.61865,2.8442c.0023.35444.15852.88329.64753.885a20.20787,20.20787,0,0,0,2.734-.18116c.40852-.0545.67932-.309.5726-.87223C71.68912,85.76109,71.59662,84.664,71.444,83.46689ZM53.58313,79.32541c3.88452-.82871,8.80445-5.39272,9.44365-8.67439C59.95493,73.56984,57.52044,77.07675,53.58313,79.32541ZM13.97205,63.73048c-.21916-2.18447-.21876-2.17979-2.05624-2.02-.338.02938-.68073.00415-1.01573.00415-.32549,1.73778-.32513,1.73211,1.35736,1.83831C12.77621,63.58574,13.29244,63.65876,13.97205,63.73048Zm-.111,22.795c.10493-1.74592-.51625-3.18874-.365-4.69283.0529-.52613-.5-.74332-1.0213-.69549-.31947.02934-.61454.2454-.52874.56848C12.3684,83.29637,12.40175,85.04875,13.861,86.52552Zm49.09053-.23131a2.56011,2.56011,0,0,0,.77616,2.05969.74322.74322,0,0,0,.8104.12421c.16582-.05377.34975-.17346.28607-.37737a19.05576,19.05576,0,0,1-.40911-3.30127c-.05857-.44777-.42268-.54906-.76483-.58939-.46046-.05428-.572.29069-.60044.66745C63.01885,85.287,62.99272,85.697,62.95156,86.29421Zm4.49391,1.6616c-.65071-.17066-1.04967-.48353-.97458-1.19273a14.32673,14.32673,0,0,0,.04333-1.75586c-.00367-.20883.0549-.489-.25263-.58249-.39121-.119-.50487.197-.63941.43682-.59734,1.06468-.13967,2.17033-.08745,3.25664.01109.23088.29438.35815.547.33045A2.2363,2.2363,0,0,0,67.44547,87.95581ZM15.33372,52.32649a4.50221,4.50221,0,0,0-2.18925.14308c-.46376.18976-.79534.89172-.574,1.12814.51126.54592.41727-.332.68712-.481a2.69254,2.69254,0,0,1,1.01-.16425C14.63479,52.895,15.10969,53.05389,15.33372,52.32649Zm.33034-.64005a7.03648,7.03648,0,0,0,.99018.36061c.55112.099.83363-.28454,1.063-.69752a.32532.32532,0,0,0-.04757-.30983.953.953,0,0,0-1.13044-.07126A9.91848,9.91848,0,0,0,15.66406,51.68644ZM67.52288,84.48806a2.44074,2.44074,0,0,0-.48451,2.44184C67.81924,86.128,67.37993,85.25464,67.52288,84.48806Zm13.25988-40.014c-.17818.58923-.83035,1.11687-.336,1.84681a.3154.3154,0,0,0,.29847-.00892A1.55874,1.55874,0,0,0,80.78276,44.4741ZM14.6275,53.47245c.40733.38792.57485.91638,1.0843.70431.20968-.08729.47586-.49443.28756-.72331C15.6747,53.05876,15.21382,53.2457,14.6275,53.47245Zm1.00521-2.98521c-.9027-.0382-1.55129-.43338-1.97243.49412A1.77027,1.77027,0,0,0,15.63271,50.48724Z"/><path d="M74.42311,30.24646c.72352-.01689,1.33018.06422,1.55691.72465.22846.66544-.18254,1.11582-.71894,1.42836a6.5402,6.5402,0,0,1-1.26375.59688c-.51691.16661-1.081.20308-1.36817-.39738a1.22793,1.22793,0,0,1,.313-1.71511A2.39464,2.39464,0,0,1,74.42311,30.24646Z"/><path d="M43.09208,39.85432a1.0404,1.0404,0,0,1-1.04248-.48275c-.23009-.44885.10536-.76249.36013-1.08327a2.5356,2.5356,0,0,1,2.74813-1.12168c.49343.12072.89741.32935.98178.87039a.83938.83938,0,0,1-.727,1.03024C44.59988,39.214,44.0031,39.96112,43.09208,39.85432Zm.351-1.25291c.581.214.70443-.18449,1.06993-.36025C43.8923,37.97969,43.735,38.32016,43.443,38.60141Z"/><path d="M48.08381,31.87575c-.05217.65543-2.20268,2.44458-2.84806,2.37108a.86543.86543,0,0,1-.80552-.97183c.00016-1.0339,1.99038-2.43737,2.99132-2.12088C47.76006,31.26114,48.06748,31.44832,48.08381,31.87575Z"/><path d="M60.54816,23.105a1.31474,1.31474,0,0,1,.01189-.17438c.14243-.71271,2.06846-2.09153,2.73928-1.9499a1.08451,1.08451,0,0,1,.93813.69791c.161.5203-.2249.74629-.57475.95473a5.831,5.831,0,0,1-2.26875.90618C61.03857,23.58209,60.67641,23.54737,60.54816,23.105Z"/><path d="M19.35873,28.49473c.79561.03085,1.10083.50091.672,1.11744a2.95517,2.95517,0,0,1-1.9361,1.36824.9541.9541,0,0,1-1.14627-.57346.9361.9361,0,0,1,.35393-1.08945A3.2513,3.2513,0,0,1,19.35873,28.49473Z"/><path d="M44.28971,21.56607c.93224.00646,1.41974.4382,1.37113,1.2143a1.67332,1.67332,0,0,1-1.34908,1.41538c-.45158-.00943-1.72292-1.21329-1.69363-1.60376C42.6573,22.06973,43.487,21.56051,44.28971,21.56607Z"/><path d="M54.98842,26.00858c.82975-.04009,1.34847-.06747,1.546.47837.19915.5504-.26343.86032-.60977,1.15385a4.34815,4.34815,0,0,1-1.02727.65723c-.78483.34866-1.35148.15795-1.61086-.48051a1.32433,1.32433,0,0,1,.8373-1.68792A3.454,3.454,0,0,1,54.98842,26.00858Zm.05371,1.0686c.125-.12792.10063-.21327-.07391-.25219a.55443.55443,0,0,0-.61485.19433.18023.18023,0,0,0,.08832.29587C54.69905,27.40313,54.87091,27.231,55.04213,27.07718Z"/><path d="M49.3116,25.4129c-1.005-.00159-1.282-.35518-1.05193-1.20745a3.33424,3.33424,0,0,1,.1986-.48308c.468-1.0427,1.17861-1.68221,1.55134-1.35461a2.55737,2.55737,0,0,1,.63344,2.09882C50.61765,25.24512,49.87168,25.38417,49.3116,25.4129Z"/><path d="M43.15234,16.96227c-.00574.54828-.97335,1.20332-1.74294,1.17991a1.60821,1.60821,0,0,1-1.31324-1.41665c.08958-.8411.79154-.94982,1.42578-1.01018A1.49276,1.49276,0,0,1,43.15234,16.96227Z"/><path d="M83.37118,29.29817a2.17423,2.17423,0,0,1,1.25834.457.49623.49623,0,0,1,.16193.6131,3.22114,3.22114,0,0,1-2.33317,1.28561.71917.71917,0,0,1-.6457-.6981A2.2025,2.2025,0,0,1,83.37118,29.29817Z"/><path d="M54.14263,35.25009a.581.581,0,0,1-.30989.58346,3.27853,3.27853,0,0,1-.9303.46968c-.57434.15355-1.25477.646-1.64764-.268-.17014-.39585.68551-1.56093,1.23029-1.7368a1.55427,1.55427,0,0,1,1.61728.784A1.48817,1.48817,0,0,1,54.14263,35.25009Z"/><path d="M70.79676,24.6245A1.35225,1.35225,0,0,1,69.48924,25.786a1.12618,1.12618,0,0,1-1.18686-1.03328,1.63554,1.63554,0,0,1,1.29781-1.44437A1.43983,1.43983,0,0,1,70.79676,24.6245Z"/><path d="M32.42857,18.74477c-.593.01482-1.21688.003-1.32771-.74524-.09536-.64371.54195-1.14273,1.401-1.19641.86283-.0539,1.472.29952,1.45551.84452C33.9396,18.2364,33.26631,18.71969,32.42857,18.74477Z"/><path d="M56.32137,19.254c.39565.00317.74694-.038.79408.34055a.74523.74523,0,0,1-.24185.61271,12.21647,12.21647,0,0,1-1.84061.95256c-.468.18627-.68622-.15941-.89254-.57047-.28752-.57282.07819-.69651.45374-.86824A3.44884,3.44884,0,0,1,56.32137,19.254Z"/><path d="M33.58352,29.53574c.13412.01135.3673.017.59551.05359a.88944.88944,0,0,1,.7851.59035c.10468.40443-.26212.602-.55672.78244a4.47916,4.47916,0,0,1-.62548.30562,1.04866,1.04866,0,0,1-1.28205-.17628.875.875,0,0,1-.24163-1.09441C32.53066,29.50566,33.01943,29.53966,33.58352,29.53574Z"/><path d="M63.59569,28.30161a1.29605,1.29605,0,0,1-1.55122.79532c-.4757-.143-1.14457-.30826-1.11238-.909.03612-.67428.72552-.86389,1.292-.94866C62.86926,27.14273,63.66143,27.81507,63.59569,28.30161Z"/><path d="M72.4287,36.93914c.04613.43193-.83637,1.27611-1.4474,1.331-.49049.04407-.9593-.0681-1.04837-.65664-.08477-.56.67558-1.2475,1.39133-1.30659C71.82319,36.26568,72.39153,36.59107,72.4287,36.93914Z"/><path d="M29.09515,37.43693c.08863-.36712.30654-.72148.15689-1.153a.48917.48917,0,0,1,.3853-.654.62827.62827,0,0,1,.61928.20787,1.44578,1.44578,0,0,1,.04715,2.26667.88265.88265,0,0,1-.94651.26393C28.97161,38.19246,29.06259,37.79568,29.09515,37.43693Z"/><path d="M62.93684,35.48509a.66013.66013,0,0,1-.64174-.65594,1.52346,1.52346,0,0,1,1.2999-1.42542.777.777,0,0,1,.88395.84967C64.4674,34.81025,63.6054,35.49231,62.93684,35.48509Z"/><path d="M21.09558,35.85748c-.0672-1.46055.1826-1.73473,1.893-2.07774C22.946,35.36821,22.946,35.36821,21.09558,35.85748Z"/><path d="M28.82629,26.10379a.87176.87176,0,0,1-.77787-.78961,1.19814,1.19814,0,0,1,1.18544-1.25552c.47291.05075.9486.22029,1.00132.80278C30.26511,25.192,29.223,26.088,28.82629,26.10379Z"/><path d="M35.65038,23.22437a1.708,1.708,0,0,1,.61513-1.32031.80916.80916,0,0,1,1.10631.12319c.22633.24528.50437.52881.341.91055-.16051.37509-.50475.41817-.87668.374C36.49568,23.27138,36.1518,23.25987,35.65038,23.22437Z"/><path d="M37.5487,31.34923c-.42346-.08061-.72967-.33093-.63109-.80842a.864.864,0,0,1,.99713-.72992c.39939.0444.89.22222.7983.70573A1.03583,1.03583,0,0,1,37.5487,31.34923Z"/><path d="M60.05658,37.83194c-.0662.34755-.13626.76869-.55217.75581-.43776-.01357-.44074-.45849-.47069-.797-.02783-.31447.08629-.60726.4217-.643C59.92672,37.09743,59.957,37.51409,60.05658,37.83194Z"/><path d="M18.04348,44.70729c-.44463-.08268-.76437-.52577-1.24646-.39107a3.71022,3.71022,0,0,1,.19442-1.55487c.08095-.25111.09313-.62492.53-.52863.29575.06523.58966.18935.60251.53531A5.64288,5.64288,0,0,1,18.04348,44.70729Z"/><path d="M16.365,47.67746c-.61149-.93282.0498-2.25691-1.428-2.20057-.14108.00538-.1725-.22529-.07477-.22949,1.49029-.06417.23657-1.415,1.03583-1.87964A9.95475,9.95475,0,0,1,16.365,47.67746Z"/><path d="M49.23258,42.79485a3.496,3.496,0,0,1,.88583,3.29626C48.95,45.08358,49.29912,43.87636,49.23258,42.79485Z"/><path d="M51.02273,43.95235a2.92069,2.92069,0,0,1,.24185,1.92355A1.61914,1.61914,0,0,1,51.02273,43.95235Z"/><path d="M20.97864,42.52885a1.63306,1.63306,0,0,1-.46657,1.2686.38588.38588,0,0,1-.59513.04461c-.20485-.18569-.23854-.38781-.03543-.5785A2.7523,2.7523,0,0,1,20.97864,42.52885Z"/><path d="M32.6888,48.95187c-.29112-.08979-.46717-.30848-.32079-.50332a1.891,1.891,0,0,1,.76582-.56778c.23467-.09775.40174.16768.51788.34814.18806.29228-.002.34805-.26518.40893A3.6046,3.6046,0,0,0,32.6888,48.95187Z"/><path d="M32.44507,43.49922c.0073.65181-.33537,1.1876-.31836,1.80708C32.00853,44.65233,31.79552,43.98792,32.44507,43.49922Z"/><path d="M45.59653,46.9908c-.13133.15038-.23078.37043-.34913.38111-.47706.043-.50926-.34635-.5271-.6796-.00422-.07869-.1046-.55659.19387-.269C45.118,46.61972,45.60485,46.54264,45.59653,46.9908Z"/><path d="M11.9767,42.46535a.55847.55847,0,0,1,.39471.61674c-.02728.22274-.25195.1188-.40376.10092-.25983-.03059-.44517-.136-.40011-.43609C11.59618,42.55623,11.71346,42.44383,11.9767,42.46535Z"/><path d="M36.77874,45.81746v1.20462l-.08848.00764V45.75723Z"/><path d="M19.11528,43.66068c-.12625-.105-.18027-.13168-.20715-.17516-.18234-.2949-.3475-.60127-.08507-.92832.05425-.06762.24874-.12612.27555-.09627a1.06213,1.06213,0,0,1,.125.95075A1.47135,1.47135,0,0,1,19.11528,43.66068Z"/><path d="M54.72215,43.08633l.1471,1.83084a2.2424,2.2424,0,0,1-.14218-1.84012C54.73125,43.06953,54.72215,43.08633,54.72215,43.08633Z"/><path d="M13.16229,42.025c.205-.02785.3635.03466.39833.21723.04946.25936.10828.539-.15244.74256a2.014,2.014,0,0,1-.27547-.406C13.065,42.39857,12.85424,42.17527,13.16229,42.025Z"/><path d="M21.98844,44.61326c-.04943.252-.11836.27747-.17136.12974a.71694.71694,0,0,1-.02887-.3315c.01069-.07521.08214-.14177.12647-.21219Z"/><path d="M34.29379,46.84892a.68277.68277,0,0,1-.02308-.91139A.63772.63772,0,0,1,34.29379,46.84892Z"/><path d="M23.63284,46.5694a3.50825,3.50825,0,0,1-.08824-.52179c-.0014-.07274.0835-.14717.12927-.22082a3.66581,3.66581,0,0,1,.06467.45757A.96291.96291,0,0,1,23.63284,46.5694Z"/><path d="M28.42718,57.601c.10027.64048-.2843.96836-.81716,1.16971-1.80433.682-3.59881,1.39462-5.42555,2.0111-1.0085.34031-1.24549.15876-1.56954-.97509a1.72113,1.72113,0,0,0-.48987-.86333c-.68728-.65866-.67989-.99286.03993-1.47263.53462-.35635,1.06763-.70058,1.569-1.10934a4.73949,4.73949,0,0,1,5.91412-.23532A1.66382,1.66382,0,0,1,28.42718,57.601Zm-5.57785.24865c.05662.37776-.14845.509-.81192.20023-.412-.19172-.69814-.25483-.75308.206a1.19482,1.19482,0,0,0,1.52729,1.29434A31.70417,31.70417,0,0,1,26.1591,58.579a4.14108,4.14108,0,0,0,.9479-.4245c.25878-.13914.50751-.331.44412-.67378-.066-.35688-.45131-.29424-.65979-.44964-.50194-.37429-1.28058.28043-1.673-.557a.98489.98489,0,0,0-1.6142-.344C23.11542,56.516,21.8975,56.708,22.84933,57.84962Z"/><path d="M52.50469,53.31069c-.80463.05922-1.24619-.1984-1.45888-.734-.173-.43568-.273-1.006.12868-1.2986a1.28463,1.28463,0,0,1,1.45878-.23558,1.68424,1.68424,0,0,1,.29049.19116c.46475.4273,1.69641.17494,1.44714,1.0996C54.15456,53.13584,53.11047,53.22857,52.50469,53.31069Z"/><path d="M42.54864,52.70655c-.55.1494-.96939.06708-1.08764-.40679-.12183-.48829.28316-.71027.67987-.86891.58844-.2353,1.17937-.6,1.82213-.2308a1.58621,1.58621,0,0,0,1.17647.10655c.42951-.08067.93016-.02266.9737.46114.04837.53736-.55736.54561-.91316.60957C44.29065,52.54077,43.36454,52.61108,42.54864,52.70655Z"/><path d="M62.7581,49.43688c.39818.02973.94588-.02089.86911.53924-.07595.55407-.597.80159-1.14694.84221-.4305.0318-.85815-.06945-.83286-.60564C61.67983,49.52553,62.23282,49.46887,62.7581,49.43688Z"/><path d="M58.60887,53.51919a.6163.6163,0,0,1-.63779.46136c-.51862.00041-.91452-.21192-.93191-.771a.89628.89628,0,0,1,.55721-.95221A3.80475,3.80475,0,0,1,58.60887,53.51919Z"/><path d="M85.04851,58.94685a11.73286,11.73286,0,0,1,.06986,2.97968c-.45662-1.01983-.0938-2.00136-.06792-2.97647Z"/><path d="M88.26964,59.99036c.296.38016.084.7654.08014,1.16114-.54045-.02626-.33843-.37377-.33111-.59283C88.02559,60.35109,88.02307,60.10632,88.26964,59.99036Z"/><path d="M80.95331,61.04831c-.06587.18281-.021.43373-.288.325a.33067.33067,0,0,1-.16382-.42644c.04684-.168.15647-.35085.3255-.30522C80.9066,60.66308,80.92012,60.92962,80.95331,61.04831Z"/><path d="M62.09851,45.79273c-.1732-.544-.17411-.54587-.64748-.31311-.26313.12938-.4682.04026-.5095-.22332a12.91211,12.91211,0,0,1-.25851-2.23588c.01327-.63934.61882-.52982,1.10937-.56194C61.98152,43.54608,62.62593,44.58081,62.09851,45.79273Z"/><path d="M71.75966,44.8346c.48659-1.04277-.11761-2.154.14972-3.27043C72.4933,42.29,72.4933,42.29,71.75966,44.8346Z"/><path d="M59.10109,42.6784c1.21972.55711.51808,1.52884.49546,2.35264a2.83092,2.83092,0,0,1-.45538-2.38536Z"/><path d="M70.78976,42.58389c.19008.037.24713.18248.26214.346.01565.17063-.03374.33306-.23954.31625a.31941.31941,0,0,1-.28752-.33338A.28323.28323,0,0,1,70.78976,42.58389Z"/><path d="M68.84972,42.86064c-.29-.27095-.697-.48824-.3618-.96946.02671-.03833.21709-.01157.29217.041C69.16559,42.20192,68.98846,42.52873,68.84972,42.86064Z"/><path d="M69.56129,41.875a.64.64,0,0,1,.33935.54832c.00974.24594-.194.25309-.34363.17391a.42477.42477,0,0,1-.21426-.56173C69.37112,41.96315,69.48852,41.92573,69.56129,41.875Z"/><path d="M75.14834,80.5585c.03151,1.17846.59972,2.3409.03553,3.83167a11.9146,11.9146,0,0,1-.04126-3.84192Z"/><path d="M81.83835,80.81218c.22713,1.05046.40184,1.85845.57655,2.66639C81.8727,82.73917,81.25662,82.01257,81.83835,80.81218Z"/><path d="M87.90129,77.49143c.43155.52743.09311,1.24309.49158,1.797C87.63255,78.8773,87.5938,78.2394,87.90129,77.49143Z"/><path d="M76.5287,84.0044c.00455.51537,1.08979.6824.51029,1.36618a.3218.3218,0,0,1-.2983.07186C76.21592,85.06012,76.43649,84.52016,76.5287,84.0044Z"/><path d="M81.30581,84.08751c-.07591.11667-.13661.278-.18559.27453-.4332-.03085-.52071-.33485-.47321-.69433a1.6269,1.6269,0,0,1,.17453-.40839Z"/><path d="M80.52677,81.81611c-.27066-.26936-.16494-.57848-.11889-.88649C80.77132,81.18265,80.70469,81.48652,80.52677,81.81611Z"/><path d="M74.06161,84.786a.78.78,0,0,1,.03763.93733A.7641.7641,0,0,1,74.06161,84.786Z"/><path d="M15.33661,76.24231c-.73676-.07609-1.2219-.50244-1.89-.531a1.03024,1.03024,0,0,1-.88189-.773c-.211-.63708.25214-1.07885.92935-.99725C14.87292,74.10714,14.75174,75.42226,15.33661,76.24231Z"/><path d="M17.61929,77.37773c.07282-.5036.228-.90708.86616-.86322a1.27007,1.27007,0,0,1,1.29934,1.18437c.08256.5793-.38636.67378-.79066.71243A1.1608,1.1608,0,0,1,17.61929,77.37773Z"/><path d="M16.728,72.13184c-.22892.31792-.27282.81467-.78541.84832A3.12918,3.12918,0,0,1,14.636,71.70383a.67682.67682,0,0,1,.87094-.62889C16.10135,71.16253,16.63877,71.40742,16.728,72.13184Z"/><path d="M12.651,78.24793c.0647-.23286.27024-.30615.518-.29783.30688.01029.422.20637.29464.45194a.44021.44021,0,0,1-.57251.26544C12.7342,78.601,12.571,78.51135,12.651,78.24793Z"/><path d="M47.9057,74.50863c-.23211-.0128-.4659-.01228-.69591-.04158a.51386.51386,0,0,1-.51032-.58149c.02619-.24506.233-.35212.50469-.35622.4639-.007.92684-.071,1.39082-.08091.31908-.00672.58144.1364.58782.49348.0065.363-.28138.47982-.57848.52036a5.19691,5.19691,0,0,1-.69789.00625Z"/><path d="M52.398,72.86715c-.70916-.15239-.64354-.65048-.62595-1.11748.01524-.4046.19051-.69618.63846-.61721a.98113.98113,0,0,1,.90679.93049C53.3282,72.66324,52.79076,72.74764,52.398,72.86715Z"/><path d="M35.99948,85.668a8.561,8.561,0,0,1,.03512,2.55989A3.36853,3.36853,0,0,1,35.99948,85.668Z"/><path d="M37.49838,89.36959c-.15491-.56771-.64231-1.09-.2005-2.06042a4.60979,4.60979,0,0,1,.17465,2.09885C37.46884,89.41315,37.49838,89.36959,37.49838,89.36959Z"/><path d="M38.78475,88.53334a2.52061,2.52061,0,0,1,.10008-1.87913A2.94112,2.94112,0,0,1,38.78475,88.53334Z"/><path d="M32.33539,85.62262c.42605.46272.21656.778.2702,1.24511C32.20588,86.40252,32.3877,86.08732,32.33539,85.62262Z"/><path d="M24.3151,68.15343c.07638-.62129-.28936-1.41971.69578-1.816C25.13382,67.1459,24.52562,67.59136,24.3151,68.15343Z"/><path d="M15.51736,86.27184A1.05173,1.05173,0,0,1,15.4055,85.167C15.90354,85.49152,15.6854,85.87789,15.51736,86.27184Z"/><path d="M21.33787,84.55975a.33247.33247,0,0,1,.20434.392c-.03775.1754-.19435.3037-.33636.19586-.09449-.07182-.10135-.294-.09893-.448C21.10907,84.56242,21.21831,84.51624,21.33787,84.55975Z"/><path d="M17.8189,86.58308c-.45908-.43152-.22945-.74987-.11691-1.066Z"/><path d="M19.54946,85.71172c-.06721-.07467-.18579-.14916-.18591-.22391s.11821-.14963.18462-.22446c.06553.07552.18013.14971.18231.227C19.7325,85.56243,19.61494,85.63779,19.54946,85.71172Z"/><path d="M38.493,71.762c-.0333.33724-1.09719.89791-1.59039.8226a.60063.60063,0,0,1-.56536-.72723,1.27421,1.27421,0,0,1,1.35446-.8593C38.189,70.98145,38.3815,71.34311,38.493,71.762Z"/><path d="M33.97588,71.24682c-.44691-.10949-1.15974.15015-1.18182-.60513-.01552-.53119.56552-.73379.99566-.72675.49508.00814,1.127.18989,1.18935.765C35.0546,71.37648,34.37454,71.14185,33.97588,71.24682Z"/><path d="M60.73912,88.714a1.67154,1.67154,0,0,1-.44008-1.69564Z"/><path d="M83.31309,44.5736c-.05226-.106-.11766-.17863-.11761-.25118a3.44816,3.44816,0,0,1,.05526-.45388c.04615.0663.13064.13254.13077.19893A3.58573,3.58573,0,0,1,83.31309,44.5736Z"/><path d="M87.6146,70.53491a.95012.95012,0,0,1-.97836,1.06636c-.55.06034-.96117-.16706-.93785-.72781A1.25879,1.25879,0,0,1,86.79816,69.695C87.39571,69.59459,87.42936,70.22822,87.6146,70.53491Z"/><path d="M25.0289,86.81633a2.14506,2.14506,0,0,1-.11055-1.37328c.3128-.20917.30067.09836.28336.204C25.13909,86.02907,25.40139,86.46146,25.0289,86.81633Z"/><path d="M44.46647,65.6364a1.09,1.09,0,0,1-.36382,1.307A1.62229,1.62229,0,0,1,44.46647,65.6364Z"/><path d="M11.80265,58.39659c.30654-.24627.617-.11785.94945-.04276A.99066.99066,0,0,1,11.80265,58.39659Z"/><text x="0" y="115" fill="#000000" font-size="5px" font-weight="bold" font-family="'Helvetica Neue', Helvetica, Arial-Unicode, Arial, Sans-serif">Created by Olga</text><text x="0" y="120" fill="#000000" font-size="5px" font-weight="bold" font-family="'Helvetica Neue', Helvetica, Arial-Unicode, Arial, Sans-serif">from the Noun Project</text></svg>