<svg xmlns="http://www.w3.org/2000/svg" data-name="Слой 1" viewBox="0 0 100 125" x="0px" y="0px"><title>fish</title><g><path d="M78.13726,62.88185a5.8063,5.8063,0,0,0-.038.727c0.02829,0.42259-.02682.51939-0.592,0.71139a7.84,7.84,0,0,1-.08532-2.1299c0.06594-.2764.13378-0.5525,0.2081-0.82675a2.12689,2.12689,0,0,0,.02972-1.2858,3.3537,3.3537,0,0,1-.0139-0.90844c0.56962,0.43107.20232,1.092,0.63662,1.41124-0.43069-.98025.06739-1.93435,0.05586-2.89483a6.15737,6.15737,0,0,0,.03089-0.77721,3.33082,3.33082,0,0,0-.16431.57863,2.02851,2.02851,0,0,1-.87211,1.5275,0.62868,0.62868,0,0,0-.29432.64745c0.045,0.64294.12539,1.28365,0.16156,1.92694,0.0361,0.64242.03639,1.2869,0.05008,1.93052a0.25958,0.25958,0,0,1-.02671.15017c-0.33011.43946-.66545,0.875-1.07577,1.41133a1.47667,1.47667,0,0,0-1.11205-1.08806,1.338,1.338,0,0,0-.38138-1.22315L74.528,63.83246,75.04655,63.984a1.78661,1.78661,0,0,1-.1864.33684,0.30608,0.30608,0,0,1-.55855-0.06415,3.19329,3.19329,0,0,1-.11084-0.36775C74.0211,63.4923,73.803,63.4712,73.52035,63.826c-0.11061.13886-.20016,0.29449-0.34289,0.50751l0.375,0.10142a0.44438,0.44438,0,0,1-.42574.53394c-0.78-.99853-0.44323-2.267-0.8103-3.42083a0.57108,0.57108,0,0,0-.28029.86227,3.01975,3.01975,0,0,1,.0444,2.29191l-0.905-.25245-0.29931.43151-0.39389-.59159A0.51337,0.51337,0,0,1,69.754,64.145c-0.31609-.24877-0.31609-0.24877-0.56307-0.01195h0.57282L69.151,65.24677c-0.68979-.08406-0.23786-0.698-0.57867-0.95651a0.491,0.491,0,0,0-.11445.65251,0.74036,0.74036,0,0,1-.14883.36055A0.97855,0.97855,0,0,1,67.927,65.023a2.29134,2.29134,0,0,1-.01668-0.69254,0.58465,0.58465,0,0,0-.21859.79067c0.053,0.20248.15031,0.4491-.15825,0.486-0.29.03471-.28387-0.22991-0.30112-0.43748-0.00844-.10159-0.028-0.20224-0.05394-0.38279a2.73705,2.73705,0,0,0-.51545.347,3.05653,3.05653,0,0,1-2.57256.79456,0.78436,0.78436,0,0,0-.80493.32339,1.785,1.785,0,0,1-1.3323.69072c-0.53028.1129-1.07511,0.15843-1.60418,0.27576a2.57547,2.57547,0,0,1-1.524-.093c-0.40905-.15627-0.828-0.28671-1.30632-0.45045a2.72564,2.72564,0,0,1-1.9757.84325,10.14957,10.14957,0,0,1-4.22137-.26841,0.90341,0.90341,0,0,0-.58485.022,4.87156,4.87156,0,0,1-2.35787.28688,7.338,7.338,0,0,1-2.29805-.2455c-0.42834-.16851-0.84988-0.35429-1.32079-0.55169a2.18356,2.18356,0,0,0-.20514.24514,1.36372,1.36372,0,0,1-1.25356.62088c-0.66915.00418-1.33711,0.10638-2.00689,0.13183a5.56381,5.56381,0,0,1-1.53143-.04291,8.65943,8.65943,0,0,1-3.69211-1.515,0.97515,0.97515,0,0,0-.56561-0.14725c-0.7223-.02137-1.45214.04237-2.16623-0.03917a11.62831,11.62831,0,0,1-2.11072-.46986,1.563,1.563,0,0,1-.91646-1.17117c-0.06169-.19252-0.1-0.3925-0.14872-0.58805-0.5646.12711-.5646,0.12711-0.30269,0.93344-0.74571.33175-.85268,0.31226-1.03811-0.39333a0.71118,0.71118,0,0,0-.8838-0.54156v1.4089l-0.14471.03089-0.3482-.43672-0.36268.46056A3.16938,3.16938,0,0,1,26.217,61.93l-0.18628.01248c-0.11082.65358-.2173,1.30794-0.33374,1.96052a6.04078,6.04078,0,0,1-.61,1.69059c-0.28538-.022-0.33072-0.581-0.74349-0.37862a1.012,1.012,0,0,1-.29536-0.3963,1.97676,1.97676,0,0,0-.27455-0.65605l-0.42842,1.467-0.20078-.005L22.96472,63.737a3.83493,3.83493,0,0,1-.96547.96451,1.31431,1.31431,0,0,0-.14172.66262c-0.48788.0614-.37157-0.31105-0.42647-0.5293l-1.05032-.36623,0.0901,0.82414a0.75015,0.75015,0,0,1-.82039-0.79488c-0.13484-.65535-0.317-1.30109-0.486-1.94908a0.27936,0.27936,0,0,0-.23759-0.15488l0.15228,1.14H18.5474c-0.18008.15,0.22719,0.96675,0.83,1.38821a1.20522,1.20522,0,0,1-.52576.05709,1.33023,1.33023,0,0,1-.4629-0.4992,3.06135,3.06135,0,0,1-.18652-2.34678,4.52649,4.52649,0,0,0,.11452-2.43071,1.071,1.071,0,0,1,.163-0.9989,4.44285,4.44285,0,0,1,.45377,1.69836c0.18055,0.52967.31965,1.07346,0.50824,1.718a0.989,0.989,0,0,0,.19744-0.97142c-0.10252-.92581-0.24927-1.84663-0.36757-2.77083-0.07887-.61617-0.15209-1.23375-0.20088-1.85282a0.63778,0.63778,0,0,1,.32964-0.70056,0.80316,0.80316,0,0,1,.15875.68468,1.08289,1.08289,0,0,1,.46169.22479,7.46507,7.46507,0,0,1,.16926,1.07121c0.1001,0.84641.19257,1.69371,0.379,2.55393a0.83984,0.83984,0,0,0,.018-0.14427,27.79515,27.79515,0,0,1,.34555-5.41079c0.23992-1.58418.59644-3.15207,0.93948-4.71883,0.293-1.3381.73681-2.65,0.93672-3.99976,0.21538-1.45407.23367-2.93817,0.31625-4.41038a5.8442,5.8442,0,0,0-.10486-0.94925,15.28188,15.28188,0,0,1-1.67756-.0146,5.89721,5.89721,0,0,1-1.2512-.35352,0.55179,0.55179,0,0,1-.32442-0.70695,0.5207,0.5207,0,0,1,.58073-0.40987c0.64745-.01064,1.29506-0.011,1.94257-0.01875,0.17762-.00213.35511-0.0157,0.60847-0.02757a3.73244,3.73244,0,0,0-.04914-0.6165,21.06983,21.06983,0,0,1-.5809-4.84823c-0.01339-.68225.14-0.85291,0.71788-0.95019a0.45966,0.45966,0,0,1,.59625.338,5.74567,5.74567,0,0,1,.27835,1.11819c0.09786,0.95276.12834,1.91249,0.22869,2.86491,0.05934,0.56325.19817,1.1183,0.30525,1.67627a0.48679,0.48679,0,0,0,.50662.47831,0.56714,0.56714,0,0,0,.552-0.43288c0.88993-1.81047,1.81524-3.60357,2.70182-5.41565a1.37337,1.37337,0,0,1,.86191-0.7209,0.5405,0.5405,0,0,1,.74473.69776,10.00409,10.00409,0,0,1-1.08154,2.9763c-0.48793.87489-.88105,1.80267-1.37279,2.82542,2.15667,0.06039,4.22929.03921,6.38632,0.00818-0.07626-.247-0.116-0.41075-0.17676-0.56632a4.04438,4.04438,0,0,1-.26138-1.82728c0.02911-.35932-0.00134-0.723.01236-1.08412,0.018-.47413.22469-0.6257,0.64267-0.41067a21.12088,21.12088,0,0,1,2.22852,1.25359,22.74972,22.74972,0,0,0,3.98254,2.075,4.12231,4.12231,0,0,0,3.32309-.09918,6.12744,6.12744,0,0,0-.09023-0.8823,1.71907,1.71907,0,0,1,.15853-1.20192,0.99741,0.99741,0,0,1,1.05394-.63426,6.13648,6.13648,0,0,1,1.219.21236c0.81391,0.25151,1.61231.55306,2.41766,0.83243a1.95739,1.95739,0,0,1,.58354.20188c0.915,0.73656,1.97766.40732,2.98386,0.42531a17.73284,17.73284,0,0,0,1.87582-.16678c-0.25069-.33036-0.44961-0.58874-0.64443-0.85019a0.98664,0.98664,0,0,1-.09654-1.096,0.77361,0.77361,0,0,1,.87316-0.35273,3.14509,3.14509,0,0,1,2.965,1.76353,0.9442,0.9442,0,0,0,.9862.56c1.7566,0.09083,3.51684.16012,5.2655,0.338a7.70782,7.70782,0,0,1,3.11884.82987,1.91062,1.91062,0,0,0,.89066.22269c1.839,0.02215,3.67833.01588,5.51757,0.01465a3.52234,3.52234,0,0,0,.45427-0.06877c-0.05684-.30583-0.09224-0.57923-0.15966-0.84449-0.27328-1.07529-.55975-2.14724-0.8329-3.22256a3.82858,3.82858,0,0,1-.09013-0.61379c-0.07445-.86695.00682-0.98678,0.99555-1.40252,0.09271,0.2867.19606,0.56152,0.27034,0.844,0.28233,1.07379.49787,2.16956,0.85395,3.21785a7.25954,7.25954,0,0,0,.96885,1.66861,0.93216,0.93216,0,0,0,.61429.3648,0.9002,0.9002,0,0,0,.35257-0.52546,9.89638,9.89638,0,0,0,.251-1.05685c0.239-1.08422.43388-2.18068,0.73313-3.24793a6.55364,6.55364,0,0,1,.725-1.3486,0.48671,0.48671,0,0,1,.65451-0.25369,0.867,0.867,0,0,1,.316.55195,6.16593,6.16593,0,0,1-.42676,3.0336c-0.26838.91261-.48662,1.84-0.73949,2.80887,0.97144-.05735,1.91864-0.11745,2.86638-0.16695A8.53942,8.53942,0,0,1,81.338,38.482a0.52376,0.52376,0,0,1,.61786.5372,0.82169,0.82169,0,0,1-.67645.89593c-0.54293.02693-1.08822,0.0027-1.63177,0.02162-0.87432.03039-1.748,0.07817-2.65178,0.12a7.43421,7.43421,0,0,0-.46821,3.55513c0.09552,2.47689.162,4.95488,0.25108,7.432,0.02409,0.66968.10286,1.33746,0.124,2.00715,0.01124,0.35542-.08185.7144-0.068,1.06945,0.05119,1.316.12724,2.631,0.30942,3.94353q0.45059-2.93524.90743-5.86951a0.84346,0.84346,0,0,1,.25834-0.20514,7.64459,7.64459,0,0,1-.22042,2.47417c-0.06168.82564-.13684,1.65028-0.21823,2.61986,0.49447-.8048.36862-1.71279,1.01259-2.431,0.28379,0.88984-.18286,1.65306-0.07388,2.42815,0.10726,0.763.1681,1.53257,0.25857,2.38674a0.85552,0.85552,0,0,0,.28921-0.90254,3.703,3.703,0,0,1,.25-1.89432c0.25844-.70375.4422-1.43463,0.689-2.14307a0.67394,0.67394,0,0,1,.54168-0.63755c0.37,0.71727-.01714,1.43989-0.0064,2.224l0.56144-.7119a0.43274,0.43274,0,0,1,.329.59131,4.55044,4.55044,0,0,0,.03015,1.83087,3.7405,3.7405,0,0,1-.16337,1.44895,0.92922,0.92922,0,0,0,.18122,1.00636,0.68732,0.68732,0,0,1,.063.42237c0.00859,0.48689-.037.979,0.01877,1.45982,0.08492,0.73213-.14819.93364-0.98369,0.70576,0.056,0.39256.12335,0.76386,0.15442,1.13817a1.15274,1.15274,0,0,1-.11187.38674,1.02548,1.02548,0,0,1-.32049-0.1401,1.6558,1.6558,0,0,1-.70615-1.19289,0.6837,0.6837,0,0,0-.21553-0.20257,1.00142,1.00142,0,0,0-.3122,1.02875,1.03342,1.03342,0,0,1-.0964.47266,1.06715,1.06715,0,0,1-.48233-0.25189,5.75049,5.75049,0,0,1-.26472-1.00539l-0.34668-.19473a0.48982,0.48982,0,0,0,.12639-0.6728ZM34.92358,37.0882L34.4629,36.716l-0.07989.14083,0.54725,0.22369,0.5283,0.40636,0.08391-.16035Q35.233,37.2074,34.92358,37.0882Zm-0.77521,5.75316c-0.34438-.07586-0.27267-0.29054-0.07026-0.39511a6.17589,6.17589,0,0,1,1.07351-.39322c0.90185-.26923,1.80846-0.52252,2.71353-0.78194l1.42759-.00435,0.377,0.75962-2.44292.52027c0.7796-.02184,1.54943-0.08085,2.31516-0.1737,0.359-.04352.71-0.15233,1.0936-0.238,0.13473,0.16383.29618,0.48072,0.54472-.023l-1.00561-.95671a0.469,0.469,0,0,1,.70926.13573,1.7219,1.7219,0,0,0,1.049.60541,0.89374,0.89374,0,0,0,.0882.4444,2.31391,2.31391,0,0,0,.65607.10037l0.00129-.10789-0.75682-.42709c-0.13724-.336-0.71116-0.33867-0.68525-0.781H42.218l0.21968,0.36443c0.13731-.34061.15367-0.71453,0.58133-0.67981,0.20277,0.76185.304,0.76276,1.0681,0.74586a2.7619,2.7619,0,0,1,1.68681.32916,0.66381,0.66381,0,0,0,.98816.0529L47.4538,42.7437,49.576,42.581l0.14615,0.38326c0.40619,0.04044.70913-.47088,1.1968-0.18856l-0.48558.56753h1.28877v0.52443a0.7152,0.7152,0,0,0,.58955-0.80881l1.0006,0.314a0.83078,0.83078,0,0,0-.18478.87937c-0.59338-.4336-0.59338-0.4336-1.04238-0.01745,0.42811,0.44585.42811,0.44585,1.03562,0.00545,0.54793-.15279.54793-0.15279,0.53979-0.85116l1.01966,0.97949,0.6474-.39625-0.19672-.66406a2.01737,2.01737,0,0,1,.67046.64606,0.60434,0.60434,0,0,0,.85263.27042v0.64386l0.56456-.17216L57.04244,43.938l0.13645-.08267a0.86041,0.86041,0,0,0,.92969.63249,1.01,1.01,0,0,0-.0267.47989,1.7903,1.7903,0,0,0,.517.30373l-0.73519.49376c-0.07454-.72247-0.14232-0.7672-0.73348-0.56564-0.23622.08056-.47537,0.15245-0.7264,0.23248,0.01222-.562-0.13741-0.70134-0.52-0.49426-0.32427.17553-.6221,0.39993-0.9819,0.63562a0.66275,0.66275,0,0,1,.52141-0.75861c0.20058-.07272.45758-0.181,0.23858-0.51935-0.74723.07711-1.22743,0.70705-1.97775,0.97668l0.05152-.4147,0.52285-.33515c-0.52179-.15422-0.52179-0.15422-0.51281.3429-0.47791-.49025-0.88576-0.02461-1.31606.06026-0.30026-.10792-0.60832-0.13173-0.89879-0.2161A0.86694,0.86694,0,0,1,51.26,44.39827c0.16673-.21086.10527-0.3551-0.19691-0.41864l0.20805,0.42443-0.59788-.24775-0.94451.34912-0.21792-.34875-0.471.19376-0.939-.89379-0.73575.33521a1.46908,1.46908,0,0,0,.17558.13706c0.13835,0.06963.27663,0.14141,0.42081,0.19716a27.58928,27.58928,0,0,0,8.20809,1.7909c0.28348,0.01844.56581,0.06346,0.84933,0.07111,0.90235,0.02433,1.80516.05108,2.70744,0.042a1.58024,1.58024,0,0,0,.54607-0.24072c0.64794,0.29884,1.21089-.09437,1.90963-0.11711a0.64982,0.64982,0,0,0-.90752-0.26662c-0.33175.13917-.67086,0.26079-1.00675,0.39008-0.095-.41811-0.23126-0.5029-0.58575-0.33285-0.21162.1015-.40653,0.23788-0.60894,0.35858L58.992,45.71283l0.47434-.75-0.58378.03584L58.793,43.76077a2.17057,2.17057,0,0,0,.45721.49568,1.78453,1.78453,0,0,0,.58388.0679l-0.11437.39974c0.11074,0.33356.48057-.07055,0.62789,0.322,0.17273,0.4603.269,0.431,0.72713,0.00251L60.39446,44.544l0.12307-.21843a14.22177,14.22177,0,0,1,2.04022,1.05545c0.01841-.0719.02913-0.12,0.04318-0.16717,0.01928-.06469.04108-0.12862,0.063-0.19672a0.66523,0.66523,0,0,0,.84745.02994c0.58193-.27982,1.17941-0.529,1.751-0.82814,0.42443-.22214.81819-0.5029,1.286-0.7953-0.33579-.49311-0.6318-0.88047-0.87693-1.29772-0.4876-.83-0.46106-0.9164.26447-1.52709a0.49868,0.49868,0,0,0,.04877-0.19A14.328,14.328,0,0,0,62.3,40.3531a0.49113,0.49113,0,0,0-.337.13579,1.27246,1.27246,0,0,1-.77146.586,6.3822,6.3822,0,0,0-1.04757.783,1.00553,1.00553,0,0,0,.37091,1.65465c0.13728,0.06752.26106,0.16251,0.45282,0.28394a1.08464,1.08464,0,0,1-1.506-.48693,1.8025,1.8025,0,0,1,.48357-2.17729c0.27575-.23633.57335-0.44716,0.861-0.66957a8.18856,8.18856,0,0,0-1.751.04093c-1.12471.11493-1.24826,0.23519-1.33089,1.3219-0.01143.15043,0.06433,0.30787,0.05094,0.4577a0.768,0.768,0,0,1-.1371.46694,0.79588,0.79588,0,0,1-.55322-0.12208,0.64953,0.64953,0,0,1-.24578-0.44492,6.34485,6.34485,0,0,1,.03359-1.311,3.25886,3.25886,0,0,1,1.28364-2.23471,1.0849,1.0849,0,0,0-1.49253.1581c-0.48922.49757-.99734,0.9769-1.47833,1.48216a1.99,1.99,0,0,1-2.153.44324,0.89759,0.89759,0,0,1-.76241-0.68415,0.84142,0.84142,0,0,1,.47472-0.9024c0.437-.25571.59763-0.90477,1.24115-0.86693a0.57377,0.57377,0,0,0,.14887-0.19878c-1.1187,0-2.19467-.00754-3.27024.00978a1.07,1.07,0,0,0-.39037.21136q-0.4852.268-.97151,0.534l-0.09679-.1266,0.29577-.526c-0.977.15537-1.85619-.12466-2.75547,0.28494-0.78727.35856-1.76208,0.24334-2.55548,0.80479l0.84316,0.31132L45.2476,39.738l-1.1725.58833a0.75926,0.75926,0,0,0-1.14643-.58223L43.608,40.30162l-0.59985.51771,0.07752-.47705a1.75566,1.75566,0,0,0-1.46376-.70068,7.35287,7.35287,0,0,1-1.13557-.138c-0.418-.08861-0.82454-0.23148-1.23605-0.35075l-0.00648.06078L40.15405,39.813l-0.0787.14767a5.2991,5.2991,0,0,0-.78895-0.22235,6.04505,6.04505,0,0,1-2.09939-.74967,13.97843,13.97843,0,0,0-1.712-.713,2.60675,2.60675,0,0,0-.61088-0.07649l-0.02693.16055c0.31029,0.103.61553,0.22662,0.932,0.30428a2.83723,2.83723,0,0,1,1.38753.62967,1.45777,1.45777,0,0,0,.55685.25955c0.6359,0.20842,1.27946.39387,1.9127,0.60977a1.20091,1.20091,0,0,1,.32546.27589,3.63754,3.63754,0,0,0-1.87084.13541,7.09376,7.09376,0,0,1,1.30757.28772c0.3454,0.14626.24577,0.34986-.103,0.415a1.852,1.852,0,0,0-1.41309.00214,10.27143,10.27143,0,0,0-3.7746.73944,0.85053,0.85053,0,0,0-.77141,1.02785c0.28824-.07528.55206-0.14418,0.816-0.21306a17.999,17.999,0,0,0,3.52817-.91626,0.26867,0.26867,0,0,0-.21784-0.09272c-0.90191.2253-1.80483,0.44768-2.70048,0.69611A3.09,3.09,0,0,0,34.14837,42.84136ZM55.92212,54.97008a6.81847,6.81847,0,0,0,.59994.56083,0.55229,0.55229,0,0,1,.16291.81253,2.10734,2.10734,0,0,1-.62113.53769,3.46516,3.46516,0,0,1-.61518.25175,2.12475,2.12475,0,0,1,.95683.2764,1.73488,1.73488,0,0,1,.071.88606l0.89969,0.28491a2.0039,2.0039,0,0,0-.21332-0.50676,0.90542,0.90542,0,0,1-.086-1.358A1.50808,1.50808,0,0,1,57.929,55.8a1.2565,1.2565,0,0,0,.27932-0.58375l-1.88215-.901c-0.14118.23789-.26829,0.45206-0.39568,0.666a1.30135,1.30135,0,0,0-.447-0.003,6.37133,6.37133,0,0,1-2.26973.34359c-0.65985-.00314-0.66.02656-0.777,0.73837a1.024,1.024,0,0,0,.88283.30115,16.04584,16.04584,0,0,1,2.04953-.024Zm-8.407,6.37262,0.49557-.24242a1.56734,1.56734,0,0,0-.91847-1.28175c-0.17433.11991-.31436,0.23359-0.47,0.3187-0.17229.09419-.35887,0.16226-0.5291,0.23725-0.40562-.63035-0.40584-0.769-0.09649-1.2261a0.97272,0.97272,0,0,0,.19717-0.46231,1.40917,1.40917,0,0,1,.51985-1.00706,0.94539,0.94539,0,0,1,1.02154-.2687l-0.21546-1.47478,0.72452,0.17456c0.05436-.24778.10912-0.4718,0.1518-0.69811a0.39812,0.39812,0,0,0-.38878-0.54027,2.65632,2.65632,0,0,0-1.07432.0166,18.07359,18.07359,0,0,0-1.82619.94626c-0.44468-.07087-0.95139-0.18773-1.46372-0.22315a7.38107,7.38107,0,0,0-1.55056.03634,2.2038,2.2038,0,0,1-.96677-0.06447,1.064,1.064,0,0,0-.72959.004c-0.61718.348-1.19442,0.76693-1.76581,1.14458l-0.299,1.26068,0.5996,0.91576a10.89413,10.89413,0,0,0-.50228,1.02163,1.07227,1.07227,0,0,0,.07541.47879l-0.00852-.0162a2.27485,2.27485,0,0,0-.05057.57323c0.05812,0.3572-.15023.41172-0.403,0.38493a0.60718,0.60718,0,0,1-.48436-0.74708,3.24286,3.24286,0,0,1,.239-0.49285,2.44782,2.44782,0,0,0-.82135-0.29931,7.55292,7.55292,0,0,0-.99245.27413,0.65969,0.65969,0,0,1-.5461-0.117,0.78993,0.78993,0,0,1-.05312-0.62916,1.13278,1.13278,0,0,1,1.32176-.67442,0.87773,0.87773,0,0,0,1.08342-.46682c-0.71367-.25274-0.70667-0.432-0.41927-1.37132-0.61523,0-1.20439-.0262-1.79021.00685-0.68349.03855-.82947,0.27243-0.66918,0.9535a1.994,1.994,0,0,1-1.08682,2.388c-0.13447.07018-.26256,0.15258-0.44128,0.25725l0.16476,1.24877a3.15727,3.15727,0,0,0,.35884-0.13927,2.33342,2.33342,0,0,1,1.86654-.25082c0.69179,0.20423,1.37205.44724,2.05981,0.66559a1.21984,1.21984,0,0,0,.513.10259c0.63313-.098,1.25894-0.24207,1.89061-0.35081a5.39148,5.39148,0,0,1,5.01639,1.29668,0.7944,0.7944,0,0,0,.5969.25326,15.60029,15.60029,0,0,0,1.5009-.59048l0.17609-1.337Zm11.98231,0.16218,0.00635,0.01279c0.06616-.5187-0.11078-1.15043.7623-1.33732-1.219-.16652-1.23487-0.18608-2.11.52229-0.38761.31375-.62877,0.12583-0.88843-0.18865l-0.31911.46845a0.398,0.398,0,0,0,.06029.10657c0.08688,0.05518.17816,0.10335,0.26589,0.15726,0.60293,0.37053.67915,0.8207,0.164,1.2847a0.87629,0.87629,0,0,1-.68816.21026,1.07156,1.07156,0,0,1-.45346-0.53821,1.61452,1.61452,0,0,1-.0543-0.54107,1.10032,1.10032,0,0,0-.43111.79158c-0.14122.423-.27488,0.49737-0.66579,0.32a0.83143,0.83143,0,0,1-.37892-0.25315,0.59065,0.59065,0,0,1-.05095-0.45436c0.52906-.30018.11869-0.5922-0.00929-0.91039a0.6438,0.6438,0,0,0-.26945.43708,1.01124,1.01124,0,0,1-.42422.8609,0.33867,0.33867,0,0,1-.53567-0.07892,0.61,0.61,0,0,1,.0481-0.84086,2.20179,2.20179,0,0,1,.34416-0.2515c0-.45335-0.02639-0.81568.00779-1.1722a0.36839,0.36839,0,0,1,.56037-0.3264,1.903,1.903,0,0,1,.52931.42291c0.1738,0.17176.3223,0.3691,0.50544,0.58283,0.11708-.22623.19945-0.38537,0.2819-0.54446l0.50256-.033c-0.31372-.287-0.4233-0.19555-0.49087.04627a0.743,0.743,0,0,1-.83679-0.70251c-0.01942-.48224.34547-0.50221,0.6819-0.55661,0.29031-.04694.38452-0.21822,0.296-0.54781a0.69571,0.69571,0,0,1-.86769-0.73775c-0.7286.40077-.79717-0.74852-1.38522-0.56556l0.51215,0.97807a1.37381,1.37381,0,0,1,.506.06212,0.58423,0.58423,0,0,1,.28522.403,1.39438,1.39438,0,0,1-.98412.96958c-0.40513.06108-.48877-0.025-0.69941-0.70195a0.40527,0.40527,0,0,0-.12764-0.10943c-0.38355.05-.31255,0.40413-0.40191,0.64578a0.63692,0.63692,0,0,1-.84757.41474,0.60207,0.60207,0,0,1-.18217-0.81846,1.12888,1.12888,0,0,1,1.00513-.607l-0.08149-1.23333c-0.10007.26408-.05951,0.55479-0.17049,0.76583a0.85084,0.85084,0,0,1-.56227.42274,0.47865,0.47865,0,0,1-.5004-0.56389,1.68079,1.68079,0,0,1,.37235-0.80356,0.82972,0.82972,0,0,0,.25827-0.68763c-0.03841-.29873-0.05783-0.5999-0.08572-0.902-1.19788-.72149-2.54505-0.77334-3.07526-0.09348L49.517,55.66928l-0.18839.75018c0.79772-.1349,1.12725-0.31711.81673,0.91963a0.86405,0.86405,0,0,1,.41809.1293,1.01649,1.01649,0,0,1,.22581.60843,0.57867,0.57867,0,0,1-.34806.43412,0.97419,0.97419,0,0,1-.56788-0.27507,0.94823,0.94823,0,0,1-.191-0.34433L48.33952,57.61l-0.8321.93423,0.10329,0.13961a0.91052,0.91052,0,0,0,.44551-0.16967,1.04162,1.04162,0,0,1,1.19628-.46235c0.22163,0.94131-.91574.93024-1.02459,1.59226a0.736,0.736,0,0,0,.12075.07569c0.75453,0.29265.85323,0.59307,0.43051,1.28463a0.40584,0.40584,0,0,0-.07248.27976,1.15069,1.15069,0,0,1-.38961,1.11467,0.65327,0.65327,0,0,0-.03947.25156L48.941,62.78581a2.07874,2.07874,0,0,1,.085-0.72918,0.90275,0.90275,0,0,1,.52757-0.37852,0.49352,0.49352,0,0,1,.393.28187,0.91047,0.91047,0,0,1-.10907.55388,1.30136,1.30136,0,0,1-.31561.31249,5.028,5.028,0,0,1,1.2103.73755,1.11459,1.11459,0,0,0,1.49146.26276,6.18163,6.18163,0,0,1,1.78134-.44829,8.27422,8.27422,0,0,1,1.76806.08038c0.49637,0.0569.98415,0.18886,1.60619,0.3138a4.9629,4.9629,0,0,1,2.42387-1.29367,1.24239,1.24239,0,0,0,.34694-0.17273,1.394,1.394,0,0,1,1.54052-.01081c0.17809,0.09878.36494,0.18182,0.60253,0.29907,0.65819-.76783,1.87733-0.562,2.48806-1.51758a2.3286,2.3286,0,0,1,.31769-1.51242,2.57865,2.57865,0,0,1,1.25093-1.06858,2.068,2.068,0,0,1-.3351-1.94173,9.62562,9.62562,0,0,0-1.06415-.58658,10.98379,10.98379,0,0,0-1.24055-.35l-0.03237-.40567-1.74748-.49625-0.25967.56373L61.37,54.64885c-0.4463.10175-.87165,0.20379-1.29933,0.2948-0.42612.09067-.85732,0.15918-1.2802,0.26236a0.43474,0.43474,0,0,0-.28339.227,0.958,0.958,0,0,0-.00952.97575,1.11771,1.11771,0,0,1,.51067-0.05065,0.81681,0.81681,0,0,0,1.00155-.34093c0.07405-.07238.1425-0.15114,0.2209-0.21837,0.38615-.33118.52094-0.33458,0.9366-0.00088a2.59455,2.59455,0,0,1,.27988.2946,0.94793,0.94793,0,0,1-.89027,1.08985L60.62939,57.356l0.65556,0.07544a1.71013,1.71013,0,0,0,.1472-0.27112,0.84234,0.84234,0,0,1,1.06269-.7459,0.88663,0.88663,0,0,0,.44824-0.21c0.34109-.19833.51206-0.14885,0.67316,0.20188a0.66985,0.66985,0,0,1-.234.88924c-0.27085.21109-.375,0.43337,0.0017,0.71119a2.383,2.383,0,0,1,.31381-0.13243c0.50538-.13987.782,0.10134,0.638,0.58928a4.44757,4.44757,0,0,1-.39851.76475,0.64787,0.64787,0,0,1-.1337.99937c-0.17482.14614-.40652,0.34355-0.60363,0.1001a1.092,1.092,0,0,1-.14849-0.62314,0.51234,0.51234,0,0,1,.205-0.31783,0.466,0.466,0,0,0,.06976-0.73644l-0.93073.54365a0.71719,0.71719,0,0,1-.15179,1.08554,0.70714,0.70714,0,0,0-.20746.32169,1.04125,1.04125,0,0,1-1.1144.77392,1.1636,1.1636,0,0,0-.54261.24728A0.58522,0.58522,0,0,1,59.49748,61.50488Zm-3.9258-9.36064q0.03085,0.02426.061,0.04939l0.43511,0.52209,2.49339-1.00465a6.58692,6.58692,0,0,1-.37993-1.34771,8.5603,8.5603,0,0,1,.17795-1.36842,2.15438,2.15438,0,0,0-.07778-0.45564,1.471,1.471,0,0,1,.31825-1.16336,0.35394,0.35394,0,0,1,.60366-0.02188,1.85663,1.85663,0,0,0-.47564,1.68086c0.0022,0.05036-.02582.10163-0.02627,0.15259-0.00587.667-.04471,1.33626-0.00293,2.0004a0.67769,0.67769,0,0,0,.82486.77686c0.53877,0.02458,1.07954.00513,1.67517,0.00513a11.8602,11.8602,0,0,1-.13084-3.83334,1.962,1.962,0,0,1,.1869-0.74783c0.1336-.26969.34409-0.26878,0.53207-0.02721a3.3356,3.3356,0,0,0-.34687.95851c-0.02749.9757,0.00548,1.95423,0.04695,2.9303a2.29917,2.29917,0,0,0,.65734,1.47685,2.55414,2.55414,0,0,1,1.94032-.42231,2.0068,2.0068,0,0,0,.46556-0.00847,1.27543,1.27543,0,0,1,1.54323.96988,0.3715,0.3715,0,0,0,.14925.08568c0.62837-.26123.01717-1.0261,0.54052-1.36056l0.27953,1.03475a7.30967,7.30967,0,0,1,2.4812.289,1.42773,1.42773,0,0,1,1.275,1.41707,1.38855,1.38855,0,0,0,.60056,1.08924,2.08313,2.08313,0,0,1,.76312,2.35495,1.13974,1.13974,0,0,0,.12255.88374,2.97608,2.97608,0,0,1,.2896.9444,1.18994,1.18994,0,0,0,.37322,1.173,0.87455,0.87455,0,0,1,.09775.43974c0.04587,0.2217.09374,0.443,0.16911,0.798,0.30091-1.33523-.11174-2.56785.19125-3.9054,0.54643,0.69857.24753,1.44264,0.54525,2.21512,0.05029-.33445.08671-0.50434,0.09979-0.676,0.05707-.74866.10592-1.49794,0.16089-2.24677a0.59749,0.59749,0,0,1,.39058-0.68149c0.0608,1.336.11867,2.60762,0.17653,3.87929a2.732,2.732,0,0,0,.29953-1.14731c0.07485-1.67921.14966-3.35889,0.18636-5.03923,0.04069-1.86315.04782-3.72718,0.05461-5.59088,0.00509-1.39748.06036-2.8005-.04238-4.191a10.85916,10.85916,0,0,0-.757-4.09736c-0.34489-.7073-0.3144-0.71941-1.07308-0.71139-1.76012.01863-3.52023,0.03828-5.28041,0.04946a2.76134,2.76134,0,0,0-1.93278.92718c0.44869,0.41369.86016,0.79512,1.274,1.174,0.42284,0.38715.48727,0.53211,0.22463,0.99882a1.75976,1.75976,0,0,1-.66647.69959c-1.08366.547-2.21649,0.9978-3.29268,1.55807a10.89148,10.89148,0,0,1-4.96907,1.00151,1.62962,1.62962,0,0,0-1.19605.43622,8.46409,8.46409,0,0,1-1.06162.90747,3.76015,3.76015,0,0,1-3.106.55141c-0.65286-.14971-1.29376-0.35446-1.935-0.551a9.596,9.596,0,0,1-1.3897-.48306,0.87529,0.87529,0,0,1-.27287-1.54894c0.09744-.10322.18729-0.21361,0.28064-0.32069l-0.075-.133a4.842,4.842,0,0,0-.89381.36462,2.19247,2.19247,0,0,1-1.24968.3422,11.71713,11.71713,0,0,1-3.59945-.83844,0.78255,0.78255,0,0,1-.31551-1.32292c0.09462-.13638.17474-0.28282,0.27962-0.45422a12.20093,12.20093,0,0,0-3.424-.52623,17.09059,17.09059,0,0,0-7.47453.9838,0.57365,0.57365,0,0,1-.82053-0.53777,2.354,2.354,0,0,1,.13359-0.83506c0.244-.69636.52521-1.37968,0.80375-2.09956a5.86318,5.86318,0,0,0-.62721-0.06507c-1.91275.00591-3.8255,0.02737-5.7382,0.0234a0.80209,0.80209,0,0,0-.76545.54048c-0.24577.48448-.45294,0.99287-0.7403,1.45111a12.72875,12.72875,0,0,0-1.69174,4.474c-0.153.8121-.38672,1.60864-0.56043,2.41727-0.27665,1.28781-.56821,2.574-0.78914,3.87176a16.866,16.866,0,0,0-.0814,3.85907c0.05872,0.97088.12384,1.94138,0.18649,2.918,0.51835-.11643.5669-0.09657,0.61289,0.3718,0.06464,0.65834.10236,1.3193,0.15158,1.97915a3.953,3.953,0,0,0,.39539-1.24238c0.1711-1.20424.31522-2.41235,0.46606-3.61942a0.55574,0.55574,0,0,1,.44885-0.57643v4.18652l0.15466-.0048c0-.46338-0.03328-0.92989.00974-1.38925a1.71013,1.71013,0,0,1,.28776-1.30537,1.42662,1.42662,0,0,1,.23908,1.13464c0.02088,0.38723-.00277.77666,0.00336,1.165,0.00563,0.35644.025,0.71268,0.03833,1.069l0.15927-.002c0.12424-.55192.22507-1.11043,0.378-1.65427,0.25148-.89422.52725-1.782,0.816-2.665a1.90122,1.90122,0,0,1,.33116-0.46287l0.16777,0.03143a3.54682,3.54682,0,0,1,.13985.709c-0.00289.72453-.04855,1.44879-0.06277,2.17344a1.771,1.771,0,0,0,.16921,1.16131l1.38083-1.15253a3.38717,3.38717,0,0,1-.20408-2.10355,2.32634,2.32634,0,0,1,1.56539-1.28257,1.18392,1.18392,0,0,1,.37626-1.366,3.04759,3.04759,0,0,1,2.663-.82038c0.36966-.48119.68909-0.87635,0.9822-1.29016a0.80859,0.80859,0,0,0,.17551-0.485,5.3503,5.3503,0,0,0-.23529-1.2828,8.09977,8.09977,0,0,1-.25717-3.0976,5.02188,5.02188,0,0,1,.57455-1.59075,1.15423,1.15423,0,0,1,.27164-0.298,0.35047,0.35047,0,0,1,.20671.54066c-0.14819.357-.31861,0.70562-0.49447,1.05022a0.98492,0.98492,0,0,0-.07493,1.21467,1.17006,1.17006,0,0,1,.04.59512,5.50019,5.50019,0,0,0,.02246.9975c0.14023,0.67.34151,1.32731,0.53355,2.04937l1.66806-.33064a5.0207,5.0207,0,0,0-.134-2.28174,0.61579,0.61579,0,0,1,.2604-0.79c0.4758,0.96492.2471,2.02077,0.40966,3.05868a4.14711,4.14711,0,0,1,2.59757.52835,4.16513,4.16513,0,0,0-.007-0.78907c-0.21931-.95456-0.44889-1.90734-0.704-2.85287a1.92907,1.92907,0,0,1,.13254-1.60628c0.21907,0.77179.33417,1.55617,0.4898,2.33245,0.164,0.818.3667,1.62826,0.55457,2.451a7.32177,7.32177,0,0,1,1.39846-.67426,0.56545,0.56545,0,0,0,.54765-0.67537c-0.06525-.76952-0.117-1.54113-0.21473-2.30671a6.10377,6.10377,0,0,1,.36229-2.9809c0.3684,0.01668.32961,0.23017,0.27574,0.438a8.78788,8.78788,0,0,0-.2943,1.11525,6.30723,6.30723,0,0,0-.00572,1.299c0.08014,0.91613.1961,1.82914,0.29585,2.72965l2.49169,0.16635,0.4423-.76793,0.13238,0.03294v0.95519l1.28029,0.94226,1.135-.59446c0.10242-.67471-0.4281-1.35823.24086-1.94717l0.18766,1.85491a1.81378,1.81378,0,0,1,1.60224.45576,0.72583,0.72583,0,0,0,.98895-0.00357,4.549,4.549,0,0,1,.51906-0.27755c-0.34334-1.06126-.27605-1.60611.2811-2.17742,0.08851,0.67448-.23881,1.35458.12336,2.00378a5.214,5.214,0,0,1,3.14981.04764A0.60205,0.60205,0,0,0,55.57168,52.14425ZM36.69609,65.592l-0.11381.15267a3.15082,3.15082,0,0,0,.6135.49531,12.11275,12.11275,0,0,0,1.59032.61547,4.90717,4.90717,0,0,0,2.5154.24339,7.03548,7.03548,0,0,1,1.60583-.05044,1.20469,1.20469,0,0,0,1.01544-.26535,8.0625,8.0625,0,0,0,1.10532-1.4827,1.82576,1.82576,0,0,0-.87969-2.47253,8.31861,8.31861,0,0,0-1.49078-.613,5.32931,5.32931,0,0,0-1.5296-.14885,14.13493,14.13493,0,0,0-1.68622.2467,1.28323,1.28323,0,0,0-1.09948.73806,4.09591,4.09591,0,0,1-1.07944,1.4939,0.66391,0.66391,0,0,0-.029,1.09556ZM48.284,67.13312c0.60925-.07115,1.22025-0.13,1.8272-0.21719a1.2204,1.2204,0,0,0,1.06389-.87252,1.97118,1.97118,0,0,0-.33688-1.68458,3.70978,3.70978,0,0,0-3.46036-1.08493,4.60219,4.60219,0,0,0-1.14652.44812,0.664,0.664,0,0,0-.38443.6114,4.97266,4.97266,0,0,1-.30632,1.33613,0.68126,0.68126,0,0,0,.46129,1.06522A7.3405,7.3405,0,0,0,48.284,67.13312Zm-10.82665-4.638a7.68041,7.68041,0,0,0-.94614-0.445,2.85692,2.85692,0,0,0-2.67329.16793,6.28108,6.28108,0,0,1-2.00779.97682,2.23819,2.23819,0,0,0-.55779.26746,0.565,0.565,0,0,0-.27155.78061,1.67839,1.67839,0,0,0,1.9819.97688l-0.10446-.43212a4.859,4.859,0,0,1,.503.347,2.40651,2.40651,0,0,0,2.19427.27889,1.28683,1.28683,0,0,0,.56317-0.47424,13.25814,13.25814,0,0,1,.91187-1.03835A1.15145,1.15145,0,0,0,37.45735,62.49516Zm20.58177,3.74049a4.97353,4.97353,0,0,0,1.60842.44109,13.88785,13.88785,0,0,0,2.64392-.526,1.02967,1.02967,0,0,0,.68239-1.223,3.764,3.764,0,0,0-1.06663-1.76337,1.31558,1.31558,0,0,0-1.30874-.47392c-0.67011.261-1.33015,0.55025-1.982,0.85417a4.14891,4.14891,0,0,0-.70545.4701,0.57164,0.57164,0,0,0-.192.68507C57.844,65.1555,57.91547,65.62584,58.03912,66.23565Zm-6.30987.50441a0.4112,0.4112,0,0,0,.18577.1136,9.46178,9.46178,0,0,0,2.91834.1843c0.35529-.06045.71338-0.10538,1.07106-0.15058a1.24036,1.24036,0,0,0,1.23791-1.10646,1.16445,1.16445,0,0,0-.28208-1.2382,1.26532,1.26532,0,0,0-1.21529-.65223c-0.48787.01585-.98207-0.05392-1.46428-0.0014a9.75216,9.75216,0,0,0-1.72835.34617,0.69679,0.69679,0,0,0-.5701.63676C51.85344,65.476,51.78559,66.07809,51.72925,66.74006ZM35.1613,56.1856c0.53127,0.0448.94489,0.04263,1.343,0.12023a4.37692,4.37692,0,0,0,3.06721-.78667,0.94419,0.94419,0,0,0,.54177-1.081,2.39264,2.39264,0,0,0-.898-1.15447,2.42954,2.42954,0,0,0-1.76729-.16633c-0.04081.18428-.09417,0.37925-0.12514,0.57772-0.03232.207-.04056,0.41949-0.394,0.4181l-0.04374-.93428a2.8781,2.8781,0,0,0-2.31755.65161,1.79439,1.79439,0,0,0-.26617.89594,2.15066,2.15066,0,0,0,.236.0876l0.2712-.69974,0.13247,0.00536Zm30.20585,4.45419a6.00014,6.00014,0,0,1,3.47038.7176,3.02088,3.02088,0,0,0,1.2773.45449,1.53869,1.53869,0,0,0,1.81683-1.631,0.92543,0.92543,0,0,0-1.11488-1.15057,18.57545,18.57545,0,0,1-3.69592-.05253A1.67306,1.67306,0,0,0,65.36716,60.63979Zm-33.66976-3.516a11.20308,11.20308,0,0,0-1.63826.24653,1.31255,1.31255,0,0,0-.68633,1.7458,0.58306,0.58306,0,0,0,.28833.2274,6.83807,6.83807,0,0,0,3.48025.51773,1.41684,1.41684,0,0,0,1.13773-2.01811,0.76915,0.76915,0,0,0-.691-0.52821C32.97333,57.27233,32.36114,57.193,31.6974,57.12383Zm38.84669,0.81941a3.68364,3.68364,0,0,0,.56743.24711,0.38747,0.38747,0,0,0,.51577-0.32018c0.19263-.674-0.48008-2.03778-1.38715-1.96785-0.66744.05146-1.341,0.02823-2.00733,0.088a4.04822,4.04822,0,0,0-1.04454.26624,1.27153,1.27153,0,0,0-.70882,1.18225,1.05711,1.05711,0,0,0,.79843.92965,3.76693,3.76693,0,0,0,.83331.10689,6.37812,6.37812,0,0,0,.99036-0.0133A1.61774,1.61774,0,0,0,70.54409,57.94324ZM45.6478,54.95451c0.16877-.07735.31082-0.13036,0.44114-0.20412,0.92383-.52287.99515-1.08416,0.20683-1.81852a4.04687,4.04687,0,0,0-3.10811-.85222,0.60653,0.60653,0,0,0-.40469.38414c-0.22478.83308-.40425,1.67837-0.6155,2.58856,0.73957,0.02287,1.47673.02976,2.21159,0.07464a0.6835,0.6835,0,0,0,.83194-0.49717,0.60721,0.60721,0,0,1,.18121-0.171ZM32.74111,60.557c-0.6103,0-1.17055-.0178-1.729.00649a3.3855,3.3855,0,0,1-1.0407.12c-0.885-.29512-1.35232.289-1.88,0.76267a0.8431,0.8431,0,0,0-.16325,1.06043,0.92516,0.92516,0,0,0,.88762.68079,7.39249,7.39249,0,0,0,2.79831-.49672c1.27977-.406,1.33686-0.316,1.21953-1.85866A1.42356,1.42356,0,0,0,32.74111,60.557Zm22.8262-6.05385c0-.41448.00739-0.67074-0.0014-0.92645a0.95963,0.95963,0,0,0-.90617-1.12766,4.081,4.081,0,0,0-2.06729.11707,0.4973,0.4973,0,0,0-.394.57878,1.09656,1.09656,0,0,1-.19951.92039L51.74624,52.9218a6.15242,6.15242,0,0,0-.75377.59161,0.4965,0.4965,0,0,0,.11921.88752,2.62238,2.62238,0,0,0,1.834.46814c0.40974-.05508.82826-0.04561,1.23762-0.10261C54.63449,54.70364,55.07968,54.59791,55.56731,54.50313Zm1.1287-1.39172a1.42947,1.42947,0,0,0,1.14512,1.42632,2.72822,2.72822,0,0,0,1.51153.10931c0.54174-.16743,1.09588-0.29735,1.63073-0.48352a0.79883,0.79883,0,0,0,.49631-1.01037,0.64184,0.64184,0,0,0-.70987-0.661c-0.65457-.04368-1.31426-0.01076-2.05539-0.01076v1.65976l-0.17026.00994L58.2966,52.48638A2.29462,2.29462,0,0,0,56.696,53.11142Zm13.41737,2.03687c0.07141-.83236-0.0739-1.18575-0.61947-1.34331a3.59185,3.59185,0,0,0-1.0715-.14138c-0.36848.00931-.83-0.28153-1.09387,0.10314-0.309.4505-.69561-0.16243-0.96985,0.15405a1.33234,1.33234,0,0,1-.13206.07777c-0.47284.417-.94372,0.83618-1.47372,1.30688l1.19729,0.57886c0.19155-.24314.32921-0.42712,0.47687-0.6027a1.03127,1.03127,0,0,1,.55056-0.55261l-0.32289,1.06533a4.6538,4.6538,0,0,0,1.71-.46538C68.96772,54.8321,69.52909,55.44906,70.11338,55.14829Zm-7.30246,7.87393c0.3321,0.76145.62657,1.47476,0.96134,2.16861a0.54449,0.54449,0,0,0,.43523.2319,3.404,3.404,0,0,0,1.89209-.60968,0.74355,0.74355,0,0,0,.26579-1.07348,0.91058,0.91058,0,0,0-.99653-0.67008,0.82168,0.82168,0,0,1-.55558-0.21254C63.9203,62.17282,63.60481,62.18939,62.81092,63.02222ZM65.099,61.876a0.54835,0.54835,0,0,0,.10538.15731,3.45052,3.45052,0,0,1,1.79882,1.38733,0.45837,0.45837,0,0,0,.12568.08481,1.31139,1.31139,0,0,0,1.45285.03827,0.96424,0.96424,0,0,0,.81112-0.61945c0.0918-.41414-0.33455-0.46772-0.50984-0.6964a1.71981,1.71981,0,0,0-.229-0.20665,3.44945,3.44945,0,0,0-2.65332-.81763A0.93745,0.93745,0,0,0,65.099,61.876ZM30.86673,56.23214a2.81312,2.81312,0,0,0,.81392.38548,18.03927,18.03927,0,0,0,2.07775.05811,1.10048,1.10048,0,0,0,.74945-0.21727,0.67693,0.67693,0,0,0-.17951-0.83753,1.62194,1.62194,0,0,0-.46206-0.39849A2.18923,2.18923,0,0,0,30.86673,56.23214Zm31.22749-2.18438a1.684,1.684,0,0,0,1.96591.34864,0.35438,0.35438,0,0,1,.24258.02293,0.68976,0.68976,0,0,0,1.00156-.4207c0.18384-.66287.02466-1.03753-0.517-1.13349a6.21242,6.21242,0,0,0-.921-0.05671A1.55521,1.55521,0,0,0,62.09422,54.04776Zm-14.64071.16932a3.37205,3.37205,0,0,0,2.56366.00713c0.12641-.98021.0076-1.32985-0.58125-1.54944a1.71731,1.71731,0,0,0-.5623-0.00935l0.0363,0.58242a0.79519,0.79519,0,0,1-.69375-0.38009A1.05589,1.05589,0,0,0,47.45351,54.21708ZM42.35815,52.3878a1.64546,1.64546,0,0,0-1.32942.44629c-0.59469.51443-.27462,1.13278-0.2299,1.71722a0.536,0.536,0,0,0,.49149.51565,0.51567,0.51567,0,0,0,.57749-0.408c0.19929-.52594.38893-1.058,0.53522-1.60028A2.12627,2.12627,0,0,0,42.35815,52.3878ZM80.33163,60.258a6.32428,6.32428,0,0,0,.79156-3.48276C80.94315,57.95834,79.87827,58.92292,80.33163,60.258ZM59.516,38.85306a2.93881,2.93881,0,0,0,2.48-.56558A2.19965,2.19965,0,0,0,59.516,38.85306ZM43.7743,42.6776l0.02636,0.1437c0.54027,0.14089,1.07757.29567,1.62309,0.41191a0.45884,0.45884,0,0,0,.39161-0.13562,1.16841,1.16841,0,0,1,.74842-0.57118ZM58.51679,59.33c0.78357-.83491.51278-1.51378-0.47917-2.08994l-0.25462.63258C58.79784,58.4131,58.79784,58.4131,58.51679,59.33ZM26.93315,61.45529l0.149-.02556V58.05309l-0.159-.0176a5.25767,5.25767,0,0,0-.12538,1.1606,5.35305,5.35305,0,0,1,.11069,1.98235A0.84238,0.84238,0,0,0,26.93315,61.45529ZM52.91565,47.59352L54.27529,46.424A2.14456,2.14456,0,0,0,52.4551,47.41Zm8.14316,11.84422,0.1584,0.15113L62.11164,59.12l-0.27569-1.12129ZM64.28316,38.71c-0.93979-.67559-1.64167.05243-2.40371,0.23244Zm15.40132,21.0347-0.21626-.00041-0.17086,2.33971A3.28249,3.28249,0,0,0,79.68448,59.74465Zm-32.691-22.0313L46.97327,37.439l-1.73839-.324,0.96494,0.83383ZM46.229,44.19627a1.98094,1.98094,0,0,0-1.56506.67124A1.76464,1.76464,0,0,0,46.229,44.19627Zm1.74919,0.65279a1.126,1.126,0,0,0-1.26783.50465A1,1,0,0,0,47.97814,44.84906Zm-3.99467-7.74591a2.18811,2.18811,0,0,0,1.59289.99059A3.78666,3.78666,0,0,0,43.98347,37.10315ZM80.26714,56.19252a4.4992,4.4992,0,0,0-.48451,1.76608A1.90211,1.90211,0,0,0,80.26714,56.19252ZM35.30728,41.13326c-1.10187-.08764-1.27334-0.01149-1.42092.60095ZM24.40437,60.99634l-0.13443.01688v1.69552l0.13443,0.00311V60.99634Zm25.7449-14.30116a2.82787,2.82787,0,0,0,1.32923-.87966A1.50373,1.50373,0,0,0,50.14927,46.69518Zm6.05068-.10156c-1.01749-.20111-1.01749-0.20111-1.2553.12291a1.72633,1.72633,0,0,0,.56768.16882A2.50123,2.50123,0,0,0,56.19995,46.59363Zm-0.59981,1.02823c0.91788-.32185,1.1277-0.499,1.23554-0.92673a0.14244,0.14244,0,0,0-.07389-0.00774Q56.179,47.15215,55.60014,47.62186Zm0.29821-9.71727a1.435,1.435,0,0,0,1.55622,0H55.89835Zm-2.59371,8.27362a2.333,2.333,0,0,0-1.57416.99208ZM74.57129,62.07586L74.39635,60.6115C74.43895,61.102,73.97463,61.64086,74.57129,62.07586ZM55.04713,36.20278a1.21027,1.21027,0,0,0,.64657.8963A0.87683,0.87683,0,0,0,55.04713,36.20278Zm-21.08019.92338c0.0136,0.645.0136,0.645,0.79259,0.419Zm1.66294,2.03479-0.0646.183L37.125,39.86982l0.03874-.10991ZM50.757,46.95044l0.10836,0.11484,1.14328-.81874A2.172,2.172,0,0,0,50.757,46.95044Zm4.15661,0.34734-0.78019.47621C54.73639,48.10388,54.87219,47.76018,54.91356,47.29778ZM70.2632,62.51968v1.055A0.75828,0.75828,0,0,0,70.2632,62.51968Zm0.99351,0.85719,0.17222-1.186C70.78453,62.551,71.19456,62.98536,71.25671,63.37688ZM49.58582,43.50016c0.33585,0.22267.53166,0.20043,0.67135-.09085a0.43153,0.43153,0,0,0-.07053-0.17449Zm-11.5296-4.54073,0.07364-.14129-0.78791-.39153-0.05969.11438ZM35.26529,40.5747c-0.305-.17043-0.6022-0.28182-0.81686.17863ZM22.978,62.48071l-0.27008.06414,0.16549,0.50445,0.18439-.04573Zm26.036-17.27085c-0.456-.18281-0.58935-0.03924-0.64125.28068Zm8.48009,13.937-0.36746.56634C57.502,59.72774,57.63383,59.5929,57.49415,59.14691Zm-3.28152-22.092c-0.01352-.28732-0.055-0.55343-0.427-0.55127ZM47.2865,43.43383l-0.03114-.12922-0.5904.1335,0.03386,0.143ZM20.23736,63.07891l0.16314-.02148-0.04366-.44556-0.11948.01227v0.45477ZM53.03281,39.89813l0.02207,0.12061,0.38391,0.03481-0.06159-.32981Zm6.479,16.93247-0.06238.1235,0.3888,0.16383,0.03625-.08187ZM54.38887,36.01125l0.10129-.14795-0.34654-.14005-0.0452.08805Zm-6.50412,1.54632,0.02189-.10633-0.37876-.08662-0.0231.12413Zm6.12173,2.57172c0.318,0.02441.488,0.03445,0.46206-.344ZM25.07335,63.0628l-0.01914-.0019-0.01383.28963Zm48.66994-1.2854-0.06384-.00018V62.158l0.06384,0.00013V61.77739ZM34.64491,38.72814l-0.149.0371a0.56836,0.56836,0,0,0,.09776.19128,0.39029,0.39029,0,0,0,.169-0.06064ZM71.72423,63.67177l-0.06326.02356,0.05539,0.26717,0.06873-.01764Z"/><path d="M28.50439,64.54146l0.19267,0.69341C28.18713,65.1888,28.18713,65.1888,28.50439,64.54146Z"/><path d="M64.075,52.14641a1.26715,1.26715,0,0,1-.35061-1.22169,1.07247,1.07247,0,0,0,.02348-0.66978,1.8872,1.8872,0,0,1-.03429-1.48617A3.69537,3.69537,0,0,0,63.71121,47.86a0.52291,0.52291,0,0,1,.54594-0.65481c-0.04748.52877-.05476,1.00428-0.14029,1.46526a2.52988,2.52988,0,0,0,.08014,1.791,0.732,0.732,0,0,1,.01263.38132C64.17166,51.26013,64.12429,51.67668,64.075,52.14641Z"/><path d="M66.51993,51.10234a0.41575,0.41575,0,0,1-.31308-0.5843c0.1538-.45432.34315-0.89662,0.517-1.3442C67.04257,49.67639,67.03,49.80191,66.51993,51.10234Z"/><path d="M37.26581,47.65028c-0.078.40319-.14332,0.80975-0.24728,1.20614a0.34262,0.34262,0,0,1-.31171.10376,0.36255,0.36255,0,0,1-.19695-0.28516,2.20185,2.20185,0,0,1,.56769-1.09232Z"/><path d="M45.13949,46.61988c0.40115,0.27263.41892,0.47158,0.11187,1.25319A0.81208,0.81208,0,0,1,45.13949,46.61988Z"/><path d="M55.57168,52.14425a1.27437,1.27437,0,0,1,.29172-1.60143,3.24531,3.24531,0,0,1-.23082,1.65076Q55.60256,52.16854,55.57168,52.14425Z"/><path d="M48.55234,49.13761a1.548,1.548,0,0,1,.27822-1.28276,1.37551,1.37551,0,0,1,.46265-0.04834l-0.5313,1.385Z"/><path d="M66.66985,47.415v1.37974a1.06933,1.06933,0,0,1-.45933-0.18109C66.04868,48.35651,66.18,48.02454,66.66985,47.415Z"/><path d="M39.47427,46.86273c0.10513-.94389.17934-1.04129,0.69965-0.98535A1.18779,1.18779,0,0,1,39.47427,46.86273Z"/><path d="M56.38919,48.86926l-0.41108.99062a0.66274,0.66274,0,0,1-.17627-0.90193C55.87639,48.74586,56.05266,48.639,56.38919,48.86926Z"/><path d="M45.46659,48.74034A1.52932,1.52932,0,0,1,45.42,50.0567a0.96064,0.96064,0,0,1-.29006-0.35648,8.69388,8.69388,0,0,1,.17-0.98656Z"/><path d="M37.367,46.13716a0.72888,0.72888,0,0,1-.10623,1.02442A0.66741,0.66741,0,0,1,37.367,46.13716Z"/><path d="M52.09588,49.795a0.80008,0.80008,0,0,1-.09786-0.13758,0.48039,0.48039,0,0,1,.19519-0.65752,0.3374,0.3374,0,0,1,.30352.124A0.56685,0.56685,0,0,1,52.09588,49.795Z"/><path d="M66.866,46.27272c-0.33686-.13777-0.48127-0.30616-0.28316-0.60036a0.29279,0.29279,0,0,1,.25455-0.10363C67.133,45.74124,67.07223,45.96991,66.866,46.27272Z"/><path d="M64.00639,43.0406A0.99193,0.99193,0,0,1,62.96508,44.184a0.8079,0.8079,0,0,1-.87331-0.781,1.15054,1.15054,0,0,1,1.13292-1.20447A0.74733,0.74733,0,0,1,64.00639,43.0406Z"/><path d="M50.89891,38.77107a0.95892,0.95892,0,0,1,1.06632-.5891A1.4976,1.4976,0,0,1,50.89891,38.77107Z"/><path d="M50.38548,61.19133a1.72138,1.72138,0,0,1-.22526.20366,0.53649,0.53649,0,0,1-.91872-0.36125A1.00629,1.00629,0,0,1,49.217,60.573a0.81588,0.81588,0,0,0-.10582-0.80729,0.70226,0.70226,0,0,1,.69793-0.99465,1.32031,1.32031,0,0,0,.6482-0.07139,0.73747,0.73747,0,0,1,.871.57121,0.61324,0.61324,0,0,1-.48766.86611c-0.06872.02467-.13861,0.047-0.20457,0.07772a0.47273,0.47273,0,0,0-.03837.14883c0.47857,0.00457.94378-.372,1.39949-0.06121a2.19612,2.19612,0,0,1,1.52218-.2382,1.75774,1.75774,0,0,1-.88751,1.45425c-0.34091.22578-.55088-0.12874-0.75933-0.30668a3.149,3.149,0,0,1-.80145.60924C50.6142,61.96967,50.64721,61.404,50.38548,61.19133Z"/><path d="M52.73,62.23272a0.918,0.918,0,0,1-.69228.98615,0.708,0.708,0,0,1-.49475-0.77493,0.77428,0.77428,0,0,1,.82456-0.64136A1.13213,1.13213,0,0,1,52.73,62.23272Z"/><path d="M59.49748,61.50488a1.06259,1.06259,0,0,1-.85552.68951,0.5394,0.5394,0,0,1-.42819-0.18945,0.90814,0.90814,0,0,1,.36909-1.00072,0.58051,0.58051,0,0,1,.80041.31978q0.06,0.0967.12046,0.19341Z"/><path d="M51.01461,57.40549a0.455,0.455,0,0,1-.436-0.56445,1.6288,1.6288,0,0,1,.34251-0.72555,0.48443,0.48443,0,0,1,.72005.151,0.37761,0.37761,0,0,1-.162.57513,1.50641,1.50641,0,0,0-.33967.2562A1.00691,1.00691,0,0,0,51.01461,57.40549Z"/><path d="M65.0959,57.64659l0.53106-.31418a0.66989,0.66989,0,0,1,.08552.26267C65.58817,57.92493,65.39674,57.8991,65.0959,57.64659Z"/><path d="M38.504,60.40873a1.72633,1.72633,0,0,1,1.28084-1.31232,1.00719,1.00719,0,0,0,.29054-0.32348c-0.48727-.15824-1.05838-0.04776-1.08785-0.73405a1.2729,1.2729,0,0,1,.68466-1.19722c0.354-.1927.44473-0.16246,1.19134,0.42426l-0.36072.79278a0.3645,0.3645,0,0,0,.49443-0.348A3.41155,3.41155,0,0,1,41.134,57.029a0.52047,0.52047,0,0,1,.67846-0.44607,0.96752,0.96752,0,0,0,.59491-0.22073,0.503,0.503,0,0,1,.62132-0.13751,0.61176,0.61176,0,0,1,.23607.75239,3.90953,3.90953,0,0,1-.25137.47845c0.59955,0.13759.59955,0.13759,0.75016,0.77675a3.48578,3.48578,0,0,1,2.1619.15868c-0.05967.15992-.11494,0.34046-0.19348,0.51024a4.15491,4.15491,0,0,0-.30881.60532,1.3658,1.3658,0,0,1-1.26523,1.10434c-0.10263.00753-.20538,0.01323-0.33524,0.02151-0.12743.21347-.24338,0.44359-0.39259,0.64962-0.24864.34336-.47186,0.37073-0.72414,0.01983a0.48013,0.48013,0,0,0-.70774-0.20511,0.66846,0.66846,0,0,1-.92464-0.19205c-0.22551.16913-.44892,0.45946-0.78148,0.21516-0.22542-.16561-0.44233-0.3428-0.75582-0.58711-0.26045.10143-.70032,0.48337-1.04072-0.14Zm2.96191-.53225,0.07358,0.149a3.05824,3.05824,0,0,0,.42467-0.18657c0.74818-.46988.74593-0.47232,1.45156,0.01765a0.33776,0.33776,0,0,0,.10727-0.0701l-0.50141-.67C42.17,58.83612,42.06183,59.7705,41.466,59.87648Zm0.03644-2.35634,0.17519,0.9054a0.53968,0.53968,0,0,0,.79376-0.47153Zm-1.28865,2.45547c0.68945-.24039.84546-0.41318,0.65543-0.71876H40.29575Zm4.22848-.74173,0.09006,0.11178a0.29261,0.29261,0,0,0,.14189-0.02911,1.03108,1.03108,0,0,0,.04087-0.23574Z"/><path d="M47.357,56.68455a9.21007,9.21007,0,0,1-1.16919,1.0725c-0.50118.31657-.85957,0.06063-0.8226-0.524a2.19122,2.19122,0,0,1,.11081-0.60776,0.51842,0.51842,0,0,1,.78413-0.35074C46.57514,56.39187,46.88989,56.50993,47.357,56.68455Z"/><path d="M45.38988,60.42931L46,60.81853c-0.20662.32185-.394,0.63171-0.59974,0.92888a0.65294,0.65294,0,0,1-.76782.36875,0.7998,0.7998,0,0,1-.40972-0.49109,0.7304,0.7304,0,0,1,.35439-0.85961A7.85683,7.85683,0,0,1,45.38988,60.42931Z"/><path d="M47.52583,61.33106c-0.20758.18291-.42721,0.35406-0.61986,0.55151a0.57029,0.57029,0,0,1-.8624.09326,0.47484,0.47484,0,0,1,.01187-0.738c0.20268-.2556.37723-0.53351,0.57829-0.822l0.97221,0.29957-0.09076.62731Z"/><path d="M45.10888,57.00422a0.73918,0.73918,0,0,1-.66645.78515,0.80827,0.80827,0,0,1-.70123-0.77712,1.11479,1.11479,0,0,1,.87231-0.75252A0.643,0.643,0,0,1,45.10888,57.00422Z"/><path d="M49.889,66.19892a0.45432,0.45432,0,0,1-.09261-0.1912,0.41989,0.41989,0,0,1,.12885-0.14952L50.07671,66.069Z"/><path d="M35.02885,64.762l0.33415-.16025L35.44351,64.743l-0.32874.203Z"/><path d="M60.90946,65.91335a0.7816,0.7816,0,0,1,.75024-0.54234A0.65891,0.65891,0,0,1,60.90946,65.91335Z"/><path d="M37.06281,54.7162a0.91574,0.91574,0,0,1-.08415.98079C36.59846,55.26156,36.60529,55.19944,37.06281,54.7162Z"/><path d="M70.76843,60.58519l0.38948-.03048,0.00383,0.13718H70.77249Z"/><path d="M29.67709,58.324l0.76652,0.10017C29.91436,58.70533,29.91436,58.70533,29.67709,58.324Z"/><path d="M32.94046,57.73686c-0.1529.41345-.34989,0.39681-0.6834,0.07357Z"/><path d="M30.036,62.29267l-1.0682.18675-0.0327-.1781,1.07361-.21864Z"/><path d="M30.87783,61.78639l0.33156-.03449,0.04122,0.0977a0.62373,0.62373,0,0,1-.18722.11922,0.517,0.517,0,0,1-.202-0.04487Z"/><path d="M42.18521,40.54125c-0.75788.18609-.92921,0.09725-1.30416-0.67791Z"/></g><text x="0" y="115" fill="#000000" font-size="5px" font-weight="bold" font-family="'Helvetica Neue', Helvetica, Arial-Unicode, Arial, Sans-serif">Created by Olga</text><text x="0" y="120" fill="#000000" font-size="5px" font-weight="bold" font-family="'Helvetica Neue', Helvetica, Arial-Unicode, Arial, Sans-serif">from the Noun Project</text></svg>