<svg xmlns="http://www.w3.org/2000/svg" data-name="Слой 1" viewBox="0 0 100 125" x="0px" y="0px"><title>Безымянный-1-01-01-01-01-01-01-01-01-01-01-01-01-01-01-01-01-01-01-01-01-01-01-01-01-01-01</title><g><path d="M17.75,15.55009c1.63946-.21431,3.26838-0.41009,4.89389-0.644,1.9631-.28253,2.48019-0.90375,2.31916-2.92366-0.12279-1.54153-.38063-3.06486-0.54211-4.602a2.15492,2.15492,0,0,1,2.00785-2.6903c2.45531-.441,4.89034-1.03966,7.50464-1.60843A12.61259,12.61259,0,0,1,34.4013,4.6824c0.32731,2.0962.94354,2.644,2.97281,2.44549,0.85927-.0841,1.71346-0.27832,2.78761-0.45915C40.0832,5.38016,40.00495,4.096,39.91817,2.67219c2.52071-.25762,4.82819-0.57241,7.13677-0.70522,1.96543-.11311,2.48785.33587,2.63771,2.1929,0.19394,2.40267.23045,4.82583,0.35631,7.23792,0.08342,1.59833-.18748,3.31645,1.1733,4.59978,1.66656-.49869,1.30413-1.75551,1.3569-2.86386,0.166-3.48483.359-6.96977,0.55922-10.79287a24.42009,24.42009,0,0,1,10.29529.45494L63.14344,8.33711c2.93828,1.56233,5.90365.72734,8.768,0.768,0.42386-.96127.80586-1.82748,1.08039-2.4502,2.09227-.21855,3.91838-0.50033,5.74263-0.579,2.89-.12453,3.89235.58522,3.39254,3.63687-1.08866,6.64664-1.79776,13.3357-2.66947,20.00685-0.53048,4.0596-1.0751,8.11809-1.63973,12.37607,1.82308,0.76666,2.26941,1.94345,1.627,4.266-1.06768,3.86013-1.384,7.89183-2,11.85294-0.7957,5.11749-1.67508,10.22906-2.334,15.35718q-1.04662,8.1452-1.70231,16.31767a5.147,5.147,0,0,1-1.95175,4.0349,14.20687,14.20687,0,0,1-7.208,3.26539,54.16843,54.16843,0,0,1-11.03167.78714c-6.99922-.54072-14.14251-0.65655-20.68852-3.411a14.63111,14.63111,0,0,0-2.4915-.69936,2.30379,2.30379,0,0,1-1.84464-2.22719c-0.80707-5.03021-1.61063-10.06321-2.55761-15.06138-1.16306-6.13863-2.5554-12.223-3.68129-18.3698-0.795-4.34048-1.0194-8.81063-2.449-13.01018a3.70069,3.70069,0,0,1,.51108-1.79537,5.72493,5.72493,0,0,0,.70882-2.03622c-0.76174-6.30431-1.65448-12.586-2.44048-18.8863C18.01481,20.3234,17.94247,18.13207,17.75,15.55009Zm4.40092,32.03467c1.22965,5.83063,2.42729,11.06237,3.42477,16.34179q2.32969,12.32908,4.40441,24.718a4.09363,4.09363,0,0,0,2.835,3.46735c5.3358,2.263,11.0311,3.16812,16.75588,4.02013a23.759,23.759,0,0,0,4.807.61965,76.97258,76.97258,0,0,0,8.42381-1.09479,15.48864,15.48864,0,0,0,4.49855-1.32844c1.2689-.65912,2.80537-1.66342,3.29-2.85341A26.52987,26.52987,0,0,0,72.043,84.6844c0.3297-2.7074.23442-5.44584,0.58729-8.15009,0.59432-4.55507,1.4113-9.09245,2.09628-13.641a17.8005,17.8005,0,0,0,.01771-2.42016c-2.11785.40178-3.95265,0.74989-6.3635,1.20726,2.04056,0.99081,4.2145.04674,5.18927,2.15982-1.82522,1.70623-4.14752,1.72094-6.14968,2.662l-0.21667-.56384c1.463-.68388,2.926-1.36769,4.94811-2.3129-1.87357-.29459-3.12846-0.40435-4.32573-0.70536-1.15424-.29016-2.249-0.77794-3.804-1.33429-1.33054.24456-3.191,0.58647-5.34572,0.98246,2.32328,1.772,5.48926-.08107,7.63966,2.13592-1.05028.506-1.86915,0.90047-3.00524,1.44776,1.01533,0.33034,1.70564.55492,2.27471,0.74,0.0046,0.8047.009,1.57171,0.01158,2.008-2.21535.49612-4.292,0.98189-6.37613,1.421-1.48231.31229-2.97475,0.56185-4.46267,0.83945,2.72733-1.446,5.8704-1.39152,8.78058-3.7999-4.13223-.8164-7.91131-0.36931-11.639-0.27768-3.79473.09334-7.62114,0.763-11.35557-.186,7.58882-1.31088,15.3177.07258,22.817-2.66272-2.79441-.33077-5.64032-0.05823-8.37482-0.40734-2.73782-.34968-5.61911.79035-8.26094-0.41105a5.55558,5.55558,0,0,1,2.51588-.76752c5.37978,0.07172,10.64419-1.21968,15.94289-2.0906,0.75561-.12417,2.02108-0.33084,2.13723-0.72413,0.50483-1.70866,1.59176-1.23559,2.40756-.82218,1.79157,0.90782,3.5099.43967,5.46634-.00592,0.41966-2.31568.81282-4.48528,1.21852-6.72382-3.07671-1.10756-5.7941-2.10494-9.01928-.40106l1.00367-2.33288a4.30413,4.30413,0,0,0-1.30116.01477A3.53619,3.53619,0,0,1,63.676,51.8618a1.24308,1.24308,0,0,0-.90794.59375c-0.38409,1.58485-1.62169,1.5877-2.777,1.6465-3.16974.16164-6.32565,1.37967-9.53191,0.08721-1.17685-.47443-2.86714.26212-4.32209,0.32592-1.04216.04567-2.29587,0.63949-3.0433-.50561,5.395-1.21247,10.69962-2.40467,16.50034-3.70834-2.55018,0-4.57905-.17441-6.58842.03233-6.40715.6589-12.71993,0.83239-18.992-.55792-2.88429-.63935-5.88645-0.86486-8.716-1.7968A19.32617,19.32617,0,0,0,22.15092,47.58476ZM74.1972,8.35848c-0.94427,6.44311-2.05471,12.78067-2.75405,19.14192-0.69428,6.315-2.65863,12.51038-3.0351,19.35616,2.11976-.83067,3.76375-1.44476,5.38494-2.11972a3.38171,3.38171,0,0,0,2.12755-2.95631c0.50649-3.86588,1.09067-7.72594,1.67368-11.58536,0.75762-5.01455,1.61278-10.02064,2.28639-15.04183,0.3037-2.26412.27-4.55589,0.40214-7.07853C78.2216,8.17087,76.31,8.26,74.1972,8.35848Zm-41.49052-2.102c-1.61434.21017-2.6669,0.37823-3.72239,0.478-2.12948.20135-2.41236,0.36074-2.30063,2.4786,0.19126,3.62417.37471,7.26675,0.89954,10.83483,1.1719,7.96883,2.5283,15.90169,3.859,23.83848,0.552,3.29258,1.17045,3.68258,4.92672,3.45986-0.07133-10.99212-2.17068-21.547-5.12787-32.10471,0.71131-.30715,1.495-0.64552,2.4644-1.06414C33.37832,11.58323,33.05529,9.021,32.70668,6.25647ZM55.22594,16.25723c1.08312,10.68154,1.02567,20.744,3.235,30.524A77.28369,77.28369,0,0,0,59.555,36.95774c0.13-2.42315-.06715-4.85073.13052-7.269,0.54031-6.60856,1.31231-13.2111,1.80311-19.82013,0.45873-6.17646.46887-6.19419-6.15464-5.75762a2.108,2.108,0,0,0-.72249.37341c-0.14061,2.68456-.19013,5.306-0.4452,7.91823C53.99284,14.17941,54.13871,15.69728,55.22594,16.25723ZM29.99885,45.924c-0.95413-5.27706-1.85287-9.96862-2.641-14.68415-0.79966-4.78469-1.49024-9.59307-2.274-14.686-1.88524.461-3.33169,0.8148-5.03678,1.23181,0.84686,8.0596,1.69661,15.78333,2.44323,23.52237a3.659,3.659,0,0,0,2.6582,3.30335C26.55033,45.12578,28.04772,45.40845,29.99885,45.924Zm8.89864-29.45269a7.06133,7.06133,0,0,0-5.40658-.00553c1.05877,5.28894,2.25671,10.41286,3.07746,15.61516,0.81614,5.173,1.25336,10.42474,1.85732,15.64714,1.79563,0.15572,3.27229.28381,5.1146,0.4436C41.96353,37.40576,40.43751,26.98609,38.89749,16.47129ZM56.11415,47.47243c-0.14869-2.276-.27045-4.28011-0.41231-6.28179-0.30683-4.328-.57771-8.6612-0.95146-12.98013-0.29564-3.41768-.7226-6.81727-1.12772-10.56176-2.19332.40656-3.943,0.73091-5.64955,1.04723,1.47951,9.96016,2.89939,19.51908,4.36106,29.35935C53.78379,47.83175,54.882,47.6624,56.11415,47.47243ZM41.62389,4.49275a15.51762,15.51762,0,0,1,1.03327,3.47313A95.55015,95.55015,0,0,0,44.376,23.9993c0.44984,2.34961,1.22576,4.635,1.50573,7.00827a77.44254,77.44254,0,0,0,3.42816,14.81236c0.18263,0.564.45469,1.09493,0.68534,1.64122-1.08305-10.24144-1.86184-20.477-4.51609-30.5279,1.26022-.25627,2.08094-0.42319,2.95222-0.60038-0.26749-4.11576-.52752-8.11659-0.8078-12.42838C45.564,4.10642,43.77994,4.28137,41.62389,4.49275ZM71.25943,17.90463c-1.897.22148-3.06691,0.35807-4.356,0.50854-1.36277,9.79131-2.67768,19.23848-4.0542,29.12863l3.48735-.5236C67.96113,37.41083,69.55652,27.97565,71.25943,17.90463ZM60.9088,45.58522c1.88353-9.63367,3.16475-19.32454,4.37832-29.24292,1.744-1.85153,4.17977.83385,6.36185-1.03124l0.21706-4.1442h-8.75A297.14286,297.14286,0,0,0,60.9088,45.58522Zm-25.70541-35.512c0.41144,1.34431.411,2.81169,1.0821,3.21,1.163,0.69019,2.74163.71838,4.12353,1.01936,0.12706,1.16715.21128,2.22148,0.36,3.26336q2.03817,14.27763,4.09839,28.55094c0.294,2.03743.64388,2.1888,2.86573,1.32758-0.80166-3.43431-1.712-6.84228-2.38135-10.30859C44.116,30.7364,43.02,24.303,41.86863,17.88311c-0.40684-2.26872-.76762-4.54879-1.21952-6.80621-0.34021-1.7-.85658-2.09417-2.52724-1.87687A20.6838,20.6838,0,0,0,35.20339,10.07325ZM76.9562,46.82531l-0.73674-.386c-1.17538,1.09172-2.35075,2.18337-3.67728,3.4154,1.41421,0.46329,2.54954.83524,3.90692,1.28C76.63326,49.56988,76.7947,48.19756,76.9562,46.82531Z"/><path d="M68.74553,72.59738c-0.55734.79963-1.11469,1.59933-1.75636,2.51992,1.25547,0.58925,2.35074,1.10328,3.64312,1.70987-1.87136,2.03536-4.108,1.83148-6.20817,2.7951,1.71,0.49576,3.22625.93529,4.80736,1.39359-0.5925,2.06626-2.05108,1.6667-3.28116,1.86259l1.16427-1.3796c-0.64855-.1363-1.15558-0.2851-1.67739-0.345a51.20376,51.20376,0,0,0-6.027-.59332,33.51214,33.51214,0,0,0-5.216.72491c-1.64318.27168-3.29174,0.53715-4.91572,0.9233-1.4103.33534-2.88377-.1206-4.22812,1.415-0.65756.751-2.74636,0.27111-4.30837-.11989a4.75,4.75,0,0,1,1.26936-.72791c4.03422-.80984,8.07936-1.54759,12.11437-2.35215,1.19353-.238,2.36553-0.62072,3.5474-0.93708l-0.06952-.74511q-7.1054.28678-14.21087,0.57369l-0.05217-.583a7.76516,7.76516,0,0,1,1.49409-.495C48.32906,77.82064,51.868,77.701,55.30728,76.965c2.10232-.45,3.51391.67524,4.942,1.31338,2.79624,1.24958,4.9987-.01556,7.78244-1.01943-1.47344-1.12562-2.95722-.739-4.28233-0.72877a40.659,40.659,0,0,0-4.53506.53487c0.08662-.79949.15422-1.42392,0.23158-2.138,3.19847-.77972,6.27477-1.52961,9.35107-2.2795Z"/><path d="M70.05483,56.017c-1.36208,1.41771-2.71889,1.19085-3.88674,1.49043-0.881.22594-1.41452,0.46087-.80907,1.45011l-15.05643,1.125-0.064-.40984a12.10229,12.10229,0,0,1,1.30143-.37409c4.42694-.76637,8.85706-1.50635,13.282-2.28835a2.66246,2.66246,0,0,0,1.30281-.60217C67.25273,55.34542,68.39348,55.50349,70.05483,56.017Z"/><path d="M51.2238,92.12271c3.29437-1.02471,6.58193-1.45489,9.85505.17563q-4.90875.2446-9.81751,0.48927Z"/><path d="M43.78492,88.46989c2.73885-.28717,5.4771-0.59275,8.2178-0.824a3.96525,3.96525,0,0,1,.99927,1.227H43.813Z"/><path d="M45.27946,56.04207c1.93287-1.23274,3.29619-.659,4.85521.807C48.32182,56.84363,46.71848,57.6504,45.27946,56.04207Z"/><path d="M58.65562,83.80719c1.51606-.03832,2.05557.87727,2.07709,2.41488-0.34808.04974-.79979,0.14059-1.25243,0.17156-0.47341.0324-.9478,0.00721-1.5023,0.00721,0.27008-.96134.5039-1.79316,0.73766-2.625Z"/><path d="M62.68135,90.22829c-1.09351.26583-1.98854,0.48342-3.20132,0.77829C61.51644,89.33374,61.51644,89.33374,62.68135,90.22829Z"/><path d="M60.12005,55.95751q2.148-.1124,4.29588-0.22487L64.42338,56.25l-4.24762.24492Z"/><path d="M62.85914,92.1013c1.11384-.10348,2.22761-0.20688,3.51284-0.32627C65.551,93.34431,65.39811,93.36165,62.85914,92.1013Z"/><path d="M68.797,72.64755c0.991-.59967,1.982-1.19934,2.949-1.78452-0.16247,1.87565-.23107,1.917-2.994,1.74085C68.74553,72.59738,68.797,72.64755,68.797,72.64755Z"/><path d="M57.21016,56.32068h-1.766l0.01307-.20731h1.76618Z"/><path d="M58.71564,83.77579H56.22191l0.04783-.28781c0.79081,0.1099,1.58161.2198,2.37911,0.32449C58.65562,83.80719,58.71564,83.77579,58.71564,83.77579Z"/></g><text x="0" y="115" fill="#000000" font-size="5px" font-weight="bold" font-family="'Helvetica Neue', Helvetica, Arial-Unicode, Arial, Sans-serif">Created by Olga</text><text x="0" y="120" fill="#000000" font-size="5px" font-weight="bold" font-family="'Helvetica Neue', Helvetica, Arial-Unicode, Arial, Sans-serif">from the Noun Project</text></svg>