<svg xmlns="http://www.w3.org/2000/svg" data-name="Слой 1" viewBox="0 0 100 125" x="0px" y="0px"><title>мясо</title><g><path d="M77.645,37.83076a4.97506,4.97506,0,0,1-.6595,4.08358,8.93377,8.93377,0,0,0-.93149,4.09583,18.84293,18.84293,0,0,0,.59944,5.31322,19.50035,19.50035,0,0,1,.42055,6.92155,10.13394,10.13394,0,0,0-.07558,2.12141,8.86526,8.86526,0,0,1-1.20768,5.02358c-0.66809,1.29307-1.4381,2.534-2.09225,3.83356a6.246,6.246,0,0,1-1.91625,2.25939q-2.35974,1.74054-4.72141,3.47846A15.80291,15.80291,0,0,1,65.683,76.01289c-1.9022,1.10467-3.7767,2.2776-5.76226,3.21073A20.30112,20.30112,0,0,1,55.857,80.401c-1.37361.3186-2.77439,0.51992-4.16289,0.77467a3.18525,3.18525,0,0,0-.60769.13383c-3.36034,1.34264-6.92792,1.32826-10.44957,1.54181-1.40292.08507-2.823-.14759-4.23661-0.19641a48.98457,48.98457,0,0,0-7.313.14438,42.02173,42.02173,0,0,1-4.61225-.03056c-0.83011.0027-1.66294,0.06558-2.48935,0.15137-3.76737.39109-6.55682-1.16643-8.68788-4.20031a6.30726,6.30726,0,0,0-1.747-1.371,8.71851,8.71851,0,0,0-1.64564-.885C7.67019,75.593,6.72487,73.66433,5.8833,71.648a7.56219,7.56219,0,0,1,.16636-5.70518,20.28852,20.28852,0,0,1,5.25389-7.6384,16.22881,16.22881,0,0,0,4.37831-7.43089,8.64529,8.64529,0,0,1,.79509-1.68443c0.72107-1.3547,1.4148-2.72752,2.21151-4.0371a16.06055,16.06055,0,0,1,1.75182-2.24955,2.65177,2.65177,0,0,1,.969-0.52293c0.22642-.09553.49589-0.08763,0.72436-0.17987q5.14459-2.077,10.2831-4.1691,3.58764-1.45312,7.18043-2.89356c1.50627-.603,2.98535-1.30459,4.53634-1.75752a26.96352,26.96352,0,0,1,6.0806-1.33146,27.498,27.498,0,0,1,7.17393.76078,20.91947,20.91947,0,0,0,7.57112.09365,16.94835,16.94835,0,0,1,2.33539-.36181,6.79766,6.79766,0,0,1,2.18269.35107,1.69618,1.69618,0,0,0,1.55166-.03207,36.671,36.671,0,0,0,4.45758-3.17025c0.78328-.71448,1.08471-1.93789,1.67562-2.88709,0.91109-1.46354,1.0304-3.201,1.742-4.74051a9.733,9.733,0,0,1,4.44485-4.86627,2.3546,2.3546,0,0,1,2.6872.7468,5.44669,5.44669,0,0,1,1.54222,4.0867,5.209,5.209,0,0,0,.00793.99995c0.14206,1.30514.5116,2.42286,1.97406,2.87131,0.98907,0.3033,1.8942.91174,2.89267,1.1464a2.80013,2.80013,0,0,1,1.29555,4.71883,6.78422,6.78422,0,0,1-1.62771,1.10667A21.1682,21.1682,0,0,1,86.0395,34.172a13.22053,13.22053,0,0,0-2.88555.698c-1.39183.53656-2.73979,1.19668-4.07336,1.86972A9.92115,9.92115,0,0,0,77.645,37.83076ZM66.03072,47.55718a4.84509,4.84509,0,0,0-1.8226-2.164c-0.46436-.35321-0.954-0.67358-1.41349-1.03268a10.251,10.251,0,0,0-4.94739-1.90612c-1.11055-.16813-2.22616-0.32419-3.32161-0.56649a32.74988,32.74988,0,0,0-8.9239-.79952c-3.196.17521-6.40479,0.30908-9.60139,0.22106a30.04039,30.04039,0,0,0-7.45787.36561c-1.79862.40134-3.66985,0.55411-5.388,1.6233a1.61833,1.61833,0,0,0,.54112.18043c1.76821-.2379,3.54633-0.42924,5.29724-0.76217A37.45087,37.45087,0,0,1,36.786,41.78c1.58025,0.033,3.16284-.023,4.74391-0.0593,1.12184-.02575,2.24344-0.13176,3.3642-0.119,1.70388,0.01938,3.408.09012,5.11,0.17838,1.16021,0.06017,2.32119.15306,3.47394,0.29525,0.987,0.12174,1.96143.34311,2.944,0.505a11.81235,11.81235,0,0,1,5.972,2.52914c1.1026,0.93906,2.35561,1.70152,3.54153,2.54281l1.06026,1.202a4.24262,4.24262,0,0,1,.28832,1.07094,39.73142,39.73142,0,0,1-.12172,4.74476,6.94776,6.94776,0,0,0,.18791,2.7008c0.56281,2.08515,1.141,4.16611,1.70577,6.25072a9.40844,9.40844,0,0,1,.46557,1.93395,7.94615,7.94615,0,0,1-2.47054,6.641,4.74467,4.74467,0,0,1-1.62554,1.32047,9.19448,9.19448,0,0,0-2.798,1.56479c-1.46758.94029-2.90121,1.91514-4.76788,1.98961a5.71182,5.71182,0,0,0-1.92005.802c-0.33756.15708-.63754,0.40288-0.9828,0.53411A20.22,20.22,0,0,1,49.113,79.53575c-1.2427.08658-2.48351,0.20324-3.72373,0.32151-1.113.10614-2.22236,0.313-3.33613,0.33534-3.15714.06334-6.32333-.06878-9.47065,0.12489a23.17181,23.17181,0,0,1-4.96327-.1121,9.06532,9.06532,0,0,0-4.56462.05154,1.48713,1.48713,0,0,1-.49557-0.00819c-1.20825-.0254-2.41665-0.07377-3.62474-0.067a3.33968,3.33968,0,0,1-2.31724-.7755,12.50384,12.50384,0,0,1-1.68246-1.82271,4.89809,4.89809,0,0,0-2.51421-1.95041c-0.75543-.2243-1.49793-0.49215-2.24717-0.74L8.025,72.77388c0.46444,0.98154.91611,1.97872,2.16736,2.1007,0.4643,0.32848.907,0.69419,1.397,0.97827a13.01859,13.01859,0,0,1,3.50647,2.90549,7.27457,7.27457,0,0,0,6.23724,2.7867c1.20423-.07419,2.40908-0.15546,3.61482-0.18367,1.78529-.04175,3.57263-0.0088,5.357-0.06943,0.78146-.02654,1.56005-0.31233,2.336-0.29561,2.45052,0.05275,4.90089.16341,7.34806,0.30707a31.8352,31.8352,0,0,0,8.17519-.71767c1.79392-.361,3.56078-0.87433,5.36483-1.16243a23.13868,23.13868,0,0,0,5.87609-1.58337,55.07051,55.07051,0,0,0,9.98079-6.32315,1.17591,1.17591,0,0,0,.27929-0.38818,10.22178,10.22178,0,0,1,.766-1.39232,2.05247,2.05247,0,0,0,.406-1.86079c-0.36464-1.61465-.66936-3.24276-1.00508-4.864-0.295-1.42482-.69732-2.83558-0.87574-4.27445-0.255-2.05621-.33188-4.1339-0.51785-6.19944-0.12231-1.35852-.166-2.76661-1.46218-3.665Zm8.91063,16.13161q0.0671-.064.13467-0.12745a8.08668,8.08668,0,0,0,.41023-1.55272c0.11816-1.82775.07939-3.66914,0.26939-5.48767a11.4176,11.4176,0,0,0-.35292-4.43622,18.57974,18.57974,0,0,1-.71641-4.76461,12.41309,12.41309,0,0,1,1.42774-6.87175,7.51332,7.51332,0,0,0,.47294-1.49678c-0.76487-.3088-1.41682-0.53747-2.039-0.82957-2.00043-.93919-4.25884-1.44426-5.57035-3.52074-0.54216-.85841-0.63411-0.80033-1.75447-0.41248l0.16844,1.04211a3.03772,3.03772,0,0,1-.6846-0.38439,1.816,1.816,0,0,0-1.91661-.50784c-0.72935.15219-1.48169,0.19325-2.22347,0.28692-2.9535.373-5.78239-.50185-8.64732-0.92743a15.12164,15.12164,0,0,0-5.58373.00819,62.37091,62.37091,0,0,0-6.77516,2.09956c-2.19613.77174-4.34494,1.67809-6.5146,2.52521a12.71989,12.71989,0,0,0-2.83319,1.46663c1.06262,0.07843,1.84343.181,2.62461,0.18387,1.37142,0.00513,2.74317-.04656,4.11459-0.082,2.20549-.057,4.42325.00524,6.6131-0.212a34.178,34.178,0,0,1,8.31344.60377c1.06922,0.154,2.12491.40044,3.19309,0.56328a13.18892,13.18892,0,0,1,5.32965,1.62915c0.62553,0.40183,1.1868.904,1.8137,1.30333a12.94437,12.94437,0,0,1,3.35652,3.30816c0.65727,0.8793,1.39609,1.69762,2.01908,2.44761,0.24979,3.24126.32928,6.46689,0.79026,9.637,0.46015,3.16427,1.30239,6.273,2.032,9.66085l0.896-1.7974c-0.93077-1.41565-.93077-1.41565-0.77921-1.80666l1.15514,0.93349A5.08413,5.08413,0,0,0,74.94134,63.68879ZM23.16328,77.89141a1.95214,1.95214,0,0,0,1.93506.68071C26.04376,78.51,26.99243,78.495,27.94,78.471a1.06068,1.06068,0,0,1,.30863.10719,5.20123,5.20123,0,0,0,1.46295.449c1.702,0.00414,3.4042-.09643,5.10661-0.14712,0.792-.02358,1.588.01747,2.376-0.047,0.72655-.05947,1.604.30351,2.084-0.61928a0.52915,0.52915,0,0,1,.19455-0.02593l0.56288,0.81493c1.14627-.074,2.26873-0.12434,3.38681-0.2238,1.69544-.15083,3.3875-0.3393,5.08163-0.50535a19.07339,19.07339,0,0,0,5.959-1.22931,9.53129,9.53129,0,0,0,2.59334-1.45767,16.44441,16.44441,0,0,0,1.69182-2.40651,2.14012,2.14012,0,0,1,2.02211-1.02078c-0.40406.82476-1.56118,1.03318-1.329,2.08238-1.42733.18139-1.46618,0.23753-.89419,1.405,0.59982-.25931,1.20434-0.52262,1.81041-0.78228,1.86584-.79938,3.03466-2.70523,5.089-3.205a10.4604,10.4604,0,0,0,2.5505-4.2777l-1.02125.25615a2.49638,2.49638,0,0,1,.47247-0.84366,1.53912,1.53912,0,0,0,.4954-1.93531c-0.3307-1.37238-.73545-2.72676-1.09688-4.09194-0.57294-2.164-1.3587-4.29187-1.137-6.594,0.07529-.78193.12521-1.56638,0.207-2.34756a3.57731,3.57731,0,0,0-1.66467-3.75482c-0.66805-.40777-1.3855-0.7338-2.06968-1.11632A1.928,1.928,0,0,1,61.4,46.39276c-0.72453-1.33412-2.11054-1.57338-3.33577-1.97155a31.07789,31.07789,0,0,0-3.55267-.65692,17.37737,17.37737,0,0,0-5.29777-.57161,12.36765,12.36765,0,0,1-1.86565-.03973c-1.11654-.05-2.23283-0.16315-3.34872-0.15717-1.7423.00932-3.48459,0.08545-5.22614,0.15254-2.12088.0817-4.25,0.09318-6.35869,0.30385-1.81345.18118-3.6053,0.58825-5.40261,0.91776a13.89333,13.89333,0,0,0-2.73842.60793,7.16,7.16,0,0,0-3.92473,4.12149,25.95171,25.95171,0,0,1-2.46737,5.035c-0.56833.82181-1.13941,1.64336-1.66815,2.49066a84.95391,84.95391,0,0,1-6.37191,8.73272c-1.34105,1.6415-2.2563,3.49376-.93853,5.65833H9.79347c-0.60147.8-.19581,1.2897,0.276,1.82387a5.0464,5.0464,0,0,0,2.72659,1.409,4.637,4.637,0,0,1,2.31042,1.38173,17.28111,17.28111,0,0,0,1.501,1.24957,0.6277,0.6277,0,0,1,.18939.34813,1.46323,1.46323,0,0,0,1.3717,1.354c1.44385,0.13338,2.8931.20842,4.13164,0.29349l0.88209-.967ZM76.45111,37.06052a12.6525,12.6525,0,0,1,4.204-2.87484,15.66794,15.66794,0,0,1,6.56328-1.72716,10.54923,10.54923,0,0,0,2.5749-.43077,6.03253,6.03253,0,0,0,2.90461-1.35338c0.77712-.79852.67549-1.45657-0.339-1.91668-1.17256-.53179-2.35914-1.03254-3.53555-1.55593A4.00762,4.00762,0,0,1,86.287,23.26917a10.8332,10.8332,0,0,0-.05958-1.74469,6.80637,6.80637,0,0,0-.56061-1.88285,1.68993,1.68993,0,0,0-2.06822-.85845,7.65652,7.65652,0,0,0-2.5,2.19346A12.39557,12.39557,0,0,0,79.479,24.72835a11.06609,11.06609,0,0,1-.66164,1.99648c-0.36838.78332-.93864,1.47629-1.27,2.27149a7.44793,7.44793,0,0,1-3.115,3.45386c-1.15246.72119-2.33608,1.39258-3.57928,2.12951A12.23589,12.23589,0,0,0,76.45111,37.06052ZM22.52572,43.77233a1.09259,1.09259,0,0,0-1.30373.34121,9.95521,9.95521,0,0,0-1.23891,1.55105,39.22286,39.22286,0,0,0-3.76766,7.65895c-0.1561.43836-.34216,0.866-0.51436,1.29865a16.42261,16.42261,0,0,0,3.24139-5.55591,10.23245,10.23245,0,0,1,2.67541-4.27437C21.93692,44.48155,22.21261,44.1266,22.52572,43.77233ZM8.06269,65.05a34.33091,34.33091,0,0,0,4.86987-6.16917A22.39285,22.39285,0,0,0,8.06269,65.05Zm-1.136,5.35719,0.21122-.05776L6.83725,69.31831l-0.18038.04786Z"/><path d="M32.63462,51.047c2.3987,0.15343,4.79561.36,7.19676,0.44144a22.38052,22.38052,0,0,0,4.72242-.161A11.12847,11.12847,0,0,1,53.203,53.20814a0.6235,0.6235,0,0,0,.18662.15876c1.53475-.05721,1.9476,1.3161,2.58091,2.21544a9.28353,9.28353,0,0,1,.95129,8.58826,7.87122,7.87122,0,0,1-1.78733,2.21312,3.485,3.485,0,0,0-.48226.38849c-1.16482,2.16722-3.41624,2.11465-5.37462,2.58072a16.73634,16.73634,0,0,1-3.4677.34175,31.92774,31.92774,0,0,1-3.97346-.135,9.68738,9.68738,0,0,0-4.30472.4409,7.52722,7.52722,0,0,1-4.05367.27706,21.13936,21.13936,0,0,1-2.77562-.694,20.81183,20.81183,0,0,0-4.8834-.94193,7.32779,7.32779,0,0,1-4.75182-2.477c-1.04723-1.10894-.746-2.498-0.58062-3.80358a4.734,4.734,0,0,1,.66112-1.60855q1.60791-2.8852,3.27491-5.73732a7.53366,7.53366,0,0,1,2.57984-2.47475C28.72567,51.43708,30.66725,51.28307,32.63462,51.047Zm6.54123,17.08717-0.02533.01119a3.61932,3.61932,0,0,1,.62125-0.04589,37.089,37.089,0,0,0,9.218-.08691,8.53332,8.53332,0,0,0,2.63082-.69206,12.26072,12.26072,0,0,0,2.42089-1.88456c0.79483-.72134,1.7686-1.41607,1.86772-2.56848a9.71607,9.71607,0,0,0-.198-4.45081A5.77734,5.77734,0,0,0,54.371,56.07427a12.31188,12.31188,0,0,0-3.82157-2.70581c-2.12321-.7158-4.22259-1.28294-6.45494-0.5423a1.97088,1.97088,0,0,1-.73263.12263c-2.60715-.18226-5.248.217-7.82891-0.46463a3.2763,3.2763,0,0,0-1.11646-.00147c-1.4828.14281-2.96055,0.36123-4.44619,0.44548a5.32968,5.32968,0,0,0-4.10179,2.50845c-0.93722,1.30843-1.64492,2.78079-2.46111,4.17665-0.31326.53572-.63581,1.06676-0.97432,1.58679-1.134,1.74216-1.01029,3.55314.42179,4.69331a5.218,5.218,0,0,0,2.69563,1.21736,23.05372,23.05372,0,0,1,5.71426,1.20605A10.74658,10.74658,0,0,0,39.17585,68.13414Z"/><path d="M53.499,76.52313a1.00414,1.00414,0,0,1,.413-1.286c0.62568-.61206,1.29546-1.18076,1.89553-1.816A1.99067,1.99067,0,0,0,55.95,72.55884c0.283-.14247.61516-0.6706,1.24742-0.11653a3.27421,3.27421,0,0,1-.39937.69515c-0.34356.36089-.7946,0.6294-1.09612,1.01769-0.3298.42476-1.22346,0.55049-.82724,1.405Z"/><path d="M67.076,62.45045a3.57548,3.57548,0,0,1-2.30713,1.56636l1.85026-1.5707-1.23648-.46656A1.62554,1.62554,0,0,1,67.076,62.45045Z"/><path d="M66.14152,68.61088a7.63265,7.63265,0,0,1-3.281,1.99481C63.94444,69.93071,64.79355,68.88848,66.14152,68.61088Z"/><path d="M48.41,76.77738h0.5497L49.02839,76.943l-1.27584.68543c-0.00861-.93129.31388-1.35079,1.87319-2.27751Z"/><path d="M21.91427,75.13469c-0.18762.24313-.37032,0.49027-0.56409,0.7284a1.32017,1.32017,0,0,0-.55259,1.0393c0.03337,0.3573-.33408.47653-0.79662,0.29438A3.15963,3.15963,0,0,1,21.91427,75.13469Z"/><path d="M23.18232,77.90879c0.38285-1.19594,1.46334-1.75248,2.3167-2.51633a9.985,9.985,0,0,1-2.33568,2.499Z"/><path d="M42.63634,75.12146L40.62945,77.159a3.96963,3.96963,0,0,1,1.80734-2.2349Z"/><path d="M61.96682,62.10435l2.25928-1.47618L64.20966,60.609a2.92511,2.92511,0,0,1-2.26394,1.47563Z"/><path d="M64.2261,60.62817c0.32783-.35813.663-0.7099,0.98142-1.07618,0.30984-.35642.528-0.24864,0.782,0.1905a2.70237,2.70237,0,0,1-1.77968.86663Z"/><path d="M20.14254,72.11874l-1.45628,1.67739-0.20907-.17519c0.23709-.74973,1.01365-1.07067,1.40053-1.70133Z"/><path d="M43.40633,76.566L44.7249,75.2373,44.94358,75.445l-1.29833,1.3099Z"/><path d="M51.81865,73.6208L50.49872,74.687l-0.21553-.25589,1.27633-1.11038Z"/><path d="M62.9334,66.72463v-1.2452l1.05172,0.61481Z"/><path d="M64.31228,71.10751l1.54715-1.04008,0.18732,0.28686-1.57558.99622Z"/><path d="M64.88691,66.06359l1.51685,0.15808,0.00211,0.06881-1.50026.11575Z"/><path d="M34.09627,44.036c0.43092,0.25045.44526,0.56565-.07026,1.10111l-0.26186-.9952Z"/><path d="M31.27349,74.183l-0.94568.91522-0.34933-.33082,0.84983-.97776Z"/><path d="M36.01,75.82405L36.2414,74.545C36.64157,75.20373,36.64157,75.20373,36.01,75.82405Z"/><path d="M43.40822,48.05785c-0.09433.59262-.31848,0.96118-1.1562,0.68177Z"/><path d="M26.90988,73.78867l0.87258-1.03291a1.07866,1.07866,0,0,1-.676,1.2235Z"/><path d="M63.65719,71.62254c-0.0467.84455-.40019,0.85049-0.96136,0.7653Z"/><path d="M61.94572,62.08465l0.14367,0.78879-1.07-.06407c0.48071-.35677.71456-0.53032,0.94791-0.70444Z"/><path d="M58.18917,69.89159a1.83343,1.83343,0,0,1-.31546.415,1.32353,1.32353,0,0,1-.48212.09365,1.07042,1.07042,0,0,1,.12119-0.40738,3.15139,3.15139,0,0,1,.48945-0.29019Z"/><path d="M63.91765,67.35614l0.88155-.33557,0.10193,0.26672-0.88486.32662Z"/><path d="M63.4284,53.89109l-0.82311.67689-0.17284-.19313,0.78822-.726Z"/><path d="M45.69944,74.69419l0.71376-.46509,0.14069,0.21362-0.71755.45882Z"/><path d="M72.00462,54.57549l1.15423,1.06c-1.25477.57-.35352,1.60495-0.80536,2.49686a13.14455,13.14455,0,0,1-.93647-2.84981,9.01076,9.01076,0,0,1,.52176-2.54157c0.52559,0.265.62869,0.45788,0.30725,0.89659A2.43679,2.43679,0,0,0,72.00462,54.57549Z"/><path d="M73.01086,61.14738a4.81337,4.81337,0,0,0,.16319.588c0.37552,0.90654.21548,1.314-.83181,1.97628a1.49452,1.49452,0,0,1,.24227-1.11912c0.06514-.39784.46494-0.99471-0.422-1.01987L72.22965,60.97l0.80411,0.19718Z"/><path d="M74.05824,53.72509a4.22777,4.22777,0,0,1-.69371-3.125c0.31251,0.73656.65094,1.46391,0.91887,2.21635A2.396,2.396,0,0,1,74.05824,53.72509Z"/><path d="M58.818,37.52848c-0.43989-.03378-0.87993-0.09575-1.31962-0.09341a0.97276,0.97276,0,0,0-1.144.50522,1.79458,1.79458,0,0,1-.78613.14156c0.5349-1.18087,1.52731-1.13106,2.39435-1.23113a2.20924,2.20924,0,0,1,.94682.47282Z"/><path d="M72.79627,49.10916l0.08556-1.86679c0.32849,0.44578.60219,0.77436,0.82358,1.13507a0.95911,0.95911,0,0,1,.18641.63386,1.475,1.475,0,0,1-.71922.26A0.93407,0.93407,0,0,1,72.79627,49.10916Z"/><path d="M74.05272,60.09395a10.62819,10.62819,0,0,1-.31475-1.82339,2.73681,2.73681,0,0,1,.85366-0.87416l-0.30009,2.62725Z"/><path d="M49.74516,34.84735a5.83012,5.83012,0,0,1,3.02784-.72843A4.15973,4.15973,0,0,1,49.74516,34.84735Z"/><path d="M74.32,39.131a4.39934,4.39934,0,0,1,.46787,2.4863l-0.28233.13485L73.998,40.7916Z"/><path d="M74.04029,38.88832c-0.37174.83619-.37174,0.83619-1.73287,1.05646C72.6452,39.3625,72.6452,39.3625,74.04029,38.88832Z"/><path d="M73.80936,55.17229l1.01232-.11373c-0.73428.55451-.1087,1.7013-1.4297,1.71Z"/><path d="M72.84514,45.236c-0.31474-.39269-0.85719-0.69984-0.47354-1.30866a1.60182,1.60182,0,0,1,.55057-0.34728,1.35891,1.35891,0,0,1,.2714.58851A5.83642,5.83642,0,0,1,72.84514,45.236Z"/><path d="M67.18734,41.19475c0.3811-1.24115.69735-1.44475,1.53585-1.1139Z"/><path d="M74.94134,63.68879c-0.77742-.3771-0.77742-0.3771-0.486-1.4465,0.69393,0.2333.524,0.84543,0.62068,1.31907Q75.00845,63.62479,74.94134,63.68879Z"/><path d="M52.9,35.35471l-1.51747.61783C51.78382,34.97826,52.00543,34.86413,52.9,35.35471Z"/><path d="M48.3225,35.67815c1.32989-.21412,1.32989-0.21412,2.02434,1.04063Z"/><path d="M60.771,38.11494l1.19622,0.64254-1.19622.724V38.11494Z"/><path d="M68.097,37.16582c0.47941-.65859.87117-0.69318,1.45912,0H68.097Z"/><path d="M71.79431,47.54294L70.951,48.68527C70.92728,48.15276,70.84072,47.57447,71.79431,47.54294Z"/><path d="M71.49221,51.534c0.19551-1.181.22-1.20167,0.99782-.84825Z"/><path d="M46.79035,35.46561L45.562,36.2592C45.61664,35.38458,45.68522,35.33541,46.79035,35.46561Z"/><path d="M65.07853,39.03273l-0.95169.066A1.29826,1.29826,0,0,1,64.261,38.6892c0.27367-.027.55129-0.01386,0.82762-0.01386Z"/><path d="M57.45455,38.92413c-0.35377.21333-.69656,0.62064-1.13941,0.0672C56.69154,38.37086,57.08031,38.77587,57.45455,38.92413Z"/><path d="M37.968,39.144c0.71628-.426.85-0.054,0.88652,0.4861Z"/><path d="M72.91688,58.3024l0.34544,0.84485a0.8,0.8,0,0,1-.30691.08044C72.49676,59.04266,72.33983,58.76576,72.91688,58.3024Z"/><path d="M73.03375,61.1672l0.2013-.85734,1.037,0.39964c-0.621.21478-.94172,0.3257-1.26181,0.43725Z"/><path d="M39.46031,37.1245h1.05135C40.06624,37.44432,40.06624,37.44432,39.46031,37.1245Z"/><path d="M45.52056,37.4048c0.1978-.81658.70421-0.55778,1.12807-0.63643l0.07984,0.2714Z"/><path d="M69.059,44.98617l-1.05507.24331C68.33828,44.54387,68.63092,44.49634,69.059,44.98617Z"/><path d="M65.31063,36.62407l-0.43357-.79015C65.60577,35.88822,65.59061,36.18372,65.31063,36.62407Z"/><path d="M65.3561,41.08934l0.26622,0.30377a1.32608,1.32608,0,0,1-.3479.2412,0.62534,0.62534,0,0,1-.24018-0.19646Z"/><path d="M60.74127,35.1672v0.71793l-0.24611.00322V35.16983Z"/><path d="M71.42208,38.54623l0.68734,0.04288-0.00089.24226H71.39641Z"/><path d="M68.56214,42.68064a1.4667,1.4667,0,0,1,.5231-0.30209,0.86175,0.86175,0,0,1,.31611.28706,0.66617,0.66617,0,0,1-.263.19255A2.28242,2.28242,0,0,1,68.56214,42.68064Z"/><path d="M39.17585,68.13414c-3.32654-.46141-6.6679-0.83891-9.97293-1.42221A20.16545,20.16545,0,0,1,24.851,65.26175a2.97933,2.97933,0,0,1-1.6758-3.18615,6.021,6.021,0,0,1,.57086-1.3732c0.43745-.89737.90989-1.77769,1.346-2.67569a9.33778,9.33778,0,0,1,2.39432-3.16164A3.08181,3.08181,0,0,1,30.04757,53.821a1.40073,1.40073,0,0,0,.61835-0.06847c1.85557-.55671,3.70186-0.16,5.55841.00237a31.27921,31.27921,0,0,0,3.86391.10006,18.31086,18.31086,0,0,0,5.68169-.68609,2.28819,2.28819,0,0,1,.99018-0.06823,8.94575,8.94575,0,0,1,6.9178,3.86579c1.83686,2.76925,1.25389,5.6012-.81412,7.869-0.87346.95784-1.809,2.01367-3.32716,1.9804-2.64362,1.26867-5.47278,1.11564-8.28906,1.107a18.592,18.592,0,0,0-2.09652.22242ZM33.39657,54.91437l-0.01538-.14364c-1.068.13373-2.1434,0.22508-3.2019,0.41227a4.13857,4.13857,0,0,0-2.92992,1.957c-0.86866,1.45922-1.56908,3.01794-2.42121,4.48785a1.57191,1.57191,0,0,0,.86065,2.43511,24.70081,24.70081,0,0,0,4.03568,1.26963,28.06808,28.06808,0,0,0,3.09182.42531,42.0329,42.0329,0,0,0,7.8159.76841c2.31516-.13824,4.6711.07409,6.9173-0.7483,0.34495-.12629.74354-0.09805,1.10283-0.195a7.75926,7.75926,0,0,0,1.76744-.57114,6.19483,6.19483,0,0,0,2.68869-3.32877,4.23436,4.23436,0,0,0-.52785-3.79912,8.45356,8.45356,0,0,0-3.89005-2.995,4.24075,4.24075,0,0,0-3.16983-.24108,23.82,23.82,0,0,1-6.80246.64129C36.94614,55.31056,35.1706,55.04975,33.39657,54.91437Z"/><path d="M35.06153,64.83433Q33.516,64.65245,31.97046,64.471a3.21257,3.21257,0,0,1-2.76068-2.21986c-0.10621-.27092-0.22132-0.54028-0.30117-0.81929-0.444-1.55136-.22146-2.06686,1.28655-2.70043a30.54534,30.54534,0,0,1,3.8359-1.44412c1.76732-.4755,3.55914.01925,5.33466,0.17087a13.00383,13.00383,0,0,0,3.8438.14206,2.02048,2.02048,0,0,1,2.22755,1.56555A2.41256,2.41256,0,0,1,44.41645,61.936c-0.46534.34946-.911,0.73082-1.40357,1.0365a5.20771,5.20771,0,0,1-1.22627.54261c-0.6761.205-1.38182,0.31336-2.05592,0.52378A12.88473,12.88473,0,0,1,35.06153,64.83433Zm-4.16026-2.479a1.00781,1.00781,0,0,0,1.0041.76109,15.51233,15.51233,0,0,0,6.69022-.19709,12.68013,12.68013,0,0,1,2.169-.57887,4.729,4.729,0,0,0,3.09981-1.90924,0.74859,0.74859,0,0,0,.1699-1.00857,0.84907,0.84907,0,0,0-.94819-0.38678,9.36126,9.36126,0,0,1-1.83524-.07591c-2.14868-.22759-4.27776-0.76481-6.45771-0.48336a8.05252,8.05252,0,0,0-2.15956.55278c-0.8984.39029-1.729,0.93666-2.62868,1.43822a2.2592,2.2592,0,0,0,.91763,1.9104Z"/><path d="M30.92259,62.378a1.46239,1.46239,0,0,1,.11161-0.215c0.152-.2046.3114-0.40368,0.46794-0.60489a0.62764,0.62764,0,0,1,.24931.21469,0.53023,0.53023,0,0,1-.6065.58087c-0.08026.0079-.1619,0.00179-0.24329,0.00189Z"/><path d="M40.58539,60.4441L41.16526,60.15,41.291,60.37612l-0.57749.33941Z"/><path d="M35.93188,60.94516c-0.16242-.01377-0.32572-0.02243-0.48573-0.05017a0.495,0.495,0,0,1-.00737-0.19015c0.16833-.03272.33977-0.04936,0.5105-0.06965Z"/></g><text x="0" y="115" fill="#000000" font-size="5px" font-weight="bold" font-family="'Helvetica Neue', Helvetica, Arial-Unicode, Arial, Sans-serif">Created by Olga</text><text x="0" y="120" fill="#000000" font-size="5px" font-weight="bold" font-family="'Helvetica Neue', Helvetica, Arial-Unicode, Arial, Sans-serif">from the Noun Project</text></svg>