<svg xmlns="http://www.w3.org/2000/svg" data-name="Слой 1" viewBox="0 0 100 125" x="0px" y="0px"><title>burger</title><path d="M3.04993,59.18808A4.30538,4.30538,0,0,1,3.752,56.30789c0.58487-.92269.76819-1.72044-0.47951-2.33992a1.69483,1.69483,0,0,1-.72855-2.44067c0.59558-1.43435,1.87022-2.24018,3.01161-3.10957,0.95484-.72735,1.75522-1.17485,1.56448-2.71411C6.91013,44.01,8.26281,42.73856,9.25427,41.44312c1.56421-2.04379,3.77922-3.10167,5.96483-4.33428a38.90632,38.90632,0,0,1,7.32774-3.3871,33.46345,33.46345,0,0,1,8.96456-1.569A62.453,62.453,0,0,0,38.139,31.6636a29.8767,29.8767,0,0,1,6.27842-.18373c1.578,0.10915,3.17681.21267,4.74,0.23056,2.42676,0.02776,4.85042.30861,7.28211,0.14222a24.35767,24.35767,0,0,1,4.99057.32834,17.97133,17.97133,0,0,0,2.83783-.10958,26.39716,26.39716,0,0,1,5.57848.64689c2.18869,0.41313,4.30129,1.03422,6.44022,1.60106a30.35864,30.35864,0,0,1,3.4596,1.42538,3.4863,3.4863,0,0,0,2.76463.29543c0.36589-.14873.85306,0.18737,0.5615,0.39663-1.24733.89518,0.22947,0.88381,0.36875,0.965,2.72361,1.58755,5.4217,3.20563,7.32211,5.81066a6.40507,6.40507,0,0,1,1.38963,3.935,3.15544,3.15544,0,0,0,2.08668,3.344c0.4599,0.186.8771,0.47521,1.3231,0.69866a2.98629,2.98629,0,0,1,1.741,2.56071,27.53764,27.53764,0,0,0,.34757,3.47552c0.31443,1.49157-1.6869,2.4641-3.01123,2.627-1.77464.21827-2.82831-.95756-4.26885-1.25848-0.5842-.12208-0.56947.26237-0.65328,0.49262-1.40541,3.8589-4.38007,5.98571-8.057,7.33839a1.736,1.736,0,0,1-.86687.08958c-2.33-.42275-4.56562.2708-6.81835,0.61439-1.12976.17231-2.25683,0.15631-3.37814,0.23633-3.53157.25206-7.039,0.87539-10.61546,0.54421-1.7355-.16071-3.47509.46838-5.24481,0.33935-3.80819-.27764-7.62541.68556-11.38758,0.229-4.13209-.5014-8.27718.09307-12.38562-0.55642-2.3108-.36526-4.69462.12425-6.99227-0.368-1.92045-.41155-3.97463-0.22417-5.7731-0.933A10.79211,10.79211,0,0,1,13.05141,62.91c-0.04692-.06777-0.06539-0.15489-0.11075-0.22406-1.97085-3.00621-2.18422-2.58159-5.64634-1.5596a5.71643,5.71643,0,0,1-3.16892.06792C2.98165,60.90182,3.29,59.71664,3.04993,59.18808ZM18.39244,39.17679c0.27328,0.106.56356,0.1383,0.32931,0.59562A5.98964,5.98964,0,0,1,17.276,41.4888a13.26222,13.26222,0,0,0-2.48263,2.54243c-0.57539.92209-1.33267,1.662-1.87535,2.69992-0.52162-2.1963-1.52444.05384-2.37807-.54529A10.457,10.457,0,0,0,15.52029,41.13a1.39567,1.39567,0,0,0-.8903.50937c-0.30119.3511-.91994,0.7265-1.27062,0.33851-0.51229-.56682.22913-0.79957,0.5677-1.12339,0.42744-.40888.98043-0.638,1.41855-0.99273a2.25847,2.25847,0,0,0,1.05665-1.41423c-1.69016,1.29671-4.1941,1.28219-5.263,3.62251a3.191,3.191,0,0,1-1.70247,1.81769c-0.98665.4099-1.00915,1.74057-.5528,2.94766,0.69271,1.83225,1.33894,3.60649,3.40885,4.31549a13.91342,13.91342,0,0,0,5.33175.93421c3.00167-.16,5.98306.6102,9.012,0.27682C28.84525,52.1187,31.08265,52.1386,33.3,52.044c1.98573-.08466,4.00925-0.09853,6.01205-0.01084,3.16377,0.13853,6.23333-.74064,9.37784-0.795q4.39034-.076,8.765-0.48253c1.53409-.14033,3.13983-0.57108,4.59179-0.27512a26.80071,26.80071,0,0,0,5.95411.50286c1.5408-.03138,3.04359.31061,4.59585,0.27446,2.37745-.05539,4.74223.40612,7.13253,0.424a72.25159,72.25159,0,0,0,7.75755-.77311c3.09-.3097,4.26-2.74826,2.62953-5.39094-0.29466-.47756-0.42942-1.11733-1.1855-1.13969-0.2483-.00732-0.29842-0.19813-0.25422-0.45356,0.11232-.649-0.3445-0.7025-0.82822-0.829-0.492-.12867-1.3078-0.13441-1.33552-0.68362-0.04144-.8212-0.51806-0.57838-0.95119-0.765-0.91314-.39333-2.28671.07729-2.75382-1.60717-0.06289,1.136-.96917,1.10992-1.546,1.57313a2.79162,2.79162,0,0,0,2.298.62937c1.33107-.37913,1.55929-0.33586,2.28746.14451-1.08012.33389-2.2225,0.13229-3.24012,0.63136-0.42137.20672-.728,0.079-1.07405-0.448-0.31628-.4816-0.56691-1.43563-1.07376-1.40265-1.99041.12954-2.1492-2.8573-4.251-2.37245-0.00147.00035-.01689-0.07752-0.03208-0.11637-0.57992-1.48262-1.23338-.55811-1.821-0.02757-0.4019.36282-.71119,0.826-1.0857,1.22174-1.7568,1.85679-3.50523,3.6961-6.21681,4.17829-0.85158.15146-1.64543,0.30767-2.11233-.51874a2.32861,2.32861,0,0,1,.06877-2.58924c1.2491-1.77568,2.53-3.529,3.7762-5.30667a1.03128,1.03128,0,0,0,.36674-1.00538,0.85282,0.85282,0,0,0-1.00373-.3228,2.05363,2.05363,0,0,1-1.31992-.29783,0.7802,0.7802,0,0,0-1.03908-.03173c-0.483.79228-1.44957,0.77647-2.0239,1.37818-0.18574.19456-.48044,0.479-0.7265,0.1155-0.1805-.26659.0876-0.4275,0.32322-0.55786a6.86,6.86,0,0,0,.67461-0.50164c-1.34787-.05347-2.17082.76885-3.11524,1.24409a15.86726,15.86726,0,0,0-2.10221,1.07715c-0.715.50113-1.36972-.83159-2.24467-0.27644a20.62394,20.62394,0,0,1,4.45327-2.49212,0.92648,0.92648,0,0,1,.36637.00823,2.162,2.162,0,0,0,2.63214-.37978c-2.51528-.56553-2.789-0.54088-4.90027.40879-0.35941.16165-.72142,0.60227-1.12594,0.20873-0.43047-.41872.37475-0.65251,0.22625-1.2086a2.98234,2.98234,0,0,1-2.502.14,0.53615,0.53615,0,0,0-.64915.23463c-1.73925,2.55018-4.39222,4.23232-6.281,6.67035a12.72521,12.72521,0,0,1-6.224,4.21275c-0.71838.23551-1.68643,0.58012-2.19547-.1952a2.40361,2.40361,0,0,1-.17337-2.7222,25.66629,25.66629,0,0,1,4.37293-5.39645,5.65843,5.65843,0,0,0,1.32177-1.32726c0.29565-.49566.76329-0.8839,1.113-1.52115-2.74176.70562-3.94086,3.229-6.17126,4.34811a28.54484,28.54484,0,0,1,2.4323-2.44093c0.14972-.1395.56074-0.352,0.27232-0.5027-0.86876-.45383-0.22135-1.02913-0.22562-1.48636-2.33471-.59793-4.14981.27911-5.77864,1.90811-0.56695.567-.624,1.41641-1.10589,1.84821C35.3574,37.736,34.23781,38.666,33.119,39.59842a5.87219,5.87219,0,0,1,3.40925-3.31617c-0.57914-.09454-0.73844-0.12948-0.89962-0.14491-0.29912-.02869-0.68516.35078-0.88043-0.10755a1.00569,1.00569,0,0,1,.22756-0.94583,2.48754,2.48754,0,0,1,.41472-0.4715c0.451-.38165.87135-0.97256,0.37888-1.35589a1.3038,1.3038,0,0,0-1.89084.17222c-3.21761,3.4475-6.05565,7.32789-10.53467,9.37553a9.474,9.474,0,0,1-2.08533.80424c-0.74152.14365-1.67943,0.249-2.09464-.45132a2.18759,2.18759,0,0,1,.19987-2.35571c0.90322-1.40531,1.65155-2.91014,2.54079-4.50985a6.75638,6.75638,0,0,0-3.48987,2.909q-0.5474.00933-1.09477,0.01862c0.34446,1.01277-.97368,1.33657-1.04715,2.59332C17.129,40.74787,17.76075,39.96233,18.39244,39.17679ZM13.28838,55.74c-2.57516.067-4.23436-.98912-4.79242-3.14141a4.14518,4.14518,0,0,1,.03081-2.3525,1.86919,1.86919,0,0,0-.60009-1.69991,0.41145,0.41145,0,0,0-.65-0.01841,18.60315,18.60315,0,0,0-3.238,2.76609,1.171,1.171,0,0,0,.25612,1.98122c1.3581,1.05548,1.46215,1.51412.75176,3.1196a10.80392,10.80392,0,0,0-.71924,1.72614c-0.22283.90755,0.42174,1.90781,0.90617,1.58128,1.81923-1.22623,4.09987-.2213,5.92106-1.32479a0.71692,0.71692,0,0,1,.8092.14646,5.28877,5.28877,0,0,0,4.53278.49092,6.90286,6.90286,0,0,1,4.69091.04792,7.99407,7.99407,0,0,0,6.30585.00246,7.30418,7.30418,0,0,1,5.739-.01771,4.00764,4.00764,0,0,0,2.59475.01718,2.77376,2.77376,0,0,1,1.20646-.01159,20.19572,20.19572,0,0,1,4.5285,1.6096c1.85605,0.86426,3.64138.1301,5.31476-.81813,1.54536-.87571,2.99391-1.6879,4.99395-1.49038,1.92893,0.1905,3.56425,1.04457,5.32617,1.57083a6.83971,6.83971,0,0,0,5.86625-.68727,6.93857,6.93857,0,0,1,5.75659-.92258,8.90565,8.90565,0,0,0,6.3205-.52907,4.58269,4.58269,0,0,1,2.66671-.34583,12.08975,12.08975,0,0,0,5.99016-.61375,19.22779,19.22779,0,0,1,3.95547-1.05917c1.38721-.19138,2.56069-0.37209,3.64782.76681a4.05521,4.05521,0,0,1,1.13148.81917c0.80611,1.35249,2.01954.591,3.05537,0.36873,0.99648-.21374.77525-0.98873,0.56393-1.70364a1.8874,1.8874,0,0,1-.05549-0.75139A3.11787,3.11787,0,0,0,93.82286,51.707a8.3459,8.3459,0,0,1-1.69112-1.0705c-0.31452-.22827-0.61625-0.39127-0.8304.018-0.78008,1.49105-2.21567,1.60758-3.62985,1.82274a5.57437,5.57437,0,0,0-3.67762,1.81627,5.42138,5.42138,0,0,1-3.506,1.77036c-1.473.11443-3.09277,0.19907-4.4018-.90767-0.96032-.81183-1.98313-1.54939-2.9541-2.34919-0.61348-.50532-1.16016-0.68867-1.67442.1014a24.7177,24.7177,0,0,1-2.31823,2.60209,2.08311,2.08311,0,0,1-3.5206-.02278,19.43652,19.43652,0,0,0-4.25326-3.25462c-0.173-.1187-0.41313-0.28934-0.6113.07063-1.02771,1.86728-2.81776,2.81564-4.62171,3.70862a3.38528,3.38528,0,0,1-2.54085.09913c-1.68241-.49127-2.6993-1.79769-3.88644-2.89564-0.50671-.46863-0.81126-0.57866-1.29424.02657a13.89056,13.89056,0,0,1-2.43024,2.36321c-1.27935.9783-2.01839,0.99-3.28134,0.1198a8.89752,8.89752,0,0,1-2.36163-2.22012,0.764,0.764,0,0,0-1.40785-.06279c-0.51349.60991-1.076,1.18141-1.64575,1.74044-1.36881,1.343-4.46031,2.11389-6.00112.03a9.70484,9.70484,0,0,0-1.40525-1.24366,1.24438,1.24438,0,0,0-2.01345.11722c-0.71886.76453-1.43813,1.53012-2.12377,2.32411A1.46429,1.46429,0,0,1,23.643,56.674a21.30009,21.30009,0,0,1-2.077-1.81764c-1.31289-.9995-3.44311-2.02886-4.901-0.43755A4.48261,4.48261,0,0,1,13.28838,55.74ZM80.9958,63.10548c0.6997-.12843,1.619,1.02332,2.17774-0.27323a0.25255,0.25255,0,0,1,.42765-0.00988c0.33194,0.49332.58889,0.0765,0.80552-.08225a9.4544,9.4544,0,0,0,2.99773-3.16467c0.38181-.73928,1.1706-1.84753.67626-2.32734-0.82892-.80459-1.5435.45264-2.31179,0.82493-0.11046.05353-.18978,0.16841-0.29724,0.23151a7.52156,7.52156,0,0,1-5.708,1.07694,5.92982,5.92982,0,0,0-3.42313-.01432,12.56066,12.56066,0,0,0-3.32769,1.50755,1.82339,1.82339,0,0,1-2.521-.1501,1.86931,1.86931,0,0,0-1.16674-.6573c-1.98954-.19324-3.955-0.378-5.84013.69131a9.15428,9.15428,0,0,1-8.10408.31936c-0.73929-.27958-1.51515-0.46368-2.25078-0.75158-1.3515-.529-3.09342-0.73012-4.00168-0.07793A12.357,12.357,0,0,1,46.56609,61.811c-0.8297.32368-1.3856,1.47452-2.36173,1.10074-2.10994-.80791-4.51586-0.67917-6.43213-2.0671a2.69165,2.69165,0,0,0-1.67831-.39849,23.25,23.25,0,0,1-3.77247-.05152,12.99818,12.99818,0,0,0-6.53136.34593,7.11555,7.11555,0,0,1-3.9212.22628c-1.574-.32774-3.08747-1.31661-4.83269-0.72251a8.07209,8.07209,0,0,1-2.782.50548c-0.78646-.01769-0.67868.48686-0.42493,0.91063a7.54831,7.54831,0,0,0,2.93572,2.642c0.31155,0.174.59818,0.41715,0.86283-.19919a0.95313,0.95313,0,0,1,1.07929.0533c-0.04462.99665,0.80224,0.80285,1.21647,0.84732,1.36719,0.14692,2.72693.32283,4.08793,0.52435a62.444,62.444,0,0,0,8.90248.161,84.47765,84.47765,0,0,1,11.2535.70528,66.71594,66.71594,0,0,0,12.46533.10262c0.87909-.04106,1.6073-0.48593,2.47433-0.54562,2.50472-.17255,5.0605.93312,7.523-0.29008a0.55321,0.55321,0,0,1,.3597.0649c1.78747,0.69749,3.32965-.00519,4.8247-0.87433,0.325-.18892.66548-0.61145,0.95322-0.2213,0.372,0.50438-.48365.46054-0.60175,0.84995,3.26974,0.14335,6.29452-.861,9.3976-1.35158C81.58707,63.55071,80.86209,63.65405,80.9958,63.10548ZM51.32566,32.98326c-0.69871.15368-1.60249-.305-2.1399,0.31388-1.34916,1.55361-2.93973,2.85166-4.3633,4.324a27.909,27.909,0,0,0-3.13481,3.59062,1.29846,1.29846,0,0,0-.23355,1.69752c0.47916,0.58751,1.0159.28055,1.57968,0.07091a10.3138,10.3138,0,0,0,3.9227-2.63565c1.73091-1.8192,3.50681-3.59551,5.25012-5.40306,0.50365-.5222,1.53382-1.01449,1.23378-1.68894C53.14841,32.59618,52.07179,33.12128,51.32566,32.98326Zm-19.22305.32258a31.70114,31.70114,0,0,1-5.9732,1.03066,1.574,1.574,0,0,0-.951.51271,30.37606,30.37606,0,0,0-4.55185,6.22c-0.20782.36513-.60789,0.692-0.31535,1.10033a1.03714,1.03714,0,0,0,1.172.16887,11.34322,11.34322,0,0,0,5.22872-3.41505C28.45584,37.03825,29.865,34.82723,32.10261,33.30585Zm34.99056,9.61128c1.2274,0.11522,2.01055-.769,2.85313-1.60405,1.485-1.47165,3.12588-2.78223,4.51725-4.35245,0.50454-.56938.57648-0.88745-0.33038-1.17819-1.52781-.48984-2.6941-1.119-4.20857.58573a25.76925,25.76925,0,0,0-3.84511,5.32622C65.5449,42.73777,65.74878,42.96172,67.09317,42.91713ZM46.73747,53.048a26.14919,26.14919,0,0,0-4.51138.16575,0.39684,0.39684,0,0,0-.19323.2573,2.3152,2.3152,0,0,0,1.2011,1.20384c0.33082,0.25313.851,0.75524,1.19161,0.36149C45.1076,54.24805,46.19988,53.97174,46.73747,53.048Zm17.92427-.67983c1.95079,2.04293,3.30277,2.91294,4.47875.18741A13.4189,13.4189,0,0,0,64.66175,52.36822Zm-38.5403,1.25768c-0.98283.02654-1.80855,0.04893-2.63429,0.071-0.08349.00222-.167,0.00362-0.25058,0.00322-0.614-.00274-0.60129.27464-0.32057,0.69367C23.94839,55.93489,24.95025,55.74929,26.12145,53.62591Z"/><path d="M42.26109,34.14721c-1.079.40241-1.708,1.24948-2.83426,1.35a4.83959,4.83959,0,0,0-1.39965,1.29786c-0.22384.27425-.50335,0.70912-0.87926,0.41036-0.41116-.32687.29416-0.6512,0.24555-0.75323-0.544-1.14173.58912-1.18841,1.05218-1.54975C39.6157,33.98957,39.65427,34.039,42.26109,34.14721Z"/><path d="M83.01513,43.93426a1.06354,1.06354,0,0,1,1.24571-.074A2.28914,2.28914,0,0,0,86.399,44.113a2.09649,2.09649,0,0,1,.85535-0.02664c0.34833,0.05119.80576,0.20027,0.66119,0.55211a1.29783,1.29783,0,0,1-.93.62023,2.53846,2.53846,0,0,0-1.69149-.13132A2.55791,2.55791,0,0,1,83.01513,43.93426Z"/><path d="M12.50747,49.7881c0.71908-.59092,1.27214-1.07193,1.85376-1.51552a0.7199,0.7199,0,0,1,1.21.32358c0.29789,0.58479-.04223.84556-0.542,0.9841A4.07284,4.07284,0,0,1,12.50747,49.7881Z"/><path d="M17.1871,50.15294c0.16388,0.86894-.72928.78953-1.23314,0.86943-0.29133.04618-1.22843-.12028-1.0048-0.57716a3.095,3.095,0,0,1,1.6377-1.27615C17.15692,48.9532,17.13788,49.59965,17.1871,50.15294Z"/><path d="M38.35258,38.1368a7.66992,7.66992,0,0,1,4.19715-3.21907A20.57645,20.57645,0,0,1,38.35258,38.1368Z"/><path d="M34.66265,36.19416c-0.67031,1.60246-2.00114,1.95064-3.112,2.86825C32.0245,37.446,33.18624,36.88764,34.66265,36.19416Z"/><path d="M86.18632,49.18307a4.21585,4.21585,0,0,1,2.69163-1.20938c0.30676-.02376.65183-0.156,0.69789,0.22559a0.42417,0.42417,0,0,1-.63153.376,0.81594,0.81594,0,0,0-1.26692.60788C87.46191,49.75566,86.72345,48.85321,86.18632,49.18307Z"/><path d="M65.54741,35.01525c-0.95121,1.2361-2.37535,1.64536-3.74485,2.15a13.80079,13.80079,0,0,1,3.75517-2.1503Z"/><path d="M54.11046,36.28435c0.72567-1.53948,2.53838-.57173,3.3697-1.66516a2.16789,2.16789,0,0,1-1.57067,1.45424C55.14378,35.22156,54.768,36.44209,54.11046,36.28435Z"/><path d="M65.55772,35.01494a1.65056,1.65056,0,0,0,.24635-0.02629c0.57173-.147,1.50211-0.50747,1.61471.058,0.15186,0.76259-.89417.68235-1.53787,1.06866,0.114-.54281.6-1.125-0.32948-1.09929C65.54741,35.01525,65.55772,35.01494,65.55772,35.01494Z"/><path d="M82.12817,60.357c0.99728-1.16914,2.291-.67221,3.22394-1.20437,0.14521-.08282.2491,0.094,0.22928,0.19192a0.624,0.624,0,0,1-.21882.39382C84.31962,59.68781,83.44439,60.47561,82.12817,60.357Z"/><path d="M34.06233,63.49566c0.28577,0.09245.81359-.20249,0.82155,0.24876,0.01157,0.65438-.62747.52992-1.04089,0.52327-0.27868-.00452-0.81339.2109-0.82024-0.22867C33.01237,63.37623,33.65532,63.57926,34.06233,63.49566Z"/><text x="0" y="115" fill="#000000" font-size="5px" font-weight="bold" font-family="'Helvetica Neue', Helvetica, Arial-Unicode, Arial, Sans-serif">Created by Olga</text><text x="0" y="120" fill="#000000" font-size="5px" font-weight="bold" font-family="'Helvetica Neue', Helvetica, Arial-Unicode, Arial, Sans-serif">from the Noun Project</text></svg>