<svg xmlns="http://www.w3.org/2000/svg" data-name="Слой 1" viewBox="0 0 100 125" x="0px" y="0px"><title>pumpkin</title><path d="M58.51985,43.84455a19.67434,19.67434,0,0,0-1.51813-1.72139,1.60447,1.60447,0,0,0,.4.96167,2.337,2.337,0,0,1,.40926,1.18685c.05927.60508.24334,1.1925.26659,1.80488.01209.31833-.12222.41907-.42066.33469a6.52615,6.52615,0,0,0-.52469-2.67652,5.63047,5.63047,0,0,0-.173,1.10923c-.03242.324-.15962.53338-.58677.38922.48191-.76512.18235-1.62634.40316-2.411-.39627-.7369-.5967-1.5912-1.36848-2.09562a33.50138,33.50138,0,0,0-2.98069-1.76773c-.56621-.29167-1.0948-.67085-1.65694-.984-.53467-.2978-1.1956-.31-1.67161-.74176-.01353-.01227-.07983.03364-.16309.07114a6.54906,6.54906,0,0,0,.90173,1.49413c.84525.80794,1.4417,1.80632,2.22367,2.655a.74338.74338,0,0,1,.24677.76014c-.353-.07236-.44933-.50586-.88366-.58137a24.6675,24.6675,0,0,1,2.14557,5.5091c-.81507-.59048-.611-1.76257-1.427-2.48214a1.637,1.637,0,0,0,.17346.80957c.21589.57639.449,1.14954.61285,1.74125.145.52379.1368,1.10717.81938,1.28938.10194.0272.15768.19882.255.27922a.38648.38648,0,0,0,.52307.07045c-.2092-.83641-.54754-1.65069-.68907-2.51416-.0475-.2898-.26607-.60818-.00219-.86356a.83046.83046,0,0,1,.93171-.18523.95837.95837,0,0,0,.743.0803.30716.30716,0,0,1,.35223.08629c.43481.48733,1.1465.51833,1.60429.97154.03034.03.14015-.02025.213-.03316-.051.36611.23009.3826.55052.55031,0-.4268-.01346-.75155.00343-1.07472.02094-.40085.125-.47291.52846-.38562.19961.0432.39378.11148.68337.19532-.27588-.46939.05325-.89058-.12118-1.474.4966.3721.49446,1.12641,1.22295.96446,0-.37486-.00983-.75916.00561-1.14244a.2339.2339,0,0,1,.24089-.24522.20807.20807,0,0,1,.18013.28422,2.0751,2.0751,0,0,0,.36393,1.59861c.08548.17037.1529.34448-.02988.48544-.15714.12116-.2874-.00324-.41366-.08694-.18987-.12588-.36522-.294-.6306-.202-.15925.26011.14029.65871-.20864.8436-.38776.20546-.50214-.251-.7578-.375-.15539-.07536-.31266-.27736-.48-.13039-.18879.16579-.09975.43229-.085.6542.01774.26765.25046.2374.41175.21153.62423-.10013,1.28922.10882,1.87964-.2725a.92629.92629,0,0,1,.75411-.01455,2.89606,2.89606,0,0,1,2.25217,2.27394c.09788.42528.19857.85105.32606,1.268a.78693.78693,0,0,1-.12187.86117.63434.63434,0,0,1-.83856.07535,3.51036,3.51036,0,0,0-1.58707-.27,3.96236,3.96236,0,0,1-2.92187-1.158c-.09-.08621-.19574-.156-.39719-.31436a3.11339,3.11339,0,0,0,.42815,1.21374,27.53956,27.53956,0,0,0,2.75874,4.34484,6.34743,6.34743,0,0,1,1.34553,4.7695A7.03852,7.03852,0,0,1,62.692,61.102c-.14383.53926-.1128.59446.39334.57048a21.39576,21.39576,0,0,0,3.988-.35261c.21492-.05119.47248.05719.68022-.21375a14.51738,14.51738,0,0,0-1.26909-.78528,4.34342,4.34342,0,0,1-1.95165-2.90414c-.04953-.45819-.215-.90715-.23619-1.36455a5.81625,5.81625,0,0,1,3.24066-5.75185,4.2037,4.2037,0,0,1,1.94493-.39112c.17684-.005.354-.00074.586-.00074a4.83679,4.83679,0,0,0-.69482-1.34819,1.00376,1.00376,0,0,1-.02322-1.156c.28177-.39725.50189-.3754.78425.03546a6.63259,6.63259,0,0,1,.9653,2.513,5.00715,5.00715,0,0,1,2.08869-.56823,4.15629,4.15629,0,0,1,3.7498,1.87085,5.07265,5.07265,0,0,1,.95045,2.56081A9.3115,9.3115,0,0,1,77.425,57.823a2.89017,2.89017,0,0,1-.67765,1.18584,8.54845,8.54845,0,0,0-.71269.9914,6.72934,6.72934,0,0,0,2.276.29725c.89644.07031,1.79955.05335,2.69956.08131a2.77043,2.77043,0,0,1,.76289.08488,1.28274,1.28274,0,0,0,1.34573-.34374c.27878-.27046.6164-.55365.973-.45681.46917.12739.53967.68037.64559,1.07378a.872.872,0,0,1-.44831.8941.60808.60808,0,0,1-.20852.09923,3.26766,3.26766,0,0,0-2.1261,1.7326A10.117,10.117,0,0,1,78.299,66.80591a27.05615,27.05615,0,0,1-7.2751,2.66932,7.96893,7.96893,0,0,1-2.43075.29442c-.41057-.04215-.72781.22614-1.08474.3619-.13583.05168-.27624.17866-.41611.01844a.3106.3106,0,0,1-.02148-.36022c.066-.13854.1513-.27505.009-.46807a1.84579,1.84579,0,0,1-1.92188.33521.4468.4468,0,0,0-.2986-.01013,16.50493,16.50493,0,0,0-1.98094.50634.58757.58757,0,0,1-.36538.0929c-.60689-.164-1.20335.21595-1.80254.023-.43313-.13945-.67443.37989-1.07373.30214a1.63331,1.63331,0,0,0-1.1251-.002,1.3173,1.3173,0,0,1-1.19153.00651c-.15312-.07078-.25358-.11754-.39762.027a.59239.59239,0,0,1-.58466.10545,1.35691,1.35691,0,0,0-.96207.05114,1.43866,1.43866,0,0,1-.302.0511c-.34328.06077-.42931-.41755-.68822-.37848-.254.03832-.45227.30344-.77839.19289-.24417-.08275-.57141-.08828-.6563-.34119a.90267.90267,0,0,0-.69018-.61592c-.348-.10257-.39509-.40682-.485-.71438-.16129-.55159.1059-1.04164.1472-1.611-.71206-.02848-1.4231.29621-2.22147-.065a3.16886,3.16886,0,0,0,.94055,1.44093,4.15906,4.15906,0,0,1,.34449.30413c.14181.17058.11624.39346-.09085.43663-.67544.14086-1.14818.657-1.77133.89742a2.70563,2.70563,0,0,1-1.58128.17828,5.13054,5.13054,0,0,1-3.08717-1.54374,1.3928,1.3928,0,0,0-.09672.851c.00665.124.10417.23926.04113.37233-.06493.137-.10344.29539-.28017.34138a.29235.29235,0,0,1-.36479-.2082c-.31046-.87281-1.33733-.90746-1.82736-1.57475-.11886-.16185-.2661-.00527-.37523.11192a10.70923,10.70923,0,0,0-.93409,1.41047c-.07143.10594-.10709.23624-.17985.341-.08984.12939-.22122.25664-.38284.20715a.33367.33367,0,0,1-.2277-.43272,1.38226,1.38226,0,0,0-.03438-.97547c-.1846-.41669-.37785-.467-.66267-.11645-.32345.39806-.59344.83905-.90264,1.24935a5.58617,5.58617,0,0,1-.60792.69433.39078.39078,0,0,1-.49967.0602c-.13293-.09865-.10664-.27913-.06676-.43207.04544-.17425.11767-.34331.14606-.5198.04074-.2534.085-.52773-.18554-.69473-.24152-.14909-.4567-.00458-.64038.126a4.04119,4.04119,0,0,0-1.43663,1.57975c-.08084.178-.146.35287-.36844.29538-.2401-.062-.21345-.3038-.15023-.44532.2-.44762-.03674-.915.10321-1.36211a.42967.42967,0,0,0-.17412-.48052c-.21334-.14992-.31746.066-.44584.17432a5.18881,5.18881,0,0,0-1.211,1.4849c-.074.13489-.1545.26619-.23036.40008-.09447.16673-.23055.31685-.42415.2752-.26977-.058-.1978-.311-.223-.508-.032-.25017.21781-.47453.03012-.79932-.53192.42656-1.04133.851-1.569,1.25128-.24965.18939-.52073.56152-.84989.31492-.28277-.21183.01855-.57222.03452-.86818.01323-.24541.28861-.44641.11474-.76351a2.41353,2.41353,0,0,0-.85847.40724,3.4703,3.4703,0,0,1-.45917.276c-.357.1339-.59858-.04119-.47371-.4028.156-.45161-.0314-.525-.39247-.59307-.37675-.071-.73886-.22014-1.11574-.28984a.50251.50251,0,0,1-.48935-.559.58269.58269,0,0,1,.48078-.67339c.42246-.10484.847-.20128,1.27171-.29692a1.2839,1.2839,0,0,0,.506-.17946c-.188-.51437.14784-1.2113-.63734-1.5571-.15005-.00541-.2321.22876-.40229.321a5.17339,5.17339,0,0,1-3.38941.89683c-.10042-.01715-.25428-.0746-.29522-.03086-.32132.34322-.44295-.02215-.69073-.1044-.67529-.22417-.90693-.79348-1.26438-1.26528a5.0915,5.0915,0,0,1-.50717-.95026c-.128-.2764-.23689-.37907-.57414-.2159a4.84981,4.84981,0,0,1-3.67362-.06691,2.712,2.712,0,0,1-1.24318-1.11935c-.21042-.27618-.14905-.49714.17071-.59381a4.13027,4.13027,0,0,0,2.7133-2.92028A2.36478,2.36478,0,0,1,21.002,58.77759a6.42909,6.42909,0,0,1,2.14291.72749,1.84451,1.84451,0,0,0-.80237-.67075c-.22646-.12317-.495-.21112-.449-.54307.04148-.29914.3395-.23188.49908-.30815a12.2175,12.2175,0,0,1-.611-7.69994c.07632-.3511.10752-.71188.18008-1.064a20.58214,20.58214,0,0,1,1.22462-4.09476,11.01689,11.01689,0,0,1,.969-1.57505A12.90769,12.90769,0,0,1,27.955,39.57528a10.637,10.637,0,0,1,3.75777-1.31611c.91544-.1852,1.84708-.1176,2.76573-.2314.15185-.01881.30847-.0056.45819-.03289.11819-.02156.2819-.05105.23539-.22973-.0455-.17472-.21365-.13082-.31787-.09135a4.27455,4.27455,0,0,1-2.77805-.21.825.825,0,0,0-.66018.02707,8.51482,8.51482,0,0,1-5.18893.68757,1.244,1.244,0,0,0-.919.2462,5.55965,5.55965,0,0,1-4.20613.75064.94364.94364,0,0,1-.286-.11072.339.339,0,0,1-.16263-.45818c.07333-.19493.2188-.15784.37969-.1208a7.15189,7.15189,0,0,0,2.982-.03181,1.54042,1.54042,0,0,0,.84889-.42421c.096-.14548.0767-.176.00987-.2024-1.06787-.42209-1.20885-.64962-1.11019-1.79534a1.82356,1.82356,0,0,1,.78661-1.578,1.70538,1.70538,0,0,1,2.45429,1.05828,1.03812,1.03812,0,0,1-.11995.748c-.16639.319-.32769.64074-.48908.96236-.13048.26-.02041.39272.242.41957a9.159,9.159,0,0,0,4.10192-.37743c.47417-.1709.472-.21273.30317-.73019a4.31569,4.31569,0,0,1-.30373-2.03853,3.30908,3.30908,0,0,1,1.462-2.32236,1.7211,1.7211,0,0,1,2.31931.976,2.32532,2.32532,0,0,1-.34177,2.05708,7.36276,7.36276,0,0,1-1.25358,1.35506.833.833,0,0,0-.35011.4419,3.57969,3.57969,0,0,0,2.55434.05068,1.00456,1.00456,0,0,0,.60942-.62607,7.77263,7.77263,0,0,0,.37528-3.11475,15.84722,15.84722,0,0,0-.11237-2.45869c-.0749-.38811.10371-.5135.49241-.4715.05111.00552.11443-.00449.15116.02186.84257.60443,1.87648.42838,2.8065.67733a.55327.55327,0,0,1,.46962.41682c.09927.36568.19115.73337.32727,1.25893a6.97153,6.97153,0,0,0,.90488-1.9409c.0397-.16062-.07442-.37529.17563-.44745.22483-.06485.3321.08152.41382.25308.167.35066.36432.29948.5794.0489a4.95128,4.95128,0,0,0,.72632-1.08958c.14794-.31.33113-.49139.61562-.129.1642.20914.25543.03433.35806-.05727.46092-.41135.91462-.83087,1.37844-1.23886.42049-.36989.75042-.2765.84978.283a9.22346,9.22346,0,0,1,.04175,1.23215,1.713,1.713,0,0,0,.49563,1.32274,1.16176,1.16176,0,0,0,1.55655.18608,3.14126,3.14126,0,0,0,.40839-.34681c.36-.31935.45918-.31885.68668.14209.153.31.33674.185.49522.08592.50165-.31363.98325-.6591,1.48088-.97941a5.05129,5.05129,0,0,1,.74324-.408c.31406-.1339.478-.01109.51091.33261a1.82838,1.82838,0,0,1-.15773.74838c-.05295.1621-.2254.33738-.08227.49437.16317.179.38289.05962.57917.00215a7.52448,7.52448,0,0,0,1.64754-.64667c.1347-.07708.27123-.19387.41512-.06181.16594.15232.087.32874-.01382.48707-.19.29823-.38381.594-.66324,1.02539.58875-.03657,1.05588-.058,1.52136-.09837.1785-.01548.35925-.09178.4918.09308.16433.22918-.00819.38968-.13579.54071-.1794.21235-.38095.406-.632.66951a1.672,1.672,0,0,0,.853.00577,18.01912,18.01912,0,0,1,3.08014-.10058c.23209.01741.49832-.004.60272.24708.10419.25052-.11868.41-.24254.605-.332.52257-1.03309.56148-1.31886,1.172a6.74986,6.74986,0,0,0,1.10828.60027,4.36821,4.36821,0,0,1,.48318.23239c.29948.21781.29575.45669-.00586.67308-.10056.07213-.24084.08909-.34754.25373.25512.30172.66216.41579.96181.66925.13756.11637.28134.2254.419.34163.49724.41971.47819.55216-.12553.87862.11849.21479.34567.30279.52452.44486.61318.48712.622.54637.0881,1.1284.16329.19088.32919.38419.49443.57806.49027.57518.49018.57526-.15117,1.0952a10.1654,10.1654,0,0,0,2.32537,2.32194.28858.28858,0,0,1,.167.37962.25778.25778,0,0,1-.37921.14482,10.124,10.124,0,0,0-2.47594-.5452c-.23244-.03909-.4662-.0939-.35094-.44626.06384-.19515-.12782-.25039-.26967-.30517a35.71484,35.71484,0,0,1-3.31021-1.45388c.13675.3332.20048.72571.62989.79812.18339.03091.13863.15774.10263.19462-.236.2419.09393.4217.05445.63592ZM79.44478,63.65671a2.8512,2.8512,0,0,0,1.84691-1.61044l-1.91493,1.53759a1.28962,1.28962,0,0,0-.8022.68437A1.86774,1.86774,0,0,0,79.44478,63.65671Zm-31.63713.8286q.39334.68393.787,1.36767c.16512.28547.37061.382.66945.13338-.45337-.56986-1.07264-.9972-1.21565-1.77206a.98592.98592,0,0,0-.46672-.6502c-.06861.38922.22187.618.22959.92015-.28353-.10512-.34087-.36459-.38661-.61079a1.7331,1.7331,0,0,0-.76467-1.107,5.31586,5.31586,0,0,1,.59318,1.37643A.43524.43524,0,0,0,47.80765,64.48531Zm25.075-9.32785a1.72,1.72,0,0,0-.3804-1.53762,12.47648,12.47648,0,0,0,.3967,1.52159,7.8186,7.8186,0,0,1-.17847,2.59156,8.54238,8.54238,0,0,0-.87781-4.97447,2.0347,2.0347,0,0,0,.1168.96276,5.96494,5.96494,0,0,1,.30931,2.39781c-.22121-.37115-.10762-.79693-.18705-1.19483-.17123-.85785-.69785-1.57756-.87251-2.42783-.03549-.17271-.13073-.33248-.17447-.50433-.04674-.18366-.10318-.37618-.31494-.37746-.23575-.00141-.24322.21327-.26141.39186-.00261.02554-.00672.05092-.00955.07644a27.823,27.823,0,0,0-.18485,3.98687,6.13716,6.13716,0,0,1,.10809,1.3288,8.10847,8.10847,0,0,1-.2274-2.66429,8.72715,8.72715,0,0,1,.03953-2.2282,1.419,1.419,0,0,0-.34317-1.48245c-.05958-.055-.26859-.24193.05264-.28464a4.99921,4.99921,0,0,0,.50844.28331.1857.1857,0,0,0,.25125-.0946.22371.22371,0,0,0-.10579-.25532.46.46,0,0,0-.65853.08555.312.312,0,0,0-.31124-.27092,3.45057,3.45057,0,0,0-2.65145.80057c-.34187.31078-.675.63125-1.011.94844-.09372.08848-.229.27245-.17848.30922.38391.27927-.01744.42141-.08916.61238a3.56383,3.56383,0,0,0-.33968,1.41126c.021.50852.00462,1.01858.00462,1.528l-.13158-.00061V54.07838a.54043.54043,0,0,0-.28262.49889,10.74975,10.74975,0,0,0,.091,2.451,3.78027,3.78027,0,0,0,1.418,2.46433,4.15437,4.15437,0,0,0,2.3476,1.21318c.30059.02317.60622-.19414.80368-.09934.66957.32147,1.22459-.0925,1.84965-.12307-.48194-1.06419-.48194-1.06419-.33856-1.48886.124.09836.1023.2284.12358.34585a1.45563,1.45563,0,0,0,.54908.894.6193.6193,0,0,0,.7222.05711c.267-.14231.17194-.38324.09656-.59993a.19516.19516,0,0,0-.18954.11671c-.07224.11815-.07351.34941-.29635.24478-.1735-.08148-.29549-.253-.12412-.431.14055-.14595.05484-.26779.05191-.41453a6.14552,6.14552,0,0,1,.07869-1.29375,4.15921,4.15921,0,0,0,.18089-1.81483c.1551.53343.31019,1.06686.467,1.59444a.65883.65883,0,0,1,.0077.22644c-.207.61024.06345,1.20686.05187,1.81209a.37284.37284,0,0,0,.36694.39131c.059-.28695.11-.56367.17451-.8372.03046-.12916.07515-.30063-.02008-.36468-.36669-.24656-.20929-.59622-.21517-.91105-.01391-.74438-.00416-1.48945-.03265-2.23315C73.055,55.56885,73.155,55.30038,72.88265,55.15746Zm.78248-2.83775c-.35761-.36119-.446-.91678-.9059-1.31647a6.78218,6.78218,0,0,0,1.38,3.50176c.01271.02178.03069.05414.04944.05655a.89718.89718,0,0,0,.36363.02485c.09373-.03075.0939-.17621.0753-.2758a1.42939,1.42939,0,0,0-.36543-.82914,2.14159,2.14159,0,0,1-.62124-1.18259c.10276-.077.263.26807.33429-.04649A1.37369,1.37369,0,0,0,73.284,50.7356a1.03269,1.03269,0,0,0,.1422.80211C73.54819,51.781,73.7635,52.00563,73.66513,52.31971ZM70.95008,61.589a.76394.76394,0,0,1-.32468.1936,14.97932,14.97932,0,0,0-2.14887.703c1.68489.15284,4.50816-.40126,5.01723-.9846a1.97076,1.97076,0,0,0-1.145.07769,1.88752,1.88752,0,0,1-1.41871.02511c.23219-.28767.59373-.054.83681-.18984a4.65551,4.65551,0,0,1,2.14741-.41641,5.07319,5.07319,0,0,0,1.4829-.22814,4.32131,4.32131,0,0,0-.92841-.15889,7.63844,7.63844,0,0,0-1.87563.308c-1.81281.19048-3.57448.63979-5.357.983-.14689.02829-.32124.02113-.31948.29044a6.20594,6.20594,0,0,0,2.4577-.32148A5.78931,5.78931,0,0,1,70.95008,61.589ZM51.41232,35.81066c-.10874.122-.30419.19393-.21879.51474.67151-.45529,1.39616-.77338,1.7525-1.53126-.48105.149-.74036.63167-1.24.73785a4.2379,4.2379,0,0,1,1.37452-1.20122,11.33824,11.33824,0,0,1,1.53991-1.08117c-.065.46647-.7259.47155-.57056.97358.63194-.25416.63669-.25222.85737-.79148a1.867,1.867,0,0,1,.41873-.54615c.1148-.12342.3186-.20349.21938-.48275A2.13038,2.13038,0,0,0,54.237,32.666a42.97221,42.97221,0,0,0-3.89587,2.75675,10.87872,10.87872,0,0,0-1.075,1.28422c.25439.12121.44126.20073.619.29709.28857.15645.51739.10857.56584-.22933C50.53369,36.19774,50.95225,35.99194,51.41232,35.81066ZM48.525,32.175c.08374-.09439.16444-.19172.25208-.28234.08665-.08959.20052-.16718.14758-.31439a.13766.13766,0,0,0-.1158-.06476.31791.31791,0,0,0-.30342.28493,2.45906,2.45906,0,0,0,.02592.37636c.08258.2475-.25121.22932-.265.41531l.01362-.00235a.37879.37879,0,0,0-.63687-.1297,9.90959,9.90959,0,0,0-1.58625,1.42625.29916.29916,0,0,0,.39192-.01668,1.036,1.036,0,0,1,.93357-.21131c.136.02685.33093-.08211.33559.16892.00373.20178-.0868.34816-.31922.32651a3.58622,3.58622,0,0,0-1.72552.51367,1.55391,1.55391,0,0,0-.878,1.28443,4.75512,4.75512,0,0,1,1.80309.10333.472.472,0,0,0,.61893-.4142,1.52709,1.52709,0,0,1,.52195-.815c.126-.12591.29069-.2242.27711-.434a1.22678,1.22678,0,0,1,.20862-.56974,6.01829,6.01829,0,0,1,.25286-.55717c.10762-.192.27156-.35286-.05511-.52128-.04353-.02244.27661-.27692.32758-.4638C48.78744,32.14153,48.569,32.28768,48.525,32.175ZM29.97617,60.64751c-.98168-.4766-1.28075-.45232-1.69923.15436a2.06045,2.06045,0,0,0,.30836.03408,4.62828,4.62828,0,0,1,3.494,1.34943,3.71929,3.71929,0,0,1,1.47059,2.98745c-.00186.02573.07085.05685.10825.08449.10921.02512.13586-.06662.15851-.13052a2.23279,2.23279,0,0,0-.46435-2.66036c-.19834-.1651-.49884-.33757-.44939-.57681.14154-.68469-.29663-1.063-.71238-1.39481a4.01689,4.01689,0,0,0-1.98392-.73438.66622.66622,0,0,0-.72365.39409c.12642.21672.51711.1535.49117.502ZM57.135,38.692l.01656.02206c-.00248-.10327.00269-.23092-.15015-.20136-.96912.18737-1.93672.3826-3.00834.59583a5.64574,5.64574,0,0,0,1.33981,1.01312.57068.57068,0,0,0,.62895.02654c1.55513-.68877,3.19426-1.17922,4.73682-1.97467a1.03786,1.03786,0,0,0-.55982-.42593c-.50236-.17384-.86594-.72229-1.40342-.68713a3.94946,3.94946,0,0,0-1.49017.59459c-.31945.16845-.731.18234-1.02023.59333a4.9635,4.9635,0,0,1,2.80253-.032C58.2806,38.31842,57.76794,38.71717,57.135,38.692ZM76.03975,51.21738a2.86187,2.86187,0,0,0-1.57545-1.05881c.0157.33987.22024.595.3947.5449.394-.11307.49149.15343.6573.35829a.55944.55944,0,0,0,.46387.21835c.1673.285-.11876.36905-.24.61459a1.481,1.481,0,0,0-.60677-.647,2.27272,2.27272,0,0,1-1.0122-1.01973.46382.46382,0,0,0-.08012-.13025.38867.38867,0,0,0-.55278-.06078c-.21244.15479-.06082.2975.062.44123a1.86992,1.86992,0,0,1,.39817.55928c.1476.44486.34709.75176.88123.7433.15321-.00244.31166.15409.42952.301a3.60849,3.60849,0,0,1,.646,3.2593c-.03993.17039-.04825.37656-.28209.405-.24664.03-.3663-.12889-.45821-.33118-.08777-.19312-.0932-.48116-.47356-.42064a10.44917,10.44917,0,0,0,.44569,2.70044,9.25891,9.25891,0,0,1,.9693-1.56129c.08634.2779-.131.44166-.20787.64445a1.15,1.15,0,0,0-.15739.66279c.16612.677-.26517,1.18373-.44986,1.92486-.161-.6715.3129-1.10072.16824-1.727a3.728,3.728,0,0,1-.822,1.014,13.4195,13.4195,0,0,0-.48963-3.4013,2.73373,2.73373,0,0,0-.4518-1.057c-.1358-.16036-.36146-.23878-.43521-.47519-.168-.53866-.33692-1.07777-.53065-1.60747a2.44492,2.44492,0,0,1,.06617-1.85928c.16252.08662.02407.32177.33718.38189-.18741-.21345.26722-.46964-.13226-.59232a1.56286,1.56286,0,0,0-1.0509.16259c-.31935.136.06724.34814-.02846.52583-.0472.08761-.0194.23723-.08291.29091-.395.33385-.25253.68139-.0479,1.03078.20626.35215.215.91243.58441,1.04988.57622.21439.60837.66075.67634,1.09484a13.54261,13.54261,0,0,1,.17722,3.584c-.01643.14981-.03808.35979.04384.449.34893.38018.21754.82551.2174,1.25029-.00006.173-.09214.35419.15383.43147a10.95006,10.95006,0,0,0-.00068-4.06544.74668.74668,0,0,1,.37422.80065c-.00572.95139-.02739,1.90269-.03364,2.85408-.0012.18355-.10154.40848.13575.53.08821-.03321.14638-.07748.15131-.16366.01465-.25618.16542-.48472.13765-.75258-.02162-.20868-.00441-.418.25665-.48775l-.12881,1.34521c.19534.08962.37275-.0591.54377.05582a.18418.18418,0,0,0,.26422-.06482c.352-.54292.90931-.9587,1.21267-1.48582a4.654,4.654,0,0,0,.71233-2.62269,8.8367,8.8367,0,0,0-.82447-3.39739c-.08587-.17253-.304-.40605-.18842-.55184C76.56219,51.52008,76.31364,51.381,76.03975,51.21738ZM28.37616,64.2524c-.08687-.04009-.21779-.12463-.24777.01153-.0986.448-.17654.90176-.23478,1.35685a.41722.41722,0,0,0,.24054.49377.79934.79934,0,0,0,.02919-.18422c-.03916-.26691-.18219-.70061.13824-.71158.35586-.01218.19606.44978.19832.70024a1.1789,1.1789,0,0,0,.53871,1.03513,3.44524,3.44524,0,0,0,2.2132.49455,2.15691,2.15691,0,0,0,1.76473-1.94444,3.15035,3.15035,0,0,0-.91152-2.42287,7.63569,7.63569,0,0,0-1.26838-.9427,4.72426,4.72426,0,0,0-1.308-.66259c.01159.20352.25857.28278.14826.45093a.448.448,0,0,1-.41762.1398.31259.31259,0,0,1-.29507-.19834.87149.87149,0,0,0-.53144-.417.43677.43677,0,0,0-.439.00585c-.15576.12819-.03228.27949.01675.41648a1.96643,1.96643,0,0,1,.21394.9573,3.55283,3.55283,0,0,0,.13264,1.44065Zm-6.64792.35.01989.423c.00531.15288.01659.30583.01483.45863-.00651.56589-.00813.56587.6473.38223-.3835.37746-.35266.63705.08137.8183.04808.02007.09963.24489.16845.20957.34026-.17457.6078.119.92684.11508.31194-.00388.58.10307.66207-.34229.028-.15212.21107-.27862.33131-.40944a.15936.15936,0,0,1,.20752-.04437.19823.19823,0,0,1,.09874.18811c.00041.2113-.18022.41363-.04372.70511a1.41514,1.41514,0,0,0,.5886-1.03048c.04554-.58153.12008-1.16209.13614-1.74434A6.12087,6.12087,0,0,0,24.093,60.54233a.707.707,0,0,0-.95617-.18416,3.3436,3.3436,0,0,0-1.389,1.29365,2.6849,2.6849,0,0,0-.34644,2.90562c.09245-.07449.10408-.25853.26213-.22916C21.70076,64.33519,21.70747,64.50664,21.72824,64.6024Zm21.033-32.68205.01393.01416c.11106-.37284.41927-.59913.6229-.938a1.18333,1.18333,0,0,1-.00536,1.23264c-.06515.12022-.188.29573.047.37734a.33017.33017,0,0,0,.39075-.17193,3.18539,3.18539,0,0,0,.21025-.65693c.19858-.56518.29837-1.21121.98-1.46505a.68443.68443,0,0,1-.01224.68032c-.04436.10834-.1168.22517.08.298.43408.16072.30207.40112.05335.62254-.4989.44414-1.00693.878-1.51054,1.3169-.11611.10118-.29953.15407-.31058.41979.85713-.29011,1.51018-1.02393,2.60777-.89661-.87709.571-1.80308.70765-2.50034,1.28561a.28415.28415,0,0,1-.22013.04c-.39682-.10069-.5541.16894-.71125.443-.20459.35681-.4163.71-.60769,1.07374a.92578.92578,0,0,0-.12547.5879c.04263.28987.12613.39258.379.18357a.69031.69031,0,0,0,.11464-.1836c.48916.365.926-.05857,1.38778-.09753.41828-.0353.78909-.15016.79451-.69183a.90818.90818,0,0,1,.15819-.34388,8.50747,8.50747,0,0,1,1.43283-1.70645,7.59872,7.59872,0,0,0,1.15352-1.22683c-.58848-.03653-.96-.22537-.90273-.84851a.5662.5662,0,0,0-.10674-.2848,3.34393,3.34393,0,0,1-.38038-1.76251c.0037-.173-.00079-.41633-.22993-.51234a2.53073,2.53073,0,0,0-1.17563,1.27591c-.28984.5394-.4132.60939-1.07422.512a.3628.3628,0,0,0-.39084.158c-.15569.20474-.318.40445-.47561.60774-.42259.545-.42219.5453-1.03557.25054a6.79865,6.79865,0,0,0-.78375,1.65869c-.07683.27227-.3665.424-.32068.75692a10.193,10.193,0,0,0,.67583,2.59535.51894.51894,0,0,0,.20057.22411c.04958.03018.14737.00308.21424-.02247.08974-.0343.09516-.11047.03358-.1789-.37779-.41982-.14-.81434.05609-1.2027a7.95267,7.95267,0,0,1,.492-.87274c.46591-.68968.57645-1.5304.97813-2.246C43.07593,32.01637,42.91848,31.96333,42.76125,31.92035ZM23.83859,58.80907l.00033-.00124a2.06269,2.06269,0,0,0,1.676.799c.362.045.47961-.09734.40853-.42445-.11977-.5512-.245-1.10162-.38559-1.64782a15.24647,15.24647,0,0,1-.65134-4.59769c.0154-.29311-.46685-.37075-.18774-.63349.25714-.24207.14394-.52675.17331-.795a15.24133,15.24133,0,0,1,.34768-2.19936,5.10373,5.10373,0,0,0,.484-2.57083c-.02182-.08954.05659-.13509.11918-.17382a1.66227,1.66227,0,0,0,.53566-.81947,13.181,13.181,0,0,1,1.83713-2.83562c.65954-.77851,1.46458-1.4334,2.20225-2.14612a6.86173,6.86173,0,0,1,3.70867-1.91851c.28872-.04789.5732-.12134.85963-.183a14.61646,14.61646,0,0,0-2.55032.00356,8.98917,8.98917,0,0,0-5.52678,2.451,16.05284,16.05284,0,0,0-2.519,3.193c-.25859.40982-.4972.83091-.72065,1.26509a14.60737,14.60737,0,0,0-.7809,2.59767,16.24159,16.24159,0,0,0-.79284,5.537,7.17952,7.17952,0,0,0,1.05177,4.17831.74486.74486,0,0,1,.163.34369C23.32261,58.57931,23.57847,58.69074,23.83859,58.80907Zm38.11666,1.20776-.00242-.04282.03131-.22654c.59329.12057.59588-.24038.5501-.66029-.0249-.22829.04028-.47684-.07876-.68164-.1038-.17855.13355-.44153-.21841-.57284-.36847-.13747.06832-.39256-.00438-.63548a6.74612,6.74612,0,0,0-1.5038-2.43561c-.09306-.10813-.16256-.06236-.20838.06059-.12759.34229-.40634.05574-.59716.13924l.01809.01792c-.03674-.23671.20705-.1719.29768-.27467.143-.16211.19331-.36027-.01882-.43888-.14884-.05517-.35016.02993-.23312-.24011.10078-.23248-.029-.40581-.13835-.56781A21.80611,21.80611,0,0,1,57.75235,49.52c-.0679-.16558-.16246-.32006-.24037-.48177a4.30253,4.30253,0,0,0-.99588-1.26608,1.12659,1.12659,0,0,0-1.28563-.06851c-.382.23211-.28992.56-.17555.88368a1.52594,1.52594,0,0,1,.0365.76052c-.044.28865-.18273.365-.48077.32406a3.69451,3.69451,0,0,1-1.29425-.67454.86988.86988,0,0,0-.0441.25545,15.085,15.085,0,0,1-.08273,3.88788c-.0665.94682-.20457,1.87839-.35928,2.81043a.40856.40856,0,0,0,.31291.52342c.25057.08761.46072-.1388.65911-.07756.20688.06386.036.468.34589.53378a.97113.97113,0,0,1,.21.09635,6.13935,6.13935,0,0,1,3.08089,3.303c.06672.16369.28844.22886.24548.45167a9.55714,9.55714,0,0,1-.24132,1.74794,3.47008,3.47008,0,0,0-.21305,1.0989,1.428,1.428,0,0,0,1.50549-.844c-.02759.31211-.07163.58183.35087.51527q1.04187-.16411,2.08377-.32818c-.33344-.09763-.63776-.241-.96346-.34286.16119-.25579.29808-.499.46063-.72367.16144-.2231.29261-.4993.66748-.20446a.4887.4887,0,0,0,.62753-.13355,3.66065,3.66065,0,0,0,.46208-1.52794c-.393.41782-.36272.91029-.92952,1.06062C61.73729,60.7201,62.03372,60.42908,61.95525,60.01683ZM40.30006,38.579l.02583.02331a1.10816,1.10816,0,0,0-1.16224-.10092c.1557.35543.55439.44029.638.79736a4.26664,4.26664,0,0,0,.78737,1.48708,11.80772,11.80772,0,0,1,1.51285,3.1933,27.104,27.104,0,0,1,1.30387,5.14227,21.5448,21.5448,0,0,1,.11653,4.44524,4.083,4.083,0,0,1-.1737.74725c-.06108.2256-.21286.38466-.44941.307-.22333-.07338-.16764-.29716-.11086-.46115a3.48313,3.48313,0,0,0,.17-.66482,12.30926,12.30926,0,0,0-.03233-3.6858,18.31,18.31,0,0,0-.46559-2.72585c-.2274-.70894-.44673-1.41791-.63826-2.13895a20.705,20.705,0,0,0-1.41535-3.40794A20.74916,20.74916,0,0,0,39.10277,39.542a1.22764,1.22764,0,0,0-.86976-.61266,2.56784,2.56784,0,0,0-1.65069.52442c-.40749.35421-.80218.7244-1.18565,1.10455a7.39385,7.39385,0,0,0-.65758.75631,4.432,4.432,0,0,0-.55027.83275c-.13366.29512-.47958.521-.26064.95883.231.46185-.47834.13594-.53582.59031a18.2668,18.2668,0,0,1-.6871,2.43627,25.22887,25.22887,0,0,0-.47664,3.42451,26.34163,26.34163,0,0,0-.06519,2.982,14.831,14.831,0,0,0,.13128,1.92058c.09279.8196.02882,1.64447.14627,2.45984a21.49376,21.49376,0,0,1,.63125,3.163,2.61107,2.61107,0,0,0,.078.29545c.04616.3723.265.38315.55406.28533a3.14979,3.14979,0,0,1,1.12047-.33161c-.21447-.45955-.3995-.854-.58271-1.24931-.12771-.27557-.09694-.53607.209-.63026a2.5353,2.5353,0,0,1,1.12738-.20185A5.6214,5.6214,0,0,1,38.74289,59.831c.22658.24025.48934.44639.75657.68718a2.68446,2.68446,0,0,0,.42041-.855q.26025-.7252.51324-1.453c.07965-.23041.25092-.23137.43511-.17687.21151.06258.16979.21045.11.36746-.17348.45562-.35538.90883-.5068,1.37187-.29348.89751-.28579.9.63.8301.73918-.05644.76226-.09817.88057-.84512.17261-1.09.29463-2.18425.3886-3.28337a.4406.4406,0,0,0-.17515-.45644.382.382,0,0,1-.04412-.65088.6764.6764,0,0,0,.16248-.25655c.11965-.36514.3316-.42.64817-.22909a13.13606,13.13606,0,0,1,1.21568.6671.681.681,0,0,0,.91537.00667,2.83212,2.83212,0,0,1,2.74608-.47352c.70881.224,1.4038.49143,2.11078.72156.42545.13848.53352.06131.50718-.36139a3.628,3.628,0,0,0-.25261-1.63935,8.38,8.38,0,0,0,.12371-2.28078,6.82729,6.82729,0,0,0-.56418-3.2219,7.571,7.571,0,0,1-.54455-1.06261,16.05591,16.05591,0,0,0-1.28792-2.76872c-.13426-.27863-.44015-.40577-.80511-.08305.44136-.93579.24238-1.37174-.65288-1.55553-.164-.03368-.14834-.10579-.11219-.1865a.3549.3549,0,0,0-.10285-.41659,7.81354,7.81354,0,0,0-.787-.94369l.00281-.00017a6.68209,6.68209,0,0,0-1.8726-1.50348A7.20166,7.20166,0,0,0,43.41006,41.57a2.0032,2.0032,0,0,1-.08587-1.49752c.10779-.63792.05591-.73525-.53536-.99234a4.16428,4.16428,0,0,1-.695-.30674c-.24269-.16493-.45272.17409-.701-.02486A1.29628,1.29628,0,0,0,40.30006,38.579Zm-4.16576.44822c-.65248.11875-1.202.21216-1.7488.31961a6.40937,6.40937,0,0,0-3.271,1.44,14.26144,14.26144,0,0,0-1.5877,1.66513c-.299.38539-.78514.49433-1.04927.8767a13.60029,13.60029,0,0,0-2.04617,3.77769c-.14667.4918-.23762,1.00152-.404,1.48591a13.7936,13.7936,0,0,0-.48274,6.0898c.18361,1.65949.75862,3.24095,1.06225,4.87727a1.39924,1.39924,0,0,0,.78093.97777c.06347-.0407.12851-.08068.19179-.12325a9.32968,9.32968,0,0,1,1.53609-1.00661,2.99352,2.99352,0,0,1,2.53437.09266c.24728.12138.51384.37314.86585.17047a13.48178,13.48178,0,0,1-.707-4.86238,5.43126,5.43126,0,0,0-.07542-1.15336,21.26249,21.26249,0,0,1,.0832-5.58323A19.822,19.822,0,0,1,32.84365,43.896a8.99741,8.99741,0,0,1,1.59426-2.96025C34.95724,40.30612,35.5267,39.72259,36.1343,39.02722Zm8.33882,18.634a1.60206,1.60206,0,0,0,.10207.77343,5.2224,5.2224,0,0,0,1.2562,2.00451,11.82019,11.82019,0,0,1,2.29445,2.88355,4.64332,4.64332,0,0,0,2.79671,2.50071A3.63355,3.63355,0,0,0,53.18,66.065a5.40354,5.40354,0,0,0,3.51024-2.69357,3.57531,3.57531,0,0,0,.2693-2.90335,4.94567,4.94567,0,0,0-1.66382-2.1837,15.98946,15.98946,0,0,0-1.63066-1.026,1.354,1.354,0,0,0-1.1678-.21055c-.132.04631-.26681.06628-.3562-.04324a1.81927,1.81927,0,0,0-1.55371-.492,2.61463,2.61463,0,0,1-1.0483-.21819,17.713,17.713,0,0,0-1.90106-.63751C46.421,55.24777,44.23735,56.07746,44.47312,57.66119ZM52.22449,53.061a.60411.60411,0,0,1,.18185-.55779,1.42294,1.42294,0,0,0,.34775-1.26642c-.07648-.68841-.03546-1.374-.06956-2.05969-.005-.10148.00311-.26067-.05307-.29347-.43116-.25179-.21713-.66952-.256-1.0038a15.17025,15.17025,0,0,0-.68768-2.34329,12.35823,12.35823,0,0,0-1.07084-2.12007,5.01323,5.01323,0,0,0-.82351-1.18683c-.39485-.42657-.83137-.813-1.21178-1.24689a4.50961,4.50961,0,0,0-1.25952-1.10956,13.58849,13.58849,0,0,0-1.89475-.96924,25.22728,25.22728,0,0,0-2.63914-.61125c-.032-.007-.07513.03641-.11264.05611.00953.0274.01064.06453.02747.07417a11.98811,11.98811,0,0,1,3.99272,3.41644,3.1186,3.1186,0,0,0,.46609.51226,5.96137,5.96137,0,0,1,1.11339,1.55664c.70427,1.22677,1.18157,2.56013,1.82216,3.81526a6.13305,6.13305,0,0,1,.67685,2.42493c.10726,1.736.22216,3.47316.18983,5.21477-.00933.50287.05212.59049.51457.66974.12582.02156.26061-.003.384.02535.29812.06852.42976-.05954.46953-.34243.082-.58328.17828-1.16461.25631-1.7484a5.24027,5.24027,0,0,0,.07051-1.28476C52.43093,52.8107,52.478,53.09212,52.22449,53.061Zm6.90629-19.406a.7906.7906,0,0,0-.21158-.0841A7.1375,7.1375,0,0,0,53.51983,35.142c-.67423.57992-1.566.87731-2.09424,1.639-.03622.05224-.07551.0416-.13506.02679-.43206-.10748-.53765.23372-.757.50867.98186.56875,1.90982,1.11051,2.84332,1.64253.14429.08223.30946.23054.483.04686a7.80583,7.80583,0,0,1,1.86291-1.05158c.54308-.33162,1.15177-.588,1.33236-1.31331.08274-.33233.69552-.3821.901-.106.09559.12847.00341.16385-.09231.20792a.27017.27017,0,0,0-.17708.2869,16.88929,16.88929,0,0,1,2.02012-.66447,4.30246,4.30246,0,0,0-2.18691-.89287,3.34972,3.34972,0,0,0-2.17573.87408c.3924.14825.8275-.06323,1.138.36244a6.93024,6.93024,0,0,1-1.39989.15474,3.955,3.955,0,0,0-2.27312.77945c-.1265.12064-.25777.22642-.38338.09875-.18506-.1881.00514-.342.146-.42631.396-.23709.81817-.43045,1.21376-.66814.27747-.16671.73754-.22065.55841-.743-.04162-.12138.08035-.10066.13566-.12973a3.70529,3.70529,0,0,0,1.40957-1.51616.28043.28043,0,0,1,.31659-.15189c.126.02088.14307.1259.1818.22055.04935.12061-.113.31626.12209.36875.31186-.05586.49659-.43688.95684-.34449-.62816.61323-1.62824.57071-1.99749,1.38684a2.40044,2.40044,0,0,0,.65-.25219c.70211-.36682,1.587-.41457,2.05772-1.19234.05786-.09562.22137-.1235.32869-.19381C58.71428,33.96314,58.98327,33.90953,59.13078,33.65494ZM46.9412,64.90559a7.60149,7.60149,0,0,0-1.583-3.01364c-.4999-.621-1.04644-1.19858-1.59409-1.77676a1.88746,1.88746,0,0,1-.52172-2.10144,6.232,6.232,0,0,0,.57777-1.41491,2.22167,2.22167,0,0,0-.26757-.14511c-.52367-.19976-.50824-.19358-.56209.40964a10.13951,10.13951,0,0,1-.55276,3.39588c-.1067.236.04258.32374.22135.39924a5.681,5.681,0,0,1,2.243,2.36352c.32514.465.13872.78386-.42142.836-.33195.03092-.67191.0072-.99761.06653a.7537.7537,0,0,0-.67164.88134,4.96242,4.96242,0,0,0,.96952,2.349c.25435-.18023.27156-.45006.431-.60743.36133-.35659.15317-.58755-.14853-.79812a2.0379,2.0379,0,0,1-.61715-.57244c-.101-.16458-.32853-.34114-.13873-.53769.19572-.20265.37512.01452.52629.13547.24021.19219.46094.40854.69777.60519.16906.14036.338.21287.53819.01594A1.80211,1.80211,0,0,1,46.9412,64.90559Zm10.90246-24.995c.5374,0,1.07485-.003,1.6122.00216.13268.00127.26636.04437.26472.209a.2485.2485,0,0,1-.25165.2432c-.17687.0087-.35566-.03714-.53425-.04457-.30736-.01278-.72961-.14423-.9003.00567-.42585.374-.72566.09935-1.009-.095-.18515-.127-.32177-.16389-.47118-.05-.15215.11593-.36994.14806-.48813.36614a21.33724,21.33724,0,0,0,2.80516,1.57345c.627-.47726.93264-1.20272,1.62767-1.65918l-.11346.70692a1.04592,1.04592,0,0,0,.53434-.05741c.12619-.02664.27453-.08073.32943.07255.05445.152-.08927.2274-.20889.267a2.818,2.818,0,0,1-.45127.099,2.01,2.01,0,0,0-1.32391.78044L62.742,43.81058a9.78237,9.78237,0,0,0-1.217-1.4522c-.45407-.47635-.44648-.51051.13623-.89693a.88249.88249,0,0,0,.14837-.16416,2.64245,2.64245,0,0,0-.69259-.62279c-.50593-.409-.5-.464.049-.79207.06386-.03817.12024-.08885.21973-.16343-.49723-.33858-.89833-.85923-1.56546-.6623A5.45035,5.45035,0,0,0,57.84366,39.91059Zm-11.32-3.1424a.4035.4035,0,0,1,.54381.28247,6.85676,6.85676,0,0,1,.637,2.12853.62061.62061,0,0,0,.21329.45633A17.51792,17.51792,0,0,1,49.902,41.50867a.87029.87029,0,0,0,.56426.40427,17.2469,17.2469,0,0,0-1.37711-3.51289,2.7711,2.7711,0,0,1-.48645-.94978.637.637,0,0,0-.4053-.53131,8.63514,8.63514,0,0,0-3.10422-.50248c-.22365.01646-.35326.09684-.24106.339q.32406.69931.66182,1.39227c.16395.33527.60689.57621.7959.491.41347-.18641.51192-.059.58482.28133a.14813.14813,0,0,0,.14833.13585.17377.17377,0,0,0,.19322-.18939,2.91628,2.91628,0,0,0-.37311-1.24124A1.92229,1.92229,0,0,1,46.52365,36.76819ZM25.656,61.91068a8.38235,8.38235,0,0,1,.24054,4.87739,2.03266,2.03266,0,0,0,1.52291-1.58843,8.14193,8.14193,0,0,0,.25228-1.90185,3.14454,3.14454,0,0,0-2.201-3.16192,1.092,1.092,0,0,0-.78316.0081c.18082.38744.52469.34182.91.50579-.5326-.02941-.613.14278-.44223.50615a.7287.7287,0,0,0,.66393.5142,1.00514,1.00514,0,0,1,1.00438.73655C26.50647,62.0683,26.02146,62.16879,25.656,61.91068ZM53.67615,31.4972a3.93845,3.93845,0,0,0-1.57374.7176c-.09339.08177-.28486.16053-.22475.26848.32033.57532-.15956.55978-.471.69246-.68353.29126-1.35779.60427-2.04167.89467A6.12047,6.12047,0,0,0,47.31,36.035c.4967.46758,1.17192.03793,1.60917.58532a4.03671,4.03671,0,0,1,1.03095-1.31356c.39163-.41784.92892-.642,1.29386-1.05454A9.03658,9.03658,0,0,1,52.9031,33.0426,1.48988,1.48988,0,0,0,53.67615,31.4972Zm-22.364,3.7473a2.281,2.281,0,0,0,.30352,1.10061c.13835.22376.30117.35659.56148.19159A4.85646,4.85646,0,0,0,33.708,35.16948a1.78887,1.78887,0,0,0,.17722-2.07388,1.03144,1.03144,0,0,0-1.68456-.2108A3.05282,3.05282,0,0,0,31.31212,35.2445Zm6.8999-3.75624a15.73917,15.73917,0,0,1,.297,1.94491,13.69588,13.69588,0,0,1,.1476,4.05631c-.02642.12887-.055.27132.0862.33844a.909.909,0,0,0,.8151-.0697.23815.23815,0,0,0,.07853-.33945c-.25755-.44711-.094-.96066-.24548-1.42559a1.36605,1.36605,0,0,1,.10712-.93181,6.90693,6.90693,0,0,1,.46289,1.73805,2.35448,2.35448,0,0,0,.16932.58524.43139.43139,0,0,0,.4863.14522c.15019-.04061.13848-.18558.07924-.31723a17.29977,17.29977,0,0,1-1.12957-4.6048c-.041-.27175-.01355-.576-.28547-.76565-.12121.14471-.03706.28612-.01373.435.10717.68386.19981,1.37.29975,2.055.02059.14108.00424.26887-.16194.28458a.185.185,0,0,1-.19331-.19359c-.05205-.823-.34056-1.61324-.37829-2.42922C38.81179,31.52838,38.59738,31.52547,38.212,31.48826ZM78.24794,62.15014c-.16488-.04308-.21942-.07676-.26089-.06485a5.31065,5.31065,0,0,0-.58249.19154,25.30787,25.30787,0,0,0-4.30025,2.54682,11.62656,11.62656,0,0,0-1.9189,1.77123,8.45818,8.45818,0,0,1-2.17947,2.03291.50863.50863,0,0,0-.23679.59263c.28641.00355.52841.018.63432-.31089a1.52329,1.52329,0,0,1,.59387-.69506c1.07875-.82917,2.10412-1.7217,3.14653-2.59486A26.74467,26.74467,0,0,1,78.24794,62.15014ZM36.59727,31.20561a8.69656,8.69656,0,0,1,.0275,1.533,9.81115,9.81115,0,0,1-.72781,4.64258c-.11056.28-.13934.48975.20231.60717.35163.12084.4899.04734.62664-.30629a15.13529,15.13529,0,0,0,.48617-2.3282c.03647-.16846.07188-.38-.08458-.50831-.24-.19687-.14032-.39306-.06247-.61522a5.82156,5.82156,0,0,0,.31527-2.26673C37.34979,31.41311,37.26412,31.33067,36.59727,31.20561ZM35.05462,70.08593a.32993.32993,0,0,0,.35749-.10293,3.17488,3.17488,0,0,1,1.62707-.95924c.2525-.03168.29465-.25757.35088-.4544a8.889,8.889,0,0,0,.442-2.02653c.00977-.21816.255-.45231-.04277-.72659-.30557.76428-.59919,1.49533-.88959,2.22765-.06.15132-.00672.336-.27537.38882-.34064.067-.27708-.26448-.42727-.408a5.17017,5.17017,0,0,1-.62381,1.28727c-.0728.0909-.18348.22113-.31611.10967-.116-.09746-.0681-.23408.01732-.34364a6.1938,6.1938,0,0,0,1.011-2.47431,2.08673,2.08673,0,0,0-.46666.81817c-.1803.3695-.326.75574-.49847,1.12931-.06382.13826-.1685.30571-.3453.20531-.15717-.08926-.13124-.26262-.02748-.40366a2.1945,2.1945,0,0,0,.52773-1.18389c-.70436.23779-.74.877-.99471,1.35626a.21476.21476,0,0,0,.05339.20293C35.0814,69.03362,35.008,69.58514,35.05462,70.08593ZM24.347,36.04059c.00924.85744.28837,1.18907,1.0399,1.294a.39289.39289,0,0,0,.45437-.198c.18163-.33813.38133-.668.541-1.01613a.81666.81666,0,0,0-.32951-1.123,1.05852,1.05852,0,0,0-1.16293-.10433A1.17211,1.17211,0,0,0,24.347,36.04059ZM71.06116,68.78436c.35356.15961.55947-.053.80036-.17867a16.81111,16.81111,0,0,1,3.81037-1.59757,3.55047,3.55047,0,0,0,1.11652-.50723,12.9995,12.9995,0,0,0,2.43216-1.999c.10316-.11142.19211-.236.34881-.43026-.30991.047-.354.2273-.478.30566q-1.8838,1.19052-3.76775,2.38081c-.08954.05668-.19833.12921-.28227.07234-.31629-.2142-.52852.02476-.76335.15429-.58319.32169-1.16619.63827-1.779.90693A4.89677,4.89677,0,0,0,71.06116,68.78436Zm-36.5741-1.6829a2.37029,2.37029,0,0,1-.89789-.84385A3.83555,3.83555,0,0,1,31.37188,68.095a3.41583,3.41583,0,0,1-2.79109-.57907,1.18159,1.18159,0,0,1,.25073,1.20128c-.28881.15125-.673-.24428-.93454.137.16469.17731.37272.12746.57422.12236a10.16,10.16,0,0,0,3.43014-.77419c.49272-.19161,1.12753-.18146,1.3691-.81408a.12615.12615,0,0,1,.1896-.0591C33.86279,67.62063,34.0911,67.242,34.48706,67.10146ZM48.49283,34.102a3.567,3.567,0,0,0,.7813-.53015,13.21126,13.21126,0,0,1,2.42145-1.84109.38931.38931,0,0,0,.07712-.68638c-.1384-.12383-.13483-.164-.03806-.27368.09535-.10808.27477-.15157.26259-.37423a.57594.57594,0,0,0-.646.27919c-.34326.60688-.96648.76138-1.51224,1.04685-.158.08266-.31976.15858-.4751.24595-.09311.05237-.1864.18237-.11692.24343.43094.37877-.0228.56345-.16493.80859A5.37066,5.37066,0,0,0,48.49283,34.102ZM37.754,70.28675A2.825,2.825,0,0,0,38.6042,68.998c.22818-.73156.44656-1.46626.68228-2.19535.06788-.20995.04522-.51652.31186-.57558.25235-.05587.25268-.20179.256-.38079a8.99354,8.99354,0,0,0-.17361-2.29078.9588.9588,0,0,0-.209-.48479.27553.27553,0,0,0-.28927-.049c-.11606.03949-.11226.14177-.06113.247a2.83892,2.83892,0,0,1,.22154,1.195,13.40492,13.40492,0,0,1-.49171,3.15462c-.02845.13389-.05079.33567-.25048.33791-.45572.00514-.4985.36778-.61223.672-.05965.15954.00441.38259-.21241.46036-.27167.09742-.24787.25241-.15473.47938A3.93005,3.93005,0,0,1,37.754,70.28675Zm4.48347-4.96406a.45558.45558,0,0,0,.03791-.14463c-.01471-.17776-.03763-.35493-.06145-.5318-.08054-.59807.00656-.75158.58325-.9908a3.54156,3.54156,0,0,1,1.10672-.2865c.37335-.02768.45808-.21466.24682-.5078a9.5807,9.5807,0,0,0-.96817-1.19166,1.4043,1.4043,0,0,0-1.60307-.44627,3.71373,3.71373,0,0,1,2.06959,1.38053c-.43106.25854-.52722-.26669-.81751-.28514-.27154.317.09248.66761-.03269,1.02208-.64222-.16575-.35618-1.09637-1.10232-1.2074A13.48631,13.48631,0,0,0,42.2375,65.32269ZM37.94409,33.17947a1.15152,1.15152,0,0,0-.25758,1.011,2.70332,2.70332,0,0,1,.0066,1.06679c-.05222.43257-.13256.86168-.18871,1.29385-.07047.54229-.09717,1.09909-.68945,1.43855,1.15843.30758,1.37571.16559,1.477-.88355.00493-.05118.01059-.10235.0132-.15367A19.11968,19.11968,0,0,0,37.94409,33.17947ZM41.417,67.61213c.42733-.48583.30082-1.07044.69532-1.39575.041-.03382.00579-.12929-.0536-.197a2.68428,2.68428,0,0,1-.51713-1.68153c-.033-.43424-.04367-.869-.09167-1.3039-.04683-.42428-.26272-.85188-.0535-1.29349.04066-.08584-.05418-.13579-.13057-.12675-.65211.07706.05331-.36642-.254-.47909-.07288.00358-.22438.00913-.37562.019-.16343.01067-.35113.07551-.37543.2198a.45344.45344,0,0,0,.21779.52472c.595.29378.65774.86273.71133,1.421a4.63341,4.63341,0,0,1-.15069,1.59228.53364.53364,0,0,0,.00894.49849A4.87488,4.87488,0,0,1,41.417,67.61213Zm3.58407-29.45981a3.484,3.484,0,0,0-.62959-1.34508.431.431,0,0,0-.59471-.1833,6.215,6.215,0,0,1-1.04128.22362,2.81276,2.81276,0,0,0-1.2815.62351Zm33.26713,24.9129a8.80979,8.80979,0,0,0-4.50555,3.33235A28.23093,28.23093,0,0,0,78.26824,63.06522ZM37.288,63.7876a2.8773,2.8773,0,0,1-1.14541-.28709,4.91075,4.91075,0,0,0-1.14125-.07585c-.04931-.00381-.08234-.11858-.13757-.16423-.15467-.12783-.22779.00283-.26817.11533-.08067.2247.04781.35.25254.37813a7.74191,7.74191,0,0,1,1.03005.30931c.41479.11623.9075.35629,1.25066.22945.48144-.178.77544-.71488,1.07248-1.16638.08551-.13.21554-.30193.01641-.3753-.12339-.04545-.48445-.321-.46172.1849.00682.15179-.11608.2089-.2691.18372-.19964-.03287-.40042-.05878-.61723-.09006C36.98692,63.28065,37.22742,63.42223,37.288,63.7876ZM73.4508,65.79117c-1.19063,1.17048-2.51138,2.11972-3.8,3.21344.74634.16633.74059.16341.99769-.34165a.64339.64339,0,0,1,.25689-.27066c.64615-.32924,1.13047-.89389,1.75775-1.23217A1.28071,1.28071,0,0,0,73.4508,65.79117ZM40.34153,65.214a5.37422,5.37422,0,0,0-.18354,1.16516,7.72721,7.72721,0,0,1-.07417,1.06859c-.02193.17793-.097.34264-.33963.331-.594-.02858-.67164.43958-.84644.82292.16038.11735.20676-.02861.29081-.04476a2.25652,2.25652,0,0,1,.37257-.046c.52253-.01185.69847-.08631.79644-.57752A3.78825,3.78825,0,0,0,40.34153,65.214Zm3.01826,2.75386c-.24538.18417-.01256.52727-.41017.62707-.07826-.51507.09751-1.04232-.15163-1.4535-.26578-.43862.04727-1.03232-.49763-1.477-.05249.6734.19879,1.22788.18925,1.80134a2.411,2.411,0,0,1-.04756.87329c-.11456.331.50444.27544.72746.4992.05311.05329.079.13271.12709.19227.10791.13357.19006.317.47218.23844C43.51385,68.88313,43.7283,68.3727,43.35979,67.96782Zm35.12913-2.09274A5.77039,5.77039,0,0,0,81.52824,62.675C80.46347,63.76425,79.52894,64.874,78.48892,65.87508Zm-44.0597-3.56384a.85071.85071,0,0,0-.101-.7862c-.15356-.2659-.08238-.46174.29139-.32645.09649.03493.20075.07059.2123-.11512-.23268-.40656-.5586-.19092-.86111-.10428-.25327.07256-.316.22795-.18317.462.13881.24465.2783.48939.40468.74053.34985.6952.50413.75217,1.27286.45026A1.40659,1.40659,0,0,0,34.42922,62.31124Zm-.24885,5.90429c-.54862.24618-.62212.20965-.81887.64014-.17043.37293-.58366.05513-.72407.37911a1.08936,1.08936,0,0,0,.00947.92186A6.487,6.487,0,0,0,34.18037,68.21553Zm46.04324-5.942c-.37818-.13487-.66906-.12668-.79819.15975a2.12533,2.12533,0,0,1-.67141.70931c-.50111.43233-1.00513.86129-1.50795,1.29163l.10433.12341A26.9785,26.9785,0,0,0,80.22361,62.27351ZM62.24879,68.18225a2.57825,2.57825,0,0,0,.307-.00166c.34991-.05262.42519-.248.19938-.53173a.87643.87643,0,0,0-.634-.39616c-.31523-.01539-.46557.17458-.50956.4653a.36843.36843,0,0,0,.3302.44049A1.47048,1.47048,0,0,0,62.24879,68.18225Zm.14354.64067c-.01361,0-.09-.002-.16631.00038-.225.00706-.40981.09028-.43934.33272-.029.238.14837.36849.33336.46063a.77188.77188,0,0,0,.29811.04065c.4973.0232.9515-.18774.867-.40755C63.146,68.88813,62.79127,68.85626,62.39233,68.82292ZM38.523,64.06058c-.44221.44518-.485.46293-.35142.78492a2.7964,2.7964,0,0,1,.04872,1.507c-.02131.16218-.13322.31677-.00644.48639A3.85807,3.85807,0,0,0,38.523,64.06058ZM54.39817,45.85834c-.13628.37727.06828.68868.2012,1.00927.0602.1452.04721.401.32181.31889a.45479.45479,0,0,0,.34482-.446C55.30491,46.20714,55.11177,45.9969,54.39817,45.85834ZM81.38489,61.2481c-.46666.23187-.95122-.0878-1.38655.07423a3.38329,3.38329,0,0,0-1.395.6254,8.85085,8.85085,0,0,1,2.04047-.22764A.73832.73832,0,0,0,81.38489,61.2481ZM67.83621,68.35327a.55288.55288,0,0,0-.6169-.59722c-.19127.01352-.50988-.07188-.48684.302a.79858.79858,0,0,0,.71745.65407C67.67693,68.70209,67.84129,68.61688,67.83621,68.35327Zm1.02489-2.82166c.01232-.26788-.16882-.41836-.5112-.42467a.53218.53218,0,0,0-.59723.52951.39461.39461,0,0,0,.3846.45525A.81343.81343,0,0,0,68.8611,65.53161Zm-6.36237.48715c-.01623-.223-.33174-.40786-.65665-.38472a.5266.5266,0,0,0-.51777.53412c.03153.31948.25019.40981.53853.38688C62.19655,66.52851,62.51616,66.25827,62.49873,66.01876Zm-27.89185-1.04a4.85808,4.85808,0,0,0,1.11851.6361.43829.43829,0,0,0,.57526-.31429c.04749-.25834-.15257-.27918-.33077-.313A1.97881,1.97881,0,0,0,34.60688,64.97881Zm3.33993-5.24444a4.75362,4.75362,0,0,0-2.59841-.93709.874.874,0,0,0-.30249.04861c-.06694.019-.14281.0429-.14123.14608a.14809.14809,0,0,0,.20618.1503,2.935,2.935,0,0,1,1.85321.32776A1.75672,1.75672,0,0,0,37.94681,59.73437Zm27.3086,8.85314c.17044.61733.41289.78889.89895.66954.19174-.04707.34283-.14635.32649-.36019a.3596.3596,0,0,0-.32465-.36933A2.60031,2.60031,0,0,0,65.25541,68.58751Zm3.26646-.70384c.56392-.49821.55932-.51745.433-.98214-.03916-.14414-.08075-.2328-.224-.24051-.14748-.008-.28361-.01142-.38006.16147C68.08659,67.29631,68.10506,67.47,68.52187,67.88367Zm-10.911.19168c-.24334.0583-.55245-.03432-.60024.26553-.04362.27355.24391.39677.43656.444a.855.855,0,0,0,.84487-.1983.21942.21942,0,0,0,.02545-.20974A1.04272,1.04272,0,0,0,57.61089,68.07535Zm16.92685-15.7361a6.15184,6.15184,0,0,0,.842,2.10681A2.18121,2.18121,0,0,0,74.53774,52.33925Zm-9.91819,11.612,0-.02009c.12724,0,.25491.00653.38162-.00167.15561-.01.31165-.03138.31839-.24181a.33106.33106,0,0,0-.26944-.32719,1.25946,1.25946,0,0,0-.82383.0325c-.12293.04309-.24512.09763-.1979.26372.03438.121.07418.26037.21437.28937A1.89284,1.89284,0,0,0,64.61955,63.95123Zm4.9468-.75484c.23187.25462.41315.52384.78471.55653.23489.02067.42928-.06693.46853-.2793a.40507.40507,0,0,0-.36282-.483A1.20638,1.20638,0,0,0,69.56635,63.19639ZM57.86157,70.1931c.13915-.03532.288-.07374.4372-.11085.13024-.03238.26212-.08836.28454-.22588.02543-.156-.12643-.19326-.23524-.25713a1.14014,1.14014,0,0,0-.81861-.12505c-.13576.02488-.26578.0362-.2408.20905.023.15954-.08066.38335.17961.44563C57.5927,70.15864,57.72134,70.17082,57.86157,70.1931Zm2.55972-1.27529c.25648-.02418.38366-.03053.5089-.04955.1301-.01976.25973-.07079.28917-.20977.02808-.13261-.07373-.2392-.15972-.32163a1.03708,1.03708,0,0,0-.99143.04311.26592.26592,0,0,0,.04928.44911A.76916.76916,0,0,0,60.42129,68.91781ZM59.27558,64.681c.29416.63785.45115.71193,1.029.5406.13017-.03859.34872-.02373.33712-.22844a.3487.3487,0,0,0-.37436-.30851C59.96512,64.671,59.66188,64.681,59.27558,64.681ZM38.32347,61.22485a2.94478,2.94478,0,0,0-2.06566-1.38315A5.29745,5.29745,0,0,0,38.32347,61.22485Zm25.53779,6.56549c.35612-.034.57347-.14813.55933-.29837-.02458-.26116-.27927-.25438-.43927-.3561a.79869.79869,0,0,0-.20845-.08746.40764.40764,0,0,0-.51927.19126c-.08391.16115.18109.51281.39674.54871A1.22168,1.22168,0,0,0,63.86126,67.79034Zm.53554-2.58785c.27806-.01528.55014-.02816.82181-.04711a.31326.31326,0,0,0,.13984-.05074c.10651-.06824.21293-.14594.21929-.28613a.278.278,0,0,0-.20519-.27923C64.933,64.37472,64.50938,64.65361,64.3968,65.20249Zm3.88732-1.45714c.00939.06286.01588-.02156-.01664-.0864-.08349-.16646-.07023-.43149-.37917-.38663a.37047.37047,0,0,0-.34526.48889,2.55688,2.55688,0,0,0,.12635.51861c.06816.17484.21429.18944.37764.11334C68.26891,64.28978,68.32019,64.10592,68.28412,63.74535ZM58.4123,66.086a3.91926,3.91926,0,0,0-.43684.02967.15986.15986,0,0,0-.13775.21947,1.19681,1.19681,0,0,0,.8664.519.41584.41584,0,0,0,.29286-.40511.33873.33873,0,0,0-.26525-.334A1.42649,1.42649,0,0,0,58.4123,66.086Zm9.21065.91159c.00408-.20986-.1866-.25884-.23191-.3981-.045-.13819-.03912-.33419-.24927-.31136-.21845.02375-.46029.00729-.62694.205-.15205.18035-.09878.4835.10817.47388C66.94586,66.952,67.24985,67.19761,67.623,66.99763ZM72.388,64.81677a27.41981,27.41981,0,0,0,2.31152-1.6188A5.30267,5.30267,0,0,0,72.388,64.81677ZM20.47932,63.6257c-.37226.58645-1.08057.54229-1.36487,1.088C20.04311,64.828,20.48766,64.5,20.47932,63.6257Zm44.62793,2.9151c.18375-.10874.55263.08795.59236-.285.03244-.3046-.24025-.50007-.55532-.48758-.34694.01375-.42759.23593-.42817.51657C64.71559,66.537,64.89539,66.56,65.10725,66.5408ZM35.24593,59.60718c.1629.93634.33839,1.18887,1.38981,1.12967A14.24354,14.24354,0,0,0,35.24593,59.60718Zm23.46975,9.52255a7.1822,7.1822,0,0,1,.45833.78069c.04745.12823.20377.13444.332.0972.11362-.033.13239-.13834.1475-.23826C59.73831,69.20852,59.49663,69.03313,58.71568,69.12973Zm-4.77166-.0092c.26274.112.45029-.008.64355-.02576.18571-.01706.34877-.11487.34474-.33037a.3514.3514,0,0,0-.32276-.3591c-.19485-.02881-.41631-.07595-.51566.16788A4.77807,4.77807,0,0,0,53.944,69.12053Zm2.29182-3.56c.16348.181.252.40647.47733.50086a.41885.41885,0,0,0,.43307-.07022.37112.37112,0,0,0,.13522-.41.3375.3375,0,0,0-.3358-.25856A.7585.7585,0,0,0,56.23584,65.56051ZM40.34358,68.72386c-.13251.01489-.2102.06609-.19242.19371.03218.231.10289.48291.32881.55179.21367.06514.25113-.20754.34324-.34145.1716-.24947.31249-.52.467-.78128.05516-.09325.08857-.189-.03695-.24536a.19205.19205,0,0,0-.26517.068c-.0495.08649-.069.18975-.11534.27854C40.7578,68.6683,40.77605,69.16436,40.34358,68.72386Zm23.93929-2.841a1.31068,1.31068,0,0,0-.99684-.18044c-.19695.03382-.24095.15392-.23616.32561.00468.16762.11155.21066.25075.21717C63.65379,66.26174,64.02208,66.32079,64.28287,65.88287Zm2.577-1.6683c.055-.88882-.02793-.94847-.86133-.60483A.84972.84972,0,0,0,66.85983,64.21457Zm-6.16775,2.007c-.133-.31623-.41616-.32436-.63441-.40487a.29865.29865,0,0,0-.43908.26442.33.33,0,0,0,.39069.35722A1.13025,1.13025,0,0,0,60.69208,66.22153Zm3.3588,3.13818c.3036.00943.67424-.22585.6658-.39416a.44579.44579,0,0,0-.37524-.42895.52481.52481,0,0,0-.52064.45556C63.82578,69.18192,63.89075,69.34553,64.05088,69.35971Zm2.504-4.4178c-.09044.00568-.14171.0074-.19268.01236-.24272.02355-.39623.155-.35568.40059.04206.25471.21168.31917.4576.21429a2.66351,2.66351,0,0,1,.37126-.07029c.13694-.0356.34514.00958.3606-.20013.01354-.18362-.16042-.2405-.30351-.28651A2.78376,2.78376,0,0,0,66.55489,64.94191ZM46.293,67.90838c-.03669-.66078-.74763-.68173-1.00871-1.10737A1.045,1.045,0,0,0,46.293,67.90838ZM50.02992,66.134c.16253.21563.18181.57869.44526.55846.33737-.02591.62271.28645.95557.09755a1.21823,1.21823,0,0,0,.17265-.14434c-.03269-.02358-.06641-.069-.09791-.06749C50.98016,66.60312,50.62516,66.08332,50.02992,66.134ZM37.478,65.1899a1.46925,1.46925,0,0,0-.52105,1.62973A4.22009,4.22009,0,0,0,37.478,65.1899ZM60.626,49.07906c-.01908-.3043-.23048-.39586-.329-.56065a.55345.55345,0,0,0-.80748-.15289c-.24607.14759-.12558.44406.00009.66376.35354-.06466.14788-.425.39707-.55751A2.24433,2.24433,0,0,0,60.626,49.07906ZM55.48307,67.90045a3.26226,3.26226,0,0,0,.50921-.04728c.1142-.02954.27967-.02888.31309-.17959.03631-.16379-.0846-.29145-.18108-.39945-.1203-.13467-.27036-.08336-.418-.00628C55.45389,67.39965,55.4303,67.609,55.48307,67.90045ZM37.88961,61.81552c.00662.29028.23208.33224.394.43286.12158.07557.24875.22818.39741.09567a.53344.53344,0,0,0,.21032-.5334c-.04267-.16469-.25731-.29761-.322-.16522C38.39565,62.00111,38.08425,61.69179,37.88961,61.81552Zm-2.33777,4.39394c-.16561-.39385-.50564-.42883-.75169-.56394-.495-.27182-.51459-.247-.86649.49593C34.53394,65.70864,34.98849,66.16763,35.55184,66.20946Zm20.32065,2.81836c.23113-.00607.46684-.00505.59091-.242a.24742.24742,0,0,0-.04762-.20485c-.17952-.23841-.41819-.07241-.63-.071-.1983.0013-.35178.107-.32755.323C55.48746,69.09382,55.71715,69.00126,55.87249,69.02782Zm17.38981-.66655c.52183-.2903,1.20784-.18,1.62862-.71689C74.34659,67.87981,73.66122,67.77108,73.2623,68.36127ZM61.766,65.08964c.06932-.01247.1703-.02757.26982-.04938.10576-.02317.19293-.07607.20411-.19472a.23591.23591,0,0,0-.21807-.26483,1.05974,1.05974,0,0,0-.30552-.02575c-.19895.0168-.4964.00225-.51013.22867C61.18653,65.10818,61.5208,65.03648,61.766,65.08964Zm.643-1.234a1.78894,1.78894,0,0,1,.81666-.17806.17614.17614,0,0,0,.20642-.176c.00981-.12952-.06928-.17614-.185-.19233-.2286-.032-.45593-.0737-.685-.10164a.91289.91289,0,0,0-.21437.02426Zm-1.81471,3.41013c-.02566-.298-.257-.28584-.45262-.27783-.212.0087-.42.07842-.37782.36029.03807.25441.22046.31879.45053.28432C60.42747,67.60064,60.61861,67.54156,60.59433,67.26578Zm8.78735-.93827c.05383.02533.11539.00259.10952-.05758-.03094-.3169.224-.35587.41984-.46553.14688-.08222.23551-.22509.10546-.378a.3508.3508,0,0,0-.47944-.09363,1.5,1.5,0,0,0-.26683.9046C69.2893,66.278,69.34677,66.30054,69.38168,66.32751Zm-6.05525-3.898a2.36978,2.36978,0,0,0,2.07749-.24412A13.94247,13.94247,0,0,0,63.32643,62.42953Zm-.147,2.46042c.27738-.05462.60478.00791.58572-.3011-.02078-.3371-.37487-.25668-.60532-.29515-.17481-.02922-.28518.06012-.27957.2557C62.88718,64.79084,62.97312,64.93909,63.17943,64.89Zm8.17806-1.31082c.00841.19933.36371.54978.55429.52708a.24094.24094,0,0,0,.22992-.24979.5467.5467,0,0,0-.49354-.54053C71.47539,63.32382,71.36,63.38705,71.35749,63.57913Zm.82983-.84494c.20061.23624.34147.40573.48665.57143.06481.074.12638.14451.24809.07027.20062-.12237.13473-.301.12143-.47052-.01264-.16124-.0653-.31187-.25605-.29918A4.58727,4.58727,0,0,0,72.18732,62.73419ZM50.94168,41.7978c-.24314.8221-.22654.86171.57076,1.41083Zm8.44179,26.24885c-.00459-.0225-.00224-.05037-.01484-.0667a.94547.94547,0,0,0-.62819-.383c-.06557-.00915-.19072.02332-.20016.05963-.061.23449.20155.31471.26189.49838a.3561.3561,0,0,0,.08479.12474.19043.19043,0,0,0,.26457.05218A.45139.45139,0,0,0,59.38347,68.04665Zm-19.43631-6.273c-.43532.13718-.36649.53036-.56879.736a.18576.18576,0,0,0,.0737.3087c.14956.06928.22352-.02612.31472-.118C40.0348,62.43016,39.87091,62.11754,39.94716,61.7736Zm25.616,5.87132c.18133-.024.43124.05228.45639-.188.02242-.21428-.21617-.24593-.38336-.29139a1.01675,1.01675,0,0,0-.30365-.03768c-.13469.00552-.25085.05668-.26022.21968a.23236.23236,0,0,0,.19675.279A2.52074,2.52074,0,0,0,65.56318,67.64492Zm-9.78312,2.04123a.44876.44876,0,0,0,.14932.40728c.161.17339.37115.11895.55894.03305.05569-.02548.12661-.11773.11793-.16644-.03656-.20488-.21365-.26836-.38766-.29528C56.07556,69.64263,55.92091,69.58624,55.78006,69.68615Zm.24571-3.32636c-.01185-.0437-.01039-.10334-.03945-.1349-.17416-.18925-.36092-.09657-.5575-.02939-.18292.06252-.33518.12741-.3.35839a.23259.23259,0,0,0,.05625.13234C55.32706,66.81278,55.98163,66.55782,56.02577,66.35979ZM60.31252,63.858c-.25049-.38142-.5855-.178-.89094-.14205-.12518.01474-.26282.03744-.2486.20877.01332.16046.14465.2039.27275.18308A1.55671,1.55671,0,0,0,60.31252,63.858ZM73.75,61.65885l1.42665-.26944C74.45263,61.09717,74.401,61.10351,73.75,61.65885ZM54.51036,66.42936c-.03306-.05074-.05893-.134-.11493-.169a.53985.53985,0,0,0-.71883.42546.19082.19082,0,0,0,.05.13061c.12192.11595.22625.02883.32651-.04386C54.20409,66.66313,54.46907,66.71184,54.51036,66.42936ZM19.51178,63.27011l.17944.02495c.06667-.33385.14348-.66619.19372-1.00249a.18.18,0,0,0-.18757-.19566.27275.27275,0,0,0-.17431.11888C19.271,62.58069,19.50654,62.91856,19.51178,63.27011ZM35.91827,62.0997l.03744-.14816c-.27634-.16876-.5501-.342-.83106-.50269a.13293.13293,0,0,0-.19553.04838.25064.25064,0,0,0,.01559.20325A1.1271,1.1271,0,0,0,35.91827,62.0997ZM57.14612,47.46729l.84858,1.15147C58.117,47.934,57.66854,47.67908,57.14612,47.46729ZM70.91036,64.77288c-.01619-.18257-.058-.37137-.289-.349a.36111.36111,0,0,0-.32491.42434.33325.33325,0,0,0,.35827.31463C70.86424,65.14676,70.9255,64.9732,70.91036,64.77288Zm-1.75765-1.14862a.76208.76208,0,0,0-.27024.53777.27838.27838,0,0,0,.22574.337c.182.03658.26411-.11611.32013-.25586C69.55016,63.93918,69.323,63.80184,69.15271,63.62426Zm5.41286-1.10566-.01707-.15978c-.2716.01308-.5437.01994-.8146.04172a.18559.18559,0,0,0-.18506.25643c.03645.13813.13537.23107.27569.18043C74.077,62.74632,74.31914,62.62645,74.56557,62.5186ZM57.02168,67.41923c.26244-.01939.58121.24533.7472-.13106a.28089.28089,0,0,0-.17878-.37549C57.25407,66.84016,57.13007,67.10758,57.02168,67.41923Zm-11.24894-5.855c-.04345-.641-.52751-.9471-.89741-1.33983l-.13577.10324Zm-25.1598.37552a1.02991,1.02991,0,0,0,.09549-.81511C20.18484,61.50691,20.18484,61.50691,20.61294,61.93979Zm34.228,5.484c-.01869-.12837-.0726-.27014-.26826-.24869-.18151.0199-.35008.09505-.36922.31032-.01709.19214.10421.25155.28013.2679C54.71037,67.77439,54.80659,67.665,54.84089,67.42376ZM19.18517,61.68493c-.70422-.19943-.70422-.19943-.92867.33912C18.68066,62.22928,18.82543,61.66413,19.18517,61.68493Zm51.91712,4.43078c-.025-.09161-.0773-.11976-.11518-.07036-.24479.31922-.69655.465-.88086,1.00219A1.903,1.903,0,0,0,71.10229,66.11571Zm-22.93085.207c-.27091-.35663-.56369-.14263-.85608-.06218C47.58443,66.47625,47.8769,66.36635,48.17144,66.3227Zm1.32068,2.02111c-.14757-.562-.56178-.40291-1.00083-.39635C48.78418,68.29325,49.17617,68.22225,49.49212,68.34381Zm3.55524-1.32361a.71506.71506,0,0,0-.48475.14746c-.10089.05676-.24468.16063-.09147.27849.09571.07361.23086.22942.39124.0636A.53988.53988,0,0,0,53.04736,67.0202Zm8.32191-3.41763c-.14708-.00064-.33138-.078-.36067.16011-.01717.13961.031.25807.20161.25289.20151-.0061.4671.0259.50373-.23223C61.7457,63.55952,61.4997,63.63842,61.36927,63.60257Zm-42.7297.14044-.58084.93988C18.57553,64.66385,18.59746,64.63153,18.63957,63.743Zm41.63062,5.949c.30116.05866.61708.22655.977-.04146C60.86309,69.37537,60.56575,69.64092,60.27019,69.692ZM21.56771,60.96806c-.58775-.025-.58775-.025-.38933.66362C21.27276,61.34222,21.54141,61.24492,21.56771,60.96806Zm9.65882,8.2566a.75059.75059,0,0,0-.77089.28449c-.01744.02658.05871.16687.1046.17443C30.89315,69.73837,31.01418,69.48154,31.22653,69.22466Zm-9.7679-9.7451a.99677.99677,0,0,0-.78971-.23445c-.08992-.005-.22126.01869-.20381.1638.01369.11365.11787.20482.21083.16937A2.10284,2.10284,0,0,1,21.45863,59.47956Zm36.39481,5.79537a.95671.95671,0,0,0,.93979.11063.13892.13892,0,0,0,.02645-.12726c-.19549-.2666-.46122-.06474-.69394-.0928C58.08264,65.16031,58.03412,65.20014,57.85344,65.27493Zm-11.5752.62684c-.43628-.37286-.43628-.37286-.79317,0ZM35.37562,64.3324c-.28206-.12152-.47291-.32268-.73152-.14188a.13789.13789,0,0,0-.007.13367C34.8286,64.55191,35.05126,64.53278,35.37562,64.3324ZM17.2787,63.12986c.35052.01916.63627.10389.83838-.2939C17.78134,62.79683,17.52069,62.7651,17.2787,63.12986Zm4.61114-2.97656a1.04918,1.04918,0,0,0-1.017.16357A1.93007,1.93007,0,0,0,21.88984,60.1533ZM58.7549,48.47614c.0543.62661.05642.62959.57315.75451C59.03225,49.06051,59.091,48.63976,58.7549,48.47614Zm-.88183,16.04428c.5795-.01757.591-.01332.64912-.17084.02046-.05545-.01339-.18529-.05219-.19938-.24786-.09013-.31349.21868-.51194.25472C57.9415,64.40792,57.93035,64.44079,57.87307,64.52042ZM35.13936,66.61969c-.34209-.23794-.57458-.34664-.90572-.18013A.72971.72971,0,0,0,35.13936,66.61969Zm11.85419,3.14856c-.16219-.29007-.37861-.3335-.7509-.315C46.492,69.7372,46.68407,69.8406,46.99355,69.76825ZM43.90793,59.25131a.83344.83344,0,0,0,.58731.68185C44.24545,59.65768,44.21621,59.38255,43.90793,59.25131ZM29.52644,69.68389c-.61686.0503-.61686.0503-.8285.4105C28.99007,69.94351,29.26851,69.944,29.52644,69.68389Zm-12.07209-5.357c-.3991-.07277-.63875-.16552-.91776.00488A.6502.6502,0,0,0,17.45435,64.32692ZM53.884,69.98817a.36935.36935,0,0,0-.36058-.3167c-.08346-.00428-.16868.04047-.14937.12052a.45837.45837,0,0,0,.36543.34058C53.83073,70.1542,53.87,70.08311,53.884,69.98817Zm1.19081.23948a.30435.30435,0,0,0-.08471-.494.14786.14786,0,0,0-.20348.012c-.16594.20828.09235.28829.14766.43025C54.94541,70.20462,55.01957,70.20875,55.07477,70.22765ZM19.36808,60.78319c-.08991-.046-.13681-.092-.17707-.08675-.14423.01872-.249-.20039-.40347-.06545-.03429.03-.07627.10286-.06276.1276.10263.18781.28132.18433.45992.15382C19.227,60.90519,19.26264,60.85948,19.36808,60.78319ZM46.741,67.14481a1.132,1.132,0,0,0,.84769.47644C47.44629,67.14347,47.13029,67.22282,46.741,67.14481Zm25.45472-8.41c.30486-.35383.31134-.35357.14123-.8504ZM42.1038,67.95327c.03188-.33911.0775-.57323-.123-.79472C41.78254,67.43952,41.91393,67.63138,42.1038,67.95327Zm-10.54848,1.95c-.46546.0923-.54217.351-.80061.64871A1.6522,1.6522,0,0,0,31.55532,69.90327ZM36.37769,61.528c.16482.25647.45768.1932.694.30935C36.91594,61.55894,36.61838,61.64655,36.37769,61.528Zm10.13889.398c-.02457.23985-.21511.40582-.01324.52722.08647.052.28778.02845.32944-.09432C46.90376,62.14967,46.68527,62.08388,46.51658,61.92592Zm20.65709.66255c.11587.03947.18866.09021.25117.07972.10434-.01752.37312.09464.24561-.16936C67.58553,62.323,67.37969,62.35746,67.17367,62.58847ZM47.91413,68.4101c.12508.24792.11054.4567.40385.47083C48.25805,68.71132,48.28544,68.51706,47.91413,68.4101Zm-5.211-12.75618c.23609.07013.39562.21559.75238-.00316C43.137,55.61039,42.97721,55.4667,42.70314,55.65392Zm14.48235,8.55039c.0157-.11073-.07165-.11239-.13273-.13529a.22441.22441,0,0,0-.31042.10552c-.04435.10384.03452.19266.14873.19009A.28846.28846,0,0,0,57.18549,64.20431ZM38.934,63.51982c-.0456.02042-.11535.02972-.12632.06019a.44227.44227,0,0,0,.12867.41757c.10772.1401.09-.05132.0878-.07131C39.00887,63.78856,39.095,63.62427,38.934,63.51982Zm10.66139,5.47455c-.00993.08949.048.13281.11753.15679a.20025.20025,0,0,0,.25075-.0919c.05943-.119-.03246-.16471-.14-.16955C49.73089,68.88552,49.63022,68.87171,49.59542,68.99437Zm1.42946-36.17863c.21978-.04794.38821-.09309.40565-.36541A.60681.60681,0,0,0,51.02488,32.81574ZM19.46912,60.15987c-.15471-.1669-.26656-.27516-.439-.21988a.14285.14285,0,0,0-.04983.1302C19.08064,60.302,19.25839,60.21811,19.46912,60.15987Zm29.94855,6.11641a.80343.80343,0,0,0,.564.40885C49.81191,66.44205,49.75174,66.25565,49.41767,66.27628Zm10.89266-16.1839c.1014.06157.163.09868.22425.13622.19925.122.35764.08305.28383-.06606C60.74411,50.0124,60.62313,49.9516,60.31033,50.09238ZM50.465,40.30674c.043-.0148.11905-.02509.12139-.04429.01648-.13623-.08751-.21333-.17485-.291-.01466-.013-.113.02858-.11288.04457A.28063.28063,0,0,0,50.465,40.30674Zm11.89406,8.70643c.14757.10236.20757.3958.49808.30571A.5711.5711,0,0,0,62.35905,49.01317Zm.5539,17.96322a.17788.17788,0,0,0,.10342-.23753c-.02141-.0762-.07627-.131-.14781-.0667a.33609.33609,0,0,0-.09683.18848C62.75823,66.95186,62.82949,66.981,62.913,66.97639Zm-7.36583-1.46393a.5691.5691,0,0,0-.11169-.05593.37032.37032,0,0,0-.34236.12611c-.05891.06788-.0207.1699.05238.16038a1.3052,1.3052,0,0,0,.34632-.13583C55.51051,65.59871,55.51769,65.56469,55.54712,65.51246Zm15.791-14.78576c-.02405-.03837-.04976-.10658-.06826-.10468a.3159.3159,0,0,0-.31615.24438c-.0065.03028.04075.10295.06564.10412C71.18977,50.9785,71.27391,50.86286,71.33807,50.7267ZM30.18562,70.67279c-.11674.0372-.10812.14019-.1203.23194-.013.09777.05368.13348.129.1356a.1625.1625,0,0,0,.18736-.17631A.20875.20875,0,0,0,30.18562,70.67279Zm.30477-.59838a.33622.33622,0,0,0-.18222.28523c.00072.01631.09191.05207.12633.03919a.28309.28309,0,0,0,.19205-.29221C30.624,70.04327,30.5641,70.0303,30.49039,70.07441Zm18.49148-.566c-.038-.03162-.08612-.10319-.14313-.11113a.1271.1271,0,0,0-.13307.13568c.00264.08785.08452.10405.15354.10835C48.92935,69.64569,49.00617,69.63991,48.98187,69.5084ZM60.98144,48.06763c.14721.128.25468.23486.41163.22638a.05556.05556,0,0,0,.04041-.09792A.43851.43851,0,0,0,60.98144,48.06763Z"/><path d="M58.444,44.595c.22087-.02443.21507.22974.41334.24584-.17.20541-.26179.05407-.34542.01276A.17352.17352,0,0,1,58.444,44.595Z"/><path d="M58.55666,43.81051c.289.12581.34445.39833.39412.67815a.91634.91634,0,0,1-.43091-.64413Z"/><path d="M59.465,43.8151a1.30513,1.30513,0,0,1-.44373-.72778A.83781.83781,0,0,1,59.465,43.8151Z"/><path d="M61.95525,60.01683c-.21373.28992-.39475.16335-.61746-.02831a.716.716,0,0,1,.615-.01451Z"/><path d="M21.72824,64.6024c.07917-.05941.188-.18578.23218-.16621.15992.07076.06888.19826.00726.29618-.0648.10295-.14569.19579-.21955.293Z"/><path d="M48.28274,49.14073c.17374.00749.3599.10991.25878.26437-.39537.604-.75486,1.2316-1.15044,1.84434a1.0494,1.0494,0,0,1,.28559-.93884,3.59758,3.59758,0,0,0,.62751-1.19182Z"/><path d="M47.94919,51.77108a2.93927,2.93927,0,0,1,.96956-1.06512c.1089-.06915.27136-.11272.31989.03743a.36383.36383,0,0,1-.19631.44816c-.56541.21364-.56878.20136-.74241.46589a.35015.35015,0,0,1-.11546.08991A1.26278,1.26278,0,0,1,47.94919,51.77108Z"/><path d="M45.12815,51.33343a7.07223,7.07223,0,0,1,.55461-1.719A3.95737,3.95737,0,0,1,45.12815,51.33343Z"/><path d="M39.448,56.43152c.183-.22479.58914-.12718.65506-.521C40.14178,56.54386,40.14178,56.54386,39.448,56.43152Z"/><path d="M35.29042,51.27708c.20317-.33633.48059-.32952.70013-.54054C36.03385,51.33825,35.67368,51.23446,35.29042,51.27708Z"/><path d="M36.35005,42.62677c-.23764.15422-.43475.04266-.6364-.08346C36.08586,42.32473,36.08586,42.32473,36.35005,42.62677Z"/><path d="M43.92688,41.87445a.5576.5576,0,0,1,.27765-.70507C44.25128,41.4984,43.88118,41.6259,43.92688,41.87445Z"/><path d="M35.42881,50.22792a.84129.84129,0,0,1,.60413-.0551c-.186.14073-.36775.34615-.58673.0412Z"/><path d="M39.32971,51.40354c-.1402-.04488-.13007-.15363-.14409-.24711-.01279-.08531.00435-.15659.115-.11805.09537.03319.19664.084.16022.20727C39.44239,51.30822,39.37166,51.35537,39.32971,51.40354Z"/><path d="M35.14213,50.3501c.01315.152-.11158.13541-.2001.1499-.09464.01551-.22271.02152-.23815-.09306-.01514-.11251.11308-.15157.2051-.18441C35.02467,50.18121,35.09343,50.24891,35.14213,50.3501Z"/><path d="M39.50818,49.37c-.01349.07488-.01034.16568-.12162.15554a.3302.3302,0,0,1-.30344-.19273c-.03628-.0965.06754-.11628.13786-.12111C39.34718,49.203,39.4865,49.18592,39.50818,49.37Z"/><path d="M50.10613,54.55706c.10785.2135.03653.361-.14438.52464C49.91281,54.84487,50.04091,54.71542,50.10613,54.55706Z"/><path d="M40.06468,42.35268a.47535.47535,0,0,1-.29927.206.19148.19148,0,0,1-.05255-.11566c.02-.15765.14085-.19608.27469-.19295C40.01356,42.25068,40.03808,42.31553,40.06468,42.35268Z"/><path d="M45.47141,41.283a1.04074,1.04074,0,0,1,.08213.20079c.02219.11732.04233.2481-.11416.29459a.13446.13446,0,0,1-.11988-.04358.23429.23429,0,0,1,.04684-.26564c.0409-.05878.07251-.124.10808-.18635Z"/><path d="M44.28728,40.495a1.58819,1.58819,0,0,1,.04483.22121c.00637.0977.01531.21527-.08789.26358-.093.04352-.14172-.04965-.15229-.12131a.43852.43852,0,0,1,.11319-.34124C44.218,40.50138,44.253,40.50352,44.28728,40.495Z"/><path d="M46.91086,54.362c.03929.02656.109.05505.10661.07507-.01653.14052-.12713.206-.2405.26363-.1357.069-.11905-.06008-.10939-.10691A.252.252,0,0,1,46.91086,54.362Z"/><path d="M40.41725,50.426a.13645.13645,0,0,1-.08519-.17974c.01817-.07762.06529-.14086.1525-.12139a.10988.10988,0,0,1,.08165.16117C40.53483,50.345,40.4648,50.38336,40.41725,50.426Z"/><path d="M35.44621,50.214c-.04239-.10954-.12308-.22706.00834-.32321.07427-.05434.19636-.11846.25648-.02257.07154.11408-.07238.13519-.13972.18915a1.085,1.085,0,0,0-.14014.16866Z"/><path d="M47.37662,49.53159c-.04493-.0148-.12707-.026-.12914-.04565-.01247-.11786.0743-.16806.17276-.18506.0261-.00452.08757.0478.08895.07616A.14474.14474,0,0,1,47.37662,49.53159Z"/><path d="M48.30418,49.11878a.87542.87542,0,0,1-.13446-.07346c-.05765-.04539-.108-.10009-.16147-.15082.02964-.02828.07007-.08587.087-.07964a.34939.34939,0,0,1,.18209.11035c.03135.05439.00769.14048.00676.2141Z"/><path d="M40.30006,38.579c-.01492.11412.15238.20756.04777.32509a.09955.09955,0,0,1-.17312-.03584c-.04471-.13114-.10312-.29335.15056-.26659Z"/><path d="M33.25922,52.27385a.22637.22637,0,0,1,.22877-.17151.133.133,0,0,1,.11145.06065c.03161.12987-.064.16688-.16361.16834A.571.571,0,0,1,33.25922,52.27385Z"/><path d="M37.51447,57.83812c.04677.0232.16578.05485.16588.08686.00048.16206-.15363.16828-.263.1907-.03746.00766-.13522-.08591-.13735-.13612C37.27426,57.84533,37.39513,57.85133,37.51447,57.83812Z"/><path d="M35.35493,52.94726c.03348-.01809.09139-.07347.15159-.07608a.08284.08284,0,0,1,.07113.13808.28772.28772,0,0,1-.19025.055C35.32174,53.06666,35.30441,53.02356,35.35493,52.94726Z"/><path d="M27.45562,49.38583a1.04135,1.04135,0,0,1,.712-.56816c-.24417.32508-.37127.58117-.72948.552Z"/><path d="M30.62007,51.91386c.07817-.00083.11566.03013.09974.08487a.21954.21954,0,0,1-.07734.124c-.02847.01681-.0841-.0124-.12765-.02115Z"/><path d="M27.4381,49.36966a1.25206,1.25206,0,0,1,.01216.22259.2078.2078,0,0,1-.18953.19872c-.01882.00237-.04861-.02152-.06127-.04107a.17051.17051,0,0,1,.06452-.25225,2.0871,2.0871,0,0,1,.19212-.11135Z"/><path d="M30.70206,44.93041c.04191.01542.11988.02633.12315.04831.01632.11-.05683.17971-.13967.24023-.05275.03852-.07593.02261-.08327-.05419C30.593,45.06782,30.56522,44.96564,30.70206,44.93041Z"/><path d="M53.85828,60.87968c-.1831.04312-.23161-.16355-.37579-.22618a.873.873,0,0,0,.52119.86908,4.34707,4.34707,0,0,1,.567.39924.27533.27533,0,0,1,.09478.34432c-.07381.15843-.22281.08568-.32982.03047a5.6418,5.6418,0,0,1-.73337-.4192.676.676,0,0,0-.84633.03045A1.43854,1.43854,0,0,1,50.46,61.17841a3.77275,3.77275,0,0,1-.17641-.50984c-.106-.405-.20023-.80648-.72618-.86652a.42936.42936,0,0,1-.24042-.179.32746.32746,0,0,1-.01471-.4242.27766.27766,0,0,1,.35244-.0487c.14123.06078.27195.14615.4136.20573.29092.12236.51494.298.84841-.07743.386-.4346,1.63471-.21872,2.13022.25155A3.50063,3.50063,0,0,1,53.85828,60.87968Zm-2.03915.14016c.26092.83608.3833.8955,1.0241.51775A2.56034,2.56034,0,0,0,51.81913,61.01984Zm.31343-.59964c.22894.16028.36665.27357.52.35879.12537.06968.28172.17417.40112.00192.08045-.11608-.008-.24-.05363-.35563-.0779-.1974-.19119-.17031-.35619-.09184A2.12224,2.12224,0,0,1,52.13256,60.4202Zm-.83886.19121c-.31411-.13665-.47243-.2938-.72268-.313C50.56377,60.74523,50.8395,60.70653,51.2937,60.61141Zm.12644-.77451c-.02308-.101-.06456-.19519-.18166-.20637-.06946-.00665-.17948-.00758-.20589.03227-.08.12069.04254.16021.123.19946C51.24453,59.90566,51.3407,59.93879,51.42014,59.8369Z"/><path d="M59.92335,54.96144c-.04939.50037.519.52027.69349.86871.05986.11952.1843-.17372.32177-.2715a.46959.46959,0,0,1-.11486.57315c.52208.1501.149.6012.28959.89837.23752.50214.15233,1.10175.34656,1.63693.10144.27953-.23867.34111-.36157.504-.41978.55636-.70258.50151-.918-.16367-.17134-.529-.25389-1.0854-.38612-1.62528-.13761-.56174-.59945-.891-.74264-1.44565-.34239-1.32611-.0847-1.22568.88972-.95738Zm.86,3.54295a2.93091,2.93091,0,0,0-1.09585-2.65226A15.0449,15.0449,0,0,1,60.78336,58.50439Z"/><path d="M57.93534,53.26857a.24679.24679,0,0,1,.2093-.1715c.067-.008.14406.03834.122.12371-.0237.09154-.06884.18474-.19537.1642C58.00368,53.374,57.934,53.3615,57.93534,53.26857Z"/><path d="M57.8169,52.5585a.62529.62529,0,0,1-.11507.18146c-.05738.04408-.14907.03914-.13047-.06874a.40587.40587,0,0,1,.11664-.17933C57.69591,52.4833,57.76473,52.53081,57.8169,52.5585Z"/><path d="M61.73178,59.31725a.48653.48653,0,0,1-.33462.27251C61.50078,59.38456,61.50078,59.38456,61.73178,59.31725Z"/><path d="M29.477,40.50713c-.13413.00648-.13244-.12983-.199-.19544-.11226-.11071-.027-.15219.07248-.21013a3.46008,3.46008,0,0,0,.36358-.27259c.1983-.15385.42023-.13988.49907.08056.05534.15469.04432.4677-.24039.45658C29.771,40.35823,29.65156,40.502,29.477,40.50713Z"/><path d="M25.45521,43.21714c.08793-.6026.62591-.46525.87037-.73214C26.24219,42.97373,25.89326,43.09674,25.45521,43.21714Z"/><path d="M23.83859,58.80907c-.04714-.29991-.17742-.615.16238-.88585.08721.34773-.22632.58109-.16192.88393Z"/><path d="M25.02315,48.64735c-.02389.10124-.07412.19088-.18349.19855-.09692.00679-.112-.08174-.0784-.14576.042-.08006.07315-.19966.20352-.16933C24.99184,48.53711,25.00415,48.60681,25.02315,48.64735Z"/><path d="M66.25784,53.09027a4.02367,4.02367,0,0,1,.69924-1.26628c.10174-.14561.23446-.33916.42158-.29326.52661.12918.72878-.23688.966-.5674a.37848.37848,0,0,1,.31214-.195.26339.26339,0,0,1,.19269.10289.20354.20354,0,0,1-.03167.196c-.11133.05836-.31093.08639-.28635.2124.10787.553-.33864.92505-.42463,1.42451-.13125.76231-.10181,1.52722-.18754,2.28755a8.08414,8.08414,0,0,1,.19247-3.14114,1.57513,1.57513,0,0,0-.78287,1.7715.79029.79029,0,0,1,.00875.30291,5.76921,5.76921,0,0,0,.31258,3.82528l.01509-.015a3.64424,3.64424,0,0,1-.714-2.80278c.01846-.53144.14344-1.05848.11825-1.59808a2.9,2.9,0,0,1,.67445-1.66555,1.69333,1.69333,0,0,0-.94192.73284c-.1911.22078-.23671.56309-.56133.67219Z"/><path d="M71.2414,58.51508c0-.256-.00427-.51208.00077-.768a5.35657,5.35657,0,0,0-.44908-2.39585,5.04156,5.04156,0,0,1-.37766-1.40837.99807.99807,0,0,1,.393-.9855,1.147,1.147,0,0,0,.02978,1.11087,8.137,8.137,0,0,1,.34979,1.4924,1.78762,1.78762,0,0,0,.0479.30317A5.907,5.907,0,0,1,71.2414,58.51508Z"/><path d="M66.24076,53.07389a1.69673,1.69673,0,0,1-.06785.83367,3.24329,3.24329,0,0,0-.06109,2.11092c.14168.59425.16385,1.25844.75364,1.66406-1.031-.31725-.614-1.55536-1.338-2.06284a4.88143,4.88143,0,0,1,.731-2.5288Z"/><path d="M69.38421,57.39481a5.09429,5.09429,0,0,1-.46349-2.47587,2.36929,2.36929,0,0,1,.23084-1.4406c.20562-.02017.23586.13039.20485.19a4.73443,4.73443,0,0,0-.0595,3.05992c.0334.22668.04679.45631.0694.68458Z"/><path d="M69.36631,57.41286c.06376.10659.1036.2742.1951.31009.73389.28781.59532.9602.69533,1.5254.03925.22174-.05685.46025.08291.67186.07895.11954.00475.19486-.09883.21963a.36366.36366,0,0,1-.21456-.04586.13133.13133,0,0,1-.07267-.18417,1.45952,1.45952,0,0,0-.32067-1.7282,1.09491,1.09491,0,0,1-.24941-.78588Z"/><path d="M68.415,53.39728c.11712-.56.04218-1.18411.62023-1.57884.24537-.16757.08778-.52857.33473-.76707,0,.38594.01787.773-.005,1.15754-.02293.38519-.1519.02553-.23432.02577-.19139.00053-.2204.18661-.30985.30211-.197.25433-.12505.64207-.41971.84847Z"/><path d="M68.42559,59.43263c.09152.34971.52287.37845.65972.69126-.79171.033-1.07207-.51236-1.29428-1.1243l.05134-.04449.31532.197Z"/><path d="M68.40109,53.38526v2.11688a3.93108,3.93108,0,0,1,.01455-2.10432Z"/><path d="M67.65021,57.75024a3.0329,3.0329,0,0,1,.93464.84909c-.4014-.18642-.79241-.38463-.91957-.864Z"/><path d="M67.791,58.99959a1.57963,1.57963,0,0,1-.26168-.24822c-.07328-.109-.2108-.2665-.00335-.35961.13607-.06109.21681.07611.24961.20085.03118.11849.04518.24149.06675.3625Z"/><path d="M68.42559,59.43263l-.2679-.28058.01234-.22822c.25788-.01218.35692.21538.44748.36639C68.73483,59.48585,68.499,59.38928,68.42559,59.43263Z"/><path d="M68.00091,55.73829c.15894.22518-.033.42607.03517.52143Z"/><path d="M66.94052,59.15659c-.33682-.19406-.47422-.32765-.53632-.65348A1.64925,1.64925,0,0,1,66.94052,59.15659Z"/><path d="M65.3812,57.10184a1.9515,1.9515,0,0,1-.01111-.3461c.0093-.06968.07557-.0629.08284.01341.01061.11131.00273.22439.00273.33673Z"/><path d="M50.79677,47.68567c.56389.24357.27513.55963.20588.83882Z"/><path d="M50.71488,44.45711a.95923.95923,0,0,1-.01071.87328C50.44445,44.98076,50.61482,44.72205,50.71488,44.45711Z"/><path d="M49.88579,42.832a.73208.73208,0,0,1,.22071.83168Z"/><path d="M51.671,54.35462c-.12485-.22879-.00853-.38644.12439-.55147.16359.065.09107.20126.094.3037C51.89234,54.20794,51.86528,54.30908,51.671,54.35462Z"/><path d="M49.36872,42.56367l.12666.49729c-.20866.03922-.21228-.10734-.23336-.21228a1.50267,1.50267,0,0,1-.00393-.29091Z"/><path d="M51.36369,46.865a.93619.93619,0,0,1-.05275-.7066C51.51114,46.42773,51.42129,46.62017,51.36369,46.865Z"/><path d="M51.81685,51.8862c-.07476-.21538-.03439-.36772.14759-.45906C52.108,51.65235,51.86375,51.74383,51.81685,51.8862Z"/><path d="M51.71087,55.25386c-.059-.01678-.08057-.06511-.03209-.10894.06-.05428.02435-.20556.16337-.168.01638.00444.01743.09148.01356.13926A.13656.13656,0,0,1,51.71087,55.25386Z"/><path d="M50.5405,46.48911c.01854.03256.07779.09037.07895.14932.00182.09194-.07749.10008-.14658.0642a.15522.15522,0,0,1-.078-.18579C50.40943,46.45894,50.45757,46.44687,50.5405,46.48911Z"/><path d="M54.62253,42.6235c-.166.29115-.01984.49764.01653.71111a5.39032,5.39032,0,0,1,.14071.83389c.00231.25472.22908.69267-.14252.73283-.42669.04611-.19543-.41722-.24927-.65205a12.50762,12.50762,0,0,0-.37439-1.87033c-.29671.51961-.12721,1.08884-.459,1.52927-.14436-1.41078.38124-2.87886-.56434-4.295.60833.10139.68145.49339.79.79055a6.96481,6.96481,0,0,0,1.42012,2.274,4.11094,4.11094,0,0,1,.37041.4904c.05767.08757.04394.28273-.00454.28205-.6562-.0092-.11516.53724-.35813.75847C54.9503,43.70144,54.96868,43.11087,54.62253,42.6235Z"/><path d="M53.31879,44.63916a1.44185,1.44185,0,0,1,.245.96377C53.18685,45.28522,53.30779,44.94907,53.31879,44.63916Z"/><path d="M56.17361,45.3032a1.88518,1.88518,0,0,1-.42826-.91771C56.06968,44.72442,56.22284,44.9637,56.17361,45.3032Z"/><path d="M42.76125,31.92035a1.04,1.04,0,0,1-.60138.88254c.21771-.28067.05362-.82023.61527-.86843Z"/><path d="M45.50518,31.08532c-.03516-.02281-.09547-.04288-.09655-.06572-.00688-.14662.10716-.20018.219-.24164.02372-.0088.09719.03653.09781.05834C45.7296,30.98338,45.602,31.02223,45.50518,31.08532Z"/><path d="M22.3814,62.92985a12.494,12.494,0,0,1,.64629-2.02219c.12041-.02874.15788.0148.117.05941-.2616.28568.34285.27426.17277.50489-.121.1641-.30618.28471-.41044.45647C22.71181,62.25007,22.55449,62.59475,22.3814,62.92985Z"/><path d="M28.95142,65.398c.28159.16364.28159.16364.4803.7227-.1839.03463-.19145-.20869-.37067-.2169-.19122.28417.13765.48358.14042.78192a1.1092,1.1092,0,0,1-.23668-1.30736Z"/><path d="M31.85786,64.09682c-.21448-.38688-.43257-.77183-.63977-1.16257a.14721.14721,0,0,1,.06184-.19877.13432.13432,0,0,1,.19036.06349c.166.40077.32462.80457.48583,1.20731Z"/><path d="M28.96479,65.3784c-.17069-.38889-.5137-.688-.588-1.12674l-.02046.021c.06752-.03543.15593-.06228.1937.01394a2.52917,2.52917,0,0,1,.40329,1.10876Z"/><path d="M30.19294,66.48088l.5234.4861C30.3031,66.99588,30.28274,66.70012,30.19294,66.48088Z"/><path d="M53.06286,36.36669l1.01417-.44416C53.78924,36.38961,53.78924,36.38961,53.06286,36.36669Z"/><path d="M54.21521,37.79664c-.2156.174-.32138.64052-.78857.2752Z"/><path d="M76.55149,56.71663a17.52948,17.52948,0,0,0-.54849-4.11534A6.9084,6.9084,0,0,1,76.55149,56.71663Z"/><path d="M76.074,58.05985a1.22454,1.22454,0,0,1,.13981-.88227C76.46248,57.54056,76.15415,57.779,76.074,58.05985Z"/><path d="M59.93369,42.06358a1.15781,1.15781,0,0,1,.60451.13794c.12059.03447.33365.05967.20379.28558-.09914.17245-.2639.138-.39467.06481A.68877.68877,0,0,1,59.93369,42.06358Z"/><path d="M48.83367,40.17554c.46751-.08008.46751-.08008.738.23061C49.30657,40.43234,49.13746,40.29952,48.83367,40.17554Z"/><path d="M27.07078,65.07485a13.45625,13.45625,0,0,0-.47465-1.582A1.673,1.673,0,0,1,27.07078,65.07485Z"/><path d="M25.94454,60.98154a1.08325,1.08325,0,0,1,.8962.83955Z"/><path d="M27.09957,63.48159a1.41764,1.41764,0,0,1-.14228-.65773C27.20154,63.06338,27.12065,63.265,27.09957,63.48159Z"/><path d="M57.135,38.692c-.13564.246-.3898.2409-.66424.3583.13923-.43709.47016-.2443.68092-.33572Z"/><path d="M30.02382,60.10945c.39648.00663.86-.243,1.17036.38083C30.76085,60.33631,30.39675,60.206,30.02382,60.10945Z"/><path d="M32.20341,61.09c-.417.096-.5865.02843-.66942-.19642-.00965-.02612.0373-.09515.07336-.11262C31.90829,60.635,31.8954,60.96665,32.20341,61.09Z"/><path d="M29.97413,60.6565c.2546-.21128.47161-.20005.7091.10521-.29822.05049-.46706-.19937-.7038-.11794Z"/><path d="M48.26638,32.59006c-.21463-.03373-.21512.24959-.41285.267-.007-.32691.26531-.21134.42349-.26981Z"/><path d="M44.25248,37.62925c-.07287-.00754-.15151-.02791-.141-.11493a.24336.24336,0,0,1,.09379-.17524c.11394-.04864.16847.04075.17513.14061A.14519.14519,0,0,1,44.25248,37.62925Z"/><text x="0" y="115" fill="#000000" font-size="5px" font-weight="bold" font-family="'Helvetica Neue', Helvetica, Arial-Unicode, Arial, Sans-serif">Created by Olga</text><text x="0" y="120" fill="#000000" font-size="5px" font-weight="bold" font-family="'Helvetica Neue', Helvetica, Arial-Unicode, Arial, Sans-serif">from the Noun Project</text></svg>