<svg xmlns="http://www.w3.org/2000/svg" xmlns:xlink="http://www.w3.org/1999/xlink" version="1.1" x="0px" y="0px" viewBox="0 0 100 125" style="enable-background:new 0 0 100 100;" xml:space="preserve"><path d="M74,29.6c0,4.7-1,8.4-3.3,11.7c-1.5,2.1-3.1,4-5.3,5.5c-0.9,0.6-1.2,1.3-1.5,2.3c-0.8,2.7-1.1,5.5-1.7,8.3  c-1.1,5-2.3,10-3.8,14.9c-1.3,3.9-2.2,7.9-3.3,11.9c-1.1,3.8-2.6,7.5-4.1,11.2c-1.1,2.7-3,1.8-4.3,0.4c-0.7-0.8-0.9-1.8-1.2-2.8  c-2.1-7.2-4.1-14.5-6.5-21.6c-1.6-4.9-2.9-9.8-3.8-14.8c-0.3-1.6-0.8-3.1-1-4.7c-0.2-1.2-0.7-2.2-1.8-3c-1.9-1.5-3.9-2.9-5.3-4.9  c-1.5-2.2-3-4.5-3.4-7.2c-0.5-3.3,0.2-6.5,1.7-9.4c1.4-2.7,3.2-5.1,5.8-6.9c1.6-1.1,1.9-2.8,2.1-4.4c0.2-1.4,0.5-2.6,1.2-3.8  c0.3-0.6,0.7-1.2,0.8-1.8c0.7-2.4,2.3-3.9,4.3-5.1c4.1-2.7,8.7-3.4,13.4-2.6c3.9,0.7,6.9,3,8.3,6.9c0.8,2.1,1.9,4.2,2.2,6.5  c0.1,0.7,0.5,1.1,1,1.4c2.6,1.9,4.8,4.3,7.1,6.5c0.1,0.1,0.3,0.3,0.4,0.4C72.6,26.2,74.4,27.9,74,29.6z M60.1,59.3  c0.4-0.8,1.2-1.6,0.3-2.4c-1-1-2.2-1.9-3.3-2.8c-2,2-2,2.1-0.3,4.2c0.4,0.5,0.6,1,1.3,1.3c0.4-0.3,0.8-0.7,1.2-0.9  C60.3,58,60,59,60.1,59.3c-0.8,0.4-1.2,0.9-0.9,1.8c0,0.1,0.4,0.2,0.5,0.2c0.7-0.4,0.5-1.1,0.5-1.8C60.2,59.5,60.2,59.4,60.1,59.3z   M64.1,18.9c-0.2,0.8-0.3,1.3-0.4,1.9c-0.4,2-1.5,2.8-3.6,2.4c-0.5-0.1-1-0.2-1.4,0.1c-1.2,0.6-2.3,0.6-3.5,0  c-0.7-0.4-1.5-0.3-2.3,0.2c-1.2,0.8-2.6,1.2-4,1.2c-0.9,0-1.4,0.4-1.8,1.1c-1,1.6-1.9,3.3-2.4,5.1c-0.6,2.3-0.7,4.7,1.2,6.6  c0.3,0.3,0.8,0.7,0.4,1.4c-0.3,0.5,0.2,0.9,0.5,1.2c2.7,2.7,5.6,4.6,9.7,3.8c0.8-0.1,1.6-0.2,2.4-0.2c0.7,0,1.3,0.2,1.7,0.9  c1.1,1.8,1.5,1.9,3,0.7c1.8-1.4,3.4-3,5-4.6c1.7-1.7,2.9-3.7,3.4-6.1c0.7-3.5-0.2-6.8-2-9.6C68.8,22.4,66.3,20.9,64.1,18.9z M48,3.6  c-7.7,0.9-11,4.1-13.3,11.6c-0.5,1.7-0.8,3.4-1.3,5.1c-0.2,0.8-0.3,1.5,0.3,2.1c0.6,0.6,1.3,0.9,2.2,0.6c0.8-0.3,1.5-0.5,2.3-0.7  c0.5-0.2,0.9-0.2,1.2,0.4c0.7,1.6,2.1,1.4,3.5,1.2c0.9-0.1,1.4-0.7,2.1-1.1c1.4-0.9,2.3-0.7,3.4,0.6c0.3,0.3,0.5,0.4,0.9,0.4  c1.1-0.1,2.3,0,3.2-0.9c0.8-0.9,1.9-1,3-0.5c1.1,0.5,2.2,0.6,3.3-0.1c0.5-0.3,1-0.2,1.6-0.1c1.8,0.3,2.7-0.8,2.2-2.5  c-0.2-0.7-0.4-1.3-0.4-2c0-2-0.8-3.7-1.5-5.4c-0.7-1.7-2-3-2.6-4.7c-0.3-0.8-1.1-1.3-1.9-1.8C53.7,4.1,50.9,3.5,48,3.6z M31.8,21.5  c-0.5,0.4-1,0.7-1.5,1.1c-0.8,0.8-1.5,1.7-2.3,2.6c-3.7,4.2-4.2,10.1-1.4,14.9c0.6,1.1,1.7,1.8,2.2,2.8c1,2.2,3.1,3.1,4.7,4.6  c0.3,0.3,0.9,0.6,1.3,0.3c1.3-1,2.1-0.3,2.9,0.7c0.7,0.9,1.4,0.6,2.1,0.1c0.4-0.3,0.7-0.7,1-1c1.4-1.8,2.3-1.9,4.2-0.7  c1.2,0.7,2.5,0.6,3.4-0.5c0.5-0.6,0.9-1.2,0.1-2.1c-1.2-1.3-2.3-2.8-3.3-4.3c-1.8-2.7-2.7-5.6-1.9-8.8c0.6-2.3,1.5-4.6,2.9-6.6  c0.3-0.4,0.7-0.7,0.2-1.2c-0.4-0.4-0.8,0-1.1,0.3c-1.4,1.2-3.1,1.2-4.8,1.3c-0.6,0-1.3-0.1-1.5-0.8c-0.5-1.2-1.3-1-2.1-0.5  c-1.5,0.8-2.8,0.7-4.1-0.5C32.3,22.8,32.3,22.1,31.8,21.5z M61.2,55.9c0.1-2.5,0.9-4.7,1.3-7.1c0.1-0.8-0.1-1.4-0.9-1.6  c-1.1-0.2-1.5-0.9-1.9-1.8c-0.4-0.8-1.3-1-1.8-0.2c-0.7,1.1-1.7,1.7-2.7,2.3c-0.3,0.2-0.7,0.6-0.4,1c0.8,1.1,1.4,2.4,2.6,3.2  c1.3-0.9,1.4-2.8,3.2-3.1c0.2,0.7-0.3,1-0.5,1.3c-0.6,1-2,1.6-1.8,2.8c0.2,1.2,1.5,1.8,2.3,2.7C60.6,55.7,60.8,55.7,61.2,55.9z   M40.7,72.3c1.6-0.9,1.5-1.5,0.7-2.5c-0.4-0.6-0.7-1.4-1.4-1.7c-0.9-0.5-0.7-1.5-1.1-2.3c-0.2-0.4,0.2-1,0.8-0.4  c0.3,0.3,0.5,0.3,0.8,0.1c1.8-1.6,2-2.6,0.3-4.3c-0.3-0.4-0.5-1-1.2-0.9c-1.1,1.3-2.4,2.5-1.7,4.4C39,67.1,39.6,69.8,40.7,72.3z   M36,54.9c0.7-0.9,1.7-1,2.5-1.6c0.8-0.6-0.3-2,0.8-1.9c1.1,0.1,1.4-0.8,2.1-1.2c1.1-0.5,0.6-2,1.7-2.5c0.2-0.1,0.2-0.2,0-0.3  c-0.1,0-0.3,0-0.4,0c-0.8,0-0.8,0.8-1.2,1.2c-1.5,1.7-2.8,2.8-4.9,0.5c-0.1-0.1-0.3-0.2-0.7,0C34.9,50.9,35.5,52.8,36,54.9z   M42.8,72.1c-0.5,0.6-0.9,1.1-1.3,1.6c-0.3,0.3-0.4,0.7-0.3,1.1c0.9,2.6,1.7,5.3,2.6,8c1.4-1.5,1.4-1.5,0.4-2.8  c-0.4-0.5-0.8-1.1-1.1-1.7c-0.4-0.6-0.3-1.1,0.3-1.7c2-1.8,2-1.9,0.1-3.9C43.4,72.5,43.3,72.4,42.8,72.1z M58.2,68.1  c0.8-1.3,1-2.7,1.3-4.1c0.2-1-0.5-2.1-1.4-2.5c-0.9-0.4-1.1,0.6-1.5,1c-0.9,0.8-1,1.6-0.5,2.8C56.5,66.5,57.8,66.9,58.2,68.1z   M45.8,73.9c1-0.7,1.7-1.7,2.4-2.7c0.2-0.3,0.4-0.6,0-0.9c-0.8-0.7-1.2-1.9-2.3-2.5c-0.3,0.4-0.4,0.7-0.6,0.9  C43.6,71.4,43.6,71.4,45.8,73.9z M54.3,71.9c-0.9,0.4-1.3,1.4-1.9,2.2c-0.2,0.2-0.3,0.5-0.1,0.7c1,1.2,1.6,2.6,3,3.5  c0.2-0.6,0.3-1,0.4-1.4C56.6,74.9,56.6,73.2,54.3,71.9z M54,78.9c-0.4-0.6-0.9-1.2-1.3-1.9c-1.1-1.7-1.5-1.6-2.7-0.1  c-0.7,0.8-0.7,1.5,0,2.3c0.5,0.6,0.9,1.2,1.4,1.8c0.2,0.3,0.5,0.5,0.9,0.3C52.4,81.2,54,79.2,54,78.9z M47.4,93.1  c1.1-1.4,2.1-2.6,3.1-3.8c0.3-0.3,0.5-0.7,0.3-1.1c-0.4-0.8-0.6-1.7-1.6-2.3c-0.7,1.1-1.2,2.3-2,3.2C46.1,90.5,46.4,91.6,47.4,93.1z   M51.9,59c0.8-0.6,1.2-1.5,1.8-2.2c0.3-0.4,0.2-0.8-0.1-1.1c-0.8-1-1.4-2.1-2.6-2.8c-0.6,0.5-1,1.1-1.4,1.7  c-0.4,0.6-0.5,1.2,0.1,1.8C50.5,57.2,51.2,58.1,51.9,59z M46.1,82.1c-0.5,0.5-1,1-1.5,1.5c-0.3,0.2-0.5,0.5-0.3,0.8  c0.5,1.4,1.1,2.7,1.7,4.3c0.6-0.9,0.9-1.7,1.4-2.3c1.8-2.2,1.2-1.8-0.3-3.6C46.8,82.6,46.6,82.2,46.1,82.1z M43.1,62.2  c2.4-2.4,2.5-2.8,0.5-5.1c0-0.1-0.1-0.1-0.1-0.1c-0.4-0.5-0.8-0.4-1.1,0c-1.7,2.3-2.2,1.6-0.2,4.1C42.4,61.4,42.5,61.9,43.1,62.2z   M43.2,64.1c-2.8,3-2.5,2.8-0.2,6c0.7-0.8,1.4-1.6,2.1-2.4c0.5-0.6,0.4-1.1-0.1-1.6C44.3,65.5,43.7,64.8,43.2,64.1z M45.8,60.4  c-0.7,0.9-1.2,1.6-1.8,2.3c-0.1,0.2-0.3,0.5-0.1,0.7c0.7,0.9,1.3,2.1,2.4,2.3c0.9,0.1,1.2-1.1,1.8-1.8c0.4-0.5,0.3-1-0.1-1.4  C47.4,61.8,46.6,61.2,45.8,60.4z M54.6,55.3c2.2-2.1,2.2-2.1,0.6-4.2c-0.4-0.6-0.7-1.3-1.6-1.8c-0.4,0.5-0.8,1-1.2,1.6  c-0.4,0.5-0.6,1.1,0,1.6C53.3,53.2,53.9,54.2,54.6,55.3z M53.5,83.9c-1.1,0.3-1.7-1-2.5,0c-0.7,0.8-0.9,1.5-0.2,2.3  c0.5,0.5,0.5,1.5,1.5,1.4c0.9-0.1,0.8-1,1-1.6c0.4-1.1,0.7-2.2,1-3.3c0.2-0.8,0.7-1.6,0.4-2.6C53.5,81.2,52.3,82.1,53.5,83.9z   M49.2,62.5c0.8-0.5,1-1.2,1.5-1.7c0.3-0.3,0.3-0.8,0-1.1C50,58.9,49.5,58,49,57.1c-0.2-0.5-0.6-0.4-1,0c-1.5,1.7-1.6,2.3-0.1,4.2  C48.3,61.7,48.5,62.2,49.2,62.5z M52.1,66.3c2.5-2.5,2.4-3-0.3-5.5c-3,3.1-2.3,2.3-0.4,4.9C51.6,65.9,51.8,66,52.1,66.3z M49.2,69.7  c2.4-2.3,2.4-2.3,0.7-4.7c-0.2-0.3-0.3-0.8-0.7-0.9C46.6,67.2,46.2,66.4,49.2,69.7z M45.9,58.6c0.6-1,1.1-1.7,1.6-2.4  c0.3-0.4,0.5-0.9,0-1.3c-0.7-0.7-1.1-1.7-2-2.2c-2.2,2.4-2.2,2.4-0.4,4.9C45.3,57.9,45.5,58.1,45.9,58.6z M54.7,57.2  c-2.3,2.4-2.3,2.4-0.5,4.9c0.2,0.3,0.4,0.5,0.6,0.8c2.4-2.1,2.4-2.2,0.7-4.5C55.3,58.1,55.1,57.7,54.7,57.2z M51,50.7  c2.1-1,1.5-2.9,1.8-4.5c0.1-0.3-0.2-0.5-0.4-0.6c-1.2-0.5-2.2,0.1-2.3,1.4c0,0.3,0,0.7-0.3,0.9c-0.5,0.5-0.4,0.9,0.1,1.4  C50.3,49.8,50.7,50.2,51,50.7z M49.1,71.9c-0.9,0.7-1.4,1.5-1.9,2.3c-0.6,0.9,0.1,2.6,1.2,2.8c0.2,0,0.4-0.1,0.5-0.2  c1.7-1.4,1.9-2.4,0.6-4.4C49.5,72.3,49.4,72.1,49.1,71.9z M52,68.3c-0.8,0.4-1.1,1.2-1.6,1.8c-0.6,0.8-0.2,2.4,0.9,2.9  c0.9,0.5,1-0.6,1.5-1c0.3-0.3,0.5-0.6,0.8-0.9c0.2-0.3,0.4-0.6,0.2-0.9c-0.4-0.6-0.8-1.1-1.2-1.6C52.4,68.4,52.2,68.4,52,68.3z   M48.4,54.7c2.3-3.1,2.7-2.2,0-5c-0.2,0.2-0.4,0.3-0.6,0.5c-0.2,0.2-0.4,0.4-0.6,0.5C46.2,51.7,46,52,47,53  C47.5,53.4,47.9,54,48.4,54.7z M40.1,58.3c0.6-0.8,1.1-1.5,1.6-2.2c0.2-0.3,0.5-0.6,0.1-0.9c-0.6-0.6-1-1.6-1.9-1.7  c-0.8,0-1.1,0.9-1.6,1.4c-0.4,0.4-0.4,0.8,0,1.3C38.8,56.8,39.1,57.5,40.1,58.3z M49.4,83.9c1.7-1.7,1.7-1.7,0.4-3.3  c-0.2-0.3-0.4-0.6-0.6-0.8c-0.8-0.9-1.1-0.9-1.7,0.2c-0.4,0.7-0.4,1.2,0.1,1.8C48.2,82.4,48.7,83.1,49.4,83.9z M43.1,49.9  c-1,0.8-1.6,1.7-2.3,2.6c0.5,0.6,0.9,1.1,1.4,1.5c0.3,0.3,0.5,0.3,0.9,0.1c1.6-1.1,1.8-2.5,0.4-3.9C43.4,50.2,43.3,50.1,43.1,49.9z   M54.6,64.9c-2.3,2.7-2.3,2.7,0,4.5c1.6-1.4,1.6-1.4,0.6-3.3C55.1,65.7,54.9,65.4,54.6,64.9z M46,80c2.2-2.1,2.1-2.1-0.3-3.8  C44,77.7,44,77.7,46,80z M57.9,70c0-0.8-0.7-1.4-1.1-1c-0.6,0.5-1.2,1.2-1.2,2c0,0.7,0.4,1.4,1,1.6c0.7,0.2,0.7-0.7,0.8-1.1  C57.6,71,57.7,70.5,57.9,70z M37.4,60.6c0.5-0.6,1-1.1,1.5-1.6c-0.7-0.8-1.1-1.9-2.5-2.7C36.7,58,36.9,59.3,37.4,60.6z M48,94.4  c0.9,0.4,1.7,0.5,2.1-0.5c0.5-1.2,1-2.4,1.5-3.6c-0.1-0.1-0.2-0.1-0.4-0.2C50.4,91.6,48.9,92.8,48,94.4z M47.4,48.5  c-0.8-0.4-1.4,0.3-2.1,0c-0.4-0.2-0.8-0.2-1.1,0.2c-0.3,0.4,0,0.7,0.3,1.1c0.8,1.2,1,1.3,2,0.1C46.8,49.5,47.4,49.2,47.4,48.5z"/><path d="M49.4,30.3c0.3,1,0.6,1.9,1.1,2.8c0.8,1.5,1,1.5,2.2,0.5c0.2-0.2,0.4-0.4,0.6-0.6c0.6-0.4,1.1-0.5,1.4,0.4  c0.3,1.2,1,0.8,1.7,0.3c0.7-0.5,1.2-1,2-1.3c0.3-0.1,0.5-0.1,0.7,0.2c0.1,0.2,0,0.4-0.2,0.5c-1,0.6-2.1,1.3-3.1,1.9  c-1,0.6-1.4-0.3-1.9-0.9c-0.2,0-0.3,0-0.4,0.1c-1.9,1.2-2.5,1.1-3.7-0.8C48.7,31.9,48.6,31.6,49.4,30.3z"/><path d="M65.7,31.5c-1,0.3-1.5-0.7-2.4-0.8c-0.4,0-0.4-0.8-0.1-1.2c0.3-0.4,0.8-0.5,1-0.2c1.2,1.8,2.4,0.7,3.6,0.1  c0.4-0.2,0.7-0.4,1.1-0.6c0.5-0.2,1-1.1,1.5-0.3c0.3,0.6-0.6,0.9-1.1,1.2C68.2,30.4,67,31.2,65.7,31.5z"/><path d="M64.6,36.8c-0.4,1.2-1.4,1.5-2.2,2C62.2,39,61.9,39,61.8,39c-1.1-1.1-2.2-0.2-3.3-0.2c-0.5,0-1.1,0.1-1.5-0.4  c-0.2-0.3-0.4-0.5-0.2-0.9c0.2-0.3,0.5-0.2,0.7,0c0.5,0.4,1.1,0.3,1.7,0.1c0.9-0.3,1.9-0.7,2.8,0.1c0.3,0.2,0.6-0.1,0.9-0.2  C63.5,37.3,64,37.1,64.6,36.8z"/><path d="M62.5,24.8c-1.5,0.8-2.8,1.6-4.2,2.3c-0.3,0.2-0.6,0.3-0.9-0.2c-0.2-0.3,0-0.9,0.2-0.9c1.5,0.1,2.3-1.2,3.6-1.6  C61.6,24.3,61.9,24.3,62.5,24.8z"/><path d="M57.1,7c0.4,1.7-0.5,2.6-1.3,3.5c-0.6,0.7-1.6,1.4-2.7,1c-0.8-0.3-1.2-0.2-1.8,0.3c-0.8,0.7-1.6,1.5-2.9,0.7  c-0.6-0.3-1.1,0.3-1.7,0.5c-1.5,0.5-1.9,0.3-2.3-1.3c-0.3-1.3-0.7-1.5-1.7-0.6c-0.9,0.9-1.8,1.9-2.9,2.5c-1,0.6-1.5,0.4-2-0.7  c-0.3-0.9-0.8-1.8,0-2.9c0.6,0.6,0.2,1.4,0.5,1.9c0.5,1.1,0.9,1.3,1.8,0.5c0.6-0.5,1.2-1.1,1.8-1.7c0.2-0.2,0.4-0.5,0.7-0.7  c1.2-1,2-0.8,2.6,0.7c0.6,1.7,0.6,1.7,2.2,0.9c0.7-0.3,1.2-1,2.1-0.2c0.6,0.5,1.2-0.4,1.7-0.8c0.8-0.5,1.3-1.2,2.4-0.2  c0.5,0.6,1.2-0.1,1.7-0.6C55.9,9,56.1,7.9,57.1,7z"/><path d="M44.1,17.8c2.2,1.4,3.6,0.1,5.2-0.7c0.5-0.3,1-0.7,1.7-0.2c0.2,0.2,0.3,0.4,0.3,0.7c-0.1,0.4-0.3,0.4-0.6,0.2  c-0.8-0.5-1.2,0.3-1.8,0.5c-1.2,0.6-2.4,1.3-3.8,0.7C44.7,18.9,44.3,18.7,44.1,17.8z"/><path d="M41.1,35c-1.3,1.7-1.3,1.7-2.6,0.2c-0.6-0.7-1-0.7-1.6-0.1c-0.3,0.3-0.7,0.6-1.1,0.9c-1.1,0.7-1.5,0.7-2.5-0.1  c-0.6-0.6-1.4-1-1.8-1.9c-0.1-0.3,0-0.5,0.2-0.7c0.3-0.2,0.5,0,0.6,0.2c0.1,0.1,0.1,0.2,0.2,0.4c1.5,2.3,1.8,2.3,3.8,0.5  c1.5-1.3,1.7-1.4,2.8,0.4C39.9,35.9,40.4,34.7,41.1,35z"/><path d="M27.8,32.5c0.5,0.6,0,0.9-0.1,1.2c-0.4,1.4-0.2,1.9,1.2,2.2c0.7,0.2,1.3,0.4,1.2,1.3c-0.1,1.2,0.5,1.9,1.8,2.3  c-1.7,0.3-2.6,0-2.7-1.3c-0.1-1-0.6-1.3-1.3-1.7C26.2,35.6,26.2,33.9,27.8,32.5z"/><path d="M39.1,28.9c-0.6,0.5-1.3,0.9-2.2,0.5C37.6,28.5,38.4,28.9,39.1,28.9z"/><text x="0" y="115" fill="#000000" font-size="5px" font-weight="bold" font-family="'Helvetica Neue', Helvetica, Arial-Unicode, Arial, Sans-serif">Created by Olga</text><text x="0" y="120" fill="#000000" font-size="5px" font-weight="bold" font-family="'Helvetica Neue', Helvetica, Arial-Unicode, Arial, Sans-serif">from the Noun Project</text></svg>