<svg xmlns="http://www.w3.org/2000/svg" xmlns:xlink="http://www.w3.org/1999/xlink" version="1.1" x="0px" y="0px" viewBox="0 0 100 125" style="enable-background:new 0 0 100 100;" xml:space="preserve"><path d="M72.5,40c1.7-1.4,3.2-2.6,4.6-3.8c1.9-1.7,4-2,6.4-1.3c1.1,0.4,1.8,1.3,2,2.6C86,43.1,83.9,47.3,80,51  c-0.7,0.6-1.2,1.3-1.9,1.9c-1,0.8-0.8,1.3,0.2,1.9c3.2,2.1,5.7,4.8,7.5,8.2c1.7,3.3,2.1,6.7,2,10.4c-0.1,3.8-1.9,6.8-4.1,9.4  C81,85.8,77.5,88,74,90c-6.2,3.5-12.9,4.5-19.9,4.5c-0.2,0-0.4,0-0.6,0c-2.9,0.9-5.8,0.3-8.5-0.1c-2.3-0.3-4.7-0.7-7-1.1  c-3.9-0.6-7.6-2-11.3-3.2c-2.2-0.8-4.3-1.9-6.2-3.4c-1.7-1.3-3.8-1.9-5.3-3.7c-2.5-3-4.3-6.4-4.9-10.3c-0.2-1.5,0-3.2,0.7-4.5  c1.5-2.7,1.1-5.4,0.6-8.2c-0.2-0.9-0.4-1.7-0.6-2.6c-0.4-2.2,0.9-3.5,2.4-4.7c0.9-0.7,1.7-1.4,2.5-2.2c2.2-2.2,4.8-2.7,7.8-2.2  c1.2,0.2,2.5,0.1,3.7,0.6c1,0.4,1.3,1.7,1.9,1.8c0.8,0.1,1.7-1,2.7-0.7c1.1,0.4,1.1-0.1,0.9-0.8c-1-3.5-1.7-7.1-2.3-10.7  c-0.4-2.1-0.6-4.3-0.7-6.5c0-0.9,0.7-1.7,1.3-2.3c1.3-1.4,2.8-2.6,4.6-3.3c0.8-0.3,1.6-0.6,2.4-1c1.2-0.6,2.8-0.9,3.5-1.9  c0.7-1-0.5-2.4-0.8-3.7c-0.4-1.6,0.4-2.9,0.8-4.3c0.3-1.2,0.8-2.3,1.6-3.2c1.3-1.5,1.9-3.3,2.5-5.1c0.2-0.5,0.2-1,0.8-1  c0.7,0,0.8,0.6,1,1.1c0.5,1.2,0.4,2.5,0,3.7c-0.5,1.7-0.9,3.4-1.5,5c-0.6,2-0.3,4.1-0.2,6.2c0,0.5,0.1,1.1,0.8,0.8  c0.7-0.3,1.9,0.3,1.9-0.9c-0.1-3.1,1.9-5.3,3.1-7.9c0.9-1.9,1.7-3.9,2-6c0.1-0.7,0.2-1.3-0.3-2C53,5.7,53,4.8,53.7,4.5  c0.7-0.3,1.4,0.2,1.8,1c0.9,2.1,0.8,4.3,0.6,6.4c-0.2,1.8-0.9,3.4-1.7,4.9c-0.8,1.4-0.9,3-1.4,4.5c-0.3,0.9,0.1,1.3,1.2,1.3  c2.8,0,2.7,0,4-2.4c2-4,2.8-8.2,2.9-12.6c0-0.5-0.2-1.2,0.6-1.3c0.7-0.1,1.1,0.4,1.3,1c1.2,3.8,1.5,7.5-0.6,11  c-0.7,1.1-1.2,2.3-1.7,3.6c-0.3,1,0,1.1,0.8,1.3c2,0.6,4.2,0.5,6.2,1.5c1.2,0.6,2.3,1.3,3.6,1.7c0.5,0.1,0.8,0.6,1.1,1.1  c1.1,1.7,2,3.3,1,5.6C72.5,35.1,72.7,37.4,72.5,40z M17.2,66.5L17.2,66.5c1.3,1.6,2.8,3.1,4.5,4.3c1.8,1.2,3.5,2.3,5.2,3.6  c1.6,1.2,3.3,2.4,5,3.6c0.2-2.3,0.1-2.3-1.4-3.6c-2-1.7-4.3-3-6.2-4.9c-2.7-2.7-5.9-4.9-8.9-7.3c-0.6-0.5-1-1.2-1.9-1.3  C13.5,63.7,14.7,65.5,17.2,66.5z M12.7,70.8c-0.5,1-0.6,1.9-0.5,2.8c0.5,4.2,3.3,7,6.3,9.4c4.4,3.5,9.5,5.7,15,7.4  c6.5,2,13.1,2.7,19.7,2.7c3.7,0,7.5-0.4,11.2-1.5c7.2-2.1,13.7-5.1,18.6-11.1c3.6-4.5,3.9-9.3,2.1-14.4c-0.3-0.8-0.1-1.7-0.6-2.5  c-1.8-3.4-4.5-6-7.8-8c-0.5-0.3-1.5-0.6-2.1,0.2c-1.1,1.6-2.4,3-3.6,4.5c-0.9,1.1-1.8,2.4-2.3,3.8c-0.8,2.5-1.3,5.1-1.7,7.7  c-0.1,0.4-0.3,0.7-0.7,0.8c-2.3,0.6-4.2,2.1-6.6,2.6c-5.2,1-10.4,0.7-15.6-0.1c-2-0.3-4.2-1-5-3.2c-2.1-6-3.8-12.2-5.3-18.4  c-0.2-0.8-0.2-1.7-0.9-2.2c-0.6-0.4-1.2,0.5-1.8,0.6c-0.2,0.1-0.4,0.1-0.6,0.1c-0.9,0.1-1.1,0.6-0.9,1.4c0.5,1.6,1.1,3.1,1.3,4.7  c0.3,2.5,0.7,4.9,1.4,7.3c1.8,5.9,1.9,12.1,2.5,18.2c0.1,1.4-0.4,1.7-1.8,1.2c-2.9-1.1-5.4-3-8-4.6C20.8,77.5,16.6,74.5,12.7,70.8z   M34,47c0.5,4.7,2.2,8.9,3,13.2c0,0.3,0.3,0.6,0.7,0.3c0.6-0.4,1.3-0.8,1.7-1.4c1.4-1.8,2.6-1.8,4.1,0c1.5,1.9,3.2,2,5,0.3  c0.4-0.4,0.7-0.8,1.1-1.1c1.8-1.6,2.8-1.4,4.1,0.5c0.7,1,1.5,1.3,2.5,0.6c0.5-0.3,0.9-0.7,1.4-1.1c0.9-0.7,2.1-1.6,3.1-1.4  c2,0.6,3.6-0.2,5.2-0.9c0.4-0.2,1.1-0.7,1.4-0.1c0.3,0.6-0.5,0.7-0.8,0.9c-0.3,0.2-0.6,0.4-0.3,0.7c0.2,0.2,0.3,0.8,0.6,0.5  c0.5-0.5,1.5-0.2,1.7-1.4c0.3-2.5,0.8-5,1.2-7.5c0.3-2,0.3-3.9,1-6.1c-1.2,0.4-3,0.6-2.9,1.2c0.1,1.5-1.3,1.9-1.7,2.1  c-1.6,0.9-3.4,1.1-5.2,0.3c1.1-1.3,3.1,0,4.2-1.6c-0.3,0-0.6,0-0.8,0c-0.3,0-0.7,0.5-0.8-0.2c-0.1-0.6,0.5-0.4,0.8-0.5  c0.4-0.1,0.9,0.2,1.1-0.3c-1.2-1.5-2.6-1.1-3.9-0.2c-2.1,1.4-4.3,2.1-6.6,0.5c-2.1-1.4-2.5-1.4-4.6,0.2c-0.4,0.3-0.8,0.6-1.2,0.8  c-2.1,1.3-4.2,1.1-6-0.5c-0.8-0.7-1.6-0.8-2.4-0.1c-0.5,0.4-1,0.9-1.5,1.2C37.4,47,36,48.4,34,47z M67.6,59.6c-1.5,0.8-3,1.7-4.8,1  c-0.3-0.1-0.8-0.2-0.9,0.4c-0.1,0.6-0.5,0.7-0.9,0.4c-0.3-0.3-0.2-0.7,0.1-1c0.8-0.5,0.7-1,0.1-1.7c-0.6-0.7-1.1-0.5-1.8-0.2  c-0.8,0.5-1.6,1-2.3,1.7c-1.6,1.4-3.2,1.3-4.5-0.4c-1.3-1.6-1.3-1.6-2.6-0.1c-2.6,2.8-5.2,2.9-7.6,0.2c-0.6-0.7-1.3-0.8-2-0.5  c-1.7,0.6-2.8,3.1-2.3,4.8c0.5,1.6,1.1,3.2,1.5,4.8c1,3.2,3.1,4.8,6.3,5c5.2,0.4,10.3,0.5,15.4-1.1c3.8-1.2,5.4-5.1,5.1-8.4  c-1.8,1-3.2,2.6-5.3,3.2c-0.7,0.2-1.4,0.6-1.9,1.1c-0.9,1.1-1.8,1.4-3.6,0.3c1.9,0.3,3-0.9,4.2-1.6c2.2-1.3,4.4-2.5,6.6-3.7  c0.4-0.2,0.7-0.4,0.8-0.9C67.4,61.8,67.9,60.8,67.6,59.6z M48.8,36.1c3.8-0.1,7.5-0.5,11.1-1.3c3.5-0.8,7.1-1.5,10.4-3.2  c0.7-0.4,1.3-0.8,1.3-1.7c0-0.8-0.5-1.3-1.2-1.7c-2.6-1.4-5.1-2.7-8.1-3.2c-2.5-0.4-2.5-0.6-2.5,2c0,0.1,0,0.2,0,0.3  c0,0.6,0.1,1.2-0.9,1.4c-0.9,0.2-1.3-0.2-1.5-0.9c-0.2-0.6-0.5-1.1-0.5-1.7c0.2-1.9-0.6-2.3-2.3-2c-0.3,0.1-0.6,0-1,0  c-0.7-0.1-1.1,0.2-1,1c0.2,1-0.3,2-0.3,3c-0.1,0.6-0.7,1-0.9,0.6c-0.7-1.1-2.6-1.3-2.4-3.1c0-0.4,0-1.2-1-1.2  c-1.8,0-3.1,1.5-2.7,3.3c0.2,0.8,0.5,1.6-0.3,1.9c-0.8,0.3-1.1-0.8-1.6-1.3c-0.1-0.1-0.1-0.3-0.1-0.4c-0.1-1.9-1.1-1.9-2.5-1.3  c-0.2,0.1-0.5,0-0.8,0.1c-2.9,1.1-5.9,2.3-7.9,4.9c-1,1.3-0.5,2.5,1.1,2.8C38.4,35.6,43.7,35.9,48.8,36.1z M31.8,35.6  c-0.1,2,0.6,3.7,0.7,5.5c0.1,2,1.1,3.6,2.7,4.9c0.5,0.4,0.8,0.4,1.4,0.1c1.2-0.7,2.4-1.6,3.5-2.4c1.1-0.8,3.2-0.6,3.9,0.5  c0.6,1,1.4,1,2.3,0.8c1.3-0.2,2.4-1,3.4-1.7c2.3-1.6,3.4-1.7,5.7-0.1c1.3,0.9,2.5,1.4,4,0.4c0.7-0.5,1.4-1,2.1-1.4  c0.9-0.6,2.1-1.1,3-0.5c1.8,1.2,3.3,0.5,5.1,0.1c1.9-0.5,1.5-1.7,1.5-2.8c0-0.5,0.2-1.1-0.3-1.5c-0.8-0.5-0.8-0.5,0.2-1.1  c0.4-0.2,0.3-0.5,0.3-0.8c0-0.4-0.2-0.3-0.5-0.3c-2.4,0.4-4.6,1.6-7,2c-1.1,0.2-2.1,0.2-3-0.8c-0.2-0.3-0.5-0.2-0.7-0.1  c-0.4,0.2-0.9,0.2-1.4,0.3c-4.8,0.6-9.7,0.8-14.6,0.7C39.8,37.4,35.8,36.6,31.8,35.6z M20.4,63.8c4,3.3,7.2,7.2,11.9,9.4  c-0.3-3.3-0.9-6.4-1.7-9.5c-0.9-3.8-1.9-7.6-2.8-11.4c-0.1-0.4-0.4-0.7-0.8-0.6c-0.8,0.3-1.6,0.3-2.4,0.3c-0.6,0-0.7,0.5-0.7,0.9  c0,0.4-0.2,0.9,0.2,1.2c0.4,0.3,0.6-0.3,0.9-0.5c1.1-0.7,1.7-0.2,1.8,0.9c0.1,1.3,0.5,2.6,0.7,3.9c0.3,1.8-1.7,4.6-3.4,4.8  C23,63.6,21.9,63.7,20.4,63.8z M14.4,67c-0.4,2.4,0.2,4.2,2.4,5.3c0.2,0.1,0.4,0.3,0.6,0.5c4.3,3.9,9.2,7.1,14.3,9.9  c1.1,0.6,1.4,0.4,1.3-0.8c0-0.6-0.2-1.2-0.7-1.5c-1.8-1.3-3.6-2.5-5.3-3.8c-0.8-0.7-1,0.6-1.6,0.3c-1.2-0.4,0.7-1.2-0.2-1.6  c-0.9-0.4-1.3-1.8-2.7-0.9c-0.4,0.3-0.7-0.3-0.8-0.7c-0.1-1.8-1.7-1.9-2.7-2.9c-0.3,0.7,0.5,1.2-0.1,1.7c-1-0.5-1.6-1.1-1.3-2.3  c0.1-0.3,0.1-0.4-0.2-0.6C16.5,68.7,15.5,67.8,14.4,67z M70.3,55.4c3.4-3.4,6.3-6.9,8.9-10.6c0.6-0.9,1.1-1.8,1.2-2.9  c0-0.5,0-0.9-0.5-1.3c-0.5-0.4-0.9-0.1-1.3,0.2c-0.7,0.6-1.4,1.3-2.2,1.9c-1.5,1.2-2.6,2.9-4.1,4c-1.1,0.7-1.3,1.6-1.3,2.5  C70.9,51.2,70.6,53.2,70.3,55.4z M71.9,44.8c0.7-0.1,0.8-0.7,1.1-1.1c1.3-1.7,2.8-3.2,4.6-4.4c1.1-0.8,2.3-0.7,3.5-0.3  c1,0.3,1.1,1.3,1,2.2c-0.3,2.3-1.2,4.5-2.5,6.4c-2.3,3.2-5.3,5.8-7.8,8.8c-0.8,0.9-1.6,1.8-2.2,2.9c-0.2,0.4-0.4,0.9,0,1.2  c0.4,0.3,0.7-0.2,0.9-0.4c0.8-0.7,1.3-1.7,1.9-2.5c1.1-1.7,2.4-3.2,3.9-4.6c1.2-1.1,2.4-2.1,3.5-3.2c1.2-1.3,1.4-3.1,2.4-4.2  c1.7-1.9,1.5-4.1,1.5-6.3c0-2.3-2-3.3-3.9-2.2c-2.2,1.3-4.4,2.7-6,4.6C72.9,42.5,71.7,43.3,71.9,44.8z M46.4,10.1  c-1,2.5-3.2,4.3-3.8,7c-0.7,2.9,1,5.2,1.5,7.8c1-2.5-0.4-5.1,0.2-7.6C44.9,15,45.9,12.6,46.4,10.1z M25.3,50.5  c-0.9-0.3-1.5-0.1-2-0.4c-1.7-1-3.5-0.4-4.8,0.3c-1.9,1.1-3.4,2.8-5,4.3c-0.4,0.3-1,1-0.4,1.5c0.4,0.3,1-0.3,1.3-0.6  c1.3-1.9,3.1-2.8,5.2-3.6C21.2,51.1,23,50.7,25.3,50.5z M16.9,61.1c0.3-1,0.6-1.9,0.4-3c-0.2-1.1-0.2-2.3,1.1-2.9  c0.4-0.2,0.9-0.5,0.6-0.9c-0.3-0.4-0.9-0.4-1.3,0c-1.3,1.3-2.9,2.4-3.7,4c-0.3,0.7,1.7,1.7,2.6,2.7C16.6,61.1,16.7,61.1,16.9,61.1z   M54.7,12.2c-0.1-0.1-0.3-0.1-0.4-0.2c-1.2,2.5-2.5,4.9-3.6,7.4c-1,2.2-0.8,4.5,0.3,6.7C50.8,21.1,52.9,16.7,54.7,12.2z M20.7,62.1  c2.2,0.2,3.7-0.2,4.6-1.9c0.2-0.4,0.5-0.9,0.1-1.3c-0.4-0.4-0.8,0-1.1,0.3c-1.4,0.9-3,1.3-4.6,1.1c-0.6-0.1-1,0-1.1,0.6  c-0.1,0.7,0.3,1.1,0.8,1.2C20,62.2,20.6,62.1,20.7,62.1z M58.2,26.3c0.6-2.8,1.4-5.5,2.7-8c1-2,2.1-4.3,1.1-6.7  c0.1,2.8-0.8,5.4-2.2,7.8c-1,1.7-1.5,3.6-2,5.5C57.7,25.3,57.7,25.8,58.2,26.3z M71.5,33.2c-2.9,1.2-6.1,1.8-9,3.2  C65.8,36.4,68.8,35.1,71.5,33.2z M24.7,56.1c-0.8,0.3-1.6,0.7-2.4,0.8c-0.9,0.2-1.8,0.2-2.7,0.4c-0.3,0.1-0.9-0.6-1,0.2  c-0.1,0.6,0.5,0.8,0.9,1C21.1,59.1,23.9,57.9,24.7,56.1z M20.7,54.3c0,0.5-0.2,1,0.5,1.1c0.6,0,1-0.4,1.1-0.9  c0.1-0.6-0.3-1.1-0.8-1.2C20.9,53.1,20.8,53.8,20.7,54.3z"/><path d="M66.6,88.5c-1.6,0-3.1-0.3-4.7,0c-1.9,0.3-3.3-1.1-4.9-1.7c-0.3-0.1-0.6-0.5-0.8-0.4c-2.7,0.4-4.4-0.8-5.4-3.2  c-0.1-0.2-0.1-0.4-0.4-0.3c-1.3,0.4-1.8-0.6-2.1-1.5c-0.3-1-0.5-2,0.4-3c0.8-0.9,1.4-1.8,2.7-2c0.3,0,0.5-0.2,0.7,0  c1.3,1.1,3,0.5,4.4,0.8c2.8,0.8,5.4-0.7,8.1-0.3c0.7,0.1,0.9-0.5,1.4-0.7c2.1-0.9,3.8-2.2,5.2-4c0.4-0.5,0.7-0.9,0.9-1.5  c0.3-1.5,1.1-2.6,2.5-3.3c0.7-0.3,0.8-0.9,1-1.6c0.3-1.1,0.9-2.1,2.3-2.1c1.2,0.1,2.3,1.3,2.2,2.7c-0.1,1.4,0,2.7,0.4,4.1  c0.3,1.1-0.4,2.5-1,3.6C79,75,78.9,75.7,79,76.5c0.2,1.9-0.6,3.3-2,4.5c-0.8,0.7-1.5,1.5-1.9,2.5C73.5,87.1,70.4,88.5,66.6,88.5z   M66.8,87.2c2.1,0.2,4-0.8,5.6-2.3c0.8-0.8,1.4-1.7,1.2-2.9c-0.4-2-1.6-3.8-2.6-5.6c-0.3-0.6-0.7-1-1.4-0.4  c-1.1,0.8-2.2,1.6-3.5,2.3c-0.5,0.3-0.7,0.9-0.7,1.5c0.2,1.9-0.4,3.7-0.5,5.5C64.8,87.2,64.7,87.2,66.8,87.2z M63.8,80.8  c-0.1-2.3-0.3-2.5-2.1-2.1c-0.5,0.1-1.1,0.1-1.6,0.3c-0.6,0.2-1.3,0.2-1.5,1c-0.3,1.3-0.7,2.6-1.1,4c-0.2,0.7-0.2,1.5,0.5,1.9  c1,0.6,2.1,1.2,3.4,1.2c1,0,1.6-0.3,1.7-1.4C63.4,83.8,63.7,82.1,63.8,80.8z M77.3,77.2c0-2.4-2.8-4.9-4.4-4.5  c-0.8,0.2-1.5,1-1.1,1.5c1.4,1.8,1.8,4,3.1,5.9c0.3,0.5,0.6,0.5,0.9,0C76.4,79,77.3,77.9,77.3,77.2z M57.3,79.3  c0-0.4-0.1-0.7-0.6-0.7c-0.8,0-1.7,0-2.1,0.8c-0.5,1-1.1,1.8-1.9,2.5c-0.6,0.4-0.6,1.1-0.4,1.7c0.4,1,1.5,1.1,2.4,1.3  c0.5,0.1,1.1-0.1,1.3-0.7C56.4,82.5,56.9,80.9,57.3,79.3z M75.9,68.9c-1.2-0.2-1.9,0.6-2.1,1.6c-0.3,1.1,0.9,1,1.4,1.3  c0.6,0.3,1.4,0.5,2,1c0.6,0.5,0.9,0.3,1.2-0.4C79.2,70.5,78.2,69,75.9,68.9z M53.1,79.3c-1.3,0.2-0.6-1.5-1.7-1.4  c-1.2,0.1-1.8,1.2-1.9,2.2c-0.1,0.4,0,1.4,1,1.2C51.5,81.2,52.4,80.7,53.1,79.3z M78.6,66.3c-0.2-0.4-0.5-0.9-1-0.8  c-0.6,0.1-0.6,0.6-0.6,1.1c0,0.5,0.2,0.8,0.8,0.7C78.3,67.2,78.4,66.8,78.6,66.3z"/><path d="M66.6,48.3c-1-0.1-1.6,0.8-2.5,0.9c1.1,0.3,2.1,0.2,2.9-0.7c0.3-0.4,0.9-0.5,1.2,0c0.4,0.6-0.1,0.9-0.5,1.1  c-1,0.4-1.8,1.1-3.2,0.6c-0.7-0.3-1.9,0.4-2.8,0.7c-0.4,0.1-0.8,0.2-1.3,0c0.4-1.2,1.7-0.6,2.4-1.1c0.2-0.2,0.9,0.1,0.7-0.5  c-0.1-0.5-0.5-0.5-1-0.3c-0.7,0.3-1.4,0.6-2.1,0.5c-0.3,0-0.5-0.2-0.5-0.5c0-0.1,0.3-0.3,0.5-0.3c0.9-0.2,1.9-0.4,2.8-0.6  c0.2,0,0.6,0,0.6,0c0.1,1.4,0.6,0.4,1,0.2C65.3,47.7,65.9,47.1,66.6,48.3z"/><path d="M64.7,53.2c0.3,0.7,1.6-0.1,1.4,0.9c-0.2,0.7-1.1,0.7-1.8,0.7c-0.7,0-1.5-0.6-1.6-0.9c-0.2-0.7,0.7-0.8,1.2-1  c1.6-0.4,2.9-1.5,4.9-1.3C67.6,52.9,65.8,52.2,64.7,53.2z"/><path d="M64.9,50.9c-1.1,1.5-2.4,2-3.9,1.6C62,51.3,63.7,51.8,64.9,50.9z"/><path d="M61.4,69.9c1.1-1.1,2.9-0.3,3.9-1.6c0.3,0.5,0.1,0.9-0.2,1.1c-1.7,1-3.1,2.7-5.3,2.7c-0.8,0-1.4,0.8-2.2,0.8  c-0.2,0-0.5,0.3-0.6-0.1c-0.1-0.2-0.1-0.5,0-0.8c0.1-0.4,0.6-0.3,0.8-0.2c0.7,0.1,4.2-0.9,4.4-1.4C62.5,69.4,61.5,70.4,61.4,69.9z"/><path d="M66.1,61.9c-0.2,0.6-0.7,0.7-1.1,0.8c-1.9,0.4-3.6,1.1-5,2.5c-0.4,0.3-0.9,0.3-1.1,0c-0.3-0.5,0.1-0.7,0.5-0.9  c1.9-0.9,3.7-2,5.7-2.7C65.4,61.5,65.9,61.3,66.1,61.9z"/><path d="M68.3,38c-0.2,0.9-0.9,0.5-1.1,1c0.4,0.3,0.8,0.2,1.2,0.2c0.4-0.1,0.8-0.3,0.9,0.2c0.2,0.6-0.4,0.7-0.8,0.7  c-2.2,0.4-4.4,0.7-6.7,1.1c0.2-1.1,0.9-1.2,1.6-1.3c0.7-0.1,1.5,0.5,2.4-0.3c-1.3-0.4-2.4-0.3-3.5,0c-0.3,0.1-0.7,0.2-0.7-0.3  c0-0.4,0.3-0.6,0.6-0.5C64.3,39.4,66.2,38.5,68.3,38z"/><path d="M17.2,66.5c0.3-0.4-0.2-1.1,0.4-1.4c0.3-0.1,0.7-0.1,0.9,0.2c0.3,0.5,1.1,0.9,0.5,1.6C18.2,67.8,17.7,66.9,17.2,66.5  C17.2,66.5,17.2,66.5,17.2,66.5z"/><text x="0" y="115" fill="#000000" font-size="5px" font-weight="bold" font-family="'Helvetica Neue', Helvetica, Arial-Unicode, Arial, Sans-serif">Created by Olga</text><text x="0" y="120" fill="#000000" font-size="5px" font-weight="bold" font-family="'Helvetica Neue', Helvetica, Arial-Unicode, Arial, Sans-serif">from the Noun Project</text></svg>